<svg xmlns="http://www.w3.org/2000/svg" xmlns:xlink="http://www.w3.org/1999/xlink" width="142.996" height="110.213" viewBox="0 0 142.996 110.213">
  <defs>
    <clipPath id="clip-path">
      <rect id="Rect치ngulo_407701" data-name="Rect치ngulo 407701" width="87.352" height="80.831" fill="#534edd"/>
    </clipPath>
  </defs>
  <g id="Grupo_1110698" data-name="Grupo 1110698" transform="translate(-315.711 -905)">
    <g id="Rect치ngulo_403454" data-name="Rect치ngulo 403454" transform="translate(458.707 905) rotate(90)" fill="#fff" stroke="#66bb2c" stroke-linecap="round" stroke-width="3" stroke-dasharray="6">
      <rect width="110.213" height="142.996" rx="28" stroke="none"/>
      <rect x="1.5" y="1.5" width="107.213" height="139.996" rx="26.5" fill="none"/>
    </g>
    <g id="Grupo_1110618" data-name="Grupo 1110618" transform="translate(343.711 917.633)">
      <g id="Grupo_1110617" data-name="Grupo 1110617" transform="translate(0 0)" clip-path="url(#clip-path)">
        <path id="Trazado_887922" data-name="Trazado 887922" d="M1.776,62.009C2.8,60.9,5.292,60.182,8.132,60.182s5.334.718,6.354,1.827h0a5.844,5.844,0,0,0,1.541,1.146,1.017,1.017,0,0,0,.271.135A13.986,13.986,0,0,0,22.35,64.5h.065c.011,0,.021,0,.032,0,3.445-.018,6.346-.941,7.765-2.485,1.022-1.109,3.515-1.827,6.356-1.827s5.332.718,6.354,1.827C44.356,63.569,47.3,64.5,50.784,64.5s6.429-.929,7.862-2.489h0C59.669,60.9,62.163,60.182,65,60.182s5.334.718,6.355,1.827h0c1.433,1.559,4.372,2.489,7.862,2.489s6.427-.929,7.862-2.489a1.024,1.024,0,0,0-1.508-1.385c-1.02,1.109-3.514,1.827-6.354,1.827s-5.334-.718-6.356-1.827v0a5.482,5.482,0,0,0-1.111-.89V21.575a1.023,1.023,0,0,0-1.024-1.024H64.936a1.023,1.023,0,0,0-1.023,1.024V25H52.555A14.083,14.083,0,1,0,34.8,25H23.438V21.575a1.023,1.023,0,0,0-1.024-1.024H16.622A1.024,1.024,0,0,0,15.6,21.575V60.262c-1.535-1.335-4.262-2.127-7.467-2.127-3.49,0-6.429.931-7.862,2.489a1.023,1.023,0,1,0,1.506,1.385m26.93-1.387v0c-.888.966-2.893,1.633-5.268,1.79V38.633H35a8.627,8.627,0,0,0,.777,3.541,1.025,1.025,0,0,0,.931.6h1.65L34.485,58.261a9.393,9.393,0,0,0-5.779,2.361M37.194,37.19c.032-.147.071-.292.112-.436.016-.056.029-.114.046-.169a6.622,6.622,0,0,1,.822-1.7c.014-.019.029-.038.042-.056.1-.149.211-.3.326-.436.032-.039.067-.076.1-.114.1-.116.2-.23.308-.339.047-.048.1-.094.145-.14.1-.094.2-.185.3-.273.06-.051.123-.1.185-.149q.144-.114.294-.22c.073-.051.147-.1.221-.147q.143-.093.292-.177c.082-.047.166-.094.251-.138s.195-.1.294-.142.18-.082.272-.119.2-.077.307-.112.186-.066.281-.094c.11-.033.223-.06.335-.086.091-.022.182-.047.274-.065.131-.025.264-.043.4-.06.077-.01.153-.025.231-.032.213-.021.429-.033.647-.033s.435.012.649.033c.076.008.151.021.226.032.135.018.27.036.4.062.09.018.178.042.267.062.116.028.231.055.344.089.091.027.181.059.27.09.108.038.215.075.32.118.087.035.172.073.257.112.106.048.21.1.312.151.079.04.155.083.231.127.107.061.213.125.316.192.066.043.131.086.2.131q.166.117.324.243c.053.042.1.082.155.125.116.1.229.2.338.308.036.034.073.068.107.1.125.126.244.258.358.394l.051.058A6.608,6.608,0,0,1,50,36.6c0,.01.005.021.008.031q.087.283.149.575c.011.053.018.108.028.162a6.575,6.575,0,0,1-.24,3.354H37.4a6.49,6.49,0,0,1-.254-3.277c.015-.086.027-.174.045-.259m7.233,23.434v0c-1.427-1.548-4.339-2.474-7.8-2.485l3.847-15.364h6.405L51.8,62.419c-.331.02-.668.032-1.012.032-2.841,0-5.334-.716-6.356-1.827m12.713,0,0,0a6.352,6.352,0,0,1-3.3,1.526L48.99,42.773h1.65a1.024,1.024,0,0,0,.931-.6,8.605,8.605,0,0,0,.776-3.541H63.913V58.172c-3,.173-5.49,1.059-6.772,2.449M65.96,22.6H69.7V58.8a15.062,15.062,0,0,0-3.745-.629V22.6ZM31.639,14.081A12.035,12.035,0,1,1,48.427,25.136c-.171.074-.347.134-.521.2-.2.077-.4.159-.613.225-.17.054-.344.092-.516.138-.22.058-.436.123-.66.17-.181.037-.365.057-.548.086-.218.035-.434.078-.656.1a12.063,12.063,0,0,1-2.475,0c-.221-.023-.436-.066-.653-.1-.184-.029-.37-.049-.551-.086-.221-.046-.436-.11-.653-.168-.174-.047-.351-.085-.523-.14-.2-.065-.4-.146-.6-.221-.177-.067-.357-.128-.533-.2a12.051,12.051,0,0,1-7.283-11.053m6.535,12.968c.03.013.062.021.092.034q.56.234,1.143.42l.2.06c.392.119.792.222,1.2.307l.151.029c.422.083.851.149,1.285.194l.064,0c.452.044.91.068,1.373.068s.922-.024,1.374-.068l.063,0c.436-.045.865-.111,1.288-.194.048-.01.1-.018.144-.028.41-.085.813-.189,1.209-.309l.182-.056q.586-.187,1.15-.422c.031-.012.062-.021.093-.034H63.913v9.537H52.121c-.032-.135-.074-.266-.112-.4-.023-.079-.042-.16-.067-.238a8.552,8.552,0,0,0-.63-1.484c-.019-.036-.042-.071-.062-.107-.11-.2-.225-.387-.349-.572-.038-.057-.078-.112-.118-.168-.112-.16-.228-.317-.351-.469-.049-.062-.1-.122-.152-.183q-.18-.21-.373-.41c-.058-.06-.116-.12-.175-.179-.132-.129-.27-.253-.41-.373-.06-.053-.119-.107-.182-.157-.168-.136-.342-.266-.52-.389-.038-.027-.074-.056-.112-.082q-.319-.213-.656-.4c-.086-.047-.177-.088-.264-.133-.144-.073-.288-.145-.437-.211-.105-.046-.212-.087-.32-.129-.139-.055-.279-.107-.421-.155-.112-.037-.223-.071-.336-.1-.147-.043-.3-.081-.447-.116-.11-.025-.219-.051-.33-.072-.17-.032-.342-.057-.516-.079-.095-.012-.188-.028-.284-.037-.27-.026-.542-.042-.817-.042H43.67c-.275,0-.547.016-.817.042-.1.009-.19.025-.284.037-.173.022-.345.046-.516.079-.111.021-.22.047-.33.072-.151.035-.3.073-.447.116q-.17.049-.336.1c-.142.047-.282.1-.421.155-.107.042-.214.082-.32.129-.149.066-.294.138-.438.212-.088.044-.177.085-.262.132-.225.124-.445.257-.657.4-.036.024-.069.052-.105.077-.181.126-.357.257-.528.4-.06.049-.116.1-.175.151-.143.123-.284.249-.419.381-.056.056-.112.114-.168.171q-.2.2-.383.42c-.048.057-.1.114-.142.171-.128.158-.249.321-.365.488-.034.049-.07.1-.1.147q-.2.3-.373.614c-.012.021-.026.042-.038.064a8.619,8.619,0,0,0-.64,1.509c-.016.052-.029.106-.044.158-.045.153-.094.305-.13.462H23.438V27.049ZM21.391,22.6V62.421a12.194,12.194,0,0,1-3.746-.758V22.6Z" transform="translate(0 0)" fill="#534edd" fill-rule="evenodd"/>
        <path id="Trazado_887923" data-name="Trazado 887923" d="M1.776,105.967c1.022-1.111,3.516-1.827,6.356-1.827s5.334.716,6.354,1.827h0c1.433,1.557,4.372,2.489,7.862,2.489s6.429-.931,7.862-2.489c1.022-1.111,3.515-1.827,6.355-1.827s5.333.716,6.354,1.827c1.435,1.557,4.374,2.489,7.862,2.489s6.429-.931,7.862-2.489l0,0c1.022-1.109,3.515-1.825,6.354-1.825s5.334.716,6.354,1.825l0,0c1.433,1.557,4.372,2.489,7.862,2.489s6.427-.931,7.862-2.489a1.024,1.024,0,0,0-1.508-1.387c-1.02,1.111-3.514,1.827-6.354,1.827s-5.334-.716-6.356-1.827l0,0c-1.434-1.555-4.372-2.485-7.86-2.485s-6.426.928-7.861,2.485v0c-1.022,1.111-3.516,1.827-6.356,1.827s-5.334-.716-6.356-1.827v0c-1.435-1.555-4.372-2.485-7.861-2.485s-6.428.929-7.861,2.487c-1.022,1.111-3.515,1.827-6.355,1.827s-5.334-.716-6.356-1.827l0,0c-1.433-1.556-4.372-2.485-7.86-2.485S1.7,103.022.27,104.58a1.024,1.024,0,1,0,1.506,1.387" transform="translate(0 -35.79)" fill="#534edd" fill-rule="evenodd"/>
        <path id="Trazado_887924" data-name="Trazado 887924" d="M87.022,117.1a1.023,1.023,0,0,0-1.447.06c-1.022,1.111-3.515,1.827-6.355,1.827s-5.333-.716-6.354-1.827h0c-1.433-1.557-4.372-2.489-7.862-2.489s-6.429.931-7.862,2.489c-1.022,1.111-3.515,1.827-6.354,1.827s-5.334-.716-6.355-1.825v0c-1.433-1.559-4.372-2.489-7.862-2.489s-6.426.929-7.861,2.485v0c-1.022,1.111-3.516,1.827-6.356,1.827s-5.333-.716-6.354-1.825l0,0c-1.433-1.557-4.372-2.489-7.862-2.489S1.7,115.6.27,117.156a1.024,1.024,0,0,0,1.508,1.387c1.02-1.111,3.515-1.827,6.354-1.827s5.334.716,6.356,1.827v0c1.435,1.555,4.372,2.485,7.861,2.485s6.426-.928,7.859-2.485l0,0c1.02-1.111,3.515-1.827,6.356-1.827s5.334.716,6.354,1.827l0,0c1.433,1.557,4.372,2.485,7.859,2.485s6.427-.93,7.862-2.487c1.022-1.111,3.515-1.828,6.355-1.828s5.334.718,6.356,1.828v0c1.433,1.555,4.372,2.485,7.861,2.485s6.427-.93,7.862-2.487a1.022,1.022,0,0,0-.06-1.446" transform="translate(0 -40.198)" fill="#534edd" fill-rule="evenodd"/>
        <path id="Trazado_887925" data-name="Trazado 887925" d="M58.469,18.889h3.7v6.363a1.024,1.024,0,0,0,.762.99,1.059,1.059,0,0,0,.261.034,1.028,1.028,0,0,0,.89-.518l5.967-10.494a1.024,1.024,0,0,0-.89-1.53H65.777V7.343a1.025,1.025,0,0,0-1.9-.525L57.591,17.342a1.021,1.021,0,0,0,.878,1.547m5.259-7.835v3.7a1.024,1.024,0,0,0,1.024,1.024H67.4l-3.183,5.6V17.866a1.025,1.025,0,0,0-1.024-1.024H60.273Z" transform="translate(-20.138 -2.215)" fill="#534edd" fill-rule="evenodd"/>
      </g>
    </g>
  </g>
</svg>
