<svg xmlns="http://www.w3.org/2000/svg" xmlns:xlink="http://www.w3.org/1999/xlink" width="142.996" height="110.213" viewBox="0 0 142.996 110.213">
  <defs>
    <clipPath id="clip-path">
      <rect id="Rect치ngulo_407702" data-name="Rect치ngulo 407702" width="49.55" height="80.831" fill="#534edd"/>
    </clipPath>
  </defs>
  <g id="Grupo_1110699" data-name="Grupo 1110699" transform="translate(-728.711 -905)">
    <g id="Rect치ngulo_403454" data-name="Rect치ngulo 403454" transform="translate(871.707 905) rotate(90)" fill="#fff" stroke="#66bb2c" stroke-linecap="round" stroke-width="3" stroke-dasharray="6">
      <rect width="110.213" height="142.996" rx="28" stroke="none"/>
      <rect x="1.5" y="1.5" width="107.213" height="139.996" rx="26.5" fill="none"/>
    </g>
    <g id="Grupo_1110620" data-name="Grupo 1110620" transform="translate(775.711 917.633)">
      <g id="Grupo_1110619" data-name="Grupo 1110619" clip-path="url(#clip-path)">
        <path id="Trazado_887926" data-name="Trazado 887926" d="M23.319,7.55C21.695,9.078,20.363,10.1,19.4,12.112a6.262,6.262,0,0,0-4.545-2.94l-.006,0A7.736,7.736,0,1,0,7.732,19.955a7.648,7.648,0,0,0,1.978-.261,6.146,6.146,0,0,0,2.439,1.522.925.925,0,1,0,.581-1.757,4.358,4.358,0,0,1-2.009-1.407.924.924,0,0,0-1.03-.29,5.868,5.868,0,0,1-7.84-5.539A5.881,5.881,0,0,1,12.742,9.13a3.445,3.445,0,0,0-1.156.265,3.014,3.014,0,0,0-1.6,3.221.925.925,0,1,0,1.838-.215,1.245,1.245,0,0,1,.524-1.318c1.457-.654,6.11.109,6.11,4.312a11.319,11.319,0,0,0,.772,5.293.926.926,0,0,0,1.714-.7,9.111,9.111,0,0,1-.622-4.48c.382-3.34,2.192-4.658,4.268-6.607,1.827-1.717,3.775-4.3,3-6.674a8.967,8.967,0,0,1,4.317,5.39c.206.782.551,2.092,1.782,2.395A2.083,2.083,0,0,0,35.809,9.2q1.15,2.1,2.3,4.2a12.571,12.571,0,0,1,1.678,4.185,5.99,5.99,0,0,1-.2,2.487.926.926,0,0,0,1.777.518,7.823,7.823,0,0,0,.257-3.251,14.181,14.181,0,0,0-1.889-4.826q-1.739-3.175-3.479-6.361a.926.926,0,0,0-1.736.5,2.971,2.971,0,0,1-.091,1.275.493.493,0,0,1-.289.279c-.171-.042-.376-.817-.444-1.074a10.6,10.6,0,0,0-4.272-5.931l-.063-.043C28.107.306,27.106-.205,26.285.08a1.289,1.289,0,0,0-.818.868c-.206.686.354,1.665.407,2.006C26.006,4.763,24.622,6.326,23.319,7.55Z" transform="translate(0 0)" fill="#534edd"/>
        <path id="Trazado_887927" data-name="Trazado 887927" d="M14.738,60.828a.925.925,0,0,0-.926.925v40.131a3.737,3.737,0,0,0,1.027,7.332H50.991a3.737,3.737,0,0,0,1.028-7.331V61.753a.926.926,0,0,0-1.851,0v2.269h-34.5V61.753A.924.924,0,0,0,14.738,60.828Zm38.141,44.649a1.89,1.89,0,0,1-1.888,1.888H14.839a1.888,1.888,0,0,1,0-3.776H50.991a1.89,1.89,0,0,1,1.888,1.888m-37.214-39.6h34.5V94.838h-34.5Zm34.5,35.864h-34.5V96.689h34.5Z" transform="translate(-5.18 -28.385)" fill="#534edd"/>
        <path id="Trazado_887928" data-name="Trazado 887928" d="M50.991,43.33H14.839a3.739,3.739,0,1,0,0,7.478H50.991a3.739,3.739,0,0,0,0-7.478m0,5.627H14.839a1.888,1.888,0,0,1,0-3.776H50.991a1.888,1.888,0,0,1,0,3.776" transform="translate(-5.18 -20.22)" fill="#534edd"/>
        <path id="Trazado_887929" data-name="Trazado 887929" d="M43.26,75.179c-.87.99-8.5,9.806-8.5,14.586a9.2,9.2,0,1,0,18.392,0c0-4.78-7.631-13.6-8.5-14.586a.956.956,0,0,0-1.39,0m.695,21.93a7.353,7.353,0,0,1-7.345-7.345c0-3.143,4.792-9.507,7.345-12.552,2.554,3.045,7.345,9.409,7.345,12.552A7.353,7.353,0,0,1,43.955,97.109Z" transform="translate(-16.22 -34.942)" fill="#534edd"/>
        <path id="Trazado_887930" data-name="Trazado 887930" d="M50.266,104.259a.926.926,0,0,0,.925.926,5.565,5.565,0,0,0,5.559-5.559.926.926,0,0,0-1.851,0,3.711,3.711,0,0,1-3.707,3.707.925.925,0,0,0-.925.925" transform="translate(-23.456 -46.058)" fill="#534edd"/>
      </g>
    </g>
  </g>
</svg>
