<svg xmlns="http://www.w3.org/2000/svg" xmlns:xlink="http://www.w3.org/1999/xlink" width="267.279" height="202.735" viewBox="0 0 267.279 202.735">
  <defs>
    <clipPath id="clip-path">
      <rect id="Rectángulo_407713" data-name="Rectángulo 407713" width="267.279" height="202.735" fill="none"/>
    </clipPath>
    <clipPath id="clip-path-3">
      <rect id="Rectángulo_407704" data-name="Rectángulo 407704" width="8.215" height="3.119" fill="none"/>
    </clipPath>
    <clipPath id="clip-path-4">
      <rect id="Rectángulo_407705" data-name="Rectángulo 407705" width="8.214" height="3.119" fill="none"/>
    </clipPath>
    <clipPath id="clip-path-5">
      <rect id="Rectángulo_407706" data-name="Rectángulo 407706" width="14.923" height="14.232" fill="none"/>
    </clipPath>
    <clipPath id="clip-path-6">
      <rect id="Rectángulo_407707" data-name="Rectángulo 407707" width="13.449" height="15.852" fill="none"/>
    </clipPath>
    <clipPath id="clip-path-7">
      <rect id="Rectángulo_407708" data-name="Rectángulo 407708" width="7.88" height="6.782" fill="none"/>
    </clipPath>
    <clipPath id="clip-path-8">
      <rect id="Rectángulo_407709" data-name="Rectángulo 407709" width="75.411" height="75.41" fill="none"/>
    </clipPath>
    <clipPath id="clip-path-9">
      <rect id="Rectángulo_407710" data-name="Rectángulo 407710" width="68.754" height="68.754" fill="none"/>
    </clipPath>
    <clipPath id="clip-path-10">
      <rect id="Rectángulo_407711" data-name="Rectángulo 407711" width="62.717" height="62.716" fill="none"/>
    </clipPath>
  </defs>
  <g id="Grupo_1110697" data-name="Grupo 1110697" transform="translate(-227.721 -1610.83)">
    <g id="Grupo_1110650" data-name="Grupo 1110650" transform="translate(227.721 1610.83)">
      <g id="Grupo_1110649" data-name="Grupo 1110649" clip-path="url(#clip-path)">
        <g id="Grupo_1110648" data-name="Grupo 1110648">
          <g id="Grupo_1110647" data-name="Grupo 1110647" clip-path="url(#clip-path)">
            <path id="Trazado_887958" data-name="Trazado 887958" d="M158.9,215.213l-5.091,3.493-2.961-1.3s-.074-1.048-.133-4.674c-.03-2.739-.074-2.736-.074-2.885,0-.369,7.608.075,7.963.193.147.045.222-.728.251,1.285.074,2.99.045,3.623.045,3.89" transform="translate(-13.608 -18.943)" fill="#fabb9c"/>
            <g id="Grupo_1110625" data-name="Grupo 1110625" transform="translate(137.034 190.758)" opacity="0.5">
              <g id="Grupo_1110624" data-name="Grupo 1110624">
                <g id="Grupo_1110623" data-name="Grupo 1110623" clip-path="url(#clip-path-3)">
                  <path id="Trazado_887959" data-name="Trazado 887959" d="M158.857,211.323a15.475,15.475,0,0,1-7.327,1.48,7.479,7.479,0,0,1-.814-.074c-.03-2.739-.075-2.736-.075-2.885,0-.369,7.608.075,7.963.193.148.045.223-.728.253,1.285" transform="translate(-150.642 -209.701)" fill="#f2967d"/>
                </g>
              </g>
            </g>
            <path id="Trazado_887960" data-name="Trazado 887960" d="M160.021,221.085a.931.931,0,0,1-.939.782h-22.93a.966.966,0,0,1-.9-.616c-.342-.93-.8-2.651.264-3.385,1.487-1.017,4.638-.078,6.809-1.614s4.754-6.721,7.865-3.189c0,0,2.5,3.834,4.206,3.023s2.974-5.009,5.018-3.4c1.027.811.94,6.427.607,8.4" transform="translate(-12.182 -19.138)" fill="#2c3237"/>
            <path id="Trazado_887961" data-name="Trazado 887961" d="M140.431,215.213l-5.091,3.493-2.961-1.3s-.074-1.048-.133-4.674c-.03-2.739-.074-2.736-.074-2.885,0-.369,7.608.075,7.963.193.147.045.222-.728.251,1.285.074,2.99.045,3.623.045,3.89" transform="translate(-11.939 -18.943)" fill="#fabb9c"/>
            <g id="Grupo_1110628" data-name="Grupo 1110628" transform="translate(120.233 190.758)" opacity="0.5">
              <g id="Grupo_1110627" data-name="Grupo 1110627">
                <g id="Grupo_1110626" data-name="Grupo 1110626" clip-path="url(#clip-path-4)">
                  <path id="Trazado_887962" data-name="Trazado 887962" d="M140.386,211.323a15.469,15.469,0,0,1-7.326,1.48,7.456,7.456,0,0,1-.814-.074c-.03-2.739-.075-2.736-.075-2.885,0-.369,7.608.075,7.963.193.148.045.223-.728.252,1.285" transform="translate(-132.172 -209.701)" fill="#f2967d"/>
                </g>
              </g>
            </g>
            <path id="Trazado_887963" data-name="Trazado 887963" d="M141.551,221.085a.931.931,0,0,1-.939.782h-22.93a.966.966,0,0,1-.9-.616c-.342-.93-.8-2.651.264-3.385,1.487-1.017,4.637-.078,6.809-1.614s4.754-6.721,7.865-3.189c0,0,2.5,3.834,4.206,3.023s2.974-5.009,5.018-3.4c1.027.811.94,6.427.607,8.4" transform="translate(-10.513 -19.138)" fill="#2c3237"/>
            <path id="Trazado_887964" data-name="Trazado 887964" d="M178.7,172.881c11.936-22.467,47.181-67.521,85.1-47.454,34.143,18.069,23.2,84.129-34.212,87.84-65.227,4.216-55.58-31.552-50.887-40.386" transform="translate(-15.834 -10.877)" fill="#dce8f7"/>
            <path id="Trazado_887965" data-name="Trazado 887965" d="M261.985,134.349a17.926,17.926,0,0,1,2.7,14.428c-1.355,4.86-5.606,8.983-10.627,9.492-1.818.185-3.657-.084-5.479.058a6.059,6.059,0,0,0-4.742,2.34c-.946,1.469-.833,3.41-1.674,4.943-1.331,2.428-4.784,3.042-7.311,1.91s-4.244-3.549-5.453-6.039c-3.331-6.86-3.59-15.3-.049-22.053a21.059,21.059,0,0,1,12.311-10.22,18.654,18.654,0,0,1,3.944-.76,11.117,11.117,0,0,0,1.833-.053c.9-.247.836-.82,1.371-1.618,1.736-2.589,4.251-.76,6.189.6a26.585,26.585,0,0,1,6.983,6.976" transform="translate(-20.487 -11.334)" fill="#a9bfe5"/>
            <path id="Trazado_887966" data-name="Trazado 887966" d="M229.616,214.587c-39.281,2.54-51.415-9.426-53.828-21.272,7.281,6.752,21.374,11.4,47.307,9.71,43.58-2.809,60.377-41.544,51.006-67.954,20.613,24.6,6.1,76.259-44.485,79.516" transform="translate(-15.879 -12.201)" fill="#c4d3ee"/>
            <path id="Trazado_887967" data-name="Trazado 887967" d="M203.679,115.718c1.156-3.182,3.23-5.968,4.237-9.2,1.2-3.862.794-8.08,1.842-11.988a16.393,16.393,0,0,1,15.907-11.913c3.066.12,6.379,1.428,7.688,4.264.881,1.906.7,4.115.719,6.223s.375,4.432,1.955,5.786c2.125,1.821,5.564,1.129,7.714,2.919,1.937,1.612,2.059,4.517,2.882,6.926,1.346,3.943,4.713,6.721,7.54,9.737s5.363,7.064,4.4,11.122c-.829,3.478-4.155,5.915-7.611,6.5s-6.992-.391-10.218-1.785-6.27-3.213-9.551-4.462a29.876,29.876,0,0,0-15.151-1.6c-2.313.359-4.65.993-6.96.608-5.674-.949-7.084-8.467-5.39-13.132" transform="translate(-18.338 -7.462)" fill="#0a253d"/>
            <path id="Trazado_887968" data-name="Trazado 887968" d="M221.069,165.413l-14-2.134s-26.151.33-46.587,3.715c-10.783,1.787-29.367,33.483-32.305,38.6.6,2.069,13.559,2.134,15.842,0l25.34-20.539a184.287,184.287,0,0,0,23.891,2.2c.475.01.962.01,1.437.01a17.2,17.2,0,0,1,2.462-1.175c4.57-1.7,7.759-1.143,11.763.193a1.229,1.229,0,0,0,.192-.041c.041,0,.071-.01.1-.01,3.284-2.345,5.842-4.152,11.247-5.076,4.842-5.534.615-15.627.618-15.744" transform="translate(-11.579 -14.749)" fill="#0a253d"/>
            <path id="Trazado_887969" data-name="Trazado 887969" d="M238.873,178.667c-.2.579-.387,1.181-.537,1.782a25.673,25.673,0,0,0-.719,5.13,6.036,6.036,0,0,1-.59.784c-5,.855-7.528,2.444-11.248,5.077-.033,0-.065.01-.1.01a1.544,1.544,0,0,1-.193.044,15.74,15.74,0,0,0-5.989-1.245,16.468,16.468,0,0,0-8.242,2.232c-.472,0-.955,0-1.438-.011a184.849,184.849,0,0,1-23.891-2.2l-22.5,15.875c-2.49,1.781-14.425,2.4-14.446.751,0,0,16.335-32.746,28.066-34.689,20.436-3.38,46.345-4.883,46.345-4.883l12.482,3.123a25.07,25.07,0,0,1,2.082,4.573,18.9,18.9,0,0,1,.912,3.649" transform="translate(-13.458 -15.115)" fill="#092b50"/>
            <path id="Trazado_887970" data-name="Trazado 887970" d="M260.636,160.983a10.175,10.175,0,0,1-.73,1.331l-13.985-8.2.881-.472,12.718-6.891s4.1,7.867,1.116,14.232" transform="translate(-22.215 -13.256)" fill="#fabb9c"/>
            <g id="Grupo_1110631" data-name="Grupo 1110631" transform="translate(224.586 133.495)" opacity="0.5">
              <g id="Grupo_1110630" data-name="Grupo 1110630">
                <g id="Grupo_1110629" data-name="Grupo 1110629" clip-path="url(#clip-path-5)">
                  <path id="Trazado_887971" data-name="Trazado 887971" d="M260.723,160.983a10.809,10.809,0,0,1-4.894-1.717c-1.664-1.084-3.027-2.565-4.626-3.713A10.447,10.447,0,0,0,247.865,154a6.457,6.457,0,0,1-.976-.354l12.718-6.891s4.1,7.867,1.116,14.232" transform="translate(-246.888 -146.751)" fill="#f2967d"/>
                </g>
              </g>
            </g>
            <path id="Trazado_887972" data-name="Trazado 887972" d="M205.368,139.138a26.959,26.959,0,0,1-9.412,7.91,14.317,14.317,0,0,1-9.134,1.181c-6.279-1.353-16.937-26.7-16.937-26.7s-1.5.849-3.67-.912,1.374-5.312,1.374-5.312-4.755-4.722-4.251-6.149c.977-2.78,7.352,5.4,7.718,5.838-.151-.29-2.426-3.5-1.01-4.476,1.385-.955,3.37,6.741,3.37,6.741L189.73,135.4l2.19-1.094,6.247-3.113Z" transform="translate(-14.751 -9.808)" fill="#fabb9c"/>
            <g id="Grupo_1110634" data-name="Grupo 1110634" transform="translate(177.168 121.388)" opacity="0.5">
              <g id="Grupo_1110633" data-name="Grupo 1110633">
                <g id="Grupo_1110632" data-name="Grupo 1110632" clip-path="url(#clip-path-6)">
                  <path id="Trazado_887973" data-name="Trazado 887973" d="M208.21,141.384a26.96,26.96,0,0,1-9.412,7.91,24.719,24.719,0,0,1-.677-4.959,13.629,13.629,0,0,0-1.363-5.667,5.911,5.911,0,0,0-1.6-1.857,3.091,3.091,0,0,0-.4-.257l6.247-3.113Z" transform="translate(-194.761 -133.442)" fill="#f2967d"/>
                </g>
              </g>
            </g>
            <path id="Trazado_887974" data-name="Trazado 887974" d="M241.439,151.452l2.179,18.021c-2.275,6.794-39.808-3.338-38.466-11.173l.2-1.954.247-2.318,1.02-9.531-1.964,1.793c-3.006.226-7.5-9.134-7.513-13.641a3.07,3.07,0,0,1,.472-1.878s8.533-14.028,28.85-13.469c12,.322,21.465,9.509,27.218,16.979a42.853,42.853,0,0,1,5.216,8.673c.237.547.344.848.344.848-4.444,6.407-17.806,7.652-17.806,7.652" transform="translate(-17.809 -10.595)" fill="#1a7786"/>
            <path id="Trazado_887975" data-name="Trazado 887975" d="M244.41,172.866c-2.275,6.794-39.808-3.338-38.466-11.173l.2-1.954c16.69,2.276,36.084-4.894,36.084-4.894Z" transform="translate(-18.6 -13.988)" fill="#14a7be"/>
            <path id="Trazado_887976" data-name="Trazado 887976" d="M230.146,115.041s3.172,6.035-5.833,6.767c-8.553.7-6.082-5.273-6.082-5.273s1.447-.628,1.3-4.765a5.263,5.263,0,0,1-5.663-4.093c-1-4.075-1.384-12.743,2.768-14.894,4.137-2.136,3.844,6.079,11.271,7.379,0,0,3.362-1.747,3.947.791.585,2.555-2.237,5.587-2.237,5.587s-1.593,4.869.527,8.5" transform="translate(-19.26 -8.35)" fill="#fabb9c"/>
            <path id="Trazado_887977" data-name="Trazado 887977" d="M225.293,100.634c-.062.07-.3-.09-.811-.271a3.311,3.311,0,0,0-1.361-.237c-.555-.016-.849-.014-.865-.1s.251-.232.856-.29a3.7,3.7,0,0,1,1.523.267c.559.283.713.582.658.636" transform="translate(-20.077 -9.009)" fill="#3e2220"/>
            <path id="Trazado_887978" data-name="Trazado 887978" d="M255.217,99.114c-.045.081-.315-.02-.85-.135a3.442,3.442,0,0,0-1.379-.086c-.544.046-.824.114-.86.025-.033-.069.2-.287.805-.417a3.824,3.824,0,0,1,1.536.1c.58.2.789.449.747.516" transform="translate(-22.775 -8.895)" fill="#3e2220"/>
            <path id="Trazado_887979" data-name="Trazado 887979" d="M223.634,102.6a.813.813,0,1,1-1.59,0,.81.81,0,1,1,1.59,0" transform="translate(-20.058 -9.182)" fill="#3e2220"/>
            <path id="Trazado_887980" data-name="Trazado 887980" d="M217.406,102.118a.813.813,0,1,1-1.59,0,.81.81,0,1,1,1.59,0" transform="translate(-19.495 -9.138)" fill="#3e2220"/>
            <path id="Trazado_887981" data-name="Trazado 887981" d="M219.169,109.887c.037-.1.416.074,1.173-.016a3.673,3.673,0,0,0,1.8-.726c.658-.437.988-.683,1.051-.612s-.167.41-.823.935a4.056,4.056,0,0,1-1.994.8c-.887.023-1.25-.322-1.207-.377" transform="translate(-19.798 -9.803)" fill="#3e2220"/>
            <path id="Trazado_887982" data-name="Trazado 887982" d="M220.294,107.314c.024.023-.047.172-.33.248a1.019,1.019,0,0,1-1.113-.531,1.683,1.683,0,0,1-.034-1.393,8.4,8.4,0,0,0,.435-1.169c.234-.922.144-1.426.248-1.438.061-.021.318.482.136,1.529-.206.879-.831,1.6-.438,2.285a.824.824,0,0,0,.736.484c.216.005.33-.057.359-.015" transform="translate(-19.754 -9.307)" fill="#3e2220"/>
            <g id="Grupo_1110637" data-name="Grupo 1110637" transform="translate(198.971 101.403)" opacity="0.5">
              <g id="Grupo_1110636" data-name="Grupo 1110636">
                <g id="Grupo_1110635" data-name="Grupo 1110635" clip-path="url(#clip-path-7)">
                  <path id="Trazado_887983" data-name="Trazado 887983" d="M226.61,111.473a12.092,12.092,0,0,1-7.88,6.782s1.447-.627,1.3-4.765c0,0,4.854-.374,6.579-2.017" transform="translate(-218.73 -111.473)" fill="#f2967d"/>
                </g>
              </g>
            </g>
            <path id="Trazado_887984" data-name="Trazado 887984" d="M248.973,166.886a23.656,23.656,0,0,0-.1,3.907c.032.429.075.848.128,1.288.076.687.172,1.385.279,2.1-.054.118-.118.226-.172.344l-.01.011a8.117,8.117,0,0,1-1.053-1.653,11.042,11.042,0,0,1-1.083-6.247,11.84,11.84,0,0,1,1.341-4.218,10.927,10.927,0,0,1,.912-1.406,7.487,7.487,0,0,1,1.954-1.857c-.462,1.105-.87,2.179-1.214,3.263a25.257,25.257,0,0,0-.987,4.465" transform="translate(-22.302 -14.377)" fill="#a9bfe5"/>
            <path id="Trazado_887985" data-name="Trazado 887985" d="M248.23,172.042c-.687,1.105-1.309,2.2-1.878,3.306-.054.118-.118.226-.172.343l-.01.011a30.642,30.642,0,0,0-1.384,3.392c-.2.579-.387,1.181-.537,1.781a42.558,42.558,0,0,0-.612,4.7c-.273,3.238-3.368.883-10.8,6.107a.01.01,0,0,0,.01.011c-.923.632-1.153.928-1.624.78-4.875-1.54-8.927-2.313-14.411.873a15.2,15.2,0,0,0-2.747,2,7.9,7.9,0,0,1,1.309-2,12.956,12.956,0,0,1,9.638-4.25,13.254,13.254,0,0,1,7.148,2.147,11.206,11.206,0,0,1,9.391-5.217h.033a13.589,13.589,0,0,1,.086-6.031,12.9,12.9,0,0,1,2.2-4.551c.054-.075.117-.15.171-.226a12.406,12.406,0,0,1,1.073-1.17,3.784,3.784,0,0,1,.312-.289,5.88,5.88,0,0,1,.643-.516,8.321,8.321,0,0,1,2.158-1.2" transform="translate(-19.337 -15.541)" fill="#a9bfe5"/>
            <path id="Trazado_887986" data-name="Trazado 887986" d="M230.493,106.01c-.2-.164-.055-.659.3-1.515a2.472,2.472,0,0,0,.355-.924.529.529,0,0,0-.057-.28.2.2,0,0,0-.135-.1,1.168,1.168,0,0,0-.707-.056c-.233.028-.406.02-.487-.084s-.07-.275.112-.514a1.343,1.343,0,0,1,2.243.165,1.7,1.7,0,0,1,.213.932,3.473,3.473,0,0,1-.495,1.428c-.615.879-1.143,1.113-1.34.951" transform="translate(-20.751 -9.216)" fill="#f2967d"/>
            <path id="Trazado_887987" data-name="Trazado 887987" d="M210.676,136,206.7,146.023l-1.965,1.792c-3,.226-7.5-9.133-7.513-13.641,5.753,5.645,13.449,1.827,13.449,1.827" transform="translate(-17.816 -12.12)" fill="#14a7be"/>
            <path id="Trazado_887988" data-name="Trazado 887988" d="M263.491,145.854c-4.444,6.408-17.806,7.652-17.806,7.652s-2.243-11.248-2.372-13.19c-.107-1.632,11.753,4.014,19.834,4.69.237.548.344.848.344.848" transform="translate(-21.979 -12.649)" fill="#14a7be"/>
            <path id="Trazado_887989" data-name="Trazado 887989" d="M243.8,154.813l-20.687-.321-.693,5.03c6.364,2.238,31.545,8.463,35.366,3.487Z" transform="translate(-20.092 -13.956)" fill="#fabb9c"/>
            <path id="Trazado_887990" data-name="Trazado 887990" d="M222.81,154.242l-2.2.72c-.322-.215-2.447-1.664-1.17-2.92,1.374-1.341,3.37,2.2,3.37,2.2" transform="translate(-19.786 -13.707)" fill="#fabb9c"/>
            <path id="Trazado_887991" data-name="Trazado 887991" d="M219.769,161.272h-5.591a.79.79,0,0,1-.788-.721l-.834-9.55a.791.791,0,0,1,.788-.86h5.591a.791.791,0,0,1,.788.722l.834,9.549a.791.791,0,0,1-.788.86" transform="translate(-19.201 -13.563)" fill="#3a4247"/>
            <path id="Trazado_887992" data-name="Trazado 887992" d="M222.136,154.409l-.7,5.034s-8.394,2.736-9.734-2.93c-1.288-5.463,7.567-1.675,8.232-1.385Z" transform="translate(-19.112 -13.873)" fill="#fabb9c"/>
            <path id="Trazado_887993" data-name="Trazado 887993" d="M98.225,35.784c.254,0,.486.625.619,1.891.027,1.074.064,2.149.146,3.2-.013,1.277-.07,1.781-.26,1.913-.262.165-.735-.547-.921-1.818-.086-1.1-.122-2.184-.149-3.27.082-1.284.3-1.918.565-1.92" transform="translate(-8.822 -3.232)" fill="#a9bfe5"/>
            <path id="Trazado_887994" data-name="Trazado 887994" d="M98.362,20.295c.253.005.47.64.553,1.916l-.055,3.236c-.127,1.271-.367,1.9-.626,1.895s-.47-.636-.559-1.912l.056-3.241c.133-1.274.366-1.9.631-1.893" transform="translate(-8.823 -1.833)" fill="#a9bfe5"/>
            <path id="Trazado_887995" data-name="Trazado 887995" d="M97.717,5.874c.079-.185.076-.357,1.516-.477.012.221.025.462.038.721,0,.136.008.275.012.42,0,.08.01.163.015.248l-.1,3.235c-.146,1.268-.394,1.89-.653,1.883s-.461-.644-.531-1.921l.1-3.238c.011-.086.022-.168.032-.247.01-.054.018-.022.028-.042a.361.361,0,0,0,.065-.1c.075-.122-.6-.293-.522-.487" transform="translate(-8.827 -0.488)" fill="#a9bfe5"/>
            <path id="Trazado_887996" data-name="Trazado 887996" d="M82.226,5.863c0-.253.63-.481,1.9-.586h3.238c1.274.1,1.9.333,1.9.592s-.63.481-1.9.592H84.131c-1.274-.111-1.9-.333-1.9-.6" transform="translate(-7.428 -0.477)" fill="#a9bfe5"/>
            <path id="Trazado_887997" data-name="Trazado 887997" d="M66.735,5.863c0-.253.63-.481,1.9-.586h3.238c1.273.1,1.9.333,1.9.592s-.63.481-1.9.592H68.64c-1.274-.111-1.9-.333-1.9-.6" transform="translate(-6.028 -0.477)" fill="#a9bfe5"/>
            <path id="Trazado_887998" data-name="Trazado 887998" d="M51.244,5.863c0-.253.63-.481,1.9-.586h3.237c1.274.1,1.9.333,1.9.592s-.63.481-1.9.592H53.149c-1.274-.111-1.9-.333-1.9-.6" transform="translate(-4.629 -0.477)" fill="#a9bfe5"/>
            <path id="Trazado_887999" data-name="Trazado 887999" d="M35.752,5.863c0-.253.63-.481,1.9-.586H40.9c1.273.1,1.9.333,1.9.592s-.63.481-1.9.592H37.657c-1.274-.111-1.9-.333-1.9-.6" transform="translate(-3.23 -0.477)" fill="#a9bfe5"/>
            <path id="Trazado_888000" data-name="Trazado 888000" d="M20.261,5.863c0-.253.63-.481,1.9-.586H25.4c1.274.1,1.9.333,1.9.592s-.63.481-1.9.592H22.166c-1.274-.111-1.9-.333-1.9-.6" transform="translate(-1.83 -0.477)" fill="#a9bfe5"/>
            <path id="Trazado_888001" data-name="Trazado 888001" d="M17.174,17.7c-.253,0-.481-.63-.586-1.9V12.554c.1-1.273.333-1.9.592-1.9s.481.63.592,1.9v3.238c-.111,1.274-.333,1.9-.6,1.9" transform="translate(-1.498 -0.962)" fill="#a9bfe5"/>
            <path id="Trazado_888002" data-name="Trazado 888002" d="M17.174,33.188c-.253,0-.481-.63-.586-1.9V28.045c.1-1.273.333-1.9.592-1.9s.481.63.592,1.9v3.238c-.111,1.274-.333,1.9-.6,1.9" transform="translate(-1.498 -2.361)" fill="#a9bfe5"/>
            <path id="Trazado_888003" data-name="Trazado 888003" d="M17.174,48.68c-.253,0-.481-.63-.586-1.9V43.537c.1-1.273.333-1.9.592-1.9s.481.63.592,1.9v3.238c-.111,1.274-.333,1.9-.6,1.9" transform="translate(-1.498 -3.761)" fill="#a9bfe5"/>
            <path id="Trazado_888004" data-name="Trazado 888004" d="M17.174,58.255a.628.628,0,0,1-.586-.306V57.43a.633.633,0,0,1,.592-.3.639.639,0,0,1,.592.3v.519a.642.642,0,0,1-.6.306" transform="translate(-1.498 -5.16)" fill="#a9bfe5"/>
            <path id="Trazado_888005" data-name="Trazado 888005" d="M161.968,76.929c0,.253-.315.481-.952.586H159.4c-.636-.1-.952-.333-.952-.592s.316-.481.952-.592h1.619c.638.111.952.333.952.6" transform="translate(-14.313 -6.895)" fill="#a9bfe5"/>
            <path id="Trazado_888006" data-name="Trazado 888006" d="M177.186,76.929c0,.253-.633.481-1.914.586h-3.256c-1.279-.1-1.912-.333-1.912-.592s.633-.481,1.912-.592h3.256c1.281.111,1.914.333,1.914.6" transform="translate(-15.366 -6.895)" fill="#a9bfe5"/>
            <path id="Trazado_888007" data-name="Trazado 888007" d="M192.757,76.929c0,.253-.633.481-1.914.586h-3.256c-1.279-.1-1.912-.333-1.912-.592s.633-.481,1.912-.592h3.256c1.281.111,1.914.333,1.914.6" transform="translate(-16.773 -6.895)" fill="#a9bfe5"/>
            <path id="Trazado_888008" data-name="Trazado 888008" d="M206.785,73.388c.206.02.441.831-.385,2.077a4.79,4.79,0,0,1-3.173,1.747,4.637,4.637,0,0,1-1.5-.2c-.319-.1-.478-.225-.478-.355s.158-.249.478-.351a13.65,13.65,0,0,1,1.367-.269,3.608,3.608,0,0,0,2.391-1.317c.772-.8,1.014-1.4,1.3-1.33" transform="translate(-18.179 -6.629)" fill="#a9bfe5"/>
            <path id="Trazado_888009" data-name="Trazado 888009" d="M207.395,57.823c.253,0,.481.633.586,1.914v3.256c-.1,1.279-.333,1.913-.592,1.913s-.481-.634-.592-1.913V59.737c.111-1.281.333-1.914.6-1.914" transform="translate(-18.681 -5.223)" fill="#a9bfe5"/>
            <path id="Trazado_888010" data-name="Trazado 888010" d="M207.395,42.252c.253,0,.481.633.586,1.914v3.255c-.1,1.28-.333,1.913-.592,1.913s-.481-.633-.592-1.913V44.166c.111-1.281.333-1.914.6-1.914" transform="translate(-18.681 -3.817)" fill="#a9bfe5"/>
            <path id="Trazado_888011" data-name="Trazado 888011" d="M207.395,26.681c.253,0,.481.633.586,1.914v3.256c-.1,1.279-.333,1.912-.592,1.912s-.481-.633-.592-1.912V28.595c.111-1.281.333-1.914.6-1.914" transform="translate(-18.681 -2.41)" fill="#a9bfe5"/>
            <path id="Trazado_888012" data-name="Trazado 888012" d="M207.395,15.022c.253,0,.481.315.586.952v1.619c-.1.636-.333.952-.592.952s-.481-.316-.592-.952V15.974c.111-.638.333-.952.6-.952" transform="translate(-18.681 -1.357)" fill="#a9bfe5"/>
            <path id="Trazado_888013" data-name="Trazado 888013" d="M0,66.656V44.836a5.5,5.5,0,0,1,5.5-5.5H30.39a5.5,5.5,0,0,1,5.5,5.5v21.82a5.5,5.5,0,0,1-5.5,5.5H5.5a5.5,5.5,0,0,1-5.5-5.5" transform="translate(0 -3.553)" fill="#c4d3ee"/>
            <path id="Trazado_888014" data-name="Trazado 888014" d="M31.158,70.576H5.082a3.153,3.153,0,0,1-3.153-3.153V44.417a3.153,3.153,0,0,1,3.153-3.153H31.158a3.153,3.153,0,0,1,3.153,3.153V67.423a3.153,3.153,0,0,1-3.153,3.153" transform="translate(-0.174 -3.728)" fill="#eff3fb"/>
            <path id="Trazado_888015" data-name="Trazado 888015" d="M15.548,51.523v8.97a.9.9,0,0,1-.887.9H12.818a.9.9,0,0,1-.9-.9v-8.97a.9.9,0,0,1,.9-.9h1.843a.9.9,0,0,1,.887.9" transform="translate(-1.077 -4.573)" fill="#c4d3ee"/>
            <path id="Trazado_888016" data-name="Trazado 888016" d="M27.173,51.523v8.97a.9.9,0,0,1-.887.9H24.443a.9.9,0,0,1-.9-.9v-8.97a.9.9,0,0,1,.9-.9h1.843a.9.9,0,0,1,.887.9" transform="translate(-2.127 -4.573)" fill="#c4d3ee"/>
            <path id="Trazado_888017" data-name="Trazado 888017" d="M60.76,88.358V99.221H56.8V88.358a1.982,1.982,0,1,1,3.963,0" transform="translate(-5.131 -7.801)" fill="#c4d3ee"/>
            <path id="Trazado_888018" data-name="Trazado 888018" d="M45.064,88.358V99.221H41.1V88.358a1.982,1.982,0,1,1,3.963,0" transform="translate(-3.713 -7.801)" fill="#c4d3ee"/>
            <path id="Trazado_888019" data-name="Trazado 888019" d="M85.366,160.48H84.33a34.459,34.459,0,0,1-34.42-34.419V112.885h2.331v13.176A32.124,32.124,0,0,0,84.33,158.148h1.036a32.124,32.124,0,0,0,32.089-32.088h2.331a34.459,34.459,0,0,1-34.42,34.419" transform="translate(-4.509 -10.197)" fill="#3a4247"/>
            <path id="Trazado_888020" data-name="Trazado 888020" d="M105.06,101h34.115A41.083,41.083,0,0,1,150.266,82.87a40.056,40.056,0,1,0-55.869.445A37.989,37.989,0,0,1,105.06,101" transform="translate(-7.411 -1.294)" fill="#ffcf4d"/>
            <g id="Grupo_1110640" data-name="Grupo 1110640" transform="translate(76.989 15.39)" opacity="0.1">
              <g id="Grupo_1110639" data-name="Grupo 1110639">
                <g id="Grupo_1110638" data-name="Grupo 1110638" clip-path="url(#clip-path-8)">
                  <path id="Trazado_888021" data-name="Trazado 888021" d="M160.045,54.623A37.706,37.706,0,1,1,122.34,16.917a37.706,37.706,0,0,1,37.706,37.706" transform="translate(-84.635 -16.918)" fill="#fff"/>
                </g>
              </g>
            </g>
            <g id="Grupo_1110643" data-name="Grupo 1110643" transform="translate(80.318 18.718)" opacity="0.1">
              <g id="Grupo_1110642" data-name="Grupo 1110642">
                <g id="Grupo_1110641" data-name="Grupo 1110641" clip-path="url(#clip-path-9)">
                  <path id="Trazado_888022" data-name="Trazado 888022" d="M157.048,54.953a34.377,34.377,0,1,1-34.376-34.376,34.376,34.376,0,0,1,34.376,34.376" transform="translate(-88.294 -20.577)" fill="#fff"/>
                </g>
              </g>
            </g>
            <g id="Grupo_1110646" data-name="Grupo 1110646" transform="translate(83.337 21.736)" opacity="0.1">
              <g id="Grupo_1110645" data-name="Grupo 1110645">
                <g id="Grupo_1110644" data-name="Grupo 1110644" clip-path="url(#clip-path-10)">
                  <path id="Trazado_888023" data-name="Trazado 888023" d="M154.329,55.253A31.358,31.358,0,1,1,122.971,23.9a31.358,31.358,0,0,1,31.358,31.358" transform="translate(-91.613 -23.895)" fill="#fff"/>
                </g>
              </g>
            </g>
            <path id="Trazado_888024" data-name="Trazado 888024" d="M123.787,80.461S111.774,66.4,120.45,57.2c8.26-8.753,15.95-4.072,20.955-23.158,10.611,11.979,9.711,42.211-17.618,46.416" transform="translate(-10.596 -3.075)" fill="#6eb272"/>
            <path id="Trazado_888025" data-name="Trazado 888025" d="M141.347,51.065a21.524,21.524,0,0,1-.645,7.22,25.87,25.87,0,0,1-2.768,6.778,30.715,30.715,0,0,1-2.073,3.044,24.654,24.654,0,0,1-2.553,2.649,20.873,20.873,0,0,1-6.127,3.884,49.4,49.4,0,0,0,5.108-4.9c.8-.843,1.472-1.791,2.186-2.7a34.557,34.557,0,0,0,1.869-2.913,39.385,39.385,0,0,0,2.99-6.274,52.665,52.665,0,0,0,2.012-6.8" transform="translate(-11.489 -4.613)" fill="#ffcf4d"/>
            <path id="Trazado_888026" data-name="Trazado 888026" d="M119.432,80.965c-22.552-.337-17.5-27.813-17.5-27.813,2.626,2.009,8.152,4.893,13.47,8.273-3.356,7.264,1.305,15.608,4.028,19.541" transform="translate(-9.164 -4.801)" fill="#6eb272"/>
            <path id="Trazado_888027" data-name="Trazado 888027" d="M54.3,123.685v4.1a1.352,1.352,0,0,1-1.353,1.352H48.214a1.353,1.353,0,0,1-1.353-1.352v-4.1a1.354,1.354,0,0,1,1.353-1.353h4.731a1.354,1.354,0,0,1,1.353,1.353" transform="translate(-4.233 -11.051)" fill="#3a4247"/>
            <path id="Trazado_888028" data-name="Trazado 888028" d="M62.6,103.222v8.566a12.74,12.74,0,0,1-25.48,0v-8.566Z" transform="translate(-3.353 -9.324)" fill="#dce8f7"/>
            <path id="Trazado_888029" data-name="Trazado 888029" d="M63.82,100.283v2.331a.623.623,0,0,1-.629.607H36.265a.623.623,0,0,1-.629-.607v-2.331a.627.627,0,0,1,.629-.629H63.191a.627.627,0,0,1,.629.629" transform="translate(-3.219 -9.002)" fill="#3a4247"/>
            <path id="Trazado_888030" data-name="Trazado 888030" d="M55.658,113.007a5.229,5.229,0,1,1-5.229-5.229,5.229,5.229,0,0,1,5.229,5.229" transform="translate(-4.083 -9.736)" fill="#a9bfe5"/>
            <path id="Trazado_888031" data-name="Trazado 888031" d="M134.7,126.838a9.292,9.292,0,1,1-9.291-9.291,9.291,9.291,0,0,1,9.291,9.291" transform="translate(-10.489 -10.618)" fill="#3a4247"/>
            <path id="Trazado_888032" data-name="Trazado 888032" d="M144.233,118.536a3.348,3.348,0,0,1-.982,2.382,3.39,3.39,0,0,1-2.382.982H107.284a3.363,3.363,0,0,1,0-6.727H140.87a3.369,3.369,0,0,1,3.363,3.363" transform="translate(-9.387 -10.404)" fill="#eff3fb"/>
            <path id="Trazado_888033" data-name="Trazado 888033" d="M144.281,118.584a3.338,3.338,0,0,1-.988,2.391,3.382,3.382,0,0,1-2.381.978H107.331a3.345,3.345,0,0,1-2.915-1.684,3.255,3.255,0,0,0,1.785.514h33.592a3.341,3.341,0,0,0,3.358-3.368,3.329,3.329,0,0,0-.444-1.664,3.341,3.341,0,0,1,1.574,2.834" transform="translate(-9.432 -10.456)" fill="#c4d3ee"/>
            <path id="Trazado_888034" data-name="Trazado 888034" d="M144.233,125.931a3.348,3.348,0,0,1-.982,2.382,3.39,3.39,0,0,1-2.382.982H107.284a3.363,3.363,0,0,1,0-6.727H140.87a3.369,3.369,0,0,1,3.363,3.363" transform="translate(-9.387 -11.072)" fill="#eff3fb"/>
            <path id="Trazado_888035" data-name="Trazado 888035" d="M144.281,125.979a3.337,3.337,0,0,1-.988,2.391,3.382,3.382,0,0,1-2.381.978H107.331a3.345,3.345,0,0,1-2.915-1.684,3.255,3.255,0,0,0,1.785.514h33.592a3.341,3.341,0,0,0,3.358-3.368,3.329,3.329,0,0,0-.444-1.664,3.341,3.341,0,0,1,1.574,2.834" transform="translate(-9.432 -11.124)" fill="#c4d3ee"/>
            <path id="Trazado_888036" data-name="Trazado 888036" d="M144.233,111.141a3.348,3.348,0,0,1-.982,2.382,3.39,3.39,0,0,1-2.382.982H107.284a3.363,3.363,0,0,1,0-6.727H140.87a3.369,3.369,0,0,1,3.363,3.363" transform="translate(-9.387 -9.736)" fill="#eff3fb"/>
            <path id="Trazado_888037" data-name="Trazado 888037" d="M144.281,111.189a3.338,3.338,0,0,1-.988,2.391,3.382,3.382,0,0,1-2.381.978H107.331a3.345,3.345,0,0,1-2.915-1.684,3.255,3.255,0,0,0,1.785.514h33.592a3.341,3.341,0,0,0,3.358-3.368,3.329,3.329,0,0,0-.444-1.664,3.341,3.341,0,0,1,1.574,2.834" transform="translate(-9.432 -9.788)" fill="#c4d3ee"/>
            <path id="Trazado_888038" data-name="Trazado 888038" d="M221.063,14.01A14.01,14.01,0,1,1,207.053,0a14.009,14.009,0,0,1,14.01,14.01" transform="translate(-17.438)" fill="#58c1f2"/>
            <path id="Trazado_888039" data-name="Trazado 888039" d="M212.7,7.205l-10.084,6.817,3.485,1.432-3.229,7.863,10.344-7.578-3.463-1.422Z" transform="translate(-18.303 -0.651)" fill="#fff"/>
          </g>
        </g>
      </g>
    </g>
  </g>
</svg>
