<svg xmlns="http://www.w3.org/2000/svg" width="415" height="53" viewBox="0 0 415 53">
  <g id="Grupo_1110697" data-name="Grupo 1110697" transform="translate(6884 4889.305)">
    <path id="Trazado_888165" data-name="Trazado 888165" d="M0,0H415V53H0Z" transform="translate(-6884 -4889.305)" fill="#fff"/>
    <path id="Trazado_888166" data-name="Trazado 888166" d="M16.953,22.684a7.324,7.324,0,0,1-2.331,4.874,7.639,7.639,0,0,1-5.216,1.716,7.015,7.015,0,0,1-5.653-2.529,10.176,10.176,0,0,1-2.126-6.768V18.063a11.342,11.342,0,0,1,.991-4.881,7.4,7.4,0,0,1,2.81-3.233A7.823,7.823,0,0,1,9.639,8.82a7.193,7.193,0,0,1,5.086,1.771,7.412,7.412,0,0,1,2.229,4.9H14.314a5.719,5.719,0,0,0-1.483-3.456,4.488,4.488,0,0,0-3.192-1.07,4.7,4.7,0,0,0-3.944,1.861,8.543,8.543,0,0,0-1.429,5.3v1.929a8.782,8.782,0,0,0,1.354,5.159,4.373,4.373,0,0,0,3.787,1.916,5.051,5.051,0,0,0,3.356-.991,5.5,5.5,0,0,0,1.552-3.452Zm17.6-13.59V22.629a6.349,6.349,0,0,1-1.771,4.607,7.135,7.135,0,0,1-4.765,2.01l-.7.027a7.451,7.451,0,0,1-5.209-1.764,6.308,6.308,0,0,1-1.969-4.854V9.094h2.6v13.48a4.553,4.553,0,0,0,1.189,3.356,4.572,4.572,0,0,0,3.391,1.2,4.6,4.6,0,0,0,3.411-1.189,4.545,4.545,0,0,0,1.183-3.35V9.094Zm10.6,18.58a1.584,1.584,0,0,1,.39-1.094,1.485,1.485,0,0,1,1.169-.437,1.529,1.529,0,0,1,1.183.438,1.552,1.552,0,0,1,.4,1.094,1.468,1.468,0,0,1-.4,1.053,1.557,1.557,0,0,1-1.183.424,1.406,1.406,0,0,1-1.559-1.477ZM45.158,15.6a1.584,1.584,0,0,1,.39-1.094,1.485,1.485,0,0,1,1.169-.437,1.529,1.529,0,0,1,1.183.438,1.552,1.552,0,0,1,.4,1.094,1.468,1.468,0,0,1-.4,1.053,1.557,1.557,0,0,1-1.183.424A1.406,1.406,0,0,1,45.158,15.6Zm28.82,7.082a7.324,7.324,0,0,1-2.331,4.874,7.639,7.639,0,0,1-5.216,1.716,7.015,7.015,0,0,1-5.653-2.529,10.176,10.176,0,0,1-2.126-6.768V18.063a11.342,11.342,0,0,1,.991-4.881,7.4,7.4,0,0,1,2.81-3.233A7.823,7.823,0,0,1,66.664,8.82a7.193,7.193,0,0,1,5.086,1.771,7.412,7.412,0,0,1,2.229,4.9H71.34a5.719,5.719,0,0,0-1.483-3.456,4.488,4.488,0,0,0-3.192-1.07,4.7,4.7,0,0,0-3.944,1.861,8.543,8.543,0,0,0-1.429,5.3v1.929a8.782,8.782,0,0,0,1.354,5.159,4.373,4.373,0,0,0,3.787,1.916,5.051,5.051,0,0,0,3.356-.991,5.5,5.5,0,0,0,1.552-3.452ZM79.912,29H77.383V14.207h2.529ZM77.178,10.283a1.51,1.51,0,0,1,.376-1.039,1.412,1.412,0,0,1,1.114-.424,1.434,1.434,0,0,1,1.121.424,1.494,1.494,0,0,1,.383,1.039,1.445,1.445,0,0,1-.383,1.025,1.46,1.46,0,0,1-1.121.41,1.437,1.437,0,0,1-1.114-.41A1.46,1.46,0,0,1,77.178,10.283Zm20.959,8.039h5.551v2.393H98.137V27H95.594V20.715H90.043V18.322h5.551V12.512h2.543ZM127.3,11.24h-6.4V29h-2.611V11.24H111.9V9.094H127.3ZM132.6,29h-2.529V14.207H132.6Zm-2.734-18.717a1.51,1.51,0,0,1,.376-1.039,1.412,1.412,0,0,1,1.114-.424,1.434,1.434,0,0,1,1.121.424,1.494,1.494,0,0,1,.383,1.039,1.445,1.445,0,0,1-.383,1.025,1.46,1.46,0,0,1-1.121.41,1.437,1.437,0,0,1-1.114-.41A1.46,1.46,0,0,1,129.869,10.283Zm20.959,8.039h5.551v2.393h-5.551V27h-2.543V20.715h-5.551V18.322h5.551V12.512h2.543ZM166.783,29V9.094H172.4A9.046,9.046,0,0,1,177,10.242a7.767,7.767,0,0,1,3.083,3.268,10.636,10.636,0,0,1,1.1,4.867v1.271a10.673,10.673,0,0,1-1.087,4.936,7.645,7.645,0,0,1-3.1,3.254,9.622,9.622,0,0,1-4.7,1.162Zm2.625-17.76V26.854h2.762a6.009,6.009,0,0,0,4.724-1.888,7.8,7.8,0,0,0,1.688-5.378V18.424a7.926,7.926,0,0,0-1.593-5.275,5.668,5.668,0,0,0-4.519-1.909ZM187.5,29h-2.529V14.207H187.5Zm-2.734-18.717a1.51,1.51,0,0,1,.376-1.039,1.412,1.412,0,0,1,1.114-.424,1.434,1.434,0,0,1,1.121.424,1.494,1.494,0,0,1,.383,1.039,1.445,1.445,0,0,1-.383,1.025,1.46,1.46,0,0,1-1.121.41,1.437,1.437,0,0,1-1.114-.41A1.46,1.46,0,0,1,184.762,10.283Zm20.959,8.039h5.551v2.393h-5.551V27h-2.543V20.715h-5.551V18.322h5.551V12.512h2.543Zm30.6,4.361a7.324,7.324,0,0,1-2.331,4.874,7.639,7.639,0,0,1-5.216,1.716,7.015,7.015,0,0,1-5.653-2.529,10.176,10.176,0,0,1-2.126-6.768V18.063a11.342,11.342,0,0,1,.991-4.881,7.4,7.4,0,0,1,2.81-3.233A7.823,7.823,0,0,1,229,8.82a7.193,7.193,0,0,1,5.086,1.771,7.412,7.412,0,0,1,2.229,4.9H233.68a5.719,5.719,0,0,0-1.483-3.456A4.488,4.488,0,0,0,229,10.967a4.7,4.7,0,0,0-3.944,1.861,8.543,8.543,0,0,0-1.429,5.3v1.929a8.782,8.782,0,0,0,1.354,5.159,4.373,4.373,0,0,0,3.787,1.916,5.051,5.051,0,0,0,3.356-.991,5.5,5.5,0,0,0,1.552-3.452ZM242.252,29h-2.529V14.207h2.529Zm-2.734-18.717a1.51,1.51,0,0,1,.376-1.039,1.412,1.412,0,0,1,1.114-.424,1.434,1.434,0,0,1,1.121.424,1.494,1.494,0,0,1,.383,1.039,1.445,1.445,0,0,1-.383,1.025,1.46,1.46,0,0,1-1.121.41,1.437,1.437,0,0,1-1.114-.41A1.46,1.46,0,0,1,239.518,10.283Zm20.959,8.039h5.551v2.393h-5.551V27h-2.543V20.715h-5.551V18.322h5.551V12.512h2.543Zm23.256,2.625h-4.676V29h-2.639V9.094h6.59a7.8,7.8,0,0,1,5.175,1.531,5.509,5.509,0,0,1,1.812,4.457,5.359,5.359,0,0,1-1,3.24,6,6,0,0,1-2.8,2.064l4.676,8.449V29h-2.816ZM279.057,18.8h4.033a4.549,4.549,0,0,0,3.11-1.014,3.427,3.427,0,0,0,1.155-2.712,3.609,3.609,0,0,0-1.1-2.835,4.66,4.66,0,0,0-3.179-1h-4.02ZM296.023,29h-2.529V14.207h2.529Zm-2.734-18.717a1.51,1.51,0,0,1,.376-1.039,1.412,1.412,0,0,1,1.114-.424,1.434,1.434,0,0,1,1.121.424,1.494,1.494,0,0,1,.383,1.039,1.445,1.445,0,0,1-.383,1.025,1.46,1.46,0,0,1-1.121.41,1.437,1.437,0,0,1-1.114-.41A1.46,1.46,0,0,1,293.289,10.283Zm20.959,8.039H319.8v2.393h-5.551V27h-2.543V20.715h-5.551V18.322h5.551V12.512h2.543Zm18.58,2.885V29H330.2V9.094h7.342a7.376,7.376,0,0,1,5.12,1.668,5.655,5.655,0,0,1,1.853,4.416,5.58,5.58,0,0,1-1.812,4.464,7.706,7.706,0,0,1-5.188,1.565Zm0-2.146h4.717a4.716,4.716,0,0,0,3.227-.993,3.631,3.631,0,0,0,1.121-2.869,3.751,3.751,0,0,0-1.121-2.849A4.418,4.418,0,0,0,337.7,11.24h-4.867ZM350.219,29h-2.529V14.207h2.529Zm-2.734-18.717a1.51,1.51,0,0,1,.376-1.039,1.412,1.412,0,0,1,1.114-.424,1.434,1.434,0,0,1,1.121.424,1.494,1.494,0,0,1,.383,1.039,1.445,1.445,0,0,1-.383,1.025,1.46,1.46,0,0,1-1.121.41,1.437,1.437,0,0,1-1.114-.41A1.46,1.46,0,0,1,347.484,10.283Z" transform="translate(-6857 -4879.305)" fill="#12263f"/>
  </g>
</svg>
