<svg xmlns="http://www.w3.org/2000/svg" xmlns:xlink="http://www.w3.org/1999/xlink" width="107" height="107" viewBox="0 0 107 107">
  <defs>
    <clipPath id="clip-path">
      <rect id="Rectángulo_406570" data-name="Rectángulo 406570" width="62.164" height="73.354" fill="#fff"/>
    </clipPath>
  </defs>
  <g id="Grupo_1110696" data-name="Grupo 1110696" transform="translate(-326.711 -1012)">
    <path id="Elipse_5845" data-name="Elipse 5845" d="M53.5,0A53.5,53.5,0,1,1,0,53.5,53.5,53.5,0,0,1,53.5,0Z" transform="translate(326.711 1012)" fill="#505ea3"/>
    <g id="Grupo_1108887" data-name="Grupo 1108887" transform="translate(350.711 1028.99)">
      <g id="Grupo_1108886" data-name="Grupo 1108886" transform="translate(0 0)" clip-path="url(#clip-path)">
        <path id="Trazado_885750" data-name="Trazado 885750" d="M.472,47.635l0,.009c.167.969.383,1.924.638,2.864.01.027.011.055.022.082A30.87,30.87,0,0,0,19.419,71.084a28.9,28.9,0,0,0,4.3,1.388,30.656,30.656,0,0,0,7.361.881A31.1,31.1,0,0,0,62.164,42.27a1.223,1.223,0,0,0-1.223-1.223H32.3V35.155c5.229-1,9.168-8.327,9.168-17.514C41.472,7.75,36.908,0,31.082,0s-10.39,7.748-10.39,17.641c0,9.187,3.939,16.515,9.168,17.514v5.893H1.223A1.223,1.223,0,0,0,0,42.27a31.473,31.473,0,0,0,.458,5.274c.007.029,0,.059.013.088ZM23.137,17.644c0-8.237,3.638-15.2,7.945-15.2s7.945,6.959,7.945,15.2c0,7.442-2.973,13.822-6.723,14.987V18.309a1.223,1.223,0,1,0-2.445,0V32.631c-3.75-1.165-6.723-7.546-6.723-14.987m-3.84,26.5,2.3,2.871a3.061,3.061,0,0,0,2.71,1.141l3.9-.4a.628.628,0,0,1,.648.418L29.5,50.04a3.094,3.094,0,0,0,2.307,1.993l2.46.484a.617.617,0,0,1,.5.664v.012l-.186,1.954a.608.608,0,0,1-.352.5c-4.029,1.748-4.69,2.253-4.434,3.3.027.222.035,1.364,0,2.9a.607.607,0,0,1-.381.554L24.6,64.479a3.06,3.06,0,0,0-1.859,2.935l.076,2.27c-.077-.023-.154-.04-.231-.065-.374-.116-.743-.249-1.113-.383-.215-.077-.432-.153-.645-.236L19.288,65.16a.646.646,0,0,1-.042-.241v-7.85a3.08,3.08,0,0,0-1.215-2.44l-3.594-2.738a.64.64,0,0,1-.253-.518V47.59a.619.619,0,0,1,.238-.5l4.009-3.05a.624.624,0,0,1,.866.1ZM31.082,70.911a28.423,28.423,0,0,1-5.791-.6l-.11-2.983a.631.631,0,0,1,.381-.6l4.822-2.076a3.059,3.059,0,0,0,1.863-2.754c.027-1.314.026-2.114.013-2.608.537-.3,1.581-.806,2.96-1.4a3.07,3.07,0,0,0,1.8-2.5l.186-1.949a3.05,3.05,0,0,0-2.461-3.311l-2.47-.487a.63.63,0,0,1-.469-.41l-.643-1.842a3.082,3.082,0,0,0-3.21-2.056l-3.889.4a.64.64,0,0,1-.557-.232l-1.6-1.994H46.892l-.159,2.037a3.638,3.638,0,0,0,1.2,3L49.351,49.8a1.272,1.272,0,0,1,.4.815l.51,7.233a3.6,3.6,0,0,0,.858,2.082L52.367,61.4A28.559,28.559,0,0,1,31.079,70.91ZM53.941,59.476l-.961-1.135a1.148,1.148,0,0,1-.275-.664l-.511-7.241a3.711,3.711,0,0,0-1.2-2.443L49.56,46.71a1.171,1.171,0,0,1-.39-.982l.174-2.231H59.692a28.654,28.654,0,0,1-5.751,15.98M15.108,43.5l-2.165,1.647a3.08,3.08,0,0,0-1.205,2.444V51.37a3.09,3.09,0,0,0,1.2,2.452l3.613,2.752a.623.623,0,0,1,.248.493v7.85a3.083,3.083,0,0,0,.211,1.138l.588,1.472A28.416,28.416,0,0,1,4,51.638a1.6,1.6,0,0,0,2.171-.1l.637-.632.565.56a1.223,1.223,0,0,0,1.723-1.737L7.976,48.617a1.7,1.7,0,0,0-2.333,0l-.636.63-.652-.652a1.634,1.634,0,0,0-1.293-.422c-.033-.158-.076-.312-.106-.471l.253-.251.628.622a1.659,1.659,0,0,0,2.33.007l.638-.628.567.562A1.223,1.223,0,1,0,9.1,46.274L8,45.194a1.721,1.721,0,0,0-2.356-.035l-.638.628-.625-.619a1.648,1.648,0,0,0-1.811-.362c-.038-.436-.083-.87-.1-1.311H15.108Z" transform="translate(0 0)" fill="#fff"/>
      </g>
    </g>
  </g>
</svg>
