<svg xmlns="http://www.w3.org/2000/svg" xmlns:xlink="http://www.w3.org/1999/xlink" width="100" height="100" viewBox="0 0 100 100">
  <defs>
    <clipPath id="clip-path">
      <rect id="Rectángulo_406597" data-name="Rectángulo 406597" width="67.072" height="68.784" fill="none"/>
    </clipPath>
  </defs>
  <g id="Grupo_1110699" data-name="Grupo 1110699" transform="translate(-1170 -8113.784)">
    <rect id="Rectángulo_400898" data-name="Rectángulo 400898" width="100" height="100" rx="50" transform="translate(1170 8113.784)" fill="#fff" opacity="0.859"/>
    <g id="Rectángulo_400907" data-name="Rectángulo 400907" transform="translate(1170 8113.784)" fill="none" stroke="#534edd" stroke-linecap="round" stroke-width="2" stroke-dasharray="7">
      <rect width="100" height="100" rx="50" stroke="none"/>
      <rect x="1" y="1" width="98" height="98" rx="49" fill="none"/>
    </g>
    <g id="Grupo_1108932" data-name="Grupo 1108932" transform="translate(1186 8131.284)">
      <g id="Grupo_1108931" data-name="Grupo 1108931" clip-path="url(#clip-path)">
        <path id="Trazado_885822" data-name="Trazado 885822" d="M51.712,4.958H65.293a.939.939,0,0,1,.939.939V57.28a.939.939,0,0,1-.939.939H16.844a.939.939,0,0,1-.939-.939V5.9a.939.939,0,0,1,.939-.939H29.372L31.238.574h0a.939.939,0,0,1,1.752.061l3.333,7.827L39.679.574h0a.939.939,0,0,1,1.752.061l3.333,7.827L48.121.574h0A.939.939,0,0,1,49.87.634ZM64.354,6.837H51.107a.939.939,0,0,1-.878-.571h0L48.983,3.333,45.65,11.16a.939.939,0,0,1-1.752.061h0L40.541,3.333,37.209,11.16a.939.939,0,0,1-1.752.061h0L32.1,3.333,30.879,6.2a.939.939,0,0,1-.888.635H17.784v49.5h46.57Z" transform="translate(-7.528 -0.001)" fill="#7aa5d9"/>
        <path id="Trazado_885823" data-name="Trazado 885823" d="M14.986,52.514,10.58,53.922,5.338,52.514c-.67-6.425-3.55-6.326-3.55-10.888a8.374,8.374,0,1,1,16.748,0c0,4.563-2.881,4.464-3.55,10.888" transform="translate(-0.846 -15.731)" fill="#ffe64b" fill-rule="evenodd"/>
        <path id="Trazado_885824" data-name="Trazado 885824" d="M8.981,76.729l4.711-1.409,4.461,1.409a4.586,4.586,0,1,1-9.172,0" transform="translate(-4.251 -35.651)" fill="#4882bc" fill-rule="evenodd"/>
        <path id="Trazado_885825" data-name="Trazado 885825" d="M102.115,39.482h7.968V34.6a1.373,1.373,0,0,0-1.369-1.369h-5.229a1.373,1.373,0,0,0-1.369,1.369Z" transform="translate(-48.334 -15.731)" fill="#4882bc" fill-rule="evenodd"/>
        <rect id="Rectángulo_406596" data-name="Rectángulo 406596" width="21.103" height="21.127" transform="translate(22.462 46.716)" fill="#8c99a0"/>
        <path id="Trazado_885826" data-name="Trazado 885826" d="M95.387,43.758h13.546a1.594,1.594,0,0,1,1.594,1.594V64.79a1.594,1.594,0,0,1-1.594,1.594H95.387a1.594,1.594,0,0,1-1.594-1.594V45.352a1.594,1.594,0,0,1,1.594-1.594" transform="translate(-44.395 -20.712)" fill="#14a8be" fill-rule="evenodd"/>
        <path id="Trazado_885827" data-name="Trazado 885827" d="M109.774,52.621a.939.939,0,1,0-1.879,0v5.112a.939.939,0,0,0,1.879,0Z" transform="translate(-51.07 -24.462)" fill="#ffc200"/>
        <path id="Trazado_885828" data-name="Trazado 885828" d="M109.1,58.413a.939.939,0,1,0,0-1.879h-5.205a.939.939,0,1,0,0,1.879Z" transform="translate(-48.732 -26.759)" fill="#ffc200"/>
        <path id="Trazado_885829" data-name="Trazado 885829" d="M109.1,77.108a.939.939,0,1,0,0-1.879h-5.205a.939.939,0,1,0,0,1.879Z" transform="translate(-48.732 -35.608)" fill="#ffc200"/>
        <path id="Trazado_885830" data-name="Trazado 885830" d="M7.312,69.84h9.64A1.361,1.361,0,0,1,18.313,71.2v1.574a1.361,1.361,0,0,1-1.361,1.36H7.312a1.361,1.361,0,0,1-1.361-1.36V71.2A1.361,1.361,0,0,1,7.312,69.84" transform="translate(-2.817 -33.058)" fill="#3a6088" fill-rule="evenodd"/>
        <path id="Trazado_885831" data-name="Trazado 885831" d="M62.656,106.608l-2.794-1.232-3.487,1.232-.384,5.706h7.048Z" transform="translate(-26.502 -49.878)" fill="#c7c6c6" fill-rule="evenodd"/>
        <path id="Trazado_885832" data-name="Trazado 885832" d="M63,102.715V97.976H56.72v5.129H63Z" transform="translate(-26.847 -46.375)" fill="#e4e4e4" fill-rule="evenodd"/>
        <path id="Trazado_885833" data-name="Trazado 885833" d="M14.139,52.608c-.032,0-.065,0-.1,0a.941.941,0,0,1-.837-1.032,14.368,14.368,0,0,1,2.245-6.679,6.859,6.859,0,0,0,1.3-4.112,7.435,7.435,0,1,0-14.87,0,6.879,6.879,0,0,0,1.3,4.113,14.329,14.329,0,0,1,2.247,6.679.94.94,0,0,1-1.869.195,12.4,12.4,0,0,0-1.99-5.91A8.691,8.691,0,0,1,0,40.78a9.314,9.314,0,1,1,18.628,0,8.678,8.678,0,0,1-1.567,5.076,12.435,12.435,0,0,0-1.988,5.91A.94.94,0,0,1,14.139,52.608Z" transform="translate(0 -14.886)" fill="#040506" fill-rule="evenodd"/>
        <path id="Trazado_885834" data-name="Trazado 885834" d="M6.464,69.935a.426.426,0,0,0-.421.421v1.575a.426.426,0,0,0,.421.421h9.642a.425.425,0,0,0,.42-.421V70.356a.425.425,0,0,0-.421-.421Zm9.642,4.3H6.464a2.3,2.3,0,0,1-2.3-2.3V70.356a2.3,2.3,0,0,1,2.3-2.3h9.642a2.3,2.3,0,0,1,2.3,2.3v1.575A2.3,2.3,0,0,1,16.106,74.23Z" transform="translate(-1.971 -32.213)" fill="#040506" fill-rule="evenodd"/>
        <path id="Trazado_885835" data-name="Trazado 885835" d="M12.717,82.686a5.535,5.535,0,0,1-5.524-5.534.939.939,0,1,1,1.879,0,3.647,3.647,0,1,0,7.293,0,.939.939,0,1,1,1.879,0,5.537,5.537,0,0,1-5.526,5.534" transform="translate(-3.405 -36.074)" fill="#040506" fill-rule="evenodd"/>
        <path id="Trazado_885836" data-name="Trazado 885836" d="M16.839,22.9a.94.94,0,0,1-.94-.939V10.349a.939.939,0,0,1,.94-.939H29.987a.939.939,0,1,1,0,1.879H17.778V21.957A.938.938,0,0,1,16.839,22.9Zm48.452,0a.939.939,0,0,1-.94-.939V11.288H51.09a.939.939,0,1,1,0-1.878h14.2a.939.939,0,0,1,.939.939V21.957a.939.939,0,0,1-.939.939m-35.3,39.778H16.838a.94.94,0,0,1-.939-.939V50.127a.939.939,0,1,1,1.879,0V60.795H29.987a.94.94,0,0,1,0,1.879m35.3,0H51.09a.939.939,0,0,1,0-1.879H64.351V50.127a.939.939,0,1,1,1.879,0V61.734A.94.94,0,0,1,65.291,62.674Z" transform="translate(-7.526 -4.454)" fill="#040506" fill-rule="evenodd"/>
        <path id="Trazado_885837" data-name="Trazado 885837" d="M56.575,11.789a.941.941,0,0,1-.865-.571L52.354,3.336,49,11.218a.94.94,0,0,1-1.73,0L43.913,3.336,42.666,6.263a.939.939,0,0,1-1.728-.736L43.048.57a.94.94,0,0,1,1.73,0l3.356,7.883L51.489.57a.939.939,0,0,1,1.728,0l3.358,7.883L59.931.57A.941.941,0,0,1,60.8,0h0a.938.938,0,0,1,.863.571l2.111,4.956a.939.939,0,0,1-1.728.736L60.8,3.336l-3.358,7.882A.938.938,0,0,1,56.575,11.789Z" transform="translate(-19.342 0)" fill="#040506" fill-rule="evenodd"/>
        <path id="Trazado_885838" data-name="Trazado 885838" d="M94.545,43.852a.664.664,0,0,0-.654.655v19.44a.663.663,0,0,0,.654.654h13.547a.663.663,0,0,0,.654-.654V44.506a.663.663,0,0,0-.654-.654Zm13.547,22.628H94.545a2.535,2.535,0,0,1-2.533-2.533V44.506a2.535,2.535,0,0,1,2.532-2.533h13.547a2.536,2.536,0,0,1,2.532,2.533v19.44a2.537,2.537,0,0,1-2.533,2.533" transform="translate(-43.552 -19.867)" fill="#040506" fill-rule="evenodd"/>
        <path id="Trazado_885839" data-name="Trazado 885839" d="M109.239,38.871a.94.94,0,0,1-.94-.939V33.758a.435.435,0,0,0-.429-.43h-5.23a.437.437,0,0,0-.431.43v4.174a.939.939,0,0,1-1.879,0V33.758a2.311,2.311,0,0,1,2.308-2.308h5.231a2.311,2.311,0,0,1,2.307,2.309v4.174A.94.94,0,0,1,109.239,38.871Z" transform="translate(-47.49 -14.886)" fill="#040506" fill-rule="evenodd"/>
        <path id="Trazado_885840" data-name="Trazado 885840" d="M108.837,58.671a.939.939,0,0,1-.94-.939V52.621a.939.939,0,1,1,1.879,0v5.112a.939.939,0,0,1-.939.939" transform="translate(-51.071 -24.462)" fill="#040506" fill-rule="evenodd"/>
        <path id="Trazado_885841" data-name="Trazado 885841" d="M109.1,58.413H103.9a.939.939,0,0,1,0-1.879H109.1a.939.939,0,0,1,0,1.879Z" transform="translate(-48.732 -26.759)" fill="#040506" fill-rule="evenodd"/>
        <path id="Trazado_885842" data-name="Trazado 885842" d="M109.1,77.109H103.9a.939.939,0,0,1,0-1.879H109.1a.939.939,0,0,1,0,1.879Z" transform="translate(-48.732 -35.609)" fill="#040506" fill-rule="evenodd"/>
        <path id="Trazado_885843" data-name="Trazado 885843" d="M42.743,108.047H61.966V88.8H42.743Zm20.164,1.879H41.8a.938.938,0,0,1-.94-.939V87.858a.938.938,0,0,1,.939-.939h21.1a.939.939,0,0,1,.939.939v21.128a.939.939,0,0,1-.939.939" transform="translate(-19.342 -41.142)" fill="#040506" fill-rule="evenodd"/>
        <path id="Trazado_885844" data-name="Trazado 885844" d="M56.151,107.03h5.041l-.317-4.7c0-.021,0-.042,0-.063v-4.19h-4.4v4.19c0,.021,0,.042,0,.063Zm6.045,1.879H55.147a.938.938,0,0,1-.938-1l.382-5.674v-5.1a.939.939,0,0,1,.939-.939h6.282a.94.94,0,0,1,.939.94v5.1l.382,5.674a.938.938,0,0,1-.937,1Z" transform="translate(-25.658 -45.532)" fill="#040506" fill-rule="evenodd"/>
        <path id="Trazado_885845" data-name="Trazado 885845" d="M62.453,107.813H56.033c-.518,0-.47-.362-.47-.881s-.049-1,.47-1h6.421a.939.939,0,0,1,0,1.879Z" transform="translate(-26.299 -50.142)" fill="#040506" fill-rule="evenodd"/>
      </g>
    </g>
  </g>
</svg>
