<svg xmlns="http://www.w3.org/2000/svg" xmlns:xlink="http://www.w3.org/1999/xlink" width="107" height="107" viewBox="0 0 107 107">
  <defs>
    <clipPath id="clip-path">
      <rect id="Rectángulo_406571" data-name="Rectángulo 406571" width="63.313" height="75.569" fill="#fff"/>
    </clipPath>
  </defs>
  <g id="Grupo_1110697" data-name="Grupo 1110697" transform="translate(-746.5 -1012)">
    <path id="Elipse_5845" data-name="Elipse 5845" d="M53.5,0A53.5,53.5,0,1,1,0,53.5,53.5,53.5,0,0,1,53.5,0Z" transform="translate(746.5 1012)" fill="#505ea3"/>
    <g id="Grupo_1108889" data-name="Grupo 1108889" transform="translate(768.616 1028.771)">
      <g id="Grupo_1108888" data-name="Grupo 1108888" transform="translate(0 0)" clip-path="url(#clip-path)">
        <path id="Trazado_885751" data-name="Trazado 885751" d="M34.509,29.328a8.537,8.537,0,1,0-8.537-8.537,8.548,8.548,0,0,0,8.537,8.537m0-14.4a5.867,5.867,0,1,1-5.866,5.866,5.874,5.874,0,0,1,5.866-5.866" transform="translate(-2.852 -1.346)" fill="#fff"/>
        <path id="Trazado_885752" data-name="Trazado 885752" d="M52.562,36.673a14.134,14.134,0,0,0-8.438,2.963c-1.562-4.991-7.97-6.871-12.467-6.871-3.255,0-9.658,1.533-11.967,5.8-2.222-2.339-6.047-3.279-8.938-3.279C7.383,35.289,0,37.261,0,43.122V53.3a1.335,1.335,0,1,0,2.671,0V43.122c0-4.211,6.825-5.163,8.081-5.163,2.1,0,8.081.948,8.081,5.163V56.91a1.335,1.335,0,0,0,2.671,0V42.028c0-5.378,8.576-6.593,10.153-6.593,2.634,0,10.153,1.212,10.153,6.593V56.91a1.335,1.335,0,1,0,2.671,0v-12.4c0-4.211,6.825-5.163,8.081-5.163,2.1,0,8.081.948,8.081,5.163V54.682a1.335,1.335,0,0,0,2.671,0V44.506c0-5.747-6.429-7.834-10.752-7.834" transform="translate(0 -3.598)" fill="#fff"/>
        <path id="Trazado_885753" data-name="Trazado 885753" d="M50.916,27.582a7.239,7.239,0,1,0,7.238-7.239,7.246,7.246,0,0,0-7.238,7.239m7.237-4.568a4.568,4.568,0,1,1-4.568,4.568,4.574,4.574,0,0,1,4.568-4.568" transform="translate(-5.591 -2.234)" fill="#fff"/>
        <path id="Trazado_885754" data-name="Trazado 885754" d="M51.168,18.052a5.664,5.664,0,1,0-5.662-5.663,5.67,5.67,0,0,0,5.662,5.663m0-8.658a2.993,2.993,0,1,1-2.992,2.994,3,3,0,0,1,2.992-2.994" transform="translate(-4.997 -0.738)" fill="#fff"/>
        <path id="Trazado_885755" data-name="Trazado 885755" d="M19.5,17.243a5.509,5.509,0,1,0-5.508-5.509A5.515,5.515,0,0,0,19.5,17.243m0-8.347a2.838,2.838,0,1,1-2.838,2.838A2.841,2.841,0,0,1,19.5,8.9" transform="translate(-1.536 -0.684)" fill="#fff"/>
        <path id="Trazado_885756" data-name="Trazado 885756" d="M34.944,10.015a5.008,5.008,0,1,0-5.007-5.008,5.014,5.014,0,0,0,5.007,5.008m0-7.345a2.337,2.337,0,1,1-2.337,2.337,2.341,2.341,0,0,1,2.337-2.337" transform="translate(-3.288 0)" fill="#fff"/>
        <path id="Trazado_885757" data-name="Trazado 885757" d="M11.185,33.266a7.239,7.239,0,1,0-7.238-7.238,7.247,7.247,0,0,0,7.238,7.238m0-11.807a4.568,4.568,0,1,1-4.568,4.568,4.574,4.574,0,0,1,4.568-4.568" transform="translate(-0.433 -2.063)" fill="#fff"/>
        <path id="Trazado_885758" data-name="Trazado 885758" d="M41.755,63.018H40.627a1.335,1.335,0,0,0-1.335,1.335v4.2a4.709,4.709,0,0,1-3.571,4.556V65.564a1.333,1.333,0,0,0-.557-2.545H33.608a1.333,1.333,0,0,0-.558,2.545v7.424a4.7,4.7,0,0,1-3.182-4.434v-4.2a1.335,1.335,0,0,0-1.335-1.335H27.25a1.335,1.335,0,0,0-.053,2.67v2.866a7.393,7.393,0,0,0,5.852,7.22v4.17a1.333,1.333,0,0,0,.558,2.545h1.555a1.333,1.333,0,0,0,.557-2.545V75.838a7.386,7.386,0,0,0,6.242-7.284V65.673a1.335,1.335,0,0,0-.207-2.655" transform="translate(-2.846 -6.92)" fill="#fff"/>
      </g>
    </g>
  </g>
</svg>
