<svg xmlns="http://www.w3.org/2000/svg" xmlns:xlink="http://www.w3.org/1999/xlink" width="85" height="83" viewBox="0 0 85 83">
  <defs>
    <clipPath id="clip-path">
      <rect id="Rectángulo_406626" data-name="Rectángulo 406626" width="85" height="83" transform="translate(284.711 16520)" fill="#fff" stroke="#707070" stroke-width="1"/>
    </clipPath>
    <clipPath id="clip-path-2">
      <rect id="Rectángulo_406625" data-name="Rectángulo 406625" width="38.359" height="49.025" fill="none"/>
    </clipPath>
  </defs>
  <g id="Grupo_1110706" data-name="Grupo 1110706" transform="translate(-284.711 -16520)">
    <g id="Enmascarar_grupo_1098861" data-name="Enmascarar grupo 1098861" clip-path="url(#clip-path)">
      <g id="Grupo_1109004" data-name="Grupo 1109004" transform="translate(-1 9)">
        <g id="Grupo_1109005" data-name="Grupo 1109005" transform="translate(0 3)">
          <rect id="Rectángulo_406623" data-name="Rectángulo 406623" width="72" height="72" rx="5" transform="translate(292.711 16514)" fill="#1db4c9"/>
          <g id="Grupo_1109003" data-name="Grupo 1109003" transform="translate(309.481 16525.43)">
            <g id="Grupo_1109002" data-name="Grupo 1109002" clip-path="url(#clip-path-2)">
              <path id="Trazado_886081" data-name="Trazado 886081" d="M48.9,3.783v37.49a.568.568,0,0,1-.966.454l-3.749-3.522a.681.681,0,0,0-.8,0L42.086,39.4V10.429a3.408,3.408,0,0,0-3.408-3.408H17.66V3.783A3.408,3.408,0,0,1,21.068.375H45.494A3.408,3.408,0,0,1,48.9,3.783" transform="translate(-10.694 -0.227)" fill="#a9b9f7"/>
              <path id="Trazado_886082" data-name="Trazado 886082" d="M48.9,3.783v37.49a.568.568,0,0,1-.966.454l-3.749-3.522a.681.681,0,0,0-.8,0L42.086,39.4V10.429a3.408,3.408,0,0,0-3.408-3.408H17.66V3.783A3.408,3.408,0,0,1,21.068.375H45.494A3.408,3.408,0,0,1,48.9,3.783Z" transform="translate(-10.694 -0.227)" fill="none" stroke="#0c1d30" stroke-miterlimit="10" stroke-width="0.75"/>
              <path id="Trazado_886083" data-name="Trazado 886083" d="M31.619,49.6v8.577a.568.568,0,0,1-.966.454L26.9,55.111a.681.681,0,0,0-.8,0l-4.487,4.033a.568.568,0,0,1-.8,0L16.4,55.111a.681.681,0,0,0-.8,0L11.17,59.144a.568.568,0,0,1-.8,0L5.887,55.111a.681.681,0,0,0-.8,0L1.343,58.633a.568.568,0,0,1-.965-.454V20.632a3.408,3.408,0,0,1,3.408-3.409H28.211a3.408,3.408,0,0,1,3.408,3.409V49.6ZM14.407,37.1l5.4-10.111H16.85V22.563H12.192v7.725h2.215Z" transform="translate(-0.227 -10.429)" fill="#c8daf2"/>
              <path id="Trazado_886084" data-name="Trazado 886084" d="M31.619,49.6v8.577a.568.568,0,0,1-.966.454L26.9,55.111a.681.681,0,0,0-.8,0l-4.487,4.033a.568.568,0,0,1-.8,0L16.4,55.111a.681.681,0,0,0-.8,0L11.17,59.144a.568.568,0,0,1-.8,0L5.887,55.111a.681.681,0,0,0-.8,0L1.343,58.633a.568.568,0,0,1-.965-.454V20.632a3.408,3.408,0,0,1,3.408-3.409H28.211a3.408,3.408,0,0,1,3.408,3.409V49.6ZM14.407,37.1l5.4-10.111H16.85V22.563H12.192v7.725h2.215Z" transform="translate(-0.227 -10.429)" fill="none" stroke="#0c1d30" stroke-miterlimit="10" stroke-width="0.75"/>
              <path id="Trazado_886085" data-name="Trazado 886085" d="M37.944,35.19,32.548,45.3V38.485H30.332V30.759H34.99V35.19Z" transform="translate(-18.367 -18.626)" fill="#fbf35d"/>
              <path id="Trazado_886086" data-name="Trazado 886086" d="M37.944,35.19,32.548,45.3V38.485H30.332V30.759H34.99V35.19Z" transform="translate(-18.367 -18.626)" fill="none" stroke="#0c1d30" stroke-miterlimit="10" stroke-width="0.75"/>
              <line id="Línea_4393" data-name="Línea 4393" x2="20.759" transform="translate(4.974 31.551)" fill="none" stroke="#0c1d30" stroke-linecap="round" stroke-miterlimit="10" stroke-width="0.75"/>
              <line id="Línea_4394" data-name="Línea 4394" x2="20.759" transform="translate(4.974 35.46)" fill="none" stroke="#0c1d30" stroke-linecap="round" stroke-miterlimit="10" stroke-width="0.75"/>
              <line id="Línea_4395" data-name="Línea 4395" x2="20.759" transform="translate(4.974 39.368)" fill="none" stroke="#0c1d30" stroke-linecap="round" stroke-miterlimit="10" stroke-width="0.75"/>
            </g>
          </g>
        </g>
      </g>
    </g>
  </g>
</svg>
