<svg id="Grupo_1108925" data-name="Grupo 1108925" xmlns="http://www.w3.org/2000/svg" xmlns:xlink="http://www.w3.org/1999/xlink" width="314.761" height="237.305" viewBox="0 0 314.761 237.305">
  <defs>
    <clipPath id="clip-path">
      <rect id="Rectángulo_406584" data-name="Rectángulo 406584" width="314.761" height="237.305" fill="none"/>
    </clipPath>
    <clipPath id="clip-path-3">
      <rect id="Rectángulo_406573" data-name="Rectángulo 406573" width="17.236" height="63.514" fill="none"/>
    </clipPath>
    <clipPath id="clip-path-4">
      <rect id="Rectángulo_406574" data-name="Rectángulo 406574" width="5.645" height="9.863" fill="none"/>
    </clipPath>
    <clipPath id="clip-path-5">
      <rect id="Rectángulo_406575" data-name="Rectángulo 406575" width="82.545" height="15.348" fill="none"/>
    </clipPath>
    <clipPath id="clip-path-6">
      <rect id="Rectángulo_406576" data-name="Rectángulo 406576" width="10.121" height="12.375" fill="none"/>
    </clipPath>
    <clipPath id="clip-path-8">
      <rect id="Rectángulo_406578" data-name="Rectángulo 406578" width="10.768" height="30.82" fill="none"/>
    </clipPath>
    <clipPath id="clip-path-9">
      <rect id="Rectángulo_406579" data-name="Rectángulo 406579" width="8.619" height="6.365" fill="none"/>
    </clipPath>
    <clipPath id="clip-path-10">
      <rect id="Rectángulo_406580" data-name="Rectángulo 406580" width="63.06" height="9.684" fill="none"/>
    </clipPath>
    <clipPath id="clip-path-11">
      <rect id="Rectángulo_406581" data-name="Rectángulo 406581" width="71.097" height="71.097" fill="none"/>
    </clipPath>
    <clipPath id="clip-path-12">
      <rect id="Rectángulo_406582" data-name="Rectángulo 406582" width="71.098" height="21.835" fill="none"/>
    </clipPath>
  </defs>
  <g id="Grupo_1108924" data-name="Grupo 1108924" clip-path="url(#clip-path)">
    <g id="Grupo_1108923" data-name="Grupo 1108923">
      <g id="Grupo_1108922" data-name="Grupo 1108922" clip-path="url(#clip-path)">
        <path id="Trazado_885760" data-name="Trazado 885760" d="M147.507,134.042l3.647-5.74-4.226-3.529c-.305-.227-2.292-1.528-2.9-.6a1.122,1.122,0,0,0,.181,1.326,1.032,1.032,0,0,0-1.231.283,1.061,1.061,0,0,0,.1,1.211.957.957,0,0,0-1.094.316,1.121,1.121,0,0,0,.18,1.324,1.031,1.031,0,0,0-1.229.284c-.566.868.628,1.853,1.056,2.166Z" transform="translate(45.3 39.848)" fill="#fed3b1"/>
        <path id="Trazado_885761" data-name="Trazado 885761" d="M150.12,127.226l-1.394-1.25-4.326,6.74,1.687.819Z" transform="translate(46.462 40.534)" fill="#f3f2f2"/>
        <path id="Trazado_885762" data-name="Trazado 885762" d="M186.983,115.34s-.131,51.056-42.07,22.085l4.642-7.843s26.7,21.75,30.523-10.873Z" transform="translate(46.627 37.112)" fill="#151515"/>
        <path id="Trazado_885763" data-name="Trazado 885763" d="M150.271,134.647a.834.834,0,1,1,1.176-.1.834.834,0,0,1-1.176.1" transform="translate(48.257 42.851)" fill="#393839"/>
        <path id="Trazado_885764" data-name="Trazado 885764" d="M148.368,133.525a.834.834,0,1,1,1.176-.1.834.834,0,0,1-1.176.1" transform="translate(47.644 42.49)" fill="#393839"/>
        <path id="Trazado_885765" data-name="Trazado 885765" d="M146.517,132.443c-.408-.552-.4-.825-.1-1.176a.834.834,0,1,1,1.27,1.083.78.78,0,0,1-1.175.094" transform="translate(47.042 42.142)" fill="#393839"/>
        <path id="Trazado_885766" data-name="Trazado 885766" d="M135.8,161.684l7.332-58.127a2.236,2.236,0,0,1,2.5-1.939l14.779,1.864a2.236,2.236,0,0,1,1.939,2.5l-7.332,58.128a2.235,2.235,0,0,1-2.5,1.938l-14.779-1.864a2.236,2.236,0,0,1-1.939-2.5" transform="translate(43.688 32.691)" fill="#35a170"/>
        <g id="Grupo_1108894" data-name="Grupo 1108894" transform="translate(179.466 134.291)" style="mix-blend-mode: multiply;isolation: isolate">
          <g id="Grupo_1108893" data-name="Grupo 1108893">
            <g id="Grupo_1108892" data-name="Grupo 1108892" clip-path="url(#clip-path-3)">
              <path id="Trazado_885767" data-name="Trazado 885767" d="M153.014,102.55l-7.389-.932a2.237,2.237,0,0,0-2.5,1.939l-7.33,58.127a2.235,2.235,0,0,0,1.938,2.5l7.39.932Z" transform="translate(-135.778 -101.6)" fill="#f3f2f2"/>
            </g>
          </g>
        </g>
        <g id="Grupo_1108897" data-name="Grupo 1108897" transform="translate(182.593 160.103)" style="mix-blend-mode: multiply;isolation: isolate">
          <g id="Grupo_1108896" data-name="Grupo 1108896">
            <g id="Grupo_1108895" data-name="Grupo 1108895" clip-path="url(#clip-path-4)">
              <path id="Trazado_885768" data-name="Trazado 885768" d="M140.415,121.211a7.23,7.23,0,0,0-1.059-.083l-1.212,9.612a7.676,7.676,0,0,0,.8.168c2.006.3,3.754-.245,3.9-1.225a1.323,1.323,0,0,0-.513-1.126,1.131,1.131,0,0,0,.309-2.047,1.131,1.131,0,0,0,.311-2.049,1.319,1.319,0,0,0,.823-.924c.149-.979-1.357-2.021-3.364-2.325" transform="translate(-138.144 -121.129)" fill="#f3f2f2"/>
            </g>
          </g>
        </g>
        <path id="Trazado_885769" data-name="Trazado 885769" d="M140.449,120.7c-2.006-.3-3.754.245-3.9,1.225a1.321,1.321,0,0,0,.514,1.126,1.13,1.13,0,0,0-.311,2.047,1.131,1.131,0,0,0-.311,2.049,1.319,1.319,0,0,0-.823.924c-.149.979,1.357,2.021,3.364,2.325s3.754-.245,3.9-1.225a1.323,1.323,0,0,0-.513-1.126,1.131,1.131,0,0,0,.309-2.047,1.131,1.131,0,0,0,.311-2.049,1.319,1.319,0,0,0,.823-.924c.149-.979-1.357-2.021-3.364-2.325" transform="translate(43.632 38.811)" fill="#fed3b1"/>
        <path id="Trazado_885770" data-name="Trazado 885770" d="M239.157,104.33l-7.71-.415-.11-5.756c-.013-.407-.416-11.035,1.628-10.94,1.562.073.518,8.088.691,8.6.169-.488.469-.927,1-.912s.8.779.986,1.224a1.219,1.219,0,0,1,1.12-.74c.572.016.964.742.974,1.387a1.112,1.112,0,0,1,1.055-.871c1.285.059,1.109,1.195,1.123,1.765Z" transform="translate(74.422 28.063)" fill="#fed3b1"/>
        <path id="Trazado_885771" data-name="Trazado 885771" d="M231.112,100.278l.028-1.815,8.607.522-.214,1.606Z" transform="translate(74.362 31.682)" fill="#f3f2f2"/>
        <path id="Trazado_885772" data-name="Trazado 885772" d="M209.807,133.893s35.859,25.556,37.448-33.707l-9.752-.7S239.2,146.7,210.821,124.8Z" transform="translate(67.507 32.012)" fill="#151515"/>
        <path id="Trazado_885773" data-name="Trazado 885773" d="M237.442,105.843a.894.894,0,1,0-.8.979.893.893,0,0,0,.8-.979" transform="translate(75.825 33.797)" fill="#393839"/>
        <path id="Trazado_885774" data-name="Trazado 885774" d="M237.616,103.48a.895.895,0,1,0-.8.979.895.895,0,0,0,.8-.979" transform="translate(75.881 33.036)" fill="#393839"/>
        <path id="Trazado_885775" data-name="Trazado 885775" d="M237.794,101.183a.895.895,0,1,0-.8.978.893.893,0,0,0,.8-.978" transform="translate(75.938 32.297)" fill="#393839"/>
        <g id="Grupo_1108900" data-name="Grupo 1108900" transform="translate(202.801 221.956)" style="mix-blend-mode: multiply;isolation: isolate">
          <g id="Grupo_1108899" data-name="Grupo 1108899">
            <g id="Grupo_1108898" data-name="Grupo 1108898" clip-path="url(#clip-path-5)">
              <path id="Trazado_885776" data-name="Trazado 885776" d="M235.978,175.567c0,4.239-18.477,7.689-41.271,7.706s-41.273-3.4-41.275-7.644,18.474-7.689,41.268-7.7,41.275,3.4,41.277,7.642" transform="translate(-153.433 -167.925)" fill="#e1e0e0"/>
            </g>
          </g>
        </g>
        <path id="Trazado_885777" data-name="Trazado 885777" d="M169.362,149.055l-.323,14.743,2.922,13.7s-5.931-4.412-8.776.661c-4.01,7.149,12.44,3.347,12.44,3.347L173.515,163.8l1.416-8.807a154.065,154.065,0,0,0,40.287,5.3l.367,7.333,2.833,11.869s-6.728-6.066-9.045,0c-3.1,8.114,12.353,2.765,12.353,2.765l-1.361-14.635,1.392-9.712s-19.065-8.072-52.395-8.851" transform="translate(52.304 47.96)" fill="#111011"/>
        <path id="Trazado_885778" data-name="Trazado 885778" d="M212.254,120.543l-21.872,21.5-14.65-26.534-5.3-.677-2.729,45.237s4.687,2.317,15.137,4.616c4.36,1.039,11.105,2.055,11.105,2.055,6.9.908,16.283,1.794,26.151,2.18l10.792-45.829Z" transform="translate(53.961 36.948)" fill="#151515"/>
        <path id="Trazado_885779" data-name="Trazado 885779" d="M169.771,127.142s.666-71.536,49.049-44.453c0,0,26.312,1.872,11.405,52.712Z" transform="translate(54.625 24.636)" fill="#fed3b1"/>
        <path id="Trazado_885780" data-name="Trazado 885780" d="M175.457,63.1S157.024,99.682,215.2,99.159l1.347,14.378s6.368-4.846,7.333,1.2-6.091,3.245-6.091,3.245,4.625,17.033,11.5,21.755c0,0,24.685-53.6,2.407-54.71,0,0,2.165-15.58-17.652-18.717C194.958,63.285,179.978,84.5,175.457,63.1" transform="translate(55.563 20.302)" fill="#151515"/>
        <path id="Trazado_885781" data-name="Trazado 885781" d="M173.777,115.341l14.649,26.536,21.874-21.5Z" transform="translate(55.914 37.112)" fill="#f3f2f2"/>
        <path id="Trazado_885782" data-name="Trazado 885782" d="M174.175,115.341l-1.634,10.287,5.666,1.973-1.874,7.744,12.491,6.531Z" transform="translate(55.517 37.112)" fill="#393839"/>
        <path id="Trazado_885783" data-name="Trazado 885783" d="M184.861,140.65l13.545-4.469.319-5.772,6.43-1.4,1.578-9.862Z" transform="translate(59.481 38.338)" fill="#393839"/>
        <path id="Trazado_885784" data-name="Trazado 885784" d="M183.177,121.1l2.31-2.617,4.986.494,1.357,3.712-2.31,2.071,1.229,11.264-4.941,4.835-3.9-7.048,3.192-9.534Z" transform="translate(58.532 38.124)" fill="#111011"/>
        <path id="Trazado_885785" data-name="Trazado 885785" d="M186.392,139.26a1.688,1.688,0,1,1-1.02-2.158,1.689,1.689,0,0,1,1.02,2.158" transform="translate(58.919 44.081)" fill="#393839"/>
        <path id="Trazado_885786" data-name="Trazado 885786" d="M185.818,145.072a1.688,1.688,0,1,1-1.022-2.158,1.689,1.689,0,0,1,1.022,2.158" transform="translate(58.734 45.952)" fill="#393839"/>
        <path id="Trazado_885787" data-name="Trazado 885787" d="M198.123,108.5s-10.189-2.51-18.395-2.35c0,0-1.29,9.213,8.019,10.4s10.376-8.051,10.376-8.051" transform="translate(57.809 34.154)" fill="#e46673"/>
        <path id="Trazado_885788" data-name="Trazado 885788" d="M196.631,106.109a5.585,5.585,0,0,0,3.964-.876c2.568-1.745,3.191-5.3,3.216-5.45l-1.171-.2c-.005.032-.57,3.213-2.716,4.668a4.629,4.629,0,0,1-3.7.582c-4.626-.993-3.783-6.663-3.743-6.9l-1.172-.185c-.385,2.424.1,7.27,4.666,8.25.222.048.44.085.656.112" transform="translate(61.522 31.451)" fill="#151515"/>
        <path id="Trazado_885789" data-name="Trazado 885789" d="M181.046,104.106h.012a5.191,5.191,0,0,0,4.066-1.059c2.392-1.932,2.744-5.678,2.759-5.837l-1.183-.1c0,.033-.325,3.409-2.325,5.019a4.051,4.051,0,0,1-3.168.8H181.2a4.668,4.668,0,0,1-3.326-1.782c-1.507-2.034-1-5.1-1-5.132l-1.17-.2c-.025.147-.6,3.587,1.208,6.036a5.812,5.812,0,0,0,4.133,2.259" transform="translate(56.5 30.828)" fill="#151515"/>
        <path id="Trazado_885790" data-name="Trazado 885790" d="M59.879,127.441l6.711-1.852C79.351,143.8,90,123.708,93.272,114.529c.108-.305.9-2.17,1.767-1.8a.956.956,0,0,1,.5,1.026.88.88,0,0,1,1.007-.383.9.9,0,0,1,.5.905.818.818,0,0,1,.925-.3.956.956,0,0,1,.5,1.024c.27-.312.617-.549,1.006-.383.813.348.538,1.283.282,2.037-7.127,20.867-24.529,34.695-39.884,10.782" transform="translate(19.267 36.256)" fill="#fed3b1"/>
        <path id="Trazado_885791" data-name="Trazado 885791" d="M59.879,124.3l6.709-1.852a24.873,24.873,0,0,0,4.039,4.608l-4.721,4.684a38.978,38.978,0,0,1-6.027-7.44" transform="translate(19.267 39.398)" fill="#f3f2f2"/>
        <g id="Grupo_1108903" data-name="Grupo 1108903" transform="translate(79.145 161.846)" style="mix-blend-mode: multiply;isolation: isolate">
          <g id="Grupo_1108902" data-name="Grupo 1108902">
            <g id="Grupo_1108901" data-name="Grupo 1108901" clip-path="url(#clip-path-6)">
              <path id="Trazado_885792" data-name="Trazado 885792" d="M66.59,122.448,59.878,124.3c3.32,5.169,6.736,8.572,10.122,10.524l-2.806-11.539q-.3-.4-.6-.837" transform="translate(-59.879 -122.447)" fill="#f3f2f2"/>
            </g>
          </g>
        </g>
        <g id="Grupo_1108906" data-name="Grupo 1108906" transform="translate(22.632 221.956)" style="mix-blend-mode: multiply;isolation: isolate">
          <g id="Grupo_1108905" data-name="Grupo 1108905">
            <g id="Grupo_1108904" data-name="Grupo 1108904" clip-path="url(#clip-path-5)">
              <path id="Trazado_885793" data-name="Trazado 885793" d="M99.668,175.567c0,4.239-18.477,7.689-41.271,7.706s-41.273-3.4-41.275-7.644,18.474-7.689,41.268-7.7,41.275,3.4,41.277,7.642" transform="translate(-17.123 -167.925)" fill="#e1e0e0"/>
            </g>
          </g>
        </g>
        <path id="Trazado_885794" data-name="Trazado 885794" d="M80.045,134.635s-8.652-75.823-52.614-42.8c0,0-14.015,11.756-6.112,49.036,40.158,4.687,58.726-6.235,58.726-6.235" transform="translate(6.082 26.868)" fill="#fed3b1"/>
        <path id="Trazado_885795" data-name="Trazado 885795" d="M32.222,121.785,30.911,109a143.372,143.372,0,0,0,41.76-13.383c-7.1-20.272-26.237-19.583-36.533-16.435-13.081,3.726-17.577,12.795-18.5,16.03a6.057,6.057,0,0,1-1.478-2.765,4.028,4.028,0,0,0-.357,4.343,3.976,3.976,0,0,0-3.176,2.95,4.783,4.783,0,0,1,2.33-.373c-12.853,7.854,8.94,43.47,8.94,43.47,5.257-4.162,8.019-17.464,8.019-17.464s-5.37,2.912-5.179-1.988,5.484-1.6,5.484-1.6" transform="translate(3.507 24.94)" fill="#2e1b11"/>
        <path id="Trazado_885796" data-name="Trazado 885796" d="M12.781,99.664l-.077,0s.029,0,.077,0" transform="translate(4.088 32.068)" fill="#fed3b1"/>
        <path id="Trazado_885797" data-name="Trazado 885797" d="M.562,121.817A22.839,22.839,0,0,1,7.653,99.725s8.963-7.308,12.649-2.132c0,0,.843,1.052-.332,1.079s-2.774-1.647-4.327-.582c0,0,1.581-.6,1.725.7.069.623-1.184.74-1.505.76l-.077,0,.077,0c.3-.011,1.447-.005,1.549.711.149,1.055-.788,1.13-1.092,1.127-.057,0-.094,0-.094,0l.094,0a.861.861,0,0,1,.849,1.168c-.246,1.071-1.918.448-1.918.448s-3.714.173-5.321,2.433c-12.524,18.594,8.105,30.444,17.476,31.531l1.6,7.39C17.252,142.62,3.579,135.842.562,121.817" transform="translate(0 30.805)" fill="#fed3b1"/>
        <path id="Trazado_885798" data-name="Trazado 885798" d="M13.132,101.056c-.057,0-.1,0-.1,0s.037,0,.1,0" transform="translate(4.195 32.514)" fill="#fed3b1"/>
        <path id="Trazado_885799" data-name="Trazado 885799" d="M26.667,155.526l1.95,12.947L26.578,182.5s20.9,5.652,15.632-2.595c-4.864-7.615-12.456-1.287-12.456-1.287l3.795-10.866.494-8.215s21.619,1.3,39.856-3.977l.912,9.186-4.322,15.523s19.8,6.494,14.445-2.5c-2.97-4.987-10.266-1.857-10.266-1.857l4.986-11.189.283-14.8Z" transform="translate(8.552 48.241)" fill="#2e1b11"/>
        <path id="Trazado_885800" data-name="Trazado 885800" d="M79.456,122.188l2.362,36.668s-21.81,6.437-53.271,5.6l-7.813-35.989s36.373,3.193,58.722-6.276" transform="translate(6.671 39.315)" fill="#f3f2f2"/>
        <g id="Grupo_1108909" data-name="Grupo 1108909" transform="translate(65.603 168.187)" style="mix-blend-mode: multiply;isolation: isolate">
          <g id="Grupo_1108908" data-name="Grupo 1108908">
            <g id="Grupo_1108907" data-name="Grupo 1108907" clip-path="url(#clip-path-8)">
              <path id="Trazado_885801" data-name="Trazado 885801" d="M57.521,127.245l1.25,1.951-1.335,2.515,2.965,21.2-5.45,5.155-5.319-4.692L54.455,132.2l-1.987-2.388.808-1.741Z" transform="translate(-49.633 -127.245)" fill="#e1e0e0"/>
            </g>
          </g>
        </g>
        <path id="Trazado_885802" data-name="Trazado 885802" d="M57.218,127.245l1.25,1.951-1.335,2.515,4.208,20.734L55.891,157.6l-5.317-4.692L54.152,132.2l-1.987-2.388.808-1.741Z" transform="translate(16.273 40.942)" fill="#2e1b11"/>
        <path id="Trazado_885803" data-name="Trazado 885803" d="M22.659,127.511a25.582,25.582,0,0,1-7.611-2.362l-.3,7.262a45.208,45.208,0,0,0,9.511,2.49Z" transform="translate(4.747 40.268)" fill="#f3f2f2"/>
        <path id="Trazado_885804" data-name="Trazado 885804" d="M43.624,123.025s10.684-1.151,16.889-4.145c0,0-.605-9.444-10.53-7.309-9.823,2.112-6.359,11.454-6.359,11.454" transform="translate(13.846 35.798)" fill="#e46673"/>
        <path id="Trazado_885805" data-name="Trazado 885805" d="M53.756,105.336c.558,1.7,1.663,2.859,2.469,2.6s1.007-1.85.449-3.546-1.664-2.859-2.469-2.6-1.007,1.85-.449,3.548" transform="translate(17.195 32.739)" fill="#2e1b11"/>
        <path id="Trazado_885806" data-name="Trazado 885806" d="M36.8,111.562c.556,1.7,1.661,2.86,2.469,2.6s1.006-1.852.445-3.548-1.661-2.859-2.468-2.6-1.006,1.85-.447,3.548" transform="translate(11.739 34.743)" fill="#2e1b11"/>
        <path id="Trazado_885807" data-name="Trazado 885807" d="M38.031,104.491l-4.807,7.882,1.034.752,5.2-7.876Z" transform="translate(10.69 33.621)" fill="#2e1b11"/>
        <path id="Trazado_885808" data-name="Trazado 885808" d="M52.686,98.592l7.974,4.653-.654,1.116-7.744-4.522Z" transform="translate(16.816 31.723)" fill="#2e1b11"/>
        <g id="Grupo_1108912" data-name="Grupo 1108912" transform="translate(110.672 148.938)" style="mix-blend-mode: multiply;isolation: isolate">
          <g id="Grupo_1108911" data-name="Grupo 1108911">
            <g id="Grupo_1108910" data-name="Grupo 1108910" clip-path="url(#clip-path-9)">
              <path id="Trazado_885809" data-name="Trazado 885809" d="M91.807,114.623a.877.877,0,0,0-1.006.383.956.956,0,0,0-.5-1.024.816.816,0,0,0-.925.3.908.908,0,0,0-.5-.907.883.883,0,0,0-1.007.383.957.957,0,0,0-.5-1.024c-.871-.371-1.66,1.494-1.769,1.8-.473,1.327-1.1,2.883-1.865,4.518h7.482q.46-1.178.875-2.387c.256-.753.533-1.689-.282-2.037" transform="translate(-83.731 -112.682)" fill="#f3f2f2"/>
            </g>
          </g>
        </g>
        <path id="Trazado_885810" data-name="Trazado 885810" d="M130.894,120.323H72.306a2.235,2.235,0,0,1-2.235-2.236V103.191a2.235,2.235,0,0,1,2.235-2.236h58.588a2.236,2.236,0,0,1,2.236,2.236v14.895a2.236,2.236,0,0,1-2.236,2.236" transform="translate(22.546 32.483)" fill="#2b4290"/>
        <g id="Grupo_1108915" data-name="Grupo 1108915" transform="translate(92.616 143.122)" style="mix-blend-mode: multiply;isolation: isolate">
          <g id="Grupo_1108914" data-name="Grupo 1108914">
            <g id="Grupo_1108913" data-name="Grupo 1108913" clip-path="url(#clip-path-10)">
              <path id="Trazado_885811" data-name="Trazado 885811" d="M70.071,108.282v7.448a2.235,2.235,0,0,0,2.235,2.236h58.588a2.237,2.237,0,0,0,2.236-2.236v-7.448Z" transform="translate(-70.07 -108.282)" fill="#f3f2f2"/>
            </g>
          </g>
        </g>
        <path id="Trazado_885812" data-name="Trazado 885812" d="M177.2,94.908a58,58,0,1,0-12.681,11.436l18.16,5.78Z" transform="translate(23.945)" fill="#fff"/>
        <g id="Grupo_1108918" data-name="Grupo 1108918" transform="translate(117.38 25.908)" style="mix-blend-mode: multiply;isolation: isolate">
          <g id="Grupo_1108917" data-name="Grupo 1108917">
            <g id="Grupo_1108916" data-name="Grupo 1108916" clip-path="url(#clip-path-11)">
              <path id="Trazado_885813" data-name="Trazado 885813" d="M157.383,44.231H135.274V22.122a2.521,2.521,0,0,0-2.522-2.522H115.959a2.521,2.521,0,0,0-2.522,2.522V44.231H91.328a2.521,2.521,0,0,0-2.522,2.521V63.546a2.522,2.522,0,0,0,2.522,2.522h22.109V88.177a2.521,2.521,0,0,0,2.522,2.521h16.793a2.521,2.521,0,0,0,2.522-2.521V66.068h22.109a2.521,2.521,0,0,0,2.521-2.522V46.752a2.521,2.521,0,0,0-2.521-2.521" transform="translate(-88.806 -19.601)" fill="#eeefef"/>
            </g>
          </g>
        </g>
        <path id="Trazado_885814" data-name="Trazado 885814" d="M160.274,57.465H93.649a2.236,2.236,0,0,1-2.236-2.236V37.864a2.236,2.236,0,0,1,2.236-2.236h66.625a2.237,2.237,0,0,1,2.236,2.236V55.228a2.236,2.236,0,0,1-2.236,2.236" transform="translate(29.413 11.464)" fill="#2b4290"/>
        <g id="Grupo_1108921" data-name="Grupo 1108921" transform="translate(120.826 47.093)" style="mix-blend-mode: multiply;isolation: isolate">
          <g id="Grupo_1108920" data-name="Grupo 1108920">
            <g id="Grupo_1108919" data-name="Grupo 1108919" clip-path="url(#clip-path-12)">
              <path id="Trazado_885815" data-name="Trazado 885815" d="M116.044,46.547V35.629h-1.437V46.547h-23.2v8.4a2.521,2.521,0,0,0,2.522,2.521H159.99a2.521,2.521,0,0,0,2.519-2.521v-8.4Z" transform="translate(-91.413 -35.629)" fill="#eeefef"/>
            </g>
          </g>
        </g>
        <path id="Trazado_885816" data-name="Trazado 885816" d="M110.048,85.855V19.23a2.234,2.234,0,0,1,2.235-2.236h17.364a2.236,2.236,0,0,1,2.236,2.236V85.855a2.237,2.237,0,0,1-2.236,2.236H112.283a2.235,2.235,0,0,1-2.235-2.236" transform="translate(35.409 5.468)" fill="#35a170"/>
      </g>
    </g>
  </g>
</svg>
