<svg xmlns="http://www.w3.org/2000/svg" xmlns:xlink="http://www.w3.org/1999/xlink" width="1070" height="488.62" viewBox="0 0 1070 488.62">
  <defs>
    <clipPath id="clip-path">
      <rect id="Rectángulo_405799" data-name="Rectángulo 405799" width="1070" height="488.62" fill="none"/>
    </clipPath>
  </defs>
  <g id="Grupo_1110697" data-name="Grupo 1110697" transform="translate(-264.711 -1574)">
    <path id="Trazado_888190" data-name="Trazado 888190" d="M0,0V3.959" transform="translate(1235.008 1910.02)" fill="none" stroke="#1caab7" stroke-width="1.5"/>
    <path id="Trazado_888191" data-name="Trazado 888191" d="M0,0V95.912" transform="translate(1235.008 1922.318)" fill="none" stroke="#1caab7" stroke-width="1.5" stroke-dasharray="4.546 4.546"/>
    <path id="Trazado_885332" data-name="Trazado 885332" d="M530.685,244.411v3.959h-3.959" transform="translate(704.323 1777.988)" fill="none" stroke="#1caab7" stroke-miterlimit="10" stroke-width="1.5"/>
    <path id="Trazado_888189" data-name="Trazado 888189" d="M850.329,0H0" transform="translate(372.811 2026.357)" fill="none" stroke="#1caab7" stroke-width="1.5" stroke-dasharray="4.312 4.312"/>
    <path id="Trazado_885333" data-name="Trazado 885333" d="M58.567,248.37H54.61V244.41" transform="translate(310.289 1777.988)" fill="none" stroke="#1caab7" stroke-miterlimit="10" stroke-width="1.5"/>
    <path id="Trazado_888181" data-name="Trazado 888181" d="M0,93.272V0" transform="translate(364.898 1921.018)" fill="none" stroke="#1caab7" stroke-width="1.5" stroke-dasharray="4.421 4.421"/>
    <path id="Trazado_888176" data-name="Trazado 888176" d="M0,3.959V0" transform="translate(364.898 1913.004)" fill="none" stroke="#1caab7" stroke-width="1.5"/>
    <path id="Trazado_885334" data-name="Trazado 885334" d="M70.983,195.259l-2.016,1.877-9.235-9.94-9.239,9.94-2.016-1.877,11.255-12.1Z" transform="translate(305.17 1726.864)" fill="#1caab7"/>
    <path id="Trazado_885335" data-name="Trazado 885335" d="M719.858,160.7V269.763H216.939V160.7" transform="translate(445.771 1708.12)" fill="none" stroke="#1caab7" stroke-miterlimit="10" stroke-width="1.5" stroke-dasharray="4.315 4.315"/>
    <path id="Trazado_888185" data-name="Trazado 888185" d="M0,0V4.135" transform="translate(1150.178 1866.394)" fill="none" stroke="#1caab7" stroke-width="1.567"/>
    <path id="Trazado_888186" data-name="Trazado 888186" d="M0,0V43.967" transform="translate(1150.178 1878.522)" fill="none" stroke="#1caab7" stroke-width="1.567" stroke-dasharray="4.357 4.357"/>
    <path id="Trazado_885336" data-name="Trazado 885336" d="M484.526,192.131v4.135h-4.135" transform="translate(665.652 1734.355)" fill="none" stroke="#1caab7" stroke-miterlimit="10" stroke-width="1.567"/>
    <path id="Trazado_888182" data-name="Trazado 888182" d="M192.715,0H0" transform="translate(945.127 1930.621)" fill="none" stroke="#1caab7" stroke-width="1.567" stroke-dasharray="4.47 4.47"/>
    <path id="Trazado_885337" data-name="Trazado 885337" d="M370.524,196.266h-4.135v-4.135" transform="translate(570.504 1734.355)" fill="none" stroke="#1caab7" stroke-miterlimit="10" stroke-width="1.567"/>
    <path id="Trazado_888177" data-name="Trazado 888177" d="M0,41.517V0" transform="translate(936.892 1877.42)" fill="none" stroke="#1caab7" stroke-width="1.567" stroke-dasharray="4.115 4.115"/>
    <path id="Trazado_888178" data-name="Trazado 888178" d="M0,4.135V0" transform="translate(936.892 1869.511)" fill="none" stroke="#1caab7" stroke-width="1.567"/>
    <path id="Trazado_885338" data-name="Trazado 885338" d="M383.494,172.02l-2.106,1.961L371.74,163.6l-9.652,10.384-2.106-1.961,11.758-12.644Z" transform="translate(565.156 1707.018)" fill="#1caab7"/>
    <g id="Grupo_1108177" data-name="Grupo 1108177" transform="translate(264.711 1574)" clip-path="url(#clip-path)">
      <path id="Trazado_885339" data-name="Trazado 885339" d="M297.387,190.918H138.033a19.694,19.694,0,0,1-19.695-19.695V128.813a19.694,19.694,0,0,1,19.695-19.695H297.387a19.694,19.694,0,0,1,19.695,19.695v42.411a19.694,19.694,0,0,1-19.695,19.695" transform="translate(98.767 91.071)" fill="#35a170"/>
    </g>
    <path id="Trazado_888167" data-name="Trazado 888167" d="M3.869-13.508,8.285-2.486,12.7-13.508h2.31V0H13.229V-5.26l.167-5.678L8.962,0H7.6L3.173-10.91l.176,5.65V0H1.568V-13.508ZM24.084,0a3.605,3.605,0,0,1-.241-1.058A3.829,3.829,0,0,1,20.985.186a3.543,3.543,0,0,1-2.435-.84A2.716,2.716,0,0,1,17.6-2.783a2.838,2.838,0,0,1,1.192-2.435,5.621,5.621,0,0,1,3.354-.867h1.67v-.789a1.928,1.928,0,0,0-.538-1.433,2.163,2.163,0,0,0-1.586-.533,2.5,2.5,0,0,0-1.54.464,1.367,1.367,0,0,0-.622,1.123H17.8a2.369,2.369,0,0,1,.533-1.452,3.641,3.641,0,0,1,1.447-1.109,4.869,4.869,0,0,1,2.009-.408,3.968,3.968,0,0,1,2.718.867,3.129,3.129,0,0,1,1.021,2.389v4.62a5.649,5.649,0,0,0,.353,2.2V0ZM21.236-1.308a3.016,3.016,0,0,0,1.531-.417,2.525,2.525,0,0,0,1.048-1.085v-2.06H22.47q-3.154,0-3.154,1.846a1.562,1.562,0,0,0,.538,1.262A2.068,2.068,0,0,0,21.236-1.308ZM30.55-12.469v2.431h1.874v1.327H30.55v6.233a1.393,1.393,0,0,0,.25.906,1.054,1.054,0,0,0,.854.3,4.155,4.155,0,0,0,.816-.111V0a5,5,0,0,1-1.317.184,2.137,2.137,0,0,1-1.735-.7,2.989,2.989,0,0,1-.584-1.976V-8.711H27.006v-1.327h1.828v-2.431ZM38.594.186a4.386,4.386,0,0,1-3.321-1.341,4.976,4.976,0,0,1-1.28-3.586v-.315a6.024,6.024,0,0,1,.571-2.667,4.451,4.451,0,0,1,1.6-1.837,4.012,4.012,0,0,1,2.222-.663,3.759,3.759,0,0,1,3.043,1.29,5.583,5.583,0,0,1,1.085,3.692v.714h-6.8a3.568,3.568,0,0,0,.867,2.4,2.727,2.727,0,0,0,2.111.914,2.989,2.989,0,0,0,1.54-.371,3.869,3.869,0,0,0,1.1-.983l1.048.816A4.215,4.215,0,0,1,38.594.186Zm-.213-9a2.289,2.289,0,0,0-1.744.756,3.675,3.675,0,0,0-.872,2.12h5.028v-.13a3.269,3.269,0,0,0-.705-2.027A2.155,2.155,0,0,0,38.38-8.813ZM49.346-8.5a5.143,5.143,0,0,0-.844-.065A2.262,2.262,0,0,0,46.21-7.125V0H44.494V-10.038h1.67l.028,1.16a2.672,2.672,0,0,1,2.394-1.345,1.753,1.753,0,0,1,.761.13ZM52.788,0H51.072V-10.038h1.716ZM50.933-12.7a1.024,1.024,0,0,1,.255-.705.958.958,0,0,1,.756-.288.973.973,0,0,1,.761.288,1.014,1.014,0,0,1,.26.705.98.98,0,0,1-.26.7.99.99,0,0,1-.761.278A.975.975,0,0,1,51.188-12,.991.991,0,0,1,50.933-12.7ZM61.731,0a3.605,3.605,0,0,1-.241-1.058A3.829,3.829,0,0,1,58.633.186,3.543,3.543,0,0,1,56.2-.654a2.716,2.716,0,0,1-.951-2.129,2.838,2.838,0,0,1,1.192-2.435,5.621,5.621,0,0,1,3.354-.867h1.67v-.789a1.928,1.928,0,0,0-.538-1.433,2.163,2.163,0,0,0-1.586-.533,2.5,2.5,0,0,0-1.54.464,1.367,1.367,0,0,0-.622,1.123H55.451a2.369,2.369,0,0,1,.533-1.452,3.641,3.641,0,0,1,1.447-1.109,4.869,4.869,0,0,1,2.009-.408,3.968,3.968,0,0,1,2.718.867,3.129,3.129,0,0,1,1.021,2.389v4.62a5.649,5.649,0,0,0,.353,2.2V0ZM58.883-1.308a3.016,3.016,0,0,0,1.531-.417,2.525,2.525,0,0,0,1.048-1.085v-2.06H60.117q-3.154,0-3.154,1.846A1.562,1.562,0,0,0,57.5-1.763,2.068,2.068,0,0,0,58.883-1.308ZM67.734,0H66.018V-14.25h1.716Zm6.912.186a4.386,4.386,0,0,1-3.321-1.341,4.976,4.976,0,0,1-1.28-3.586v-.315a6.024,6.024,0,0,1,.571-2.667,4.451,4.451,0,0,1,1.6-1.837,4.012,4.012,0,0,1,2.222-.663,3.759,3.759,0,0,1,3.043,1.29,5.583,5.583,0,0,1,1.085,3.692v.714h-6.8a3.568,3.568,0,0,0,.867,2.4,2.727,2.727,0,0,0,2.111.914,2.989,2.989,0,0,0,1.54-.371,3.87,3.87,0,0,0,1.1-.983l1.048.816A4.215,4.215,0,0,1,74.646.186Zm-.213-9a2.289,2.289,0,0,0-1.744.756,3.675,3.675,0,0,0-.872,2.12h5.028v-.13a3.269,3.269,0,0,0-.705-2.027A2.155,2.155,0,0,0,74.432-8.813ZM86.391-2.663a1.263,1.263,0,0,0-.524-1.081,5.045,5.045,0,0,0-1.828-.663,8.641,8.641,0,0,1-2.069-.668A2.943,2.943,0,0,1,80.838-6a2.219,2.219,0,0,1-.366-1.28A2.6,2.6,0,0,1,81.515-9.37a4.076,4.076,0,0,1,2.667-.854,4.194,4.194,0,0,1,2.769.881,2.8,2.8,0,0,1,1.062,2.254H86.289a1.549,1.549,0,0,0-.6-1.215,2.242,2.242,0,0,0-1.508-.51,2.347,2.347,0,0,0-1.466.408,1.285,1.285,0,0,0-.529,1.067,1.041,1.041,0,0,0,.492.937,6.05,6.05,0,0,0,1.777.6,9.257,9.257,0,0,1,2.083.687,3.038,3.038,0,0,1,1.183.96,2.361,2.361,0,0,1,.385,1.368A2.569,2.569,0,0,1,87.031-.626a4.514,4.514,0,0,1-2.792.812A5.055,5.055,0,0,1,82.1-.241a3.47,3.47,0,0,1-1.452-1.192,2.873,2.873,0,0,1-.524-1.656h1.716a1.777,1.777,0,0,0,.691,1.368,2.681,2.681,0,0,0,1.7.506A2.768,2.768,0,0,0,85.8-1.61,1.212,1.212,0,0,0,86.391-2.663Z" transform="translate(529.13 1807.969)" fill="#fff"/>
    <path id="Trazado_888170" data-name="Trazado 888170" d="M2.143,0V-8.711H.557v-1.327H2.143v-1.03a3.418,3.418,0,0,1,.863-2.5,3.259,3.259,0,0,1,2.44-.881,4.532,4.532,0,0,1,1.178.157L6.531-12.9a4.929,4.929,0,0,0-.928-.083,1.675,1.675,0,0,0-1.29.489,1.982,1.982,0,0,0-.455,1.4v1.061H6v1.327H3.859V0ZM14.092,0a3.605,3.605,0,0,1-.241-1.058A3.829,3.829,0,0,1,10.994.186a3.543,3.543,0,0,1-2.435-.84,2.716,2.716,0,0,1-.951-2.129A2.838,2.838,0,0,1,8.8-5.219a5.621,5.621,0,0,1,3.354-.867h1.67v-.789a1.928,1.928,0,0,0-.538-1.433A2.163,2.163,0,0,0,11.7-8.841a2.5,2.5,0,0,0-1.54.464,1.367,1.367,0,0,0-.622,1.123H7.812a2.369,2.369,0,0,1,.533-1.452A3.641,3.641,0,0,1,9.792-9.815a4.869,4.869,0,0,1,2.009-.408,3.968,3.968,0,0,1,2.718.867A3.129,3.129,0,0,1,15.54-6.967v4.62a5.649,5.649,0,0,0,.353,2.2V0ZM11.244-1.308a3.016,3.016,0,0,0,1.531-.417,2.525,2.525,0,0,0,1.048-1.085v-2.06H12.478q-3.154,0-3.154,1.846a1.562,1.562,0,0,0,.538,1.262A2.068,2.068,0,0,0,11.244-1.308Zm15.484-3.6a5.969,5.969,0,0,1-1.058,3.7,3.379,3.379,0,0,1-2.839,1.4A3.5,3.5,0,0,1,19.891-1.16L19.807,0H18.23V-14.25h1.716v5.316a3.479,3.479,0,0,1,2.867-1.29,3.4,3.4,0,0,1,2.871,1.382,6.148,6.148,0,0,1,1.044,3.785ZM25.012-5.1a4.638,4.638,0,0,0-.677-2.709,2.242,2.242,0,0,0-1.948-.956,2.52,2.52,0,0,0-2.44,1.577v4.342A2.59,2.59,0,0,0,22.4-1.271a2.23,2.23,0,0,0,1.92-.956A4.932,4.932,0,0,0,25.012-5.1Zm8.73-3.4a5.143,5.143,0,0,0-.844-.065,2.262,2.262,0,0,0-2.292,1.438V0H28.89V-10.038h1.67l.028,1.16a2.672,2.672,0,0,1,2.394-1.345,1.753,1.753,0,0,1,.761.13ZM37.184,0H35.467V-10.038h1.716ZM35.328-12.7a1.024,1.024,0,0,1,.255-.705.958.958,0,0,1,.756-.288.973.973,0,0,1,.761.288,1.014,1.014,0,0,1,.26.705.98.98,0,0,1-.26.7.99.99,0,0,1-.761.278A.975.975,0,0,1,35.583-12,.991.991,0,0,1,35.328-12.7ZM43.956-1.215a2.472,2.472,0,0,0,1.6-.557,1.958,1.958,0,0,0,.761-1.392h1.624a3.112,3.112,0,0,1-.594,1.642A3.911,3.911,0,0,1,45.89-.278a4.216,4.216,0,0,1-1.934.464A4.135,4.135,0,0,1,40.7-1.183a5.45,5.45,0,0,1-1.211-3.743v-.288a6.043,6.043,0,0,1,.538-2.607,4.1,4.1,0,0,1,1.545-1.772,4.388,4.388,0,0,1,2.38-.631,4.026,4.026,0,0,1,2.806,1.011,3.614,3.614,0,0,1,1.192,2.625H46.322a2.365,2.365,0,0,0-.738-1.6,2.294,2.294,0,0,0-1.637-.626,2.4,2.4,0,0,0-2.027.942A4.422,4.422,0,0,0,41.2-5.149v.325a4.334,4.334,0,0,0,.714,2.672A2.414,2.414,0,0,0,43.956-1.215ZM56.072,0a3.605,3.605,0,0,1-.241-1.058A3.829,3.829,0,0,1,52.974.186a3.543,3.543,0,0,1-2.435-.84,2.716,2.716,0,0,1-.951-2.129A2.838,2.838,0,0,1,50.78-5.219a5.621,5.621,0,0,1,3.354-.867H55.8v-.789a1.928,1.928,0,0,0-.538-1.433,2.163,2.163,0,0,0-1.586-.533,2.5,2.5,0,0,0-1.54.464,1.367,1.367,0,0,0-.622,1.123H49.792a2.369,2.369,0,0,1,.533-1.452,3.641,3.641,0,0,1,1.447-1.109,4.869,4.869,0,0,1,2.009-.408,3.968,3.968,0,0,1,2.718.867A3.129,3.129,0,0,1,57.52-6.967v4.62a5.649,5.649,0,0,0,.353,2.2V0ZM53.224-1.308a3.016,3.016,0,0,0,1.531-.417A2.525,2.525,0,0,0,55.8-2.811v-2.06H54.458q-3.154,0-3.154,1.846a1.562,1.562,0,0,0,.538,1.262A2.068,2.068,0,0,0,53.224-1.308Zm11.012.093a2.472,2.472,0,0,0,1.6-.557A1.958,1.958,0,0,0,66.6-3.164h1.624a3.112,3.112,0,0,1-.594,1.642A3.911,3.911,0,0,1,66.171-.278a4.216,4.216,0,0,1-1.934.464,4.135,4.135,0,0,1-3.261-1.368,5.45,5.45,0,0,1-1.211-3.743v-.288A6.043,6.043,0,0,1,60.3-7.821a4.1,4.1,0,0,1,1.545-1.772,4.388,4.388,0,0,1,2.38-.631,4.026,4.026,0,0,1,2.806,1.011,3.614,3.614,0,0,1,1.192,2.625H66.6a2.365,2.365,0,0,0-.738-1.6,2.294,2.294,0,0,0-1.637-.626,2.4,2.4,0,0,0-2.027.942,4.422,4.422,0,0,0-.719,2.723v.325A4.334,4.334,0,0,0,62.2-2.152,2.414,2.414,0,0,0,64.236-1.215ZM72.02,0H70.3V-10.038H72.02ZM70.165-12.7a1.025,1.025,0,0,1,.255-.705.958.958,0,0,1,.756-.288.973.973,0,0,1,.761.288,1.014,1.014,0,0,1,.26.705.98.98,0,0,1-.26.7.99.99,0,0,1-.761.278A.975.975,0,0,1,70.42-12,.991.991,0,0,1,70.165-12.7Zm4.147,7.589a5.929,5.929,0,0,1,.58-2.653,4.326,4.326,0,0,1,1.614-1.818,4.394,4.394,0,0,1,2.361-.64A4.233,4.233,0,0,1,82.183-8.8,5.461,5.461,0,0,1,83.45-5.028v.121a5.981,5.981,0,0,1-.561,2.63,4.262,4.262,0,0,1-1.6,1.814,4.445,4.445,0,0,1-2.4.649,4.223,4.223,0,0,1-3.307-1.419,5.433,5.433,0,0,1-1.266-3.757Zm1.726.2a4.294,4.294,0,0,0,.775,2.681,2.479,2.479,0,0,0,2.073,1.011A2.464,2.464,0,0,0,80.963-2.24a4.7,4.7,0,0,0,.77-2.871,4.287,4.287,0,0,0-.784-2.677,2.492,2.492,0,0,0-2.083-1.025A2.465,2.465,0,0,0,76.816-7.8,4.661,4.661,0,0,0,76.037-4.908Zm3.609-9.342h2.078l-2.486,2.728-1.382,0Zm7.58,4.212.056,1.262a3.658,3.658,0,0,1,3.006-1.447q3.182,0,3.21,3.59V0H91.781V-6.643a2.311,2.311,0,0,0-.5-1.6,1.989,1.989,0,0,0-1.517-.52,2.477,2.477,0,0,0-1.466.445,3.024,3.024,0,0,0-.983,1.169V0H85.6V-10.038Z" transform="translate(525.762 1834.388)" fill="#fff"/>
    <g id="Grupo_1108179" data-name="Grupo 1108179" transform="translate(264.711 1574)" clip-path="url(#clip-path)">
      <path id="Trazado_885340" data-name="Trazado 885340" d="M416.055,190.918H256.7a19.694,19.694,0,0,1-19.695-19.695V128.813A19.694,19.694,0,0,1,256.7,109.118H416.055a19.694,19.694,0,0,1,19.695,19.695v42.411a19.694,19.694,0,0,1-19.695,19.695" transform="translate(197.809 91.071)" fill="#14a8be"/>
    </g>
    <path id="Trazado_888168" data-name="Trazado 888168" d="M9.018-5.965H3.349V0H1.568V-13.508H9.936v1.457H3.349v4.629H9.018ZM17.379,0a3.605,3.605,0,0,1-.241-1.058A3.829,3.829,0,0,1,14.28.186a3.543,3.543,0,0,1-2.435-.84,2.716,2.716,0,0,1-.951-2.129,2.838,2.838,0,0,1,1.192-2.435,5.621,5.621,0,0,1,3.354-.867h1.67v-.789a1.928,1.928,0,0,0-.538-1.433,2.163,2.163,0,0,0-1.586-.533,2.5,2.5,0,0,0-1.54.464,1.367,1.367,0,0,0-.622,1.123H11.1a2.369,2.369,0,0,1,.533-1.452,3.641,3.641,0,0,1,1.447-1.109,4.869,4.869,0,0,1,2.009-.408,3.968,3.968,0,0,1,2.718.867,3.129,3.129,0,0,1,1.021,2.389v4.62a5.649,5.649,0,0,0,.353,2.2V0ZM14.53-1.308a3.016,3.016,0,0,0,1.531-.417A2.525,2.525,0,0,0,17.11-2.811v-2.06H15.764q-3.154,0-3.154,1.846a1.562,1.562,0,0,0,.538,1.262A2.068,2.068,0,0,0,14.53-1.308Zm15.484-3.6a5.969,5.969,0,0,1-1.058,3.7,3.379,3.379,0,0,1-2.839,1.4A3.5,3.5,0,0,1,23.177-1.16L23.093,0H21.516V-14.25h1.716v5.316a3.479,3.479,0,0,1,2.867-1.29,3.4,3.4,0,0,1,2.871,1.382,6.148,6.148,0,0,1,1.044,3.785ZM28.3-5.1a4.638,4.638,0,0,0-.677-2.709,2.242,2.242,0,0,0-1.948-.956,2.52,2.52,0,0,0-2.44,1.577v4.342a2.59,2.59,0,0,0,2.458,1.577,2.23,2.23,0,0,0,1.92-.956A4.932,4.932,0,0,0,28.3-5.1Zm8.73-3.4a5.143,5.143,0,0,0-.844-.065,2.262,2.262,0,0,0-2.292,1.438V0H32.176V-10.038h1.67l.028,1.16a2.672,2.672,0,0,1,2.394-1.345,1.753,1.753,0,0,1,.761.13ZM40.47,0H38.754V-10.038H40.47ZM38.614-12.7a1.024,1.024,0,0,1,.255-.705.958.958,0,0,1,.756-.288.973.973,0,0,1,.761.288,1.014,1.014,0,0,1,.26.705.98.98,0,0,1-.26.7.99.99,0,0,1-.761.278A.975.975,0,0,1,38.87-12,.991.991,0,0,1,38.614-12.7ZM47.242-1.215a2.472,2.472,0,0,0,1.6-.557,1.958,1.958,0,0,0,.761-1.392h1.624a3.112,3.112,0,0,1-.594,1.642A3.911,3.911,0,0,1,49.177-.278a4.216,4.216,0,0,1-1.934.464,4.135,4.135,0,0,1-3.261-1.368,5.45,5.45,0,0,1-1.211-3.743v-.288a6.043,6.043,0,0,1,.538-2.607,4.1,4.1,0,0,1,1.545-1.772,4.388,4.388,0,0,1,2.38-.631A4.026,4.026,0,0,1,50.04-9.212a3.614,3.614,0,0,1,1.192,2.625H49.608a2.365,2.365,0,0,0-.738-1.6,2.294,2.294,0,0,0-1.637-.626,2.4,2.4,0,0,0-2.027.942,4.422,4.422,0,0,0-.719,2.723v.325A4.334,4.334,0,0,0,45.2-2.152,2.414,2.414,0,0,0,47.242-1.215ZM59.359,0a3.605,3.605,0,0,1-.241-1.058A3.829,3.829,0,0,1,56.26.186a3.543,3.543,0,0,1-2.435-.84,2.716,2.716,0,0,1-.951-2.129,2.838,2.838,0,0,1,1.192-2.435,5.621,5.621,0,0,1,3.354-.867h1.67v-.789a1.928,1.928,0,0,0-.538-1.433,2.163,2.163,0,0,0-1.586-.533,2.5,2.5,0,0,0-1.54.464A1.367,1.367,0,0,0,54.8-7.255H53.078a2.369,2.369,0,0,1,.533-1.452,3.641,3.641,0,0,1,1.447-1.109,4.869,4.869,0,0,1,2.009-.408,3.968,3.968,0,0,1,2.718.867,3.129,3.129,0,0,1,1.021,2.389v4.62a5.649,5.649,0,0,0,.353,2.2V0ZM56.51-1.308a3.016,3.016,0,0,0,1.531-.417A2.525,2.525,0,0,0,59.09-2.811v-2.06H57.744q-3.154,0-3.154,1.846a1.562,1.562,0,0,0,.538,1.262A2.068,2.068,0,0,0,56.51-1.308Zm11.012.093a2.472,2.472,0,0,0,1.6-.557,1.958,1.958,0,0,0,.761-1.392h1.624a3.112,3.112,0,0,1-.594,1.642A3.911,3.911,0,0,1,69.457-.278a4.216,4.216,0,0,1-1.934.464,4.135,4.135,0,0,1-3.261-1.368,5.45,5.45,0,0,1-1.211-3.743v-.288a6.043,6.043,0,0,1,.538-2.607,4.1,4.1,0,0,1,1.545-1.772,4.388,4.388,0,0,1,2.38-.631A4.026,4.026,0,0,1,70.32-9.212a3.614,3.614,0,0,1,1.192,2.625H69.888a2.365,2.365,0,0,0-.738-1.6,2.294,2.294,0,0,0-1.637-.626,2.4,2.4,0,0,0-2.027.942,4.422,4.422,0,0,0-.719,2.723v.325a4.334,4.334,0,0,0,.714,2.672A2.414,2.414,0,0,0,67.523-1.215ZM75.306,0H73.59V-10.038h1.716ZM73.451-12.7a1.025,1.025,0,0,1,.255-.705.958.958,0,0,1,.756-.288.973.973,0,0,1,.761.288,1.014,1.014,0,0,1,.26.705.98.98,0,0,1-.26.7.99.99,0,0,1-.761.278A.975.975,0,0,1,73.706-12,.991.991,0,0,1,73.451-12.7ZM77.6-5.112a5.929,5.929,0,0,1,.58-2.653,4.326,4.326,0,0,1,1.614-1.818,4.394,4.394,0,0,1,2.361-.64A4.233,4.233,0,0,1,85.47-8.8a5.461,5.461,0,0,1,1.266,3.776v.121a5.981,5.981,0,0,1-.561,2.63,4.262,4.262,0,0,1-1.6,1.814,4.445,4.445,0,0,1-2.4.649,4.223,4.223,0,0,1-3.307-1.419A5.433,5.433,0,0,1,77.6-4.991Zm1.726.2A4.294,4.294,0,0,0,80.1-2.227a2.479,2.479,0,0,0,2.073,1.011A2.464,2.464,0,0,0,84.25-2.24a4.7,4.7,0,0,0,.77-2.871,4.287,4.287,0,0,0-.784-2.677,2.492,2.492,0,0,0-2.083-1.025A2.465,2.465,0,0,0,80.1-7.8,4.661,4.661,0,0,0,79.323-4.908Zm3.609-9.342H85.01l-2.486,2.728-1.382,0Zm7.58,4.212.056,1.262a3.658,3.658,0,0,1,3.006-1.447q3.182,0,3.21,3.59V0H95.067V-6.643a2.311,2.311,0,0,0-.5-1.6,1.989,1.989,0,0,0-1.517-.52,2.477,2.477,0,0,0-1.466.445A3.024,3.024,0,0,0,90.6-7.153V0H88.888V-10.038Z" transform="translate(738.473 1807.969)" fill="#fff"/>
    <path id="Trazado_888171" data-name="Trazado 888171" d="M.881-5.1A5.88,5.88,0,0,1,1.976-8.818a3.462,3.462,0,0,1,2.867-1.406A3.481,3.481,0,0,1,7.635-9.018V-14.25H9.352V0H7.774L7.691-1.076A3.5,3.5,0,0,1,4.824.186,3.429,3.429,0,0,1,1.981-1.243a5.947,5.947,0,0,1-1.1-3.729ZM2.6-4.908A4.452,4.452,0,0,0,3.3-2.236a2.279,2.279,0,0,0,1.948.965A2.5,2.5,0,0,0,7.635-2.737V-7.348A2.523,2.523,0,0,0,5.27-8.767,2.29,2.29,0,0,0,3.3-7.793,4.9,4.9,0,0,0,2.6-4.908ZM16.18.186a4.386,4.386,0,0,1-3.321-1.341,4.976,4.976,0,0,1-1.28-3.586v-.315a6.024,6.024,0,0,1,.571-2.667,4.451,4.451,0,0,1,1.6-1.837,4.012,4.012,0,0,1,2.222-.663,3.759,3.759,0,0,1,3.043,1.29,5.583,5.583,0,0,1,1.085,3.692v.714h-6.8a3.568,3.568,0,0,0,.867,2.4,2.727,2.727,0,0,0,2.111.914,2.989,2.989,0,0,0,1.54-.371,3.87,3.87,0,0,0,1.1-.983l1.048.816A4.215,4.215,0,0,1,16.18.186Zm-.213-9a2.289,2.289,0,0,0-1.744.756,3.675,3.675,0,0,0-.872,2.12h5.028v-.13a3.269,3.269,0,0,0-.705-2.027A2.155,2.155,0,0,0,15.966-8.813Zm19.3,3.906a6.011,6.011,0,0,1-1.048,3.692,3.36,3.36,0,0,1-2.839,1.4A3.681,3.681,0,0,1,28.5-.974V3.859H26.784v-13.9h1.568l.083,1.113a3.536,3.536,0,0,1,2.913-1.3A3.423,3.423,0,0,1,34.21-8.86a6.076,6.076,0,0,1,1.053,3.794ZM33.547-5.1a4.435,4.435,0,0,0-.724-2.681,2.331,2.331,0,0,0-1.985-.983A2.523,2.523,0,0,0,28.5-7.385v4.8a2.528,2.528,0,0,0,2.356,1.373,2.32,2.32,0,0,0,1.962-.979A4.841,4.841,0,0,0,33.547-5.1ZM42.3-8.5a5.143,5.143,0,0,0-.844-.065A2.262,2.262,0,0,0,39.16-7.125V0H37.443V-10.038h1.67l.028,1.16a2.672,2.672,0,0,1,2.394-1.345,1.753,1.753,0,0,1,.761.13Zm.766,3.386a5.929,5.929,0,0,1,.58-2.653,4.325,4.325,0,0,1,1.614-1.818,4.394,4.394,0,0,1,2.361-.64A4.233,4.233,0,0,1,50.933-8.8,5.461,5.461,0,0,1,52.2-5.028v.121a5.981,5.981,0,0,1-.561,2.63,4.262,4.262,0,0,1-1.6,1.814,4.445,4.445,0,0,1-2.4.649,4.223,4.223,0,0,1-3.307-1.419,5.433,5.433,0,0,1-1.266-3.757Zm1.726.2a4.294,4.294,0,0,0,.775,2.681,2.479,2.479,0,0,0,2.073,1.011A2.464,2.464,0,0,0,49.713-2.24a4.7,4.7,0,0,0,.77-2.871A4.287,4.287,0,0,0,49.7-7.788a2.492,2.492,0,0,0-2.083-1.025A2.465,2.465,0,0,0,45.566-7.8,4.661,4.661,0,0,0,44.787-4.908ZM53.934-5.1a5.88,5.88,0,0,1,1.095-3.716A3.462,3.462,0,0,1,57.9-10.224a3.481,3.481,0,0,1,2.792,1.206V-14.25H62.4V0H60.828l-.083-1.076A3.5,3.5,0,0,1,57.877.186a3.429,3.429,0,0,1-2.844-1.429,5.947,5.947,0,0,1-1.1-3.729Zm1.716.195a4.452,4.452,0,0,0,.705,2.672,2.279,2.279,0,0,0,1.948.965,2.5,2.5,0,0,0,2.384-1.466V-7.348a2.523,2.523,0,0,0-2.366-1.419,2.29,2.29,0,0,0-1.967.974A4.9,4.9,0,0,0,55.651-4.908ZM71.265-.993A3.646,3.646,0,0,1,68.324.186a3.12,3.12,0,0,1-2.445-.932,4.036,4.036,0,0,1-.849-2.76v-6.531h1.716v6.485q0,2.282,1.855,2.282a2.569,2.569,0,0,0,2.616-1.466v-7.3h1.716V0H71.3Zm8.3-.223a2.472,2.472,0,0,0,1.6-.557,1.958,1.958,0,0,0,.761-1.392h1.624a3.112,3.112,0,0,1-.594,1.642A3.911,3.911,0,0,1,81.5-.278a4.216,4.216,0,0,1-1.934.464,4.135,4.135,0,0,1-3.261-1.368A5.45,5.45,0,0,1,75.1-4.926v-.288a6.043,6.043,0,0,1,.538-2.607,4.1,4.1,0,0,1,1.545-1.772,4.388,4.388,0,0,1,2.38-.631,4.026,4.026,0,0,1,2.806,1.011,3.614,3.614,0,0,1,1.192,2.625H81.933a2.365,2.365,0,0,0-.738-1.6,2.294,2.294,0,0,0-1.637-.626,2.4,2.4,0,0,0-2.027.942,4.422,4.422,0,0,0-.719,2.723v.325a4.334,4.334,0,0,0,.714,2.672A2.414,2.414,0,0,0,79.568-1.215Zm8.248-11.253v2.431h1.874v1.327H87.815v6.233a1.393,1.393,0,0,0,.25.906,1.054,1.054,0,0,0,.854.3,4.155,4.155,0,0,0,.816-.111V0a5.005,5.005,0,0,1-1.317.184,2.137,2.137,0,0,1-1.735-.7A2.989,2.989,0,0,1,86.1-2.486V-8.711H84.271v-1.327H86.1v-2.431Zm3.238,7.357a5.929,5.929,0,0,1,.58-2.653,4.326,4.326,0,0,1,1.614-1.818,4.394,4.394,0,0,1,2.361-.64A4.233,4.233,0,0,1,98.925-8.8a5.461,5.461,0,0,1,1.266,3.776v.121a5.981,5.981,0,0,1-.561,2.63,4.262,4.262,0,0,1-1.6,1.814,4.445,4.445,0,0,1-2.4.649,4.223,4.223,0,0,1-3.307-1.419,5.433,5.433,0,0,1-1.266-3.757Zm1.726.2a4.294,4.294,0,0,0,.775,2.681,2.479,2.479,0,0,0,2.073,1.011A2.464,2.464,0,0,0,97.7-2.24a4.7,4.7,0,0,0,.77-2.871,4.287,4.287,0,0,0-.784-2.677,2.492,2.492,0,0,0-2.083-1.025A2.465,2.465,0,0,0,93.558-7.8,4.661,4.661,0,0,0,92.779-4.908Zm15.41,2.245a1.263,1.263,0,0,0-.524-1.081,5.045,5.045,0,0,0-1.828-.663,8.641,8.641,0,0,1-2.069-.668A2.943,2.943,0,0,1,102.636-6a2.219,2.219,0,0,1-.366-1.28,2.6,2.6,0,0,1,1.044-2.087,4.076,4.076,0,0,1,2.667-.854,4.194,4.194,0,0,1,2.769.881,2.8,2.8,0,0,1,1.062,2.254h-1.726a1.549,1.549,0,0,0-.6-1.215,2.242,2.242,0,0,0-1.508-.51,2.347,2.347,0,0,0-1.466.408,1.285,1.285,0,0,0-.529,1.067,1.041,1.041,0,0,0,.492.937,6.05,6.05,0,0,0,1.777.6,9.257,9.257,0,0,1,2.083.687,3.038,3.038,0,0,1,1.183.96,2.361,2.361,0,0,1,.385,1.368,2.569,2.569,0,0,1-1.076,2.157,4.514,4.514,0,0,1-2.792.812A5.055,5.055,0,0,1,103.9-.241a3.47,3.47,0,0,1-1.452-1.192,2.873,2.873,0,0,1-.524-1.656h1.716a1.777,1.777,0,0,0,.691,1.368,2.681,2.681,0,0,0,1.7.506A2.768,2.768,0,0,0,107.6-1.61,1.212,1.212,0,0,0,108.188-2.663Z" transform="translate(733.894 1834.388)" fill="#fff"/>
    <g id="Grupo_1108181" data-name="Grupo 1108181" transform="translate(264.711 1574)" clip-path="url(#clip-path)">
      <path id="Trazado_885341" data-name="Trazado 885341" d="M533.916,190.918H374.562a19.694,19.694,0,0,1-19.695-19.695V128.813a19.694,19.694,0,0,1,19.695-19.695H533.916a19.694,19.694,0,0,1,19.694,19.695v42.411a19.694,19.694,0,0,1-19.694,19.695" transform="translate(296.177 91.071)" fill="#a6bd14"/>
    </g>
    <path id="Trazado_888179" data-name="Trazado 888179" d="M11.077-13.508v9.185A4.308,4.308,0,0,1,9.876-1.2,4.841,4.841,0,0,1,6.643.167L6.169.186a5.056,5.056,0,0,1-3.535-1.2A4.28,4.28,0,0,1,1.3-4.3v-9.2H3.062V-4.36a3.09,3.09,0,0,0,.807,2.278,3.1,3.1,0,0,0,2.3.812,3.123,3.123,0,0,0,2.315-.807,3.084,3.084,0,0,0,.8-2.273v-9.157Zm4.871,1.039v2.431h1.874v1.327H15.948v6.233a1.393,1.393,0,0,0,.25.906,1.054,1.054,0,0,0,.854.3,4.155,4.155,0,0,0,.816-.111V0a5.005,5.005,0,0,1-1.317.184,2.137,2.137,0,0,1-1.735-.7,2.989,2.989,0,0,1-.584-1.976V-8.711H12.4v-1.327h1.828v-2.431ZM21.69,0H19.974V-10.038H21.69ZM19.835-12.7a1.024,1.024,0,0,1,.255-.705.958.958,0,0,1,.756-.288.973.973,0,0,1,.761.288,1.014,1.014,0,0,1,.26.705.98.98,0,0,1-.26.7.99.99,0,0,1-.761.278A.975.975,0,0,1,20.09-12,.991.991,0,0,1,19.835-12.7ZM26.3,0H24.585V-14.25H26.3Zm4.611,0H29.2V-10.038h1.716ZM29.057-12.7a1.024,1.024,0,0,1,.255-.705.958.958,0,0,1,.756-.288.973.973,0,0,1,.761.288,1.014,1.014,0,0,1,.26.705.98.98,0,0,1-.26.7.99.99,0,0,1-.761.278A.975.975,0,0,1,29.312-12,.991.991,0,0,1,29.057-12.7ZM35.272-1.4h5.873V0H33.176V-1.262l5.539-7.357H33.259v-1.419h7.607v1.215Zm14,1.4a3.605,3.605,0,0,1-.241-1.058A3.829,3.829,0,0,1,46.173.186a3.543,3.543,0,0,1-2.435-.84,2.716,2.716,0,0,1-.951-2.129,2.838,2.838,0,0,1,1.192-2.435,5.621,5.621,0,0,1,3.354-.867H49v-.789a1.928,1.928,0,0,0-.538-1.433,2.163,2.163,0,0,0-1.586-.533,2.5,2.5,0,0,0-1.54.464,1.367,1.367,0,0,0-.622,1.123H42.991a2.369,2.369,0,0,1,.533-1.452,3.641,3.641,0,0,1,1.447-1.109,4.869,4.869,0,0,1,2.009-.408,3.968,3.968,0,0,1,2.718.867,3.129,3.129,0,0,1,1.021,2.389v4.62a5.649,5.649,0,0,0,.353,2.2V0ZM46.424-1.308a3.016,3.016,0,0,0,1.531-.417A2.525,2.525,0,0,0,49-2.811v-2.06H47.658q-3.154,0-3.154,1.846a1.562,1.562,0,0,0,.538,1.262A2.068,2.068,0,0,0,46.424-1.308ZM58.262-8.5a5.143,5.143,0,0,0-.844-.065,2.262,2.262,0,0,0-2.292,1.438V0H53.41V-10.038h1.67l.028,1.16A2.672,2.672,0,0,1,57.5-10.224a1.753,1.753,0,0,1,.761.13ZM68.708.186a4.386,4.386,0,0,1-3.321-1.341,4.976,4.976,0,0,1-1.28-3.586v-.315a6.024,6.024,0,0,1,.571-2.667,4.451,4.451,0,0,1,1.6-1.837,4.012,4.012,0,0,1,2.222-.663,3.759,3.759,0,0,1,3.043,1.29,5.583,5.583,0,0,1,1.085,3.692v.714h-6.8a3.568,3.568,0,0,0,.867,2.4,2.727,2.727,0,0,0,2.111.914,2.989,2.989,0,0,0,1.54-.371,3.87,3.87,0,0,0,1.1-.983l1.048.816A4.215,4.215,0,0,1,68.708.186Zm-.213-9a2.289,2.289,0,0,0-1.744.756,3.675,3.675,0,0,0-.872,2.12h5.028v-.13A3.269,3.269,0,0,0,70.2-8.094,2.155,2.155,0,0,0,68.495-8.813Zm8.442-3.655v2.431h1.874v1.327H76.937v6.233a1.393,1.393,0,0,0,.25.906,1.054,1.054,0,0,0,.854.3,4.155,4.155,0,0,0,.816-.111V0A5.005,5.005,0,0,1,77.54.186a2.137,2.137,0,0,1-1.735-.7,2.989,2.989,0,0,1-.584-1.976V-8.711H73.393v-1.327h1.828v-2.431ZM87.012,0a3.605,3.605,0,0,1-.241-1.058A3.829,3.829,0,0,1,83.914.186a3.543,3.543,0,0,1-2.435-.84,2.716,2.716,0,0,1-.951-2.129,2.838,2.838,0,0,1,1.192-2.435,5.621,5.621,0,0,1,3.354-.867h1.67v-.789a1.928,1.928,0,0,0-.538-1.433,2.163,2.163,0,0,0-1.586-.533,2.5,2.5,0,0,0-1.54.464,1.367,1.367,0,0,0-.622,1.123H80.731a2.369,2.369,0,0,1,.533-1.452,3.641,3.641,0,0,1,1.447-1.109,4.869,4.869,0,0,1,2.009-.408,3.968,3.968,0,0,1,2.718.867,3.129,3.129,0,0,1,1.021,2.389v4.62a5.649,5.649,0,0,0,.353,2.2V0ZM84.164-1.308a3.016,3.016,0,0,0,1.531-.417,2.525,2.525,0,0,0,1.048-1.085v-2.06H85.4q-3.154,0-3.154,1.846a1.562,1.562,0,0,0,.538,1.262A2.068,2.068,0,0,0,84.164-1.308Zm15.465-3.6a6.011,6.011,0,0,1-1.048,3.692,3.36,3.36,0,0,1-2.839,1.4,3.681,3.681,0,0,1-2.876-1.16V3.859H91.15v-13.9h1.568L92.8-8.925a3.536,3.536,0,0,1,2.913-1.3A3.423,3.423,0,0,1,98.576-8.86a6.076,6.076,0,0,1,1.053,3.794ZM97.913-5.1a4.435,4.435,0,0,0-.724-2.681A2.331,2.331,0,0,0,95.2-8.767a2.523,2.523,0,0,0-2.338,1.382v4.8a2.528,2.528,0,0,0,2.356,1.373,2.32,2.32,0,0,0,1.962-.979A4.841,4.841,0,0,0,97.913-5.1ZM108.007,0a3.605,3.605,0,0,1-.241-1.058A3.829,3.829,0,0,1,104.908.186a3.543,3.543,0,0,1-2.435-.84,2.716,2.716,0,0,1-.951-2.129,2.838,2.838,0,0,1,1.192-2.435,5.621,5.621,0,0,1,3.354-.867h1.67v-.789a1.928,1.928,0,0,0-.538-1.433,2.163,2.163,0,0,0-1.586-.533,2.5,2.5,0,0,0-1.54.464,1.367,1.367,0,0,0-.622,1.123h-1.726a2.369,2.369,0,0,1,.533-1.452,3.641,3.641,0,0,1,1.447-1.109,4.869,4.869,0,0,1,2.009-.408,3.968,3.968,0,0,1,2.718.867,3.129,3.129,0,0,1,1.021,2.389v4.62a5.649,5.649,0,0,0,.353,2.2V0Zm-2.848-1.308a3.016,3.016,0,0,0,1.531-.417,2.525,2.525,0,0,0,1.048-1.085v-2.06h-1.345q-3.154,0-3.154,1.846a1.562,1.562,0,0,0,.538,1.262A2.068,2.068,0,0,0,105.159-1.308Z" transform="translate(949.638 1819.342)" fill="#fff"/>
    <g id="Grupo_1108183" data-name="Grupo 1108183" transform="translate(264.711 1574)" clip-path="url(#clip-path)">
      <line id="Línea_4346" data-name="Línea 4346" y2="119.496" transform="translate(316.477 81.234)" fill="none" stroke="#c2c1c1" stroke-miterlimit="10" stroke-width="0.894"/>
      <line id="Línea_4347" data-name="Línea 4347" y2="106.633" transform="translate(534.187 81.234)" fill="none" stroke="#c2c1c1" stroke-miterlimit="10" stroke-width="0.894"/>
      <path id="Trazado_885342" data-name="Trazado 885342" d="M55.286,150.912V44.279H923.752V150.912" transform="translate(46.142 36.956)" fill="none" stroke="#c2c1c1" stroke-miterlimit="10" stroke-width="1.033"/>
      <path id="Trazado_885343" data-name="Trazado 885343" d="M75.335,50.547a13.781,13.781,0,1,1-13.782-13.78,13.782,13.782,0,0,1,13.782,13.78" transform="translate(39.873 30.686)" fill="#ffe64b"/>
      <path id="Trazado_885344" data-name="Trazado 885344" d="M59.465,57.645a9.187,9.187,0,1,1,9.188-9.188,9.2,9.2,0,0,1-9.188,9.188" transform="translate(41.964 32.776)" fill="#fff"/>
      <line id="Línea_4348" data-name="Línea 4348" y2="106.633" transform="translate(750.416 81.234)" fill="none" stroke="#c2c1c1" stroke-miterlimit="10" stroke-width="0.894"/>
      <path id="Trazado_885345" data-name="Trazado 885345" d="M429.081,50.547A13.781,13.781,0,1,1,415.3,36.767a13.782,13.782,0,0,1,13.782,13.78" transform="translate(335.114 30.686)" fill="#ffe64b"/>
      <path id="Trazado_885346" data-name="Trazado 885346" d="M413.211,57.645a9.187,9.187,0,1,1,9.188-9.188,9.2,9.2,0,0,1-9.188,9.188" transform="translate(337.205 32.776)" fill="#fff"/>
      <path id="Trazado_885347" data-name="Trazado 885347" d="M437.1,111.177a19.292,19.292,0,1,1-19.295-19.291A19.294,19.294,0,0,1,437.1,111.177" transform="translate(332.608 76.689)" fill="#ffe64b"/>
      <path id="Trazado_885348" data-name="Trazado 885348" d="M414.882,121.114a12.862,12.862,0,1,1,12.862-12.862,12.875,12.875,0,0,1-12.862,12.862" transform="translate(335.532 79.615)" fill="#fff"/>
      <path id="Trazado_885349" data-name="Trazado 885349" d="M192.552,50.547a13.781,13.781,0,1,1-13.78-13.78,13.781,13.781,0,0,1,13.78,13.78" transform="translate(137.704 30.686)" fill="#ffe64b"/>
      <path id="Trazado_885350" data-name="Trazado 885350" d="M176.683,57.645a9.187,9.187,0,1,1,9.186-9.188,9.2,9.2,0,0,1-9.186,9.188" transform="translate(139.794 32.776)" fill="#fff"/>
      <path id="Trazado_885351" data-name="Trazado 885351" d="M200.572,111.177a19.292,19.292,0,1,1-19.291-19.291,19.292,19.292,0,0,1,19.291,19.291" transform="translate(135.197 76.689)" fill="#ffe64b"/>
      <path id="Trazado_885352" data-name="Trazado 885352" d="M178.355,121.114a12.862,12.862,0,1,1,12.861-12.862,12.877,12.877,0,0,1-12.861,12.862" transform="translate(138.123 79.615)" fill="#fff"/>
      <path id="Trazado_885353" data-name="Trazado 885353" d="M311.22,50.547a13.781,13.781,0,1,1-13.782-13.78,13.782,13.782,0,0,1,13.782,13.78" transform="translate(236.746 30.686)" fill="#ffe64b"/>
      <path id="Trazado_885354" data-name="Trazado 885354" d="M295.35,57.645a9.187,9.187,0,1,1,9.188-9.188,9.2,9.2,0,0,1-9.188,9.188" transform="translate(238.836 32.776)" fill="#fff"/>
      <path id="Trazado_885355" data-name="Trazado 885355" d="M319.24,111.177a19.292,19.292,0,1,1-19.295-19.291,19.294,19.294,0,0,1,19.295,19.291" transform="translate(234.239 76.689)" fill="#ffe64b"/>
      <path id="Trazado_885356" data-name="Trazado 885356" d="M297.021,121.114a12.862,12.862,0,1,1,12.862-12.862,12.875,12.875,0,0,1-12.862,12.862" transform="translate(237.164 79.615)" fill="#fff"/>
    </g>
    <path id="Trazado_888165" data-name="Trazado 888165" transform="translate(323.933 1596.393)" fill="#161615"/>
    <g id="Grupo_1108185" data-name="Grupo 1108185" transform="translate(264.711 1574)" clip-path="url(#clip-path)">
      <text id="Entradas" transform="translate(272.467 16.653)" fill="#161615" font-size="19" font-family="Roboto-Regular, Roboto"><tspan x="0" y="0">Entradas</tspan></text>
      <text id="Entradas-2" data-name="Entradas" transform="translate(490.177 16.653)" fill="#161615" font-size="19" font-family="Roboto-Regular, Roboto"><tspan x="0" y="0">Entradas</tspan></text>
      <text id="Entradas-3" data-name="Entradas" transform="translate(706.412 16.653)" fill="#161615" font-size="19" font-family="Roboto-Regular, Roboto"><tspan x="0" y="0">Entradas</tspan></text>
      <text id="Entradas-4" data-name="Entradas" transform="translate(926.962 16.653)" fill="#161615" font-size="19" font-family="Roboto-Regular, Roboto"><tspan x="0" y="0">Entradas</tspan></text>
      <text id="Entradas-5" data-name="Entradas" transform="translate(57.927 16.653)" fill="#161615" font-size="19" font-family="Roboto-Regular, Roboto"><tspan x="0" y="0">Entradas</tspan></text>
      <path id="Trazado_885357" data-name="Trazado 885357" d="M179.049,190.918H19.695A19.694,19.694,0,0,1,0,171.223V128.813a19.694,19.694,0,0,1,19.695-19.695H179.049a19.694,19.694,0,0,1,19.695,19.695v42.411a19.694,19.694,0,0,1-19.695,19.695" transform="translate(0 91.071)" fill="#2b4290"/>
      <path id="Trazado_885358" data-name="Trazado 885358" d="M82.26,111.177A19.292,19.292,0,1,1,62.965,91.886,19.294,19.294,0,0,1,82.26,111.177" transform="translate(36.453 76.689)" fill="#ffe64b"/>
      <path id="Trazado_885359" data-name="Trazado 885359" d="M60.041,121.114A12.862,12.862,0,1,1,72.9,108.252a12.875,12.875,0,0,1-12.862,12.862" transform="translate(39.377 79.615)" fill="#fff"/>
    </g>
    <path id="Trazado_888169" data-name="Trazado 888169" d="M9.2-6.244H3.349v4.787h6.8V0H1.568V-13.508h8.489v1.457H3.349V-7.7H9.2Zm6.262-.13,2.227-3.665h2L16.412-5.075,19.8,0H17.813L15.493-3.757,13.174,0H11.179l3.386-5.075-3.284-4.963h1.985Zm8.377-6.1v2.431h1.874v1.327H23.843v6.233a1.393,1.393,0,0,0,.25.906,1.054,1.054,0,0,0,.854.3,4.155,4.155,0,0,0,.816-.111V0a5.005,5.005,0,0,1-1.317.184,2.137,2.137,0,0,1-1.735-.7,2.989,2.989,0,0,1-.584-1.976V-8.711H20.3v-1.327h1.828v-2.431ZM32.573-8.5a5.143,5.143,0,0,0-.844-.065,2.262,2.262,0,0,0-2.292,1.438V0H27.721V-10.038h1.67l.028,1.16a2.672,2.672,0,0,1,2.394-1.345,1.753,1.753,0,0,1,.761.13Zm7.4,8.5a3.605,3.605,0,0,1-.241-1.058A3.829,3.829,0,0,1,36.877.186a3.543,3.543,0,0,1-2.435-.84,2.716,2.716,0,0,1-.951-2.129,2.838,2.838,0,0,1,1.192-2.435,5.621,5.621,0,0,1,3.354-.867h1.67v-.789a1.928,1.928,0,0,0-.538-1.433,2.163,2.163,0,0,0-1.586-.533,2.5,2.5,0,0,0-1.54.464,1.367,1.367,0,0,0-.622,1.123H33.7a2.369,2.369,0,0,1,.533-1.452,3.641,3.641,0,0,1,1.447-1.109,4.869,4.869,0,0,1,2.009-.408,3.968,3.968,0,0,1,2.718.867,3.129,3.129,0,0,1,1.021,2.389v4.62a5.649,5.649,0,0,0,.353,2.2V0ZM37.128-1.308a3.016,3.016,0,0,0,1.531-.417,2.525,2.525,0,0,0,1.048-1.085v-2.06H38.362q-3.154,0-3.154,1.846a1.562,1.562,0,0,0,.538,1.262A2.068,2.068,0,0,0,37.128-1.308Zm11.012.093a2.472,2.472,0,0,0,1.6-.557,1.958,1.958,0,0,0,.761-1.392h1.624a3.112,3.112,0,0,1-.594,1.642A3.911,3.911,0,0,1,50.074-.278,4.216,4.216,0,0,1,48.14.186a4.135,4.135,0,0,1-3.261-1.368,5.45,5.45,0,0,1-1.211-3.743v-.288a6.043,6.043,0,0,1,.538-2.607,4.1,4.1,0,0,1,1.545-1.772,4.388,4.388,0,0,1,2.38-.631,4.026,4.026,0,0,1,2.806,1.011,3.614,3.614,0,0,1,1.192,2.625H50.506a2.365,2.365,0,0,0-.738-1.6,2.294,2.294,0,0,0-1.637-.626,2.4,2.4,0,0,0-2.027.942,4.422,4.422,0,0,0-.719,2.723v.325A4.334,4.334,0,0,0,46.1-2.152,2.414,2.414,0,0,0,48.14-1.215Zm9.945,0a2.472,2.472,0,0,0,1.6-.557,1.958,1.958,0,0,0,.761-1.392h1.624a3.112,3.112,0,0,1-.594,1.642A3.911,3.911,0,0,1,60.02-.278a4.216,4.216,0,0,1-1.934.464,4.135,4.135,0,0,1-3.261-1.368,5.45,5.45,0,0,1-1.211-3.743v-.288a6.043,6.043,0,0,1,.538-2.607A4.1,4.1,0,0,1,55.7-9.593a4.388,4.388,0,0,1,2.38-.631,4.026,4.026,0,0,1,2.806,1.011,3.614,3.614,0,0,1,1.192,2.625H60.451a2.365,2.365,0,0,0-.738-1.6,2.294,2.294,0,0,0-1.637-.626,2.4,2.4,0,0,0-2.027.942,4.422,4.422,0,0,0-.719,2.723v.325a4.334,4.334,0,0,0,.714,2.672A2.414,2.414,0,0,0,58.085-1.215ZM65.869,0H64.153V-10.038h1.716ZM64.014-12.7a1.025,1.025,0,0,1,.255-.705.958.958,0,0,1,.756-.288.973.973,0,0,1,.761.288,1.014,1.014,0,0,1,.26.705.98.98,0,0,1-.26.7.99.99,0,0,1-.761.278A.975.975,0,0,1,64.269-12,.991.991,0,0,1,64.014-12.7Zm4.147,7.589a5.929,5.929,0,0,1,.58-2.653,4.326,4.326,0,0,1,1.614-1.818,4.394,4.394,0,0,1,2.361-.64A4.233,4.233,0,0,1,76.032-8.8,5.461,5.461,0,0,1,77.3-5.028v.121a5.981,5.981,0,0,1-.561,2.63,4.262,4.262,0,0,1-1.6,1.814,4.445,4.445,0,0,1-2.4.649,4.223,4.223,0,0,1-3.307-1.419,5.433,5.433,0,0,1-1.266-3.757Zm1.726.2a4.294,4.294,0,0,0,.775,2.681,2.479,2.479,0,0,0,2.073,1.011A2.464,2.464,0,0,0,74.813-2.24a4.7,4.7,0,0,0,.77-2.871A4.287,4.287,0,0,0,74.8-7.788a2.492,2.492,0,0,0-2.083-1.025A2.465,2.465,0,0,0,70.666-7.8,4.661,4.661,0,0,0,69.886-4.908ZM73.5-14.25h2.078l-2.486,2.728-1.382,0Zm7.58,4.212.056,1.262a3.658,3.658,0,0,1,3.006-1.447q3.182,0,3.21,3.59V0H85.63V-6.643a2.311,2.311,0,0,0-.5-1.6,1.989,1.989,0,0,0-1.517-.52,2.477,2.477,0,0,0-1.466.445,3.024,3.024,0,0,0-.983,1.169V0H79.451V-10.038ZM94.221-5.1a5.88,5.88,0,0,1,1.095-3.716,3.462,3.462,0,0,1,2.867-1.406,3.481,3.481,0,0,1,2.792,1.206V-14.25h1.716V0h-1.577l-.083-1.076A3.5,3.5,0,0,1,98.164.186,3.429,3.429,0,0,1,95.32-1.243a5.947,5.947,0,0,1-1.1-3.729Zm1.716.195a4.452,4.452,0,0,0,.705,2.672,2.279,2.279,0,0,0,1.948.965,2.5,2.5,0,0,0,2.384-1.466V-7.348a2.523,2.523,0,0,0-2.366-1.419,2.29,2.29,0,0,0-1.967.974A4.9,4.9,0,0,0,95.937-4.908ZM109.519.186A4.386,4.386,0,0,1,106.2-1.155a4.976,4.976,0,0,1-1.28-3.586v-.315a6.024,6.024,0,0,1,.571-2.667,4.451,4.451,0,0,1,1.6-1.837,4.012,4.012,0,0,1,2.222-.663,3.759,3.759,0,0,1,3.043,1.29,5.583,5.583,0,0,1,1.085,3.692v.714h-6.8a3.568,3.568,0,0,0,.867,2.4,2.727,2.727,0,0,0,2.111.914,2.989,2.989,0,0,0,1.54-.371,3.87,3.87,0,0,0,1.1-.983l1.048.816A4.215,4.215,0,0,1,109.519.186Zm-.213-9a2.289,2.289,0,0,0-1.744.756,3.675,3.675,0,0,0-.872,2.12h5.028v-.13a3.269,3.269,0,0,0-.705-2.027A2.155,2.155,0,0,0,109.306-8.813Z" transform="translate(297.293 1807.969)" fill="#fff"/>
    <path id="Trazado_888172" data-name="Trazado 888172" d="M2.913-10.038l.046,1.113a3.707,3.707,0,0,1,2.978-1.3A2.87,2.87,0,0,1,8.8-8.609a3.8,3.8,0,0,1,1.3-1.169,3.85,3.85,0,0,1,1.9-.445q3.3,0,3.358,3.5V0H13.647V-6.624a2.3,2.3,0,0,0-.492-1.61A2.165,2.165,0,0,0,11.5-8.767,2.276,2.276,0,0,0,9.917-8.2a2.315,2.315,0,0,0-.733,1.535V0H7.459V-6.578A1.915,1.915,0,0,0,5.316-8.767a2.3,2.3,0,0,0-2.31,1.438V0H1.29V-10.038ZM24.149,0a3.605,3.605,0,0,1-.241-1.058A3.829,3.829,0,0,1,21.05.186a3.543,3.543,0,0,1-2.435-.84,2.716,2.716,0,0,1-.951-2.129,2.838,2.838,0,0,1,1.192-2.435,5.621,5.621,0,0,1,3.354-.867h1.67v-.789a1.928,1.928,0,0,0-.538-1.433,2.163,2.163,0,0,0-1.586-.533,2.5,2.5,0,0,0-1.54.464,1.367,1.367,0,0,0-.622,1.123H17.868A2.369,2.369,0,0,1,18.4-8.707a3.641,3.641,0,0,1,1.447-1.109,4.869,4.869,0,0,1,2.009-.408,3.968,3.968,0,0,1,2.718.867A3.129,3.129,0,0,1,25.6-6.967v4.62a5.649,5.649,0,0,0,.353,2.2V0ZM21.3-1.308a3.016,3.016,0,0,0,1.531-.417A2.525,2.525,0,0,0,23.88-2.811v-2.06H22.535q-3.154,0-3.154,1.846a1.562,1.562,0,0,0,.538,1.262A2.068,2.068,0,0,0,21.3-1.308Zm9.314-11.161v2.431h1.874v1.327H30.615v6.233a1.393,1.393,0,0,0,.25.906,1.054,1.054,0,0,0,.854.3,4.155,4.155,0,0,0,.816-.111V0a5,5,0,0,1-1.317.184,2.137,2.137,0,0,1-1.735-.7A2.989,2.989,0,0,1,28.9-2.486V-8.711H27.071v-1.327H28.9v-2.431ZM38.659.186a4.386,4.386,0,0,1-3.321-1.341,4.976,4.976,0,0,1-1.28-3.586v-.315a6.024,6.024,0,0,1,.571-2.667,4.451,4.451,0,0,1,1.6-1.837,4.012,4.012,0,0,1,2.222-.663,3.759,3.759,0,0,1,3.043,1.29,5.583,5.583,0,0,1,1.085,3.692v.714h-6.8a3.568,3.568,0,0,0,.867,2.4,2.727,2.727,0,0,0,2.111.914,2.989,2.989,0,0,0,1.54-.371,3.869,3.869,0,0,0,1.1-.983l1.048.816A4.215,4.215,0,0,1,38.659.186Zm-.213-9a2.289,2.289,0,0,0-1.744.756,3.675,3.675,0,0,0-.872,2.12h5.028v-.13a3.269,3.269,0,0,0-.705-2.027A2.155,2.155,0,0,0,38.445-8.813ZM49.411-8.5a5.143,5.143,0,0,0-.844-.065,2.262,2.262,0,0,0-2.292,1.438V0H44.559V-10.038h1.67l.028,1.16a2.672,2.672,0,0,1,2.394-1.345,1.753,1.753,0,0,1,.761.13ZM52.853,0H51.137V-10.038h1.716ZM51-12.7a1.024,1.024,0,0,1,.255-.705.958.958,0,0,1,.756-.288.973.973,0,0,1,.761.288,1.014,1.014,0,0,1,.26.705.98.98,0,0,1-.26.7.99.99,0,0,1-.761.278A.975.975,0,0,1,51.253-12,.991.991,0,0,1,51-12.7ZM61.8,0a3.605,3.605,0,0,1-.241-1.058A3.829,3.829,0,0,1,58.7.186a3.543,3.543,0,0,1-2.435-.84,2.716,2.716,0,0,1-.951-2.129A2.838,2.838,0,0,1,56.5-5.219a5.621,5.621,0,0,1,3.354-.867h1.67v-.789a1.928,1.928,0,0,0-.538-1.433A2.163,2.163,0,0,0,59.4-8.841a2.5,2.5,0,0,0-1.54.464,1.367,1.367,0,0,0-.622,1.123H55.516a2.369,2.369,0,0,1,.533-1.452A3.641,3.641,0,0,1,57.5-9.815a4.869,4.869,0,0,1,2.009-.408,3.968,3.968,0,0,1,2.718.867,3.129,3.129,0,0,1,1.021,2.389v4.62a5.649,5.649,0,0,0,.353,2.2V0ZM58.948-1.308a3.016,3.016,0,0,0,1.531-.417,2.525,2.525,0,0,0,1.048-1.085v-2.06H60.182q-3.154,0-3.154,1.846a1.562,1.562,0,0,0,.538,1.262A2.068,2.068,0,0,0,58.948-1.308Zm20.169-3.6a6.011,6.011,0,0,1-1.048,3.692A3.36,3.36,0,0,1,75.23.186a3.681,3.681,0,0,1-2.876-1.16V3.859H70.638v-13.9h1.568l.083,1.113a3.536,3.536,0,0,1,2.913-1.3A3.423,3.423,0,0,1,78.064-8.86a6.076,6.076,0,0,1,1.053,3.794ZM77.4-5.1a4.435,4.435,0,0,0-.724-2.681,2.331,2.331,0,0,0-1.985-.983,2.523,2.523,0,0,0-2.338,1.382v4.8A2.528,2.528,0,0,0,74.71-1.215a2.32,2.32,0,0,0,1.962-.979A4.841,4.841,0,0,0,77.4-5.1Zm8.749-3.4a5.143,5.143,0,0,0-.844-.065,2.262,2.262,0,0,0-2.292,1.438V0H81.3V-10.038h1.67L83-8.878a2.673,2.673,0,0,1,2.394-1.345,1.753,1.753,0,0,1,.761.13ZM89.591,0H87.875V-10.038h1.716ZM87.736-12.7a1.025,1.025,0,0,1,.255-.705.958.958,0,0,1,.756-.288.973.973,0,0,1,.761.288,1.014,1.014,0,0,1,.26.705.98.98,0,0,1-.26.7.99.99,0,0,1-.761.278A.975.975,0,0,1,87.991-12,.991.991,0,0,1,87.736-12.7Zm6.216,2.663L94-8.925a3.707,3.707,0,0,1,2.978-1.3,2.87,2.87,0,0,1,2.867,1.614,3.8,3.8,0,0,1,1.3-1.169,3.85,3.85,0,0,1,1.9-.445q3.3,0,3.358,3.5V0h-1.716V-6.624a2.3,2.3,0,0,0-.492-1.61,2.165,2.165,0,0,0-1.651-.533,2.276,2.276,0,0,0-1.586.571,2.315,2.315,0,0,0-.733,1.535V0H98.5V-6.578a1.915,1.915,0,0,0-2.143-2.189,2.3,2.3,0,0,0-2.31,1.438V0H92.328V-10.038ZM115.188,0a3.605,3.605,0,0,1-.241-1.058A3.829,3.829,0,0,1,112.089.186a3.543,3.543,0,0,1-2.435-.84,2.716,2.716,0,0,1-.951-2.129,2.838,2.838,0,0,1,1.192-2.435,5.621,5.621,0,0,1,3.354-.867h1.67v-.789a1.928,1.928,0,0,0-.538-1.433,2.163,2.163,0,0,0-1.586-.533,2.5,2.5,0,0,0-1.54.464,1.367,1.367,0,0,0-.622,1.123h-1.726a2.369,2.369,0,0,1,.533-1.452,3.641,3.641,0,0,1,1.447-1.109,4.869,4.869,0,0,1,2.009-.408,3.968,3.968,0,0,1,2.718.867,3.129,3.129,0,0,1,1.021,2.389v4.62a5.649,5.649,0,0,0,.353,2.2V0Zm-2.848-1.308a3.016,3.016,0,0,0,1.531-.417,2.525,2.525,0,0,0,1.048-1.085v-2.06h-1.345q-3.154,0-3.154,1.846a1.562,1.562,0,0,0,.538,1.262A2.068,2.068,0,0,0,112.339-1.308Z" transform="translate(294.959 1834.388)" fill="#fff"/>
    <g id="Grupo_1108187" data-name="Grupo 1108187" transform="translate(264.711 1574)" clip-path="url(#clip-path)">
      <path id="Trazado_885360" data-name="Trazado 885360" d="M50.353,101.167h0a2.633,2.633,0,0,1,3.722,0l2.148,2.148a2.552,2.552,0,0,0,3.609,0l2.146-2.148a2.632,2.632,0,1,1,3.722,3.722l-6.067,6.069a2.27,2.27,0,0,1-3.212,0l-6.069-6.069a2.633,2.633,0,0,1,0-3.722" transform="translate(41.382 83.792)" fill="#1ba9b7"/>
      <path id="Trazado_885361" data-name="Trazado 885361" d="M168.671,101.167h0a2.633,2.633,0,0,1,3.722,0l2.148,2.148a2.552,2.552,0,0,0,3.609,0l2.146-2.148a2.632,2.632,0,0,1,3.722,3.722l-6.067,6.069a2.27,2.27,0,0,1-3.212,0l-6.069-6.069a2.633,2.633,0,0,1,0-3.722" transform="translate(140.132 83.792)" fill="#1ba9b7"/>
      <path id="Trazado_885362" data-name="Trazado 885362" d="M287.339,101.167h0a2.633,2.633,0,0,1,3.722,0l2.148,2.148a2.552,2.552,0,0,0,3.609,0l2.147-2.148a2.632,2.632,0,1,1,3.722,3.722l-6.067,6.069a2.27,2.27,0,0,1-3.212,0l-6.069-6.069a2.633,2.633,0,0,1,0-3.722" transform="translate(239.174 83.792)" fill="#1ba9b7"/>
      <path id="Trazado_885363" data-name="Trazado 885363" d="M405.2,101.167h0a2.633,2.633,0,0,1,3.722,0l2.148,2.148a2.552,2.552,0,0,0,3.609,0l2.146-2.148a2.632,2.632,0,1,1,3.722,3.722l-6.067,6.069a2.27,2.27,0,0,1-3.212,0l-6.069-6.069a2.633,2.633,0,0,1,0-3.722" transform="translate(337.542 83.792)" fill="#1ba9b7"/>
      <path id="Trazado_885364" data-name="Trazado 885364" d="M653.948,190.918H494.594A19.694,19.694,0,0,1,474.9,171.223V128.813a19.694,19.694,0,0,1,19.695-19.695H653.948a19.694,19.694,0,0,1,19.695,19.695v42.411a19.694,19.694,0,0,1-19.695,19.695" transform="translate(396.357 91.071)" fill="#2a7558"/>
    </g>
    <path id="Trazado_888187" data-name="Trazado 888187" d="M11.077-13.508v9.185A4.308,4.308,0,0,1,9.876-1.2,4.841,4.841,0,0,1,6.643.167L6.169.186a5.056,5.056,0,0,1-3.535-1.2A4.28,4.28,0,0,1,1.3-4.3v-9.2H3.062V-4.36a3.09,3.09,0,0,0,.807,2.278,3.1,3.1,0,0,0,2.3.812,3.123,3.123,0,0,0,2.315-.807,3.084,3.084,0,0,0,.8-2.273v-9.157Zm4.871,1.039v2.431h1.874v1.327H15.948v6.233a1.393,1.393,0,0,0,.25.906,1.054,1.054,0,0,0,.854.3,4.155,4.155,0,0,0,.816-.111V0a5.005,5.005,0,0,1-1.317.184,2.137,2.137,0,0,1-1.735-.7,2.989,2.989,0,0,1-.584-1.976V-8.711H12.4v-1.327h1.828v-2.431ZM21.69,0H19.974V-10.038H21.69ZM19.835-12.7a1.024,1.024,0,0,1,.255-.705.958.958,0,0,1,.756-.288.973.973,0,0,1,.761.288,1.014,1.014,0,0,1,.26.705.98.98,0,0,1-.26.7.99.99,0,0,1-.761.278A.975.975,0,0,1,20.09-12,.991.991,0,0,1,19.835-12.7ZM26.3,0H24.585V-14.25H26.3Zm4.611,0H29.2V-10.038h1.716ZM29.057-12.7a1.024,1.024,0,0,1,.255-.705.958.958,0,0,1,.756-.288.973.973,0,0,1,.761.288,1.014,1.014,0,0,1,.26.705.98.98,0,0,1-.26.7.99.99,0,0,1-.761.278A.975.975,0,0,1,29.312-12,.991.991,0,0,1,29.057-12.7ZM35.272-1.4h5.873V0H33.176V-1.262l5.539-7.357H33.259v-1.419h7.607v1.215Zm14,1.4a3.605,3.605,0,0,1-.241-1.058A3.829,3.829,0,0,1,46.173.186a3.543,3.543,0,0,1-2.435-.84,2.716,2.716,0,0,1-.951-2.129,2.838,2.838,0,0,1,1.192-2.435,5.621,5.621,0,0,1,3.354-.867H49v-.789a1.928,1.928,0,0,0-.538-1.433,2.163,2.163,0,0,0-1.586-.533,2.5,2.5,0,0,0-1.54.464,1.367,1.367,0,0,0-.622,1.123H42.991a2.369,2.369,0,0,1,.533-1.452,3.641,3.641,0,0,1,1.447-1.109,4.869,4.869,0,0,1,2.009-.408,3.968,3.968,0,0,1,2.718.867,3.129,3.129,0,0,1,1.021,2.389v4.62a5.649,5.649,0,0,0,.353,2.2V0ZM46.424-1.308a3.016,3.016,0,0,0,1.531-.417A2.525,2.525,0,0,0,49-2.811v-2.06H47.658q-3.154,0-3.154,1.846a1.562,1.562,0,0,0,.538,1.262A2.068,2.068,0,0,0,46.424-1.308ZM58.262-8.5a5.143,5.143,0,0,0-.844-.065,2.262,2.262,0,0,0-2.292,1.438V0H53.41V-10.038h1.67l.028,1.16A2.672,2.672,0,0,1,57.5-10.224a1.753,1.753,0,0,1,.761.13ZM68.708.186a4.386,4.386,0,0,1-3.321-1.341,4.976,4.976,0,0,1-1.28-3.586v-.315a6.024,6.024,0,0,1,.571-2.667,4.451,4.451,0,0,1,1.6-1.837,4.012,4.012,0,0,1,2.222-.663,3.759,3.759,0,0,1,3.043,1.29,5.583,5.583,0,0,1,1.085,3.692v.714h-6.8a3.568,3.568,0,0,0,.867,2.4,2.727,2.727,0,0,0,2.111.914,2.989,2.989,0,0,0,1.54-.371,3.87,3.87,0,0,0,1.1-.983l1.048.816A4.215,4.215,0,0,1,68.708.186Zm-.213-9a2.289,2.289,0,0,0-1.744.756,3.675,3.675,0,0,0-.872,2.12h5.028v-.13A3.269,3.269,0,0,0,70.2-8.094,2.155,2.155,0,0,0,68.495-8.813Zm8.442-3.655v2.431h1.874v1.327H76.937v6.233a1.393,1.393,0,0,0,.25.906,1.054,1.054,0,0,0,.854.3,4.155,4.155,0,0,0,.816-.111V0A5.005,5.005,0,0,1,77.54.186a2.137,2.137,0,0,1-1.735-.7,2.989,2.989,0,0,1-.584-1.976V-8.711H73.393v-1.327h1.828v-2.431ZM87.012,0a3.605,3.605,0,0,1-.241-1.058A3.829,3.829,0,0,1,83.914.186a3.543,3.543,0,0,1-2.435-.84,2.716,2.716,0,0,1-.951-2.129,2.838,2.838,0,0,1,1.192-2.435,5.621,5.621,0,0,1,3.354-.867h1.67v-.789a1.928,1.928,0,0,0-.538-1.433,2.163,2.163,0,0,0-1.586-.533,2.5,2.5,0,0,0-1.54.464,1.367,1.367,0,0,0-.622,1.123H80.731a2.369,2.369,0,0,1,.533-1.452,3.641,3.641,0,0,1,1.447-1.109,4.869,4.869,0,0,1,2.009-.408,3.968,3.968,0,0,1,2.718.867,3.129,3.129,0,0,1,1.021,2.389v4.62a5.649,5.649,0,0,0,.353,2.2V0ZM84.164-1.308a3.016,3.016,0,0,0,1.531-.417,2.525,2.525,0,0,0,1.048-1.085v-2.06H85.4q-3.154,0-3.154,1.846a1.562,1.562,0,0,0,.538,1.262A2.068,2.068,0,0,0,84.164-1.308Zm15.465-3.6a6.011,6.011,0,0,1-1.048,3.692,3.36,3.36,0,0,1-2.839,1.4,3.681,3.681,0,0,1-2.876-1.16V3.859H91.15v-13.9h1.568L92.8-8.925a3.536,3.536,0,0,1,2.913-1.3A3.423,3.423,0,0,1,98.576-8.86a6.076,6.076,0,0,1,1.053,3.794ZM97.913-5.1a4.435,4.435,0,0,0-.724-2.681A2.331,2.331,0,0,0,95.2-8.767a2.523,2.523,0,0,0-2.338,1.382v4.8a2.528,2.528,0,0,0,2.356,1.373,2.32,2.32,0,0,0,1.962-.979A4.841,4.841,0,0,0,97.913-5.1ZM108.007,0a3.605,3.605,0,0,1-.241-1.058A3.829,3.829,0,0,1,104.908.186a3.543,3.543,0,0,1-2.435-.84,2.716,2.716,0,0,1-.951-2.129,2.838,2.838,0,0,1,1.192-2.435,5.621,5.621,0,0,1,3.354-.867h1.67v-.789a1.928,1.928,0,0,0-.538-1.433,2.163,2.163,0,0,0-1.586-.533,2.5,2.5,0,0,0-1.54.464,1.367,1.367,0,0,0-.622,1.123h-1.726a2.369,2.369,0,0,1,.533-1.452,3.641,3.641,0,0,1,1.447-1.109,4.869,4.869,0,0,1,2.009-.408,3.968,3.968,0,0,1,2.718.867,3.129,3.129,0,0,1,1.021,2.389v4.62a5.649,5.649,0,0,0,.353,2.2V0Zm-2.848-1.308a3.016,3.016,0,0,0,1.531-.417,2.525,2.525,0,0,0,1.048-1.085v-2.06h-1.345q-3.154,0-3.154,1.846a1.562,1.562,0,0,0,.538,1.262A2.068,2.068,0,0,0,105.159-1.308Z" transform="translate(1169.849 1819.342)" fill="#fff"/>
    <g id="Grupo_1108189" data-name="Grupo 1108189" transform="translate(264.711 1574)" clip-path="url(#clip-path)">
      <path id="Trazado_885365" data-name="Trazado 885365" d="M548.91,50.547a13.781,13.781,0,1,1-13.782-13.78,13.782,13.782,0,0,1,13.782,13.78" transform="translate(435.125 30.686)" fill="#ffe64b"/>
      <path id="Trazado_885366" data-name="Trazado 885366" d="M533.04,57.645a9.187,9.187,0,1,1,9.188-9.188,9.2,9.2,0,0,1-9.188,9.188" transform="translate(437.216 32.776)" fill="#fff"/>
      <path id="Trazado_885367" data-name="Trazado 885367" d="M557.132,111.177a19.292,19.292,0,1,1-19.295-19.291,19.294,19.294,0,0,1,19.295,19.291" transform="translate(432.787 76.689)" fill="#ffe64b"/>
      <path id="Trazado_885368" data-name="Trazado 885368" d="M534.914,121.114a12.862,12.862,0,1,1,12.862-12.862,12.875,12.875,0,0,1-12.862,12.862" transform="translate(435.713 79.615)" fill="#fff"/>
      <path id="Trazado_885369" data-name="Trazado 885369" d="M525.23,101.167h0a2.633,2.633,0,0,1,3.723,0l2.148,2.148a2.552,2.552,0,0,0,3.609,0l2.146-2.148a2.632,2.632,0,1,1,3.723,3.722l-6.067,6.069a2.27,2.27,0,0,1-3.212,0l-6.069-6.069a2.633,2.633,0,0,1,0-3.722" transform="translate(437.722 83.792)" fill="#1ba9b7"/>
    </g>
    <path id="Trazado_888166" data-name="Trazado 888166" d="M11.81-4.5A4.78,4.78,0,0,1,10.2-1.067,5.653,5.653,0,0,1,6.374.186,5.083,5.083,0,0,1,2.287-1.563,7.171,7.171,0,0,1,.8-6.364V-7.19a8.1,8.1,0,0,1,.687-3.433A5.145,5.145,0,0,1,3.447-12.9a5.5,5.5,0,0,1,2.964-.793,5.507,5.507,0,0,1,3.767,1.252,5.137,5.137,0,0,1,1.651,3.516H9.045a2.821,2.821,0,0,0-.728-1.9,2.7,2.7,0,0,0-1.906-.589,2.365,2.365,0,0,0-2.083,1,5.589,5.589,0,0,0-.71,3.094V-6.3a5.982,5.982,0,0,0,.663,3.2A2.321,2.321,0,0,0,6.374-2.087,2.748,2.748,0,0,0,8.3-2.677,2.661,2.661,0,0,0,9.027-4.5Zm12.051-9.008v8.9A4.555,4.555,0,0,1,22.474-1.1a5.347,5.347,0,0,1-3.79,1.29,5.407,5.407,0,0,1-3.757-1.252,4.477,4.477,0,0,1-1.419-3.442v-9h2.783v8.916a2.574,2.574,0,0,0,.635,1.934,2.44,2.44,0,0,0,1.758.608q2.347,0,2.384-2.468v-8.99ZM37.128,0H34.345L28.927-8.888V0H26.144V-13.508h2.783L34.354-4.6v-8.906h2.774ZM47.356-2.783h-4.88L41.548,0H38.588l5.028-13.508H46.2L51.252,0H48.293ZM43.227-5.038H46.6l-1.7-5.056Z" transform="translate(337.198 1622.945)" fill="#35a170"/>
    <path id="Trazado_888173" data-name="Trazado 888173" d="M1.206,0V-13.508H5.362a6.312,6.312,0,0,1,3.187.8,5.6,5.6,0,0,1,2.194,2.282,7.039,7.039,0,0,1,.789,3.363v.622a7.059,7.059,0,0,1-.775,3.349A5.548,5.548,0,0,1,8.572-.816,6.359,6.359,0,0,1,5.39,0ZM3.989-11.253v9.018H5.334A3.022,3.022,0,0,0,7.83-3.3a4.821,4.821,0,0,0,.881-3.052v-.714a4.9,4.9,0,0,0-.854-3.122,3.012,3.012,0,0,0-2.5-1.062ZM18,.186A4.928,4.928,0,0,1,14.4-1.169a4.815,4.815,0,0,1-1.387-3.609v-.26a6.064,6.064,0,0,1,.584-2.7,4.289,4.289,0,0,1,1.656-1.837,4.648,4.648,0,0,1,2.445-.645,4.166,4.166,0,0,1,3.242,1.3,5.278,5.278,0,0,1,1.183,3.683v1.095H15.734a2.491,2.491,0,0,0,.784,1.577,2.37,2.37,0,0,0,1.656.594A2.894,2.894,0,0,0,20.6-3.1l1.317,1.475A4.025,4.025,0,0,1,20.28-.292,5.357,5.357,0,0,1,18,.186Zm-.306-8.248a1.675,1.675,0,0,0-1.294.54,2.8,2.8,0,0,0-.635,1.547h3.729v-.214a2,2,0,0,0-.482-1.384A1.729,1.729,0,0,0,17.692-8.062ZM29.084-2.774a.864.864,0,0,0-.487-.775,5.533,5.533,0,0,0-1.563-.506Q23.453-4.806,23.453-7.1a2.758,2.758,0,0,1,1.109-2.231,4.472,4.472,0,0,1,2.9-.9,4.813,4.813,0,0,1,3.057.9,2.836,2.836,0,0,1,1.146,2.338H28.982a1.3,1.3,0,0,0-.371-.951,1.57,1.57,0,0,0-1.16-.376,1.6,1.6,0,0,0-1.048.306.966.966,0,0,0-.371.779.826.826,0,0,0,.422.719,4.342,4.342,0,0,0,1.424.473,11.632,11.632,0,0,1,1.688.45,2.774,2.774,0,0,1,2.125,2.7A2.618,2.618,0,0,1,30.513-.663,5.083,5.083,0,0,1,27.47.186a5.309,5.309,0,0,1-2.24-.45A3.759,3.759,0,0,1,23.694-1.5a2.867,2.867,0,0,1-.557-1.693H25.68A1.4,1.4,0,0,0,26.208-2.1a2.1,2.1,0,0,0,1.317.38,1.941,1.941,0,0,0,1.164-.292A.909.909,0,0,0,29.084-2.774ZM42.453-4.926A6.02,6.02,0,0,1,41.4-1.211a3.376,3.376,0,0,1-2.844,1.4A3.127,3.127,0,0,1,36.1-.872V3.859H33.417v-13.9H35.9L36-9.055a3.151,3.151,0,0,1,2.542-1.169,3.4,3.4,0,0,1,2.885,1.373,6.183,6.183,0,0,1,1.03,3.785Zm-2.681-.195a3.951,3.951,0,0,0-.5-2.162,1.617,1.617,0,0,0-1.443-.761,1.756,1.756,0,0,0-1.735.965v4.11a1.786,1.786,0,0,0,1.753.993Q39.772-1.976,39.772-5.121ZM48.734.186a4.928,4.928,0,0,1-3.595-1.354,4.815,4.815,0,0,1-1.387-3.609v-.26a6.064,6.064,0,0,1,.584-2.7,4.289,4.289,0,0,1,1.656-1.837,4.648,4.648,0,0,1,2.445-.645,4.166,4.166,0,0,1,3.242,1.3,5.278,5.278,0,0,1,1.183,3.683v1.095H46.47a2.491,2.491,0,0,0,.784,1.577,2.37,2.37,0,0,0,1.656.594A2.894,2.894,0,0,0,51.332-3.1l1.317,1.475A4.025,4.025,0,0,1,51.016-.292,5.357,5.357,0,0,1,48.734.186Zm-.306-8.248a1.675,1.675,0,0,0-1.294.54A2.8,2.8,0,0,0,46.5-5.975h3.729v-.214a2,2,0,0,0-.482-1.384A1.729,1.729,0,0,0,48.428-8.062Zm11.6.538A7.284,7.284,0,0,0,59.06-7.6a1.964,1.964,0,0,0-1.995,1.03V0H54.384V-10.038h2.533l.074,1.2a2.484,2.484,0,0,1,2.236-1.382,2.809,2.809,0,0,1,.835.121Zm.7,2.431a6.049,6.049,0,0,1,1.053-3.739,3.417,3.417,0,0,1,2.881-1.392A3.074,3.074,0,0,1,67.08-9.129V-14.25h2.69V0H67.35l-.13-1.067A3.155,3.155,0,0,1,64.641.186a3.407,3.407,0,0,1-2.844-1.4A6.244,6.244,0,0,1,60.725-5.093Zm2.681.2A3.963,3.963,0,0,0,63.9-2.729a1.6,1.6,0,0,0,1.429.753,1.794,1.794,0,0,0,1.753-1.05V-6.994a1.768,1.768,0,0,0-1.735-1.05Q63.407-8.043,63.407-4.894ZM74.679,0h-2.69V-10.038h2.69ZM71.83-12.636a1.32,1.32,0,0,1,.4-.993,1.516,1.516,0,0,1,1.1-.39,1.52,1.52,0,0,1,1.095.39,1.313,1.313,0,0,1,.408.993,1.316,1.316,0,0,1-.413,1,1.523,1.523,0,0,1-1.09.39,1.523,1.523,0,0,1-1.09-.39A1.316,1.316,0,0,1,71.83-12.636Zm9.231,10.66a1.759,1.759,0,0,0,1.206-.408A1.43,1.43,0,0,0,82.75-3.47h2.514A3.439,3.439,0,0,1,84.707-1.6a3.673,3.673,0,0,1-1.5,1.317,4.689,4.689,0,0,1-2.1.469,4.358,4.358,0,0,1-3.4-1.368,5.415,5.415,0,0,1-1.243-3.781V-5.14a5.353,5.353,0,0,1,1.234-3.7,4.307,4.307,0,0,1,3.386-1.382,4.222,4.222,0,0,1,3.02,1.072A3.794,3.794,0,0,1,85.264-6.3H82.75a1.842,1.842,0,0,0-.482-1.273,1.608,1.608,0,0,0-1.225-.49,1.615,1.615,0,0,0-1.415.683,3.958,3.958,0,0,0-.478,2.216v.279a4.008,4.008,0,0,0,.473,2.23A1.635,1.635,0,0,0,81.061-1.976ZM89.624,0h-2.69V-10.038h2.69ZM86.776-12.636a1.32,1.32,0,0,1,.4-.993,1.516,1.516,0,0,1,1.1-.39,1.52,1.52,0,0,1,1.095.39,1.313,1.313,0,0,1,.408.993,1.316,1.316,0,0,1-.413,1,1.523,1.523,0,0,1-1.09.39,1.523,1.523,0,0,1-1.09-.39A1.316,1.316,0,0,1,86.776-12.636ZM97.649,0a2.977,2.977,0,0,1-.269-.9A3.244,3.244,0,0,1,94.848.186,3.564,3.564,0,0,1,92.4-.668a2.745,2.745,0,0,1-.969-2.152A2.837,2.837,0,0,1,92.616-5.27a5.837,5.837,0,0,1,3.419-.863h1.234v-.575a1.654,1.654,0,0,0-.357-1.113,1.405,1.405,0,0,0-1.127-.417,1.6,1.6,0,0,0-1.062.325,1.1,1.1,0,0,0-.385.891H91.656a2.693,2.693,0,0,1,.538-1.614A3.557,3.557,0,0,1,93.716-9.8a5.545,5.545,0,0,1,2.208-.422,4.381,4.381,0,0,1,2.946.932,3.262,3.262,0,0,1,1.09,2.621v4.351a4.8,4.8,0,0,0,.4,2.162V0ZM95.432-1.865a2.309,2.309,0,0,0,1.095-.264,1.737,1.737,0,0,0,.742-.71V-4.564h-1q-2.013,0-2.143,1.392l-.009.158a1.073,1.073,0,0,0,.353.826A1.369,1.369,0,0,0,95.432-1.865ZM107.66-7.524a7.284,7.284,0,0,0-.965-.074,1.964,1.964,0,0,0-1.995,1.03V0h-2.681V-10.038h2.533l.074,1.2a2.484,2.484,0,0,1,2.236-1.382,2.809,2.809,0,0,1,.835.121Z" transform="translate(304.615 1887.24)" fill="#2b4290"/>
    <path id="Trazado_888174" data-name="Trazado 888174" d="M1.206,0V-13.508H5.362a6.312,6.312,0,0,1,3.187.8,5.6,5.6,0,0,1,2.194,2.282,7.039,7.039,0,0,1,.789,3.363v.622a7.059,7.059,0,0,1-.775,3.349A5.548,5.548,0,0,1,8.572-.816,6.359,6.359,0,0,1,5.39,0ZM3.989-11.253v9.018H5.334A3.022,3.022,0,0,0,7.83-3.3a4.821,4.821,0,0,0,.881-3.052v-.714a4.9,4.9,0,0,0-.854-3.122,3.012,3.012,0,0,0-2.5-1.062ZM18,.186A4.928,4.928,0,0,1,14.4-1.169a4.815,4.815,0,0,1-1.387-3.609v-.26a6.064,6.064,0,0,1,.584-2.7,4.289,4.289,0,0,1,1.656-1.837,4.648,4.648,0,0,1,2.445-.645,4.166,4.166,0,0,1,3.242,1.3,5.278,5.278,0,0,1,1.183,3.683v1.095H15.734a2.491,2.491,0,0,0,.784,1.577,2.37,2.37,0,0,0,1.656.594A2.894,2.894,0,0,0,20.6-3.1l1.317,1.475A4.025,4.025,0,0,1,20.28-.292,5.357,5.357,0,0,1,18,.186Zm-.306-8.248a1.675,1.675,0,0,0-1.294.54,2.8,2.8,0,0,0-.635,1.547h3.729v-.214a2,2,0,0,0-.482-1.384A1.729,1.729,0,0,0,17.692-8.062ZM29.084-2.774a.864.864,0,0,0-.487-.775,5.533,5.533,0,0,0-1.563-.506Q23.453-4.806,23.453-7.1a2.758,2.758,0,0,1,1.109-2.231,4.472,4.472,0,0,1,2.9-.9,4.813,4.813,0,0,1,3.057.9,2.836,2.836,0,0,1,1.146,2.338H28.982a1.3,1.3,0,0,0-.371-.951,1.57,1.57,0,0,0-1.16-.376,1.6,1.6,0,0,0-1.048.306.966.966,0,0,0-.371.779.826.826,0,0,0,.422.719,4.342,4.342,0,0,0,1.424.473,11.632,11.632,0,0,1,1.688.45,2.774,2.774,0,0,1,2.125,2.7A2.618,2.618,0,0,1,30.513-.663,5.083,5.083,0,0,1,27.47.186a5.309,5.309,0,0,1-2.24-.45A3.759,3.759,0,0,1,23.694-1.5a2.867,2.867,0,0,1-.557-1.693H25.68A1.4,1.4,0,0,0,26.208-2.1a2.1,2.1,0,0,0,1.317.38,1.941,1.941,0,0,0,1.164-.292A.909.909,0,0,0,29.084-2.774ZM42.453-4.926A6.02,6.02,0,0,1,41.4-1.211a3.376,3.376,0,0,1-2.844,1.4A3.127,3.127,0,0,1,36.1-.872V3.859H33.417v-13.9H35.9L36-9.055a3.151,3.151,0,0,1,2.542-1.169,3.4,3.4,0,0,1,2.885,1.373,6.183,6.183,0,0,1,1.03,3.785Zm-2.681-.195a3.951,3.951,0,0,0-.5-2.162,1.617,1.617,0,0,0-1.443-.761,1.756,1.756,0,0,0-1.735.965v4.11a1.786,1.786,0,0,0,1.753.993Q39.772-1.976,39.772-5.121ZM48.734.186a4.928,4.928,0,0,1-3.595-1.354,4.815,4.815,0,0,1-1.387-3.609v-.26a6.064,6.064,0,0,1,.584-2.7,4.289,4.289,0,0,1,1.656-1.837,4.648,4.648,0,0,1,2.445-.645,4.166,4.166,0,0,1,3.242,1.3,5.278,5.278,0,0,1,1.183,3.683v1.095H46.47a2.491,2.491,0,0,0,.784,1.577,2.37,2.37,0,0,0,1.656.594A2.894,2.894,0,0,0,51.332-3.1l1.317,1.475A4.025,4.025,0,0,1,51.016-.292,5.357,5.357,0,0,1,48.734.186Zm-.306-8.248a1.675,1.675,0,0,0-1.294.54A2.8,2.8,0,0,0,46.5-5.975h3.729v-.214a2,2,0,0,0-.482-1.384A1.729,1.729,0,0,0,48.428-8.062Zm11.6.538A7.284,7.284,0,0,0,59.06-7.6a1.964,1.964,0,0,0-1.995,1.03V0H54.384V-10.038h2.533l.074,1.2a2.484,2.484,0,0,1,2.236-1.382,2.809,2.809,0,0,1,.835.121Zm.7,2.431a6.049,6.049,0,0,1,1.053-3.739,3.417,3.417,0,0,1,2.881-1.392A3.074,3.074,0,0,1,67.08-9.129V-14.25h2.69V0H67.35l-.13-1.067A3.155,3.155,0,0,1,64.641.186a3.407,3.407,0,0,1-2.844-1.4A6.244,6.244,0,0,1,60.725-5.093Zm2.681.2A3.963,3.963,0,0,0,63.9-2.729a1.6,1.6,0,0,0,1.429.753,1.794,1.794,0,0,0,1.753-1.05V-6.994a1.768,1.768,0,0,0-1.735-1.05Q63.407-8.043,63.407-4.894ZM74.679,0h-2.69V-10.038h2.69ZM71.83-12.636a1.32,1.32,0,0,1,.4-.993,1.516,1.516,0,0,1,1.1-.39,1.52,1.52,0,0,1,1.095.39,1.313,1.313,0,0,1,.408.993,1.316,1.316,0,0,1-.413,1,1.523,1.523,0,0,1-1.09.39,1.523,1.523,0,0,1-1.09-.39A1.316,1.316,0,0,1,71.83-12.636Zm9.231,10.66a1.759,1.759,0,0,0,1.206-.408A1.43,1.43,0,0,0,82.75-3.47h2.514A3.439,3.439,0,0,1,84.707-1.6a3.673,3.673,0,0,1-1.5,1.317,4.689,4.689,0,0,1-2.1.469,4.358,4.358,0,0,1-3.4-1.368,5.415,5.415,0,0,1-1.243-3.781V-5.14a5.353,5.353,0,0,1,1.234-3.7,4.307,4.307,0,0,1,3.386-1.382,4.222,4.222,0,0,1,3.02,1.072A3.794,3.794,0,0,1,85.264-6.3H82.75a1.842,1.842,0,0,0-.482-1.273,1.608,1.608,0,0,0-1.225-.49,1.615,1.615,0,0,0-1.415.683,3.958,3.958,0,0,0-.478,2.216v.279a4.008,4.008,0,0,0,.473,2.23A1.635,1.635,0,0,0,81.061-1.976ZM89.624,0h-2.69V-10.038h2.69ZM86.776-12.636a1.32,1.32,0,0,1,.4-.993,1.516,1.516,0,0,1,1.1-.39,1.52,1.52,0,0,1,1.095.39,1.313,1.313,0,0,1,.408.993,1.316,1.316,0,0,1-.413,1,1.523,1.523,0,0,1-1.09.39,1.523,1.523,0,0,1-1.09-.39A1.316,1.316,0,0,1,86.776-12.636ZM97.649,0a2.977,2.977,0,0,1-.269-.9A3.244,3.244,0,0,1,94.848.186,3.564,3.564,0,0,1,92.4-.668a2.745,2.745,0,0,1-.969-2.152A2.837,2.837,0,0,1,92.616-5.27a5.837,5.837,0,0,1,3.419-.863h1.234v-.575a1.654,1.654,0,0,0-.357-1.113,1.405,1.405,0,0,0-1.127-.417,1.6,1.6,0,0,0-1.062.325,1.1,1.1,0,0,0-.385.891H91.656a2.693,2.693,0,0,1,.538-1.614A3.557,3.557,0,0,1,93.716-9.8a5.545,5.545,0,0,1,2.208-.422,4.381,4.381,0,0,1,2.946.932,3.262,3.262,0,0,1,1.09,2.621v4.351a4.8,4.8,0,0,0,.4,2.162V0ZM95.432-1.865a2.309,2.309,0,0,0,1.095-.264,1.737,1.737,0,0,0,.742-.71V-4.564h-1q-2.013,0-2.143,1.392l-.009.158a1.073,1.073,0,0,0,.353.826A1.369,1.369,0,0,0,95.432-1.865ZM107.66-7.524a7.284,7.284,0,0,0-.965-.074,1.964,1.964,0,0,0-1.995,1.03V0h-2.681V-10.038h2.533l.074,1.2a2.484,2.484,0,0,1,2.236-1.382,2.809,2.809,0,0,1,.835.121Z" transform="translate(519.177 1887.24)" fill="#2b4290"/>
    <path id="Trazado_888175" data-name="Trazado 888175" d="M1.206,0V-13.508H5.362a6.312,6.312,0,0,1,3.187.8,5.6,5.6,0,0,1,2.194,2.282,7.039,7.039,0,0,1,.789,3.363v.622a7.059,7.059,0,0,1-.775,3.349A5.548,5.548,0,0,1,8.572-.816,6.359,6.359,0,0,1,5.39,0ZM3.989-11.253v9.018H5.334A3.022,3.022,0,0,0,7.83-3.3a4.821,4.821,0,0,0,.881-3.052v-.714a4.9,4.9,0,0,0-.854-3.122,3.012,3.012,0,0,0-2.5-1.062ZM18,.186A4.928,4.928,0,0,1,14.4-1.169a4.815,4.815,0,0,1-1.387-3.609v-.26a6.064,6.064,0,0,1,.584-2.7,4.289,4.289,0,0,1,1.656-1.837,4.648,4.648,0,0,1,2.445-.645,4.166,4.166,0,0,1,3.242,1.3,5.278,5.278,0,0,1,1.183,3.683v1.095H15.734a2.491,2.491,0,0,0,.784,1.577,2.37,2.37,0,0,0,1.656.594A2.894,2.894,0,0,0,20.6-3.1l1.317,1.475A4.025,4.025,0,0,1,20.28-.292,5.357,5.357,0,0,1,18,.186Zm-.306-8.248a1.675,1.675,0,0,0-1.294.54,2.8,2.8,0,0,0-.635,1.547h3.729v-.214a2,2,0,0,0-.482-1.384A1.729,1.729,0,0,0,17.692-8.062ZM29.084-2.774a.864.864,0,0,0-.487-.775,5.533,5.533,0,0,0-1.563-.506Q23.453-4.806,23.453-7.1a2.758,2.758,0,0,1,1.109-2.231,4.472,4.472,0,0,1,2.9-.9,4.813,4.813,0,0,1,3.057.9,2.836,2.836,0,0,1,1.146,2.338H28.982a1.3,1.3,0,0,0-.371-.951,1.57,1.57,0,0,0-1.16-.376,1.6,1.6,0,0,0-1.048.306.966.966,0,0,0-.371.779.826.826,0,0,0,.422.719,4.342,4.342,0,0,0,1.424.473,11.632,11.632,0,0,1,1.688.45,2.774,2.774,0,0,1,2.125,2.7A2.618,2.618,0,0,1,30.513-.663,5.083,5.083,0,0,1,27.47.186a5.309,5.309,0,0,1-2.24-.45A3.759,3.759,0,0,1,23.694-1.5a2.867,2.867,0,0,1-.557-1.693H25.68A1.4,1.4,0,0,0,26.208-2.1a2.1,2.1,0,0,0,1.317.38,1.941,1.941,0,0,0,1.164-.292A.909.909,0,0,0,29.084-2.774ZM42.453-4.926A6.02,6.02,0,0,1,41.4-1.211a3.376,3.376,0,0,1-2.844,1.4A3.127,3.127,0,0,1,36.1-.872V3.859H33.417v-13.9H35.9L36-9.055a3.151,3.151,0,0,1,2.542-1.169,3.4,3.4,0,0,1,2.885,1.373,6.183,6.183,0,0,1,1.03,3.785Zm-2.681-.195a3.951,3.951,0,0,0-.5-2.162,1.617,1.617,0,0,0-1.443-.761,1.756,1.756,0,0,0-1.735.965v4.11a1.786,1.786,0,0,0,1.753.993Q39.772-1.976,39.772-5.121ZM48.734.186a4.928,4.928,0,0,1-3.595-1.354,4.815,4.815,0,0,1-1.387-3.609v-.26a6.064,6.064,0,0,1,.584-2.7,4.289,4.289,0,0,1,1.656-1.837,4.648,4.648,0,0,1,2.445-.645,4.166,4.166,0,0,1,3.242,1.3,5.278,5.278,0,0,1,1.183,3.683v1.095H46.47a2.491,2.491,0,0,0,.784,1.577,2.37,2.37,0,0,0,1.656.594A2.894,2.894,0,0,0,51.332-3.1l1.317,1.475A4.025,4.025,0,0,1,51.016-.292,5.357,5.357,0,0,1,48.734.186Zm-.306-8.248a1.675,1.675,0,0,0-1.294.54A2.8,2.8,0,0,0,46.5-5.975h3.729v-.214a2,2,0,0,0-.482-1.384A1.729,1.729,0,0,0,48.428-8.062Zm11.6.538A7.284,7.284,0,0,0,59.06-7.6a1.964,1.964,0,0,0-1.995,1.03V0H54.384V-10.038h2.533l.074,1.2a2.484,2.484,0,0,1,2.236-1.382,2.809,2.809,0,0,1,.835.121Zm.7,2.431a6.049,6.049,0,0,1,1.053-3.739,3.417,3.417,0,0,1,2.881-1.392A3.074,3.074,0,0,1,67.08-9.129V-14.25h2.69V0H67.35l-.13-1.067A3.155,3.155,0,0,1,64.641.186a3.407,3.407,0,0,1-2.844-1.4A6.244,6.244,0,0,1,60.725-5.093Zm2.681.2A3.963,3.963,0,0,0,63.9-2.729a1.6,1.6,0,0,0,1.429.753,1.794,1.794,0,0,0,1.753-1.05V-6.994a1.768,1.768,0,0,0-1.735-1.05Q63.407-8.043,63.407-4.894ZM74.679,0h-2.69V-10.038h2.69ZM71.83-12.636a1.32,1.32,0,0,1,.4-.993,1.516,1.516,0,0,1,1.1-.39,1.52,1.52,0,0,1,1.095.39,1.313,1.313,0,0,1,.408.993,1.316,1.316,0,0,1-.413,1,1.523,1.523,0,0,1-1.09.39,1.523,1.523,0,0,1-1.09-.39A1.316,1.316,0,0,1,71.83-12.636Zm9.231,10.66a1.759,1.759,0,0,0,1.206-.408A1.43,1.43,0,0,0,82.75-3.47h2.514A3.439,3.439,0,0,1,84.707-1.6a3.673,3.673,0,0,1-1.5,1.317,4.689,4.689,0,0,1-2.1.469,4.358,4.358,0,0,1-3.4-1.368,5.415,5.415,0,0,1-1.243-3.781V-5.14a5.353,5.353,0,0,1,1.234-3.7,4.307,4.307,0,0,1,3.386-1.382,4.222,4.222,0,0,1,3.02,1.072A3.794,3.794,0,0,1,85.264-6.3H82.75a1.842,1.842,0,0,0-.482-1.273,1.608,1.608,0,0,0-1.225-.49,1.615,1.615,0,0,0-1.415.683,3.958,3.958,0,0,0-.478,2.216v.279a4.008,4.008,0,0,0,.473,2.23A1.635,1.635,0,0,0,81.061-1.976ZM89.624,0h-2.69V-10.038h2.69ZM86.776-12.636a1.32,1.32,0,0,1,.4-.993,1.516,1.516,0,0,1,1.1-.39,1.52,1.52,0,0,1,1.095.39,1.313,1.313,0,0,1,.408.993,1.316,1.316,0,0,1-.413,1,1.523,1.523,0,0,1-1.09.39,1.523,1.523,0,0,1-1.09-.39A1.316,1.316,0,0,1,86.776-12.636ZM97.649,0a2.977,2.977,0,0,1-.269-.9A3.244,3.244,0,0,1,94.848.186,3.564,3.564,0,0,1,92.4-.668a2.745,2.745,0,0,1-.969-2.152A2.837,2.837,0,0,1,92.616-5.27a5.837,5.837,0,0,1,3.419-.863h1.234v-.575a1.654,1.654,0,0,0-.357-1.113,1.405,1.405,0,0,0-1.127-.417,1.6,1.6,0,0,0-1.062.325,1.1,1.1,0,0,0-.385.891H91.656a2.693,2.693,0,0,1,.538-1.614A3.557,3.557,0,0,1,93.716-9.8a5.545,5.545,0,0,1,2.208-.422,4.381,4.381,0,0,1,2.946.932,3.262,3.262,0,0,1,1.09,2.621v4.351a4.8,4.8,0,0,0,.4,2.162V0ZM95.432-1.865a2.309,2.309,0,0,0,1.095-.264,1.737,1.737,0,0,0,.742-.71V-4.564h-1q-2.013,0-2.143,1.392l-.009.158a1.073,1.073,0,0,0,.353.826A1.369,1.369,0,0,0,95.432-1.865ZM107.66-7.524a7.284,7.284,0,0,0-.965-.074,1.964,1.964,0,0,0-1.995,1.03V0h-2.681V-10.038h2.533l.074,1.2a2.484,2.484,0,0,1,2.236-1.382,2.809,2.809,0,0,1,.835.121Z" transform="translate(736.887 1887.24)" fill="#2b4290"/>
    <path id="Trazado_888180" data-name="Trazado 888180" d="M1.206,0V-13.508H5.362a6.312,6.312,0,0,1,3.187.8,5.6,5.6,0,0,1,2.194,2.282,7.039,7.039,0,0,1,.789,3.363v.622a7.059,7.059,0,0,1-.775,3.349A5.548,5.548,0,0,1,8.572-.816,6.359,6.359,0,0,1,5.39,0ZM3.989-11.253v9.018H5.334A3.022,3.022,0,0,0,7.83-3.3a4.821,4.821,0,0,0,.881-3.052v-.714a4.9,4.9,0,0,0-.854-3.122,3.012,3.012,0,0,0-2.5-1.062ZM18,.186A4.928,4.928,0,0,1,14.4-1.169a4.815,4.815,0,0,1-1.387-3.609v-.26a6.064,6.064,0,0,1,.584-2.7,4.289,4.289,0,0,1,1.656-1.837,4.648,4.648,0,0,1,2.445-.645,4.166,4.166,0,0,1,3.242,1.3,5.278,5.278,0,0,1,1.183,3.683v1.095H15.734a2.491,2.491,0,0,0,.784,1.577,2.37,2.37,0,0,0,1.656.594A2.894,2.894,0,0,0,20.6-3.1l1.317,1.475A4.025,4.025,0,0,1,20.28-.292,5.357,5.357,0,0,1,18,.186Zm-.306-8.248a1.675,1.675,0,0,0-1.294.54,2.8,2.8,0,0,0-.635,1.547h3.729v-.214a2,2,0,0,0-.482-1.384A1.729,1.729,0,0,0,17.692-8.062ZM29.084-2.774a.864.864,0,0,0-.487-.775,5.533,5.533,0,0,0-1.563-.506Q23.453-4.806,23.453-7.1a2.758,2.758,0,0,1,1.109-2.231,4.472,4.472,0,0,1,2.9-.9,4.813,4.813,0,0,1,3.057.9,2.836,2.836,0,0,1,1.146,2.338H28.982a1.3,1.3,0,0,0-.371-.951,1.57,1.57,0,0,0-1.16-.376,1.6,1.6,0,0,0-1.048.306.966.966,0,0,0-.371.779.826.826,0,0,0,.422.719,4.342,4.342,0,0,0,1.424.473,11.632,11.632,0,0,1,1.688.45,2.774,2.774,0,0,1,2.125,2.7A2.618,2.618,0,0,1,30.513-.663,5.083,5.083,0,0,1,27.47.186a5.309,5.309,0,0,1-2.24-.45A3.759,3.759,0,0,1,23.694-1.5a2.867,2.867,0,0,1-.557-1.693H25.68A1.4,1.4,0,0,0,26.208-2.1a2.1,2.1,0,0,0,1.317.38,1.941,1.941,0,0,0,1.164-.292A.909.909,0,0,0,29.084-2.774ZM42.453-4.926A6.02,6.02,0,0,1,41.4-1.211a3.376,3.376,0,0,1-2.844,1.4A3.127,3.127,0,0,1,36.1-.872V3.859H33.417v-13.9H35.9L36-9.055a3.151,3.151,0,0,1,2.542-1.169,3.4,3.4,0,0,1,2.885,1.373,6.183,6.183,0,0,1,1.03,3.785Zm-2.681-.195a3.951,3.951,0,0,0-.5-2.162,1.617,1.617,0,0,0-1.443-.761,1.756,1.756,0,0,0-1.735.965v4.11a1.786,1.786,0,0,0,1.753.993Q39.772-1.976,39.772-5.121ZM48.734.186a4.928,4.928,0,0,1-3.595-1.354,4.815,4.815,0,0,1-1.387-3.609v-.26a6.064,6.064,0,0,1,.584-2.7,4.289,4.289,0,0,1,1.656-1.837,4.648,4.648,0,0,1,2.445-.645,4.166,4.166,0,0,1,3.242,1.3,5.278,5.278,0,0,1,1.183,3.683v1.095H46.47a2.491,2.491,0,0,0,.784,1.577,2.37,2.37,0,0,0,1.656.594A2.894,2.894,0,0,0,51.332-3.1l1.317,1.475A4.025,4.025,0,0,1,51.016-.292,5.357,5.357,0,0,1,48.734.186Zm-.306-8.248a1.675,1.675,0,0,0-1.294.54A2.8,2.8,0,0,0,46.5-5.975h3.729v-.214a2,2,0,0,0-.482-1.384A1.729,1.729,0,0,0,48.428-8.062Zm11.6.538A7.284,7.284,0,0,0,59.06-7.6a1.964,1.964,0,0,0-1.995,1.03V0H54.384V-10.038h2.533l.074,1.2a2.484,2.484,0,0,1,2.236-1.382,2.809,2.809,0,0,1,.835.121Zm.7,2.431a6.049,6.049,0,0,1,1.053-3.739,3.417,3.417,0,0,1,2.881-1.392A3.074,3.074,0,0,1,67.08-9.129V-14.25h2.69V0H67.35l-.13-1.067A3.155,3.155,0,0,1,64.641.186a3.407,3.407,0,0,1-2.844-1.4A6.244,6.244,0,0,1,60.725-5.093Zm2.681.2A3.963,3.963,0,0,0,63.9-2.729a1.6,1.6,0,0,0,1.429.753,1.794,1.794,0,0,0,1.753-1.05V-6.994a1.768,1.768,0,0,0-1.735-1.05Q63.407-8.043,63.407-4.894ZM74.679,0h-2.69V-10.038h2.69ZM71.83-12.636a1.32,1.32,0,0,1,.4-.993,1.516,1.516,0,0,1,1.1-.39,1.52,1.52,0,0,1,1.095.39,1.313,1.313,0,0,1,.408.993,1.316,1.316,0,0,1-.413,1,1.523,1.523,0,0,1-1.09.39,1.523,1.523,0,0,1-1.09-.39A1.316,1.316,0,0,1,71.83-12.636Zm9.231,10.66a1.759,1.759,0,0,0,1.206-.408A1.43,1.43,0,0,0,82.75-3.47h2.514A3.439,3.439,0,0,1,84.707-1.6a3.673,3.673,0,0,1-1.5,1.317,4.689,4.689,0,0,1-2.1.469,4.358,4.358,0,0,1-3.4-1.368,5.415,5.415,0,0,1-1.243-3.781V-5.14a5.353,5.353,0,0,1,1.234-3.7,4.307,4.307,0,0,1,3.386-1.382,4.222,4.222,0,0,1,3.02,1.072A3.794,3.794,0,0,1,85.264-6.3H82.75a1.842,1.842,0,0,0-.482-1.273,1.608,1.608,0,0,0-1.225-.49,1.615,1.615,0,0,0-1.415.683,3.958,3.958,0,0,0-.478,2.216v.279a4.008,4.008,0,0,0,.473,2.23A1.635,1.635,0,0,0,81.061-1.976ZM89.624,0h-2.69V-10.038h2.69ZM86.776-12.636a1.32,1.32,0,0,1,.4-.993,1.516,1.516,0,0,1,1.1-.39,1.52,1.52,0,0,1,1.095.39,1.313,1.313,0,0,1,.408.993,1.316,1.316,0,0,1-.413,1,1.523,1.523,0,0,1-1.09.39,1.523,1.523,0,0,1-1.09-.39A1.316,1.316,0,0,1,86.776-12.636ZM97.649,0a2.977,2.977,0,0,1-.269-.9A3.244,3.244,0,0,1,94.848.186,3.564,3.564,0,0,1,92.4-.668a2.745,2.745,0,0,1-.969-2.152A2.837,2.837,0,0,1,92.616-5.27a5.837,5.837,0,0,1,3.419-.863h1.234v-.575a1.654,1.654,0,0,0-.357-1.113,1.405,1.405,0,0,0-1.127-.417,1.6,1.6,0,0,0-1.062.325,1.1,1.1,0,0,0-.385.891H91.656a2.693,2.693,0,0,1,.538-1.614A3.557,3.557,0,0,1,93.716-9.8a5.545,5.545,0,0,1,2.208-.422,4.381,4.381,0,0,1,2.946.932,3.262,3.262,0,0,1,1.09,2.621v4.351a4.8,4.8,0,0,0,.4,2.162V0ZM95.432-1.865a2.309,2.309,0,0,0,1.095-.264,1.737,1.737,0,0,0,.742-.71V-4.564h-1q-2.013,0-2.143,1.392l-.009.158a1.073,1.073,0,0,0,.353.826A1.369,1.369,0,0,0,95.432-1.865ZM107.66-7.524a7.284,7.284,0,0,0-.965-.074,1.964,1.964,0,0,0-1.995,1.03V0h-2.681V-10.038h2.533l.074,1.2a2.484,2.484,0,0,1,2.236-1.382,2.809,2.809,0,0,1,.835.121Z" transform="translate(953.121 1887.24)" fill="#2b4290"/>
    <path id="Trazado_888188" data-name="Trazado 888188" d="M1.206,0V-13.508H5.362a6.312,6.312,0,0,1,3.187.8,5.6,5.6,0,0,1,2.194,2.282,7.039,7.039,0,0,1,.789,3.363v.622a7.059,7.059,0,0,1-.775,3.349A5.548,5.548,0,0,1,8.572-.816,6.359,6.359,0,0,1,5.39,0ZM3.989-11.253v9.018H5.334A3.022,3.022,0,0,0,7.83-3.3a4.821,4.821,0,0,0,.881-3.052v-.714a4.9,4.9,0,0,0-.854-3.122,3.012,3.012,0,0,0-2.5-1.062ZM18,.186A4.928,4.928,0,0,1,14.4-1.169a4.815,4.815,0,0,1-1.387-3.609v-.26a6.064,6.064,0,0,1,.584-2.7,4.289,4.289,0,0,1,1.656-1.837,4.648,4.648,0,0,1,2.445-.645,4.166,4.166,0,0,1,3.242,1.3,5.278,5.278,0,0,1,1.183,3.683v1.095H15.734a2.491,2.491,0,0,0,.784,1.577,2.37,2.37,0,0,0,1.656.594A2.894,2.894,0,0,0,20.6-3.1l1.317,1.475A4.025,4.025,0,0,1,20.28-.292,5.357,5.357,0,0,1,18,.186Zm-.306-8.248a1.675,1.675,0,0,0-1.294.54,2.8,2.8,0,0,0-.635,1.547h3.729v-.214a2,2,0,0,0-.482-1.384A1.729,1.729,0,0,0,17.692-8.062ZM29.084-2.774a.864.864,0,0,0-.487-.775,5.533,5.533,0,0,0-1.563-.506Q23.453-4.806,23.453-7.1a2.758,2.758,0,0,1,1.109-2.231,4.472,4.472,0,0,1,2.9-.9,4.813,4.813,0,0,1,3.057.9,2.836,2.836,0,0,1,1.146,2.338H28.982a1.3,1.3,0,0,0-.371-.951,1.57,1.57,0,0,0-1.16-.376,1.6,1.6,0,0,0-1.048.306.966.966,0,0,0-.371.779.826.826,0,0,0,.422.719,4.342,4.342,0,0,0,1.424.473,11.632,11.632,0,0,1,1.688.45,2.774,2.774,0,0,1,2.125,2.7A2.618,2.618,0,0,1,30.513-.663,5.083,5.083,0,0,1,27.47.186a5.309,5.309,0,0,1-2.24-.45A3.759,3.759,0,0,1,23.694-1.5a2.867,2.867,0,0,1-.557-1.693H25.68A1.4,1.4,0,0,0,26.208-2.1a2.1,2.1,0,0,0,1.317.38,1.941,1.941,0,0,0,1.164-.292A.909.909,0,0,0,29.084-2.774ZM42.453-4.926A6.02,6.02,0,0,1,41.4-1.211a3.376,3.376,0,0,1-2.844,1.4A3.127,3.127,0,0,1,36.1-.872V3.859H33.417v-13.9H35.9L36-9.055a3.151,3.151,0,0,1,2.542-1.169,3.4,3.4,0,0,1,2.885,1.373,6.183,6.183,0,0,1,1.03,3.785Zm-2.681-.195a3.951,3.951,0,0,0-.5-2.162,1.617,1.617,0,0,0-1.443-.761,1.756,1.756,0,0,0-1.735.965v4.11a1.786,1.786,0,0,0,1.753.993Q39.772-1.976,39.772-5.121ZM48.734.186a4.928,4.928,0,0,1-3.595-1.354,4.815,4.815,0,0,1-1.387-3.609v-.26a6.064,6.064,0,0,1,.584-2.7,4.289,4.289,0,0,1,1.656-1.837,4.648,4.648,0,0,1,2.445-.645,4.166,4.166,0,0,1,3.242,1.3,5.278,5.278,0,0,1,1.183,3.683v1.095H46.47a2.491,2.491,0,0,0,.784,1.577,2.37,2.37,0,0,0,1.656.594A2.894,2.894,0,0,0,51.332-3.1l1.317,1.475A4.025,4.025,0,0,1,51.016-.292,5.357,5.357,0,0,1,48.734.186Zm-.306-8.248a1.675,1.675,0,0,0-1.294.54A2.8,2.8,0,0,0,46.5-5.975h3.729v-.214a2,2,0,0,0-.482-1.384A1.729,1.729,0,0,0,48.428-8.062Zm11.6.538A7.284,7.284,0,0,0,59.06-7.6a1.964,1.964,0,0,0-1.995,1.03V0H54.384V-10.038h2.533l.074,1.2a2.484,2.484,0,0,1,2.236-1.382,2.809,2.809,0,0,1,.835.121Zm.7,2.431a6.049,6.049,0,0,1,1.053-3.739,3.417,3.417,0,0,1,2.881-1.392A3.074,3.074,0,0,1,67.08-9.129V-14.25h2.69V0H67.35l-.13-1.067A3.155,3.155,0,0,1,64.641.186a3.407,3.407,0,0,1-2.844-1.4A6.244,6.244,0,0,1,60.725-5.093Zm2.681.2A3.963,3.963,0,0,0,63.9-2.729a1.6,1.6,0,0,0,1.429.753,1.794,1.794,0,0,0,1.753-1.05V-6.994a1.768,1.768,0,0,0-1.735-1.05Q63.407-8.043,63.407-4.894ZM74.679,0h-2.69V-10.038h2.69ZM71.83-12.636a1.32,1.32,0,0,1,.4-.993,1.516,1.516,0,0,1,1.1-.39,1.52,1.52,0,0,1,1.095.39,1.313,1.313,0,0,1,.408.993,1.316,1.316,0,0,1-.413,1,1.523,1.523,0,0,1-1.09.39,1.523,1.523,0,0,1-1.09-.39A1.316,1.316,0,0,1,71.83-12.636Zm9.231,10.66a1.759,1.759,0,0,0,1.206-.408A1.43,1.43,0,0,0,82.75-3.47h2.514A3.439,3.439,0,0,1,84.707-1.6a3.673,3.673,0,0,1-1.5,1.317,4.689,4.689,0,0,1-2.1.469,4.358,4.358,0,0,1-3.4-1.368,5.415,5.415,0,0,1-1.243-3.781V-5.14a5.353,5.353,0,0,1,1.234-3.7,4.307,4.307,0,0,1,3.386-1.382,4.222,4.222,0,0,1,3.02,1.072A3.794,3.794,0,0,1,85.264-6.3H82.75a1.842,1.842,0,0,0-.482-1.273,1.608,1.608,0,0,0-1.225-.49,1.615,1.615,0,0,0-1.415.683,3.958,3.958,0,0,0-.478,2.216v.279a4.008,4.008,0,0,0,.473,2.23A1.635,1.635,0,0,0,81.061-1.976ZM89.624,0h-2.69V-10.038h2.69ZM86.776-12.636a1.32,1.32,0,0,1,.4-.993,1.516,1.516,0,0,1,1.1-.39,1.52,1.52,0,0,1,1.095.39,1.313,1.313,0,0,1,.408.993,1.316,1.316,0,0,1-.413,1,1.523,1.523,0,0,1-1.09.39,1.523,1.523,0,0,1-1.09-.39A1.316,1.316,0,0,1,86.776-12.636ZM97.649,0a2.977,2.977,0,0,1-.269-.9A3.244,3.244,0,0,1,94.848.186,3.564,3.564,0,0,1,92.4-.668a2.745,2.745,0,0,1-.969-2.152A2.837,2.837,0,0,1,92.616-5.27a5.837,5.837,0,0,1,3.419-.863h1.234v-.575a1.654,1.654,0,0,0-.357-1.113,1.405,1.405,0,0,0-1.127-.417,1.6,1.6,0,0,0-1.062.325,1.1,1.1,0,0,0-.385.891H91.656a2.693,2.693,0,0,1,.538-1.614A3.557,3.557,0,0,1,93.716-9.8a5.545,5.545,0,0,1,2.208-.422,4.381,4.381,0,0,1,2.946.932,3.262,3.262,0,0,1,1.09,2.621v4.351a4.8,4.8,0,0,0,.4,2.162V0ZM95.432-1.865a2.309,2.309,0,0,0,1.095-.264,1.737,1.737,0,0,0,.742-.71V-4.564h-1q-2.013,0-2.143,1.392l-.009.158a1.073,1.073,0,0,0,.353.826A1.369,1.369,0,0,0,95.432-1.865ZM107.66-7.524a7.284,7.284,0,0,0-.965-.074,1.964,1.964,0,0,0-1.995,1.03V0h-2.681V-10.038h2.533l.074,1.2a2.484,2.484,0,0,1,2.236-1.382,2.809,2.809,0,0,1,.835.121Z" transform="translate(1173.341 1887.24)" fill="#2b4290"/>
    <g id="Grupo_1108191" data-name="Grupo 1108191" transform="translate(264.711 1574)" clip-path="url(#clip-path)">
      <text id="Bucle_ecológico_de_la_cuna_a_la_cuna_" data-name="Bucle ecológico (de la cuna a la cuna)" transform="translate(119.925 480.473)" fill="#161615" font-size="19" font-family="Roboto-Regular, Roboto"><tspan x="0" y="0">Bucle ecológico (de la cuna a la cuna)</tspan></text>
    </g>
    <path id="Trazado_888184" data-name="Trazado 888184" d="M6.207-4.945H3.989V0H1.206V-13.508H6.225a5.674,5.674,0,0,1,3.692,1.067,3.682,3.682,0,0,1,1.3,3.015,4.156,4.156,0,0,1-.6,2.305A4.081,4.081,0,0,1,8.8-5.65L11.727-.13V0H8.739ZM3.989-7.2H6.234a2.3,2.3,0,0,0,1.624-.533A1.907,1.907,0,0,0,8.433-9.2a2.041,2.041,0,0,0-.543-1.5,2.255,2.255,0,0,0-1.665-.547H3.989ZM17.775.186A4.928,4.928,0,0,1,14.18-1.169a4.815,4.815,0,0,1-1.387-3.609v-.26a6.064,6.064,0,0,1,.584-2.7,4.289,4.289,0,0,1,1.656-1.837,4.648,4.648,0,0,1,2.445-.645,4.166,4.166,0,0,1,3.242,1.3A5.278,5.278,0,0,1,21.9-5.242v1.095H15.512A2.491,2.491,0,0,0,16.3-2.57a2.37,2.37,0,0,0,1.656.594A2.894,2.894,0,0,0,20.373-3.1L21.69-1.624A4.025,4.025,0,0,1,20.058-.292,5.357,5.357,0,0,1,17.775.186Zm-.306-8.248a1.675,1.675,0,0,0-1.294.54,2.8,2.8,0,0,0-.635,1.547h3.729v-.214a2,2,0,0,0-.482-1.384A1.729,1.729,0,0,0,17.469-8.062ZM27.6-1.976a1.759,1.759,0,0,0,1.206-.408,1.43,1.43,0,0,0,.482-1.085H31.8A3.439,3.439,0,0,1,31.246-1.6a3.673,3.673,0,0,1-1.5,1.317,4.689,4.689,0,0,1-2.1.469,4.358,4.358,0,0,1-3.4-1.368,5.415,5.415,0,0,1-1.243-3.781V-5.14a5.353,5.353,0,0,1,1.234-3.7,4.307,4.307,0,0,1,3.386-1.382,4.222,4.222,0,0,1,3.02,1.072A3.794,3.794,0,0,1,31.8-6.3H29.289a1.842,1.842,0,0,0-.482-1.273,1.608,1.608,0,0,0-1.225-.49,1.615,1.615,0,0,0-1.415.683,3.958,3.958,0,0,0-.478,2.216v.279a4.008,4.008,0,0,0,.473,2.23A1.635,1.635,0,0,0,27.6-1.976ZM36.163,0h-2.69V-10.038h2.69ZM33.315-12.636a1.32,1.32,0,0,1,.4-.993,1.516,1.516,0,0,1,1.1-.39,1.52,1.52,0,0,1,1.095.39,1.313,1.313,0,0,1,.408.993,1.316,1.316,0,0,1-.413,1,1.523,1.523,0,0,1-1.09.39,1.523,1.523,0,0,1-1.09-.39A1.316,1.316,0,0,1,33.315-12.636Zm9.231,10.66a1.759,1.759,0,0,0,1.206-.408,1.43,1.43,0,0,0,.482-1.085h2.514A3.439,3.439,0,0,1,46.192-1.6a3.673,3.673,0,0,1-1.5,1.317,4.689,4.689,0,0,1-2.1.469,4.358,4.358,0,0,1-3.4-1.368,5.415,5.415,0,0,1-1.243-3.781V-5.14a5.353,5.353,0,0,1,1.234-3.7,4.307,4.307,0,0,1,3.386-1.382,4.222,4.222,0,0,1,3.02,1.072A3.794,3.794,0,0,1,46.749-6.3H44.234a1.842,1.842,0,0,0-.482-1.273,1.608,1.608,0,0,0-1.225-.49,1.615,1.615,0,0,0-1.415.683,3.958,3.958,0,0,0-.478,2.216v.279a4.008,4.008,0,0,0,.473,2.23A1.635,1.635,0,0,0,42.546-1.976ZM51.109,0h-2.69V-14.25h2.69Zm8.025,0a2.977,2.977,0,0,1-.269-.9A3.244,3.244,0,0,1,56.332.186a3.564,3.564,0,0,1-2.445-.854,2.745,2.745,0,0,1-.969-2.152A2.837,2.837,0,0,1,54.1-5.27a5.837,5.837,0,0,1,3.419-.863h1.234v-.575A1.654,1.654,0,0,0,58.4-7.821a1.405,1.405,0,0,0-1.127-.417,1.6,1.6,0,0,0-1.062.325,1.1,1.1,0,0,0-.385.891H53.141a2.693,2.693,0,0,1,.538-1.614A3.557,3.557,0,0,1,55.2-9.8a5.545,5.545,0,0,1,2.208-.422,4.381,4.381,0,0,1,2.946.932,3.262,3.262,0,0,1,1.09,2.621v4.351a4.8,4.8,0,0,0,.4,2.162V0ZM56.917-1.865a2.309,2.309,0,0,0,1.095-.264,1.737,1.737,0,0,0,.742-.71V-4.564h-1q-2.013,0-2.143,1.392l-.009.158a1.073,1.073,0,0,0,.353.826A1.369,1.369,0,0,0,56.917-1.865ZM69.144-7.524a7.284,7.284,0,0,0-.965-.074,1.964,1.964,0,0,0-1.995,1.03V0H63.5V-10.038h2.533l.074,1.2a2.484,2.484,0,0,1,2.236-1.382,2.809,2.809,0,0,1,.835.121Z" transform="translate(874.38 2007.461)" fill="#2b4290"/>
    <path id="Trazado_888183" data-name="Trazado 888183" d="M6.207-4.945H3.989V0H1.206V-13.508H6.225a5.674,5.674,0,0,1,3.692,1.067,3.682,3.682,0,0,1,1.3,3.015,4.156,4.156,0,0,1-.6,2.305A4.081,4.081,0,0,1,8.8-5.65L11.727-.13V0H8.739ZM3.989-7.2H6.234a2.3,2.3,0,0,0,1.624-.533A1.907,1.907,0,0,0,8.433-9.2a2.041,2.041,0,0,0-.543-1.5,2.255,2.255,0,0,0-1.665-.547H3.989ZM17.775.186A4.928,4.928,0,0,1,14.18-1.169a4.815,4.815,0,0,1-1.387-3.609v-.26a6.064,6.064,0,0,1,.584-2.7,4.289,4.289,0,0,1,1.656-1.837,4.648,4.648,0,0,1,2.445-.645,4.166,4.166,0,0,1,3.242,1.3A5.278,5.278,0,0,1,21.9-5.242v1.095H15.512A2.491,2.491,0,0,0,16.3-2.57a2.37,2.37,0,0,0,1.656.594A2.894,2.894,0,0,0,20.373-3.1L21.69-1.624A4.025,4.025,0,0,1,20.058-.292,5.357,5.357,0,0,1,17.775.186Zm-.306-8.248a1.675,1.675,0,0,0-1.294.54,2.8,2.8,0,0,0-.635,1.547h3.729v-.214a2,2,0,0,0-.482-1.384A1.729,1.729,0,0,0,17.469-8.062ZM29.437-1.021A3.362,3.362,0,0,1,26.691.186a3.171,3.171,0,0,1-2.463-.928A3.96,3.96,0,0,1,23.36-3.46v-6.578h2.681v6.492q0,1.57,1.429,1.57a1.936,1.936,0,0,0,1.874-.947v-7.115h2.69V0H29.511Zm7.83-11.485v2.468h1.716v1.967H37.267v5.01a1.2,1.2,0,0,0,.213.8,1.072,1.072,0,0,0,.816.241,4.276,4.276,0,0,0,.789-.065V-.056a5.52,5.52,0,0,1-1.624.241,2.56,2.56,0,0,1-2.876-2.848V-8.071H33.12v-1.967h1.466v-2.468ZM43.307,0h-2.69V-10.038h2.69ZM40.458-12.636a1.32,1.32,0,0,1,.4-.993,1.516,1.516,0,0,1,1.1-.39,1.52,1.52,0,0,1,1.095.39,1.313,1.313,0,0,1,.408.993,1.316,1.316,0,0,1-.413,1,1.523,1.523,0,0,1-1.09.39,1.523,1.523,0,0,1-1.09-.39A1.316,1.316,0,0,1,40.458-12.636ZM48.344,0h-2.69V-14.25h2.69Zm5.038,0h-2.69V-10.038h2.69ZM50.534-12.636a1.32,1.32,0,0,1,.4-.993,1.516,1.516,0,0,1,1.1-.39,1.52,1.52,0,0,1,1.095.39,1.313,1.313,0,0,1,.408.993,1.316,1.316,0,0,1-.413,1,1.523,1.523,0,0,1-1.09.39,1.523,1.523,0,0,1-1.09-.39A1.316,1.316,0,0,1,50.534-12.636ZM58.67-2.162h4.908V0H55.247V-1.633l4.722-6.244H55.386v-2.162h8.043v1.58ZM71.074,0A2.977,2.977,0,0,1,70.8-.9,3.244,3.244,0,0,1,68.272.186a3.564,3.564,0,0,1-2.445-.854,2.745,2.745,0,0,1-.969-2.152A2.837,2.837,0,0,1,66.041-5.27a5.837,5.837,0,0,1,3.419-.863h1.234v-.575a1.654,1.654,0,0,0-.357-1.113,1.405,1.405,0,0,0-1.127-.417,1.6,1.6,0,0,0-1.062.325,1.1,1.1,0,0,0-.385.891H65.081a2.693,2.693,0,0,1,.538-1.614A3.557,3.557,0,0,1,67.14-9.8a5.545,5.545,0,0,1,2.208-.422,4.381,4.381,0,0,1,2.946.932,3.262,3.262,0,0,1,1.09,2.621v4.351a4.8,4.8,0,0,0,.4,2.162V0ZM68.856-1.865a2.309,2.309,0,0,0,1.095-.264,1.737,1.737,0,0,0,.742-.71V-4.564h-1q-2.013,0-2.143,1.392l-.009.158a1.073,1.073,0,0,0,.353.826A1.369,1.369,0,0,0,68.856-1.865ZM81.084-7.524a7.284,7.284,0,0,0-.965-.074,1.964,1.964,0,0,0-1.995,1.03V0H75.443V-10.038h2.533l.074,1.2a2.484,2.484,0,0,1,2.236-1.382,2.809,2.809,0,0,1,.835.121Z" transform="translate(1006.493 1957.772)" fill="#2b4290"/>
  </g>
</svg>
