<svg xmlns="http://www.w3.org/2000/svg" xmlns:xlink="http://www.w3.org/1999/xlink" width="72" height="72" viewBox="0 0 72 72">
  <defs>
    <clipPath id="clip-path">
      <rect id="Rectángulo_406569" data-name="Rectángulo 406569" width="56.526" height="52.622" fill="none"/>
    </clipPath>
  </defs>
  <g id="Grupo_1110700" data-name="Grupo 1110700" transform="translate(-212.571 -569)">
    <rect id="Rectángulo_402033" data-name="Rectángulo 402033" width="72" height="72" rx="5" transform="translate(212.571 569)" fill="#1db4c9"/>
    <g id="Grupo_1108885" data-name="Grupo 1108885" transform="translate(220.571 579)">
      <g id="Grupo_1108884" data-name="Grupo 1108884" clip-path="url(#clip-path)">
        <path id="Trazado_885716" data-name="Trazado 885716" d="M121.118,52.906H109.055a4.671,4.671,0,0,1-4.669-4.669V43.178a.973.973,0,0,1,1.946,0v5.058a2.727,2.727,0,0,0,2.724,2.724h12.063a2.727,2.727,0,0,0,2.724-2.724V8.157a7.782,7.782,0,0,1,15.565,0v4.864a.973.973,0,1,1-1.946,0V8.157a5.837,5.837,0,0,0-11.673,0V48.236A4.671,4.671,0,0,1,121.118,52.906Z" transform="translate(-91.693 -0.329)" fill="#cdd360"/>
        <path id="Trazado_885717" data-name="Trazado 885717" d="M121.118,52.906H109.055a4.671,4.671,0,0,1-4.669-4.669V43.178a.973.973,0,0,1,1.946,0v5.058a2.727,2.727,0,0,0,2.724,2.724h12.063a2.727,2.727,0,0,0,2.724-2.724V8.157a7.782,7.782,0,0,1,15.565,0v4.864a.973.973,0,1,1-1.946,0V8.157a5.837,5.837,0,0,0-11.673,0V48.236A4.671,4.671,0,0,1,121.118,52.906Z" transform="translate(-91.693 -0.329)" fill="none" stroke="#0c1d30" stroke-miterlimit="10" stroke-width="0.75"/>
        <path id="Trazado_885718" data-name="Trazado 885718" d="M77.25,326.212a4.863,4.863,0,0,1-4.864-4.864v-.973h9.728v.973a4.863,4.863,0,0,1-4.864,4.864" transform="translate(-63.584 -281.418)" fill="#61738b"/>
        <path id="Trazado_885719" data-name="Trazado 885719" d="M77.25,326.212a4.863,4.863,0,0,1-4.864-4.864v-.973h9.728v.973A4.863,4.863,0,0,1,77.25,326.212Z" transform="translate(-63.584 -281.418)" fill="none" stroke="#0c1d30" stroke-miterlimit="10" stroke-width="0.75"/>
        <path id="Trazado_885720" data-name="Trazado 885720" d="M68.059,292.266H58.332a1.946,1.946,0,0,1,0-3.891h9.728a1.946,1.946,0,0,1,0,3.891" transform="translate(-49.53 -253.309)" fill="#748aa7"/>
        <path id="Trazado_885721" data-name="Trazado 885721" d="M68.059,292.266H58.332a1.946,1.946,0,0,1,0-3.891h9.728a1.946,1.946,0,0,1,0,3.891Z" transform="translate(-49.53 -253.309)" fill="none" stroke="#0c1d30" stroke-miterlimit="10" stroke-width="0.75"/>
        <path id="Trazado_885722" data-name="Trazado 885722" d="M27.614,21.984A13.62,13.62,0,1,0,5.337,32.49a7.656,7.656,0,0,1,2.821,5.885v.146H19.832v-.146a7.5,7.5,0,0,1,2.76-5.825A13.584,13.584,0,0,0,27.614,21.984Z" transform="translate(-0.329 -7.346)" fill="#f8d97c"/>
        <path id="Trazado_885723" data-name="Trazado 885723" d="M27.614,21.984A13.62,13.62,0,1,0,5.337,32.49a7.656,7.656,0,0,1,2.821,5.885v.146H19.832v-.146a7.5,7.5,0,0,1,2.76-5.825A13.584,13.584,0,0,0,27.614,21.984Z" transform="translate(-0.329 -7.346)" fill="none" stroke="#0c1d30" stroke-miterlimit="10" stroke-width="0.75"/>
        <path id="Trazado_885724" data-name="Trazado 885724" d="M63.135,151.94H59.244a.957.957,0,0,1-.912-.644L54.258,139.9a2.639,2.639,0,0,1,2.481-3.526h8.9A2.639,2.639,0,0,1,68.12,139.9L64.047,151.3A.957.957,0,0,1,63.135,151.94Zm-3.21-1.946h2.517l3.843-10.749a.686.686,0,0,0-.085-.632.7.7,0,0,0-.559-.292h-8.9a.665.665,0,0,0-.559.292.686.686,0,0,0-.085.632Z" transform="translate(-47.523 -119.792)" fill="#61738b"/>
        <path id="Trazado_885725" data-name="Trazado 885725" d="M63.135,151.94H59.244a.957.957,0,0,1-.912-.644L54.258,139.9a2.639,2.639,0,0,1,2.481-3.526h8.9A2.639,2.639,0,0,1,68.12,139.9L64.047,151.3A.957.957,0,0,1,63.135,151.94Zm-3.21-1.946h2.517l3.843-10.749a.686.686,0,0,0-.085-.632.7.7,0,0,0-.559-.292h-8.9a.665.665,0,0,0-.559.292.686.686,0,0,0-.085.632Z" transform="translate(-47.523 -119.792)" fill="none" stroke="#0c1d30" stroke-miterlimit="10" stroke-width="0.75"/>
        <path id="Trazado_885726" data-name="Trazado 885726" d="M81.359,126.212a.976.976,0,0,1-.973-.973v-3.891a.973.973,0,1,1,1.946,0v3.891a.976.976,0,0,1-.973.973" transform="translate(-70.611 -105.738)" fill="#98b7de"/>
        <path id="Trazado_885727" data-name="Trazado 885727" d="M81.359,126.212a.976.976,0,0,1-.973-.973v-3.891a.973.973,0,1,1,1.946,0v3.891A.976.976,0,0,1,81.359,126.212Z" transform="translate(-70.611 -105.738)" fill="none" stroke="#0c1d30" stroke-miterlimit="10" stroke-width="0.75"/>
        <path id="Trazado_885728" data-name="Trazado 885728" d="M105.359,126.212a.976.976,0,0,1-.973-.973v-3.891a.973.973,0,1,1,1.946,0v3.891a.976.976,0,0,1-.973.973" transform="translate(-91.693 -105.738)" fill="#98b7de"/>
        <path id="Trazado_885729" data-name="Trazado 885729" d="M105.359,126.212a.976.976,0,0,1-.973-.973v-3.891a.973.973,0,1,1,1.946,0v3.891A.976.976,0,0,1,105.359,126.212Z" transform="translate(-91.693 -105.738)" fill="none" stroke="#0c1d30" stroke-miterlimit="10" stroke-width="0.75"/>
        <path id="Trazado_885730" data-name="Trazado 885730" d="M129.359,126.212a.976.976,0,0,1-.973-.973v-3.891a.973.973,0,0,1,1.946,0v3.891a.976.976,0,0,1-.973.973" transform="translate(-112.774 -105.738)" fill="#98b7de"/>
        <path id="Trazado_885731" data-name="Trazado 885731" d="M129.359,126.212a.976.976,0,0,1-.973-.973v-3.891a.973.973,0,0,1,1.946,0v3.891A.976.976,0,0,1,129.359,126.212Z" transform="translate(-112.774 -105.738)" fill="none" stroke="#0c1d30" stroke-miterlimit="10" stroke-width="0.75"/>
        <rect id="Rectángulo_406563" data-name="Rectángulo 406563" width="7.782" height="3.891" transform="translate(42.85 12.692)" fill="#61738b"/>
        <rect id="Rectángulo_406564" data-name="Rectángulo 406564" width="7.782" height="3.891" transform="translate(42.85 12.692)" fill="none" stroke="#0c1d30" stroke-miterlimit="10" stroke-width="0.75"/>
        <path id="Trazado_885732" data-name="Trazado 885732" d="M322.212,164.586h-16.2a1.63,1.63,0,0,1-1.629-1.629V138a1.63,1.63,0,0,1,1.629-1.629h16.209A1.63,1.63,0,0,1,323.854,138v24.964a1.645,1.645,0,0,1-1.642,1.617" transform="translate(-267.373 -119.792)" fill="#98b7de"/>
        <path id="Trazado_885733" data-name="Trazado 885733" d="M322.212,164.586h-16.2a1.63,1.63,0,0,1-1.629-1.629V138a1.63,1.63,0,0,1,1.629-1.629h16.209A1.63,1.63,0,0,1,323.854,138v24.964A1.645,1.645,0,0,1,322.212,164.586Z" transform="translate(-267.373 -119.792)" fill="none" stroke="#0c1d30" stroke-miterlimit="10" stroke-width="0.75"/>
        <path id="Trazado_885734" data-name="Trazado 885734" d="M377.359,217.13a.976.976,0,0,1-.973-.973v-6.81a.973.973,0,0,1,1.946,0v6.81a.976.976,0,0,1-.973.973" transform="translate(-330.618 -183.037)" fill="#61738b"/>
        <path id="Trazado_885735" data-name="Trazado 885735" d="M377.359,217.13a.976.976,0,0,1-.973-.973v-6.81a.973.973,0,0,1,1.946,0v6.81A.976.976,0,0,1,377.359,217.13Z" transform="translate(-330.618 -183.037)" fill="none" stroke="#0c1d30" stroke-miterlimit="10" stroke-width="0.75"/>
        <path id="Trazado_885736" data-name="Trazado 885736" d="M322.212,340.266h-16.2a1.63,1.63,0,0,1-1.629-1.629v-2.262h19.456v2.262A1.63,1.63,0,0,1,322.212,340.266Z" transform="translate(-267.373 -295.472)" fill="#676c32"/>
        <path id="Trazado_885737" data-name="Trazado 885737" d="M322.212,340.266h-16.2a1.63,1.63,0,0,1-1.629-1.629v-2.262h19.456v2.262A1.63,1.63,0,0,1,322.212,340.266Z" transform="translate(-267.373 -295.472)" fill="none" stroke="#0c1d30" stroke-miterlimit="10" stroke-width="0.75"/>
        <rect id="Rectángulo_406565" data-name="Rectángulo 406565" width="19.456" height="3.891" transform="translate(37.013 37.012)" fill="#9da349"/>
        <rect id="Rectángulo_406566" data-name="Rectángulo 406566" width="19.456" height="3.891" transform="translate(37.013 37.012)" fill="none" stroke="#0c1d30" stroke-miterlimit="10" stroke-width="0.75"/>
        <rect id="Rectángulo_406567" data-name="Rectángulo 406567" width="19.456" height="3.891" transform="translate(37.013 33.12)" fill="#cdd360"/>
        <rect id="Rectángulo_406568" data-name="Rectángulo 406568" width="19.456" height="3.891" transform="translate(37.013 33.12)" fill="none" stroke="#0c1d30" stroke-miterlimit="10" stroke-width="0.75"/>
        <path id="Trazado_885738" data-name="Trazado 885738" d="M105.359,62.212a.976.976,0,0,1-.973-.973V57.348a.973.973,0,1,1,1.946,0v3.891a.976.976,0,0,1-.973.973" transform="translate(-91.693 -49.52)" fill="#61738b"/>
        <path id="Trazado_885739" data-name="Trazado 885739" d="M105.359,62.212a.976.976,0,0,1-.973-.973V57.348a.973.973,0,1,1,1.946,0v3.891A.976.976,0,0,1,105.359,62.212Z" transform="translate(-91.693 -49.52)" fill="none" stroke="#0c1d30" stroke-miterlimit="10" stroke-width="0.75"/>
        <path id="Trazado_885740" data-name="Trazado 885740" d="M153.337,77.3a1.029,1.029,0,0,1-.693-.28.976.976,0,0,1,0-1.374l2.918-2.918a.972.972,0,1,1,1.374,1.374l-2.918,2.918a.978.978,0,0,1-.681.28" transform="translate(-133.834 -63.64)" fill="#61738b"/>
        <path id="Trazado_885741" data-name="Trazado 885741" d="M153.337,77.3a1.029,1.029,0,0,1-.693-.28.976.976,0,0,1,0-1.374l2.918-2.918a.972.972,0,1,1,1.374,1.374l-2.918,2.918A.978.978,0,0,1,153.337,77.3Z" transform="translate(-133.834 -63.64)" fill="none" stroke="#0c1d30" stroke-miterlimit="10" stroke-width="0.75"/>
        <path id="Trazado_885742" data-name="Trazado 885742" d="M36.255,77.3a1.029,1.029,0,0,1-.693-.28l-2.918-2.918a.972.972,0,1,1,1.374-1.374l2.918,2.918a.967.967,0,0,1-.681,1.654" transform="translate(-28.426 -63.64)" fill="#61738b"/>
        <path id="Trazado_885743" data-name="Trazado 885743" d="M36.255,77.3a1.029,1.029,0,0,1-.693-.28l-2.918-2.918a.972.972,0,1,1,1.374-1.374l2.918,2.918a.967.967,0,0,1-.681,1.654Z" transform="translate(-28.426 -63.64)" fill="none" stroke="#0c1d30" stroke-miterlimit="10" stroke-width="0.75"/>
        <path id="Trazado_885744" data-name="Trazado 885744" d="M388.675,172.664a6.582,6.582,0,0,1-4.292,1.544,5.354,5.354,0,0,1,5.837-5.837,6.508,6.508,0,0,1-1.544,4.292" transform="translate(-337.642 -147.897)" fill="#f8d97c"/>
        <path id="Trazado_885745" data-name="Trazado 885745" d="M388.675,172.664a6.582,6.582,0,0,1-4.292,1.544,5.354,5.354,0,0,1,5.837-5.837A6.508,6.508,0,0,1,388.675,172.664Z" transform="translate(-337.642 -147.897)" fill="none" stroke="#0c1d30" stroke-miterlimit="10" stroke-width="0.75"/>
        <path id="Trazado_885746" data-name="Trazado 885746" d="M337.927,172.665a6.508,6.508,0,0,0,4.292,1.544,6.508,6.508,0,0,0-1.544-4.292,6.582,6.582,0,0,0-4.292-1.544,6.508,6.508,0,0,0,1.544,4.292" transform="translate(-295.478 -147.899)" fill="#cdd360"/>
        <path id="Trazado_885747" data-name="Trazado 885747" d="M337.927,172.665a6.508,6.508,0,0,0,4.292,1.544,6.508,6.508,0,0,0-1.544-4.292,6.582,6.582,0,0,0-4.292-1.544A6.508,6.508,0,0,0,337.927,172.665Z" transform="translate(-295.478 -147.899)" fill="none" stroke="#0c1d30" stroke-miterlimit="10" stroke-width="0.75"/>
        <path id="Trazado_885748" data-name="Trazado 885748" d="M68.059,260.266H58.332a1.946,1.946,0,1,1,0-3.891h9.728a1.946,1.946,0,1,1,0,3.891" transform="translate(-49.53 -225.2)" fill="#98b7de"/>
        <path id="Trazado_885749" data-name="Trazado 885749" d="M68.059,260.266H58.332a1.946,1.946,0,1,1,0-3.891h9.728a1.946,1.946,0,1,1,0,3.891Z" transform="translate(-49.53 -225.2)" fill="none" stroke="#0c1d30" stroke-miterlimit="10" stroke-width="0.75"/>
      </g>
    </g>
  </g>
</svg>
