<svg xmlns="http://www.w3.org/2000/svg" xmlns:xlink="http://www.w3.org/1999/xlink" width="302.898" height="304.859" viewBox="0 0 302.898 304.859">
  <defs>
    <clipPath id="clip-path">
      <rect id="Rectángulo_406622" data-name="Rectángulo 406622" width="295" height="170.874" fill="none"/>
    </clipPath>
    <clipPath id="clip-path-2">
      <rect id="Rectángulo_406621" data-name="Rectángulo 406621" width="294.188" height="295.428" fill="none"/>
    </clipPath>
    <clipPath id="clip-path-4">
      <rect id="Rectángulo_406599" data-name="Rectángulo 406599" width="102.122" height="102.121" fill="none"/>
    </clipPath>
    <clipPath id="clip-path-6">
      <rect id="Rectángulo_406601" data-name="Rectángulo 406601" width="3.355" height="41.374" fill="none"/>
    </clipPath>
    <clipPath id="clip-path-8">
      <rect id="Rectángulo_406603" data-name="Rectángulo 406603" width="3.356" height="41.374" fill="none"/>
    </clipPath>
    <clipPath id="clip-path-10">
      <rect id="Rectángulo_406605" data-name="Rectángulo 406605" width="26.003" height="15.062" fill="none"/>
    </clipPath>
    <clipPath id="clip-path-11">
      <rect id="Rectángulo_406606" data-name="Rectángulo 406606" width="0.532" height="0.595" fill="none"/>
    </clipPath>
    <clipPath id="clip-path-12">
      <rect id="Rectángulo_406607" data-name="Rectángulo 406607" width="44.175" height="82.367" fill="none"/>
    </clipPath>
    <clipPath id="clip-path-13">
      <rect id="Rectángulo_406608" data-name="Rectángulo 406608" width="5.555" height="7.158" fill="none"/>
    </clipPath>
    <clipPath id="clip-path-14">
      <rect id="Rectángulo_406609" data-name="Rectángulo 406609" width="11.101" height="26.171" fill="none"/>
    </clipPath>
    <clipPath id="clip-path-15">
      <rect id="Rectángulo_406610" data-name="Rectángulo 406610" width="5.554" height="7.159" fill="none"/>
    </clipPath>
    <clipPath id="clip-path-17">
      <rect id="Rectángulo_406612" data-name="Rectángulo 406612" width="5.554" height="7.158" fill="none"/>
    </clipPath>
    <clipPath id="clip-path-18">
      <rect id="Rectángulo_406613" data-name="Rectángulo 406613" width="11.1" height="26.171" fill="none"/>
    </clipPath>
    <clipPath id="clip-path-20">
      <rect id="Rectángulo_406615" data-name="Rectángulo 406615" width="11.101" height="26.172" fill="none"/>
    </clipPath>
  </defs>
  <g id="Grupo_1110706" data-name="Grupo 1110706" transform="translate(-1021 -15676.479)">
    <g id="Grupo_1109001" data-name="Grupo 1109001" transform="translate(1021 15810.465)" style="mix-blend-mode: multiply;isolation: isolate">
      <g id="Grupo_1109000" data-name="Grupo 1109000" clip-path="url(#clip-path)">
        <path id="Trazado_886080" data-name="Trazado 886080" d="M251.459,25.024c57.788,33.364,58.092,87.461.68,120.826s-150.807,33.365-208.6,0-58.1-87.458-.68-120.826,150.807-33.365,208.6,0" transform="translate(0 0)" fill="#84c8c8"/>
      </g>
    </g>
    <g id="Grupo_1108999" data-name="Grupo 1108999" transform="translate(1029.711 15676.479)">
      <g id="Grupo_1108998" data-name="Grupo 1108998" clip-path="url(#clip-path-2)">
        <g id="Grupo_1108938" data-name="Grupo 1108938">
          <g id="Grupo_1108937" data-name="Grupo 1108937" clip-path="url(#clip-path-2)">
            <g id="Grupo_1108936" data-name="Grupo 1108936" transform="translate(88.255)" opacity="0.47">
              <g id="Grupo_1108935" data-name="Grupo 1108935">
                <g id="Grupo_1108934" data-name="Grupo 1108934" clip-path="url(#clip-path-4)">
                  <path id="Trazado_885846" data-name="Trazado 885846" d="M217.179,51.061a51.06,51.06,0,1,0-51.061,51.061,51.061,51.061,0,0,0,51.061-51.061" transform="translate(-115.057)" fill="#fff"/>
                </g>
              </g>
            </g>
            <path id="Trazado_885847" data-name="Trazado 885847" d="M278.632,266.559l-.03,10.485c-.058,20.517-13.542,41-40.478,56.657-54.226,31.513-142.424,31.51-197,0C13.658,317.846-.059,297.032,0,276.249l.03-10.485c-.059,20.783,13.658,41.6,41.123,57.453,54.575,31.51,142.774,31.512,197,0,26.937-15.653,40.42-36.14,40.478-56.657" transform="translate(0 -61.908)" fill="#005224"/>
            <path id="Trazado_885848" data-name="Trazado 885848" d="M237.52,184.724c54.576,31.509,54.864,82.6.642,114.11s-142.424,31.511-197,0-54.869-82.6-.642-114.111,142.424-31.51,197,0" transform="translate(-0.009 -37.525)" fill="#a4c154"/>
          </g>
        </g>
        <path id="Trazado_885849" data-name="Trazado 885849" d="M35.766,375.808l-22.02-12.8-.01-3.489,22.02,12.8Z" transform="translate(-3.2 -83.748)" fill="#2e8f27"/>
        <path id="Trazado_885850" data-name="Trazado 885850" d="M35.756,371.788l-22.02-12.8,3.032-1.75,22.02,12.8Z" transform="translate(-3.2 -83.216)" fill="#a4c154"/>
        <path id="Trazado_885851" data-name="Trazado 885851" d="M39.706,368.979l-22.02-12.8-.01-3.484L39.7,365.5Z" transform="translate(-4.118 -82.158)" fill="#2e8f27"/>
        <path id="Trazado_885852" data-name="Trazado 885852" d="M39.7,364.964l-22.02-12.8,3.032-1.75,22.02,12.8Z" transform="translate(-4.118 -81.627)" fill="#a4c154"/>
        <path id="Trazado_885853" data-name="Trazado 885853" d="M43.646,362.155l-22.02-12.8-.01-3.484,22.02,12.8Z" transform="translate(-5.035 -80.569)" fill="#2e8f27"/>
        <path id="Trazado_885854" data-name="Trazado 885854" d="M43.636,355.746l-22.02-12.8L38.3,333.317l22.02,12.8Z" transform="translate(-5.035 -77.644)" fill="#a4c154"/>
        <path id="Trazado_885855" data-name="Trazado 885855" d="M65.172,350l.03,10.456L42.453,373.59l-.01-3.489,3.032-1.75-.01-3.484,3.032-1.75-.01-3.484Z" transform="translate(-9.887 -81.53)" fill="#005224"/>
        <g id="Grupo_1108997" data-name="Grupo 1108997">
          <g id="Grupo_1108996" data-name="Grupo 1108996" clip-path="url(#clip-path-2)">
            <path id="Trazado_885856" data-name="Trazado 885856" d="M166.426,186.645l.03-10.444a1.342,1.342,0,0,0,.019.233l-.029,10.444a1.336,1.336,0,0,1-.02-.233" transform="translate(-38.768 -41.045)" fill="#2e8f27"/>
            <path id="Trazado_885857" data-name="Trazado 885857" d="M95.326,186.824l.03-10.444a1.43,1.43,0,0,0,.178.684l-.03,10.444a1.428,1.428,0,0,1-.178-.684" transform="translate(-22.205 -41.086)" fill="#2e8f27"/>
            <path id="Trazado_885858" data-name="Trazado 885858" d="M100.211,189.516l-.03,10.444-4.622-12.245.029-10.444Z" transform="translate(-22.26 -41.294)" fill="#005224"/>
            <path id="Trazado_885859" data-name="Trazado 885859" d="M151.937,207.971l-.03,10.444a1.355,1.355,0,0,1-.161.629l.029-10.444a1.358,1.358,0,0,0,.162-.629" transform="translate(-35.348 -48.445)" fill="#2e8f27"/>
            <path id="Trazado_885860" data-name="Trazado 885860" d="M172.208,205.9l-.03,10.444-5.726-29.391.03-10.444Z" transform="translate(-38.774 -41.115)" fill="#005224"/>
            <path id="Trazado_885861" data-name="Trazado 885861" d="M331.21,214.723l-.03,10.444a1.467,1.467,0,0,1-.13.593l.03-10.444a1.5,1.5,0,0,0,.13-.593" transform="translate(-77.115 -50.018)" fill="#2e8f27"/>
            <path id="Trazado_885862" data-name="Trazado 885862" d="M175.624,216.477l-.03,10.444a4.009,4.009,0,0,1-.607-.284,1.9,1.9,0,0,1-1.069-1.371l.03-10.444a1.9,1.9,0,0,0,1.069,1.372,4.087,4.087,0,0,0,.607.284" transform="translate(-40.513 -50.041)" fill="#005224"/>
            <path id="Trazado_885863" data-name="Trazado 885863" d="M240.3,206.537l-.03,10.444L180.3,225.356l.029-10.445Z" transform="translate(-42.001 -48.111)" fill="#005224"/>
            <path id="Trazado_885864" data-name="Trazado 885864" d="M179.355,217.345l-.03,10.444a6.512,6.512,0,0,1-3.222-.364l.029-10.444a6.516,6.516,0,0,0,3.223.364" transform="translate(-41.022 -50.544)" fill="#005224"/>
            <path id="Trazado_885865" data-name="Trazado 885865" d="M217.955,242.014l.029-10.444a1.962,1.962,0,0,0,1.156,1.622l-.029,10.445a1.964,1.964,0,0,1-1.156-1.623" transform="translate(-50.771 -53.942)" fill="#005224"/>
            <path id="Trazado_885866" data-name="Trazado 885866" d="M106.969,235.5l-.03,10.444L72.053,250.95l.029-10.444Z" transform="translate(-16.784 -54.858)" fill="#005224"/>
            <path id="Trazado_885867" data-name="Trazado 885867" d="M327.751,215.5l-.03,10.444-10.962,23.306.03-10.444Z" transform="translate(-73.787 -50.198)" fill="#005224"/>
            <path id="Trazado_885868" data-name="Trazado 885868" d="M121.123,244.94l-.03,10.444-3.559-9.441.03-10.445Z" transform="translate(-27.379 -54.858)" fill="#005224"/>
            <path id="Trazado_885869" data-name="Trazado 885869" d="M147.237,208.791l-.03,10.444-14.943,30.159.029-10.444Z" transform="translate(-30.81 -48.636)" fill="#005224"/>
            <path id="Trazado_885870" data-name="Trazado 885870" d="M125.04,249.633l-.03,10.444a5.543,5.543,0,0,1-1.748-.623,2.3,2.3,0,0,1-1.087-1.2l.029-10.444a2.3,2.3,0,0,0,1.088,1.2,5.525,5.525,0,0,0,1.748.624" transform="translate(-28.46 -57.725)" fill="#005224"/>
            <path id="Trazado_885871" data-name="Trazado 885871" d="M130.8,248.109l-.03,10.444c-.564,1.237-2.818,1.955-4.9,1.595l.03-10.445c2.086.361,4.34-.357,4.9-1.594" transform="translate(-29.321 -57.795)" fill="#005224"/>
            <path id="Trazado_885872" data-name="Trazado 885872" d="M346.653,253.815l-.03,10.444c0,1.1-1.392,2.05-3.2,2.242l.03-10.444c1.808-.192,3.2-1.144,3.2-2.242" transform="translate(-79.997 -59.124)" fill="#005224"/>
            <path id="Trazado_885873" data-name="Trazado 885873" d="M257.243,256.4l-.03,10.444-37.751-22.71.029-10.445Z" transform="translate(-51.122 -54.435)" fill="#005224"/>
            <path id="Trazado_885874" data-name="Trazado 885874" d="M327.114,256.738l-.03,10.444-53.8,5.659.029-10.444Z" transform="translate(-63.659 -59.805)" fill="#005224"/>
            <path id="Trazado_885875" data-name="Trazado 885875" d="M229.59,165.418l22.6,13.125,39.509,22.9c1.017.587,1.393,1.422,1.04,2.229l-10.963,23.306,20.606,3.838a5.218,5.218,0,0,1,1.914.607,2.114,2.114,0,0,1,1.061,1.2c.426,1.273-1.083,2.463-3.129,2.68l-53.8,5.659a6.239,6.239,0,0,1-3.534-.631l-37.751-22.71c-1.575-.909-1.523-2.4.051-3.262a5.772,5.772,0,0,1,1.8-.565,6.758,6.758,0,0,1,2.336.059l15.888,2.959,9.851-20.016-59.966,8.374a6.516,6.516,0,0,1-3.223-.364,4.088,4.088,0,0,1-.607-.284,1.9,1.9,0,0,1-1.069-1.371l-5.726-29.392c-.194-1.119,1.052-2.17,2.9-2.458l56.621-6.521a6.071,6.071,0,0,1,3.583.633" transform="translate(-38.777 -38.375)" fill="#2e8f27"/>
            <path id="Trazado_885876" data-name="Trazado 885876" d="M272.24,263.924l-.03,10.444a6.236,6.236,0,0,1-3.533-.631l.03-10.444a6.236,6.236,0,0,0,3.533.63" transform="translate(-62.586 -61.332)" fill="#005224"/>
            <path id="Trazado_885877" data-name="Trazado 885877" d="M15.614,278.463l.03-10.444a1.879,1.879,0,0,0,.987,1.529L16.6,279.992a1.879,1.879,0,0,1-.988-1.529" transform="translate(-3.637 -62.433)" fill="#005224"/>
            <path id="Trazado_885878" data-name="Trazado 885878" d="M298.414,275.668l-.03,10.444a1.315,1.315,0,0,1-.031.282l.029-10.445a1.263,1.263,0,0,0,.032-.282" transform="translate(-69.499 -64.215)" fill="#2e8f27"/>
            <path id="Trazado_885879" data-name="Trazado 885879" d="M129.127,277.883l-.03,10.444a1.257,1.257,0,0,1-.018.213l.03-10.444a1.258,1.258,0,0,0,.018-.213" transform="translate(-30.068 -64.731)" fill="#2e8f27"/>
            <path id="Trazado_885880" data-name="Trazado 885880" d="M128.613,278.16l-.03,10.444c-.057.687-.673,1.306-1.633,1.665l.029-10.444c.96-.36,1.576-.978,1.634-1.665" transform="translate(-29.572 -64.795)" fill="#005224"/>
            <path id="Trazado_885881" data-name="Trazado 885881" d="M190.16,281.913l-.03,10.444a1.5,1.5,0,0,1-.038.331,2.08,2.08,0,0,1-.983,1.226l.029-10.444a2.086,2.086,0,0,0,.984-1.226,1.55,1.55,0,0,0,.038-.331" transform="translate(-44.051 -65.669)" fill="#005224"/>
            <path id="Trazado_885882" data-name="Trazado 885882" d="M185.876,283.942l-.03,10.444L175.1,301.752l.03-10.444Z" transform="translate(-40.789 -66.142)" fill="#005224"/>
            <path id="Trazado_885883" data-name="Trazado 885883" d="M55.144,295.176l-.03,10.444L16.9,280.456l.029-10.444Z" transform="translate(-3.937 -62.897)" fill="#005224"/>
            <path id="Trazado_885884" data-name="Trazado 885884" d="M114.507,280.331l-.03,10.444L73.406,308.26l.03-10.444Z" transform="translate(-17.099 -65.301)" fill="#005224"/>
            <path id="Trazado_885885" data-name="Trazado 885885" d="M71.878,303.054l-.03,10.444a6.354,6.354,0,0,1-5.13-.236l.03-10.445a6.354,6.354,0,0,0,5.13.236" transform="translate(-15.541 -70.539)" fill="#005224"/>
            <path id="Trazado_885886" data-name="Trazado 885886" d="M83.57,174.093,119.278,198.4c.848.621,1.186,1.405.795,2.154L105.13,230.714c-.564,1.237-2.819,1.955-4.9,1.594a5.523,5.523,0,0,1-1.749-.624,2.3,2.3,0,0,1-1.087-1.2l-3.559-9.441-34.887,5.007,42.669,25.92c.793.525,1.184,1.145,1.074,1.8-.058.687-.673,1.306-1.634,1.665L59.983,272.914a6.354,6.354,0,0,1-5.13-.236L16.64,247.514a1.669,1.669,0,0,1-.852-2.126l8.257-17.853,14.379-31.2a3.593,3.593,0,0,1,2.82-1.63L81.6,188.621l-4.622-12.245c-.453-.845-.039-1.811,1.217-2.394a6.278,6.278,0,0,1,5.379.11" transform="translate(-3.646 -40.399)" fill="#2e8f27"/>
            <path id="Trazado_885887" data-name="Trazado 885887" d="M295.023,276.035l-.03,10.444L283.929,319.3l.03-10.444Z" transform="translate(-66.139 -64.3)" fill="#005224"/>
            <path id="Trazado_885888" data-name="Trazado 885888" d="M283.234,318.82l-.03,10.444a3.147,3.147,0,0,1-2.388,1.677l.03-10.444a3.147,3.147,0,0,0,2.388-1.677" transform="translate(-65.414 -74.267)" fill="#005224"/>
            <path id="Trazado_885889" data-name="Trazado 885889" d="M271.889,321.006l-.03,10.444-29.493,7.042.029-10.444Z" transform="translate(-56.457 -74.776)" fill="#005224"/>
            <path id="Trazado_885890" data-name="Trazado 885890" d="M122.806,326.511l-.03,10.444-13.934,9.553.03-10.445Z" transform="translate(-25.354 -76.058)" fill="#005224"/>
            <path id="Trazado_885891" data-name="Trazado 885891" d="M99.466,347.621l.03-10.444a2.033,2.033,0,0,0,1.19,1.648,5.228,5.228,0,0,0,1.982.619l-.029,10.444a5.219,5.219,0,0,1-1.982-.618,2.038,2.038,0,0,1-1.19-1.648" transform="translate(-23.17 -78.543)" fill="#005224"/>
            <path id="Trazado_885892" data-name="Trazado 885892" d="M107.651,338.965l-.03,10.444a5.418,5.418,0,0,1-4.019.9l.03-10.444a5.422,5.422,0,0,0,4.019-.9" transform="translate(-24.133 -78.959)" fill="#005224"/>
            <path id="Trazado_885893" data-name="Trazado 885893" d="M160.063,341.356l-.03,10.444-33.025-14.844.029-10.445Z" transform="translate(-29.586 -76.058)" fill="#005224"/>
            <path id="Trazado_885894" data-name="Trazado 885894" d="M226.753,330.187l-.03,10.444-51.508,12.33.029-10.445Z" transform="translate(-40.815 -76.914)" fill="#005224"/>
            <path id="Trazado_885895" data-name="Trazado 885895" d="M174.045,346.169l-.03,10.444a6.429,6.429,0,0,1-3.952-.3l.029-10.444a6.431,6.431,0,0,0,3.953.3" transform="translate(-39.615 -80.566)" fill="#005224"/>
            <path id="Trazado_885896" data-name="Trazado 885896" d="M250.907,270.814a1.863,1.863,0,0,1,1.156,1.92L241,305.551a3.147,3.147,0,0,1-2.388,1.677l-29.493,7.042L157.609,326.6a6.431,6.431,0,0,1-3.953-.3l-33.025-14.844L106.7,321a5.424,5.424,0,0,1-4.019.9,5.237,5.237,0,0,1-1.982-.618c-.935-.54-1.384-1.333-1.111-2.09l11.372-30.979a3.318,3.318,0,0,1,2.469-1.671L163.851,275.1a6.182,6.182,0,0,1,4.3.5,2.613,2.613,0,0,1,.884.788,1.541,1.541,0,0,1,.219,1.181,2.078,2.078,0,0,1-.983,1.225l-10.743,7.366,28.2,12.983,9.37-35.326a2.729,2.729,0,0,1,1.8-1.582,5.9,5.9,0,0,1,3.277-.259l49.068,8.255a5.136,5.136,0,0,1,1.663.579" transform="translate(-23.179 -60.998)" fill="#2e8f27"/>
            <path id="Trazado_885897" data-name="Trazado 885897" d="M248.644,275.592l-9.71,28.8L209.8,311.351l-51.51,12.334a1.838,1.838,0,0,1-.479.058,1.937,1.937,0,0,1-.719-.124L121.885,307.79,106.8,318.133l9.572-26.078,42.556-9.653-8.511,5.837,39.9,18.36,3.743-14.122.5-1.89,6.113-23.04h.007a1.3,1.3,0,0,1,.305.029l.167.028Z" transform="translate(-24.879 -62.323)" fill="#57b6b6"/>
            <path id="Trazado_885898" data-name="Trazado 885898" d="M245.176,165.364a1.717,1.717,0,0,1-1.046,1.47,5.391,5.391,0,0,1-4.891-.049,1.678,1.678,0,0,1-.976-1.441c.1-2.741.239-5.956.292-7.085.21-4.6.35-7.163.391-7.842.264-4.71.325-5.616.535-8.695.14-2.1.379-4.964.428-5.533.239-2.56.3-3.252.486-4.787s.337-2.581.515-3.508a8.169,8.169,0,0,1,.515-1.955c.132-.3.268-.469.4-.477a.152.152,0,0,1,.115.028c.272.189.482.963.49,1a24.64,24.64,0,0,1,.552,2.894c.124.914.325,2.445.49,4.286.2,2.235.362,4,.621,8.06.21,3.211.523,8.69.831,16.549.1,2.5.206,5.462.255,7.088" transform="translate(-55.501 -29.225)" fill="#fff"/>
            <g id="Grupo_1108941" data-name="Grupo 1108941" transform="translate(186.32 96.234)" opacity="0.15">
              <g id="Grupo_1108940" data-name="Grupo 1108940">
                <g id="Grupo_1108939" data-name="Grupo 1108939" clip-path="url(#clip-path-6)">
                  <path id="Trazado_885899" data-name="Trazado 885899" d="M246.256,165.364a1.717,1.717,0,0,1-1.046,1.47c-.045-2.009-.831-39.935-2.28-41.351a.132.132,0,0,0-.029-.02.152.152,0,0,1,.115.028c.272.189.482.963.49,1a24.64,24.64,0,0,1,.552,2.894c.124.914.325,2.445.49,4.286.2,2.235.362,4,.621,8.06.21,3.211.523,8.69.831,16.549.1,2.5.206,5.462.255,7.088" transform="translate(-242.902 -125.459)" fill="#040506"/>
                </g>
              </g>
            </g>
            <path id="Trazado_885900" data-name="Trazado 885900" d="M239.1,127.331a5.938,5.938,0,0,0,1.137,2.936l-.58.338a5.952,5.952,0,0,1-1.138-2.936l.581-.338" transform="translate(-55.56 -29.661)" fill="#fff"/>
            <path id="Trazado_885901" data-name="Trazado 885901" d="M234.344,127.77a5.938,5.938,0,0,0,1.137,2.936c-.071.011-.143.019-.218.025-1.246.107-13.361.517-14.563-.176a.19.19,0,0,1-.09-.088c-.314-.813,12.215-2.573,13.51-2.685.074-.006.149-.01.223-.012" transform="translate(-51.388 -29.763)" fill="#fff"/>
            <path id="Trazado_885902" data-name="Trazado 885902" d="M234.753,127.343c.074-.006.149-.011.224-.012l-.581.337c-.074,0-.149.006-.224.013-1.189.1-11.841,1.593-13.341,2.466l.581-.337c1.5-.874,12.152-2.365,13.341-2.467" transform="translate(-51.441 -29.661)" fill="#d2d2d2"/>
            <path id="Trazado_885903" data-name="Trazado 885903" d="M244.62,133.449a1.332,1.332,0,0,0,.37-.145l-.58.337a1.315,1.315,0,0,1-.371.146,4.946,4.946,0,0,1,.581-.338" transform="translate(-56.847 -31.052)" fill="#fff"/>
            <path id="Trazado_885904" data-name="Trazado 885904" d="M239.53,125l.581-.338a1.421,1.421,0,0,1,.781-.181,2.54,2.54,0,0,1,1.144.37l-.581.338a2.519,2.519,0,0,0-1.144-.37,1.416,1.416,0,0,0-.781.181" transform="translate(-55.797 -28.996)" fill="#fff"/>
            <path id="Trazado_885905" data-name="Trazado 885905" d="M244.525,131.36l-.581.338a1.772,1.772,0,0,0,.779-1.472c.007-.085.011-.173.012-.264a5.938,5.938,0,0,0-1.551-3.713,4.75,4.75,0,0,0-1.142-.951l.58-.338a4.772,4.772,0,0,1,1.143.951,5.939,5.939,0,0,1,1.55,3.714c0,.09,0,.178-.011.263a1.774,1.774,0,0,1-.779,1.472" transform="translate(-56.381 -29.108)" fill="#fff"/>
            <path id="Trazado_885906" data-name="Trazado 885906" d="M243.53,126.588h0l.29-.169-.29.169" transform="translate(-56.728 -29.448)" fill="#fff"/>
            <path id="Trazado_885907" data-name="Trazado 885907" d="M241.217,125.287a4.754,4.754,0,0,1,1.143.951,5.937,5.937,0,0,1,1.55,3.713c0,.091,0,.179-.011.264a1.616,1.616,0,0,1-1.149,1.617,2.176,2.176,0,0,1-1.551-.333,5.17,5.17,0,0,1-1.549-1.457,5.943,5.943,0,0,1-1.137-2.936c-.006-.093-.01-.185-.009-.275,0-1.246.646-1.951,1.569-1.913a2.528,2.528,0,0,1,1.144.37" transform="translate(-55.558 -29.098)" fill="#fff"/>
            <path id="Trazado_885908" data-name="Trazado 885908" d="M259.791,149.906l-.007.006-.58.337.006-.006c.321-.448-12.159-16.647-13.45-18.251q-.112-.139-.222-.27l.58-.338c.074.087.149.178.222.27,1.291,1.6,13.771,17.8,13.451,18.251" transform="translate(-57.196 -30.605)" fill="#d2d2d2"/>
            <path id="Trazado_885909" data-name="Trazado 885909" d="M245.188,131.824c.074.087.148.178.222.27,1.291,1.6,13.771,17.8,13.451,18.251-.012.017-.043.012-.091-.016-1.2-.694-13.274-15.068-14.516-16.611q-.11-.138-.216-.276a1.615,1.615,0,0,0,1.149-1.617" transform="translate(-56.847 -30.707)" fill="#fff"/>
            <path id="Trazado_885910" data-name="Trazado 885910" d="M242.635,100.646a.038.038,0,0,1,.042,0l-.58.337a.04.04,0,0,0-.043,0l.581-.338" transform="translate(-56.385 -23.443)" fill="#fff"/>
            <path id="Trazado_885911" data-name="Trazado 885911" d="M241.744,101.085c.634.366,1.1,17.6,1.1,19.312,0,.1,0,.194-.005.288a4.75,4.75,0,0,0-1.143-.95,2.519,2.519,0,0,0-1.144-.37c0-.1,0-.2,0-.294,0-1.715.565-18.353,1.2-17.986" transform="translate(-56.032 -23.546)" fill="#fff"/>
            <path id="Trazado_885912" data-name="Trazado 885912" d="M243.785,119.959c0,.1,0,.194-.006.288l-.58.338c0-.094.005-.189.006-.288,0-1.716-.463-18.947-1.1-19.312l.581-.338c.633.366,1.1,17.6,1.1,19.312" transform="translate(-56.397 -23.445)" fill="#d2d2d2"/>
            <path id="Trazado_885913" data-name="Trazado 885913" d="M239.007,125.038l1.161-.674a1.908,1.908,0,0,1,1.925.189l-1.161.674a1.908,1.908,0,0,0-1.925-.189" transform="translate(-55.675 -28.927)" fill="#d2d2d2"/>
            <path id="Trazado_885914" data-name="Trazado 885914" d="M244.581,131.065l-1.161.674A1.9,1.9,0,0,0,244.21,130a5.935,5.935,0,0,0-2.693-4.664l1.161-.674a5.935,5.935,0,0,1,2.693,4.664,1.9,1.9,0,0,1-.789,1.736" transform="translate(-56.259 -29.04)" fill="#d2d2d2"/>
            <path id="Trazado_885915" data-name="Trazado 885915" d="M240.693,125.431a5.935,5.935,0,0,1,2.693,4.664c0,1.716-1.218,2.41-2.711,1.548a5.944,5.944,0,0,1-2.7-4.669c0-1.715,1.22-2.405,2.713-1.543" transform="translate(-55.436 -29.132)" fill="#fff"/>
            <path id="Trazado_885916" data-name="Trazado 885916" d="M239.6,127.868l.557-.324a.918.918,0,0,1,.924.091l-.557.324a.916.916,0,0,0-.924-.091" transform="translate(-55.813 -29.69)" fill="#d2d2d2"/>
            <path id="Trazado_885917" data-name="Trazado 885917" d="M242.277,130.76l-.557.324a.91.91,0,0,0,.379-.833,2.847,2.847,0,0,0-1.292-2.238l.557-.324a2.847,2.847,0,0,1,1.292,2.238.909.909,0,0,1-.379.833" transform="translate(-56.094 -29.744)" fill="#d2d2d2"/>
            <path id="Trazado_885918" data-name="Trazado 885918" d="M240.411,128.057A2.847,2.847,0,0,1,241.7,130.3c0,.824-.585,1.157-1.3.743a2.854,2.854,0,0,1-1.294-2.241c0-.824.586-1.154,1.3-.741" transform="translate(-55.699 -29.788)" fill="#fff"/>
            <path id="Trazado_885919" data-name="Trazado 885919" d="M198.951,196.478a1.717,1.717,0,0,1-1.046,1.47,5.393,5.393,0,0,1-4.891-.049,1.681,1.681,0,0,1-.976-1.441c.1-2.741.239-5.956.292-7.085.21-4.6.351-7.163.391-7.842.264-4.709.325-5.615.535-8.694.14-2.1.379-4.964.428-5.533.239-2.56.3-3.252.486-4.787s.337-2.581.515-3.508a8.208,8.208,0,0,1,.515-1.955c.132-.3.268-.469.4-.477a.152.152,0,0,1,.115.028c.272.189.482.963.49,1a24.644,24.644,0,0,1,.552,2.894c.124.914.325,2.445.49,4.285.2,2.236.362,4,.621,8.06.21,3.211.523,8.69.832,16.549.1,2.5.206,5.463.255,7.089" transform="translate(-44.734 -36.473)" fill="#fff"/>
            <g id="Grupo_1108944" data-name="Grupo 1108944" transform="translate(150.862 120.101)" opacity="0.15">
              <g id="Grupo_1108943" data-name="Grupo 1108943">
                <g id="Grupo_1108942" data-name="Grupo 1108942" clip-path="url(#clip-path-6)">
                  <path id="Trazado_885920" data-name="Trazado 885920" d="M200.031,196.478a1.717,1.717,0,0,1-1.046,1.47c-.045-2.009-.832-39.935-2.28-41.351a.132.132,0,0,0-.029-.02.152.152,0,0,1,.115.028c.272.189.482.963.49,1a24.644,24.644,0,0,1,.552,2.894c.124.914.325,2.445.49,4.285.2,2.236.362,4,.621,8.06.21,3.211.523,8.69.832,16.549.1,2.5.206,5.463.255,7.089" transform="translate(-196.676 -156.573)" fill="#040506"/>
                </g>
              </g>
            </g>
            <path id="Trazado_885921" data-name="Trazado 885921" d="M192.87,158.444a5.94,5.94,0,0,0,1.137,2.936l-.58.338a5.952,5.952,0,0,1-1.138-2.936l.581-.338" transform="translate(-44.792 -36.908)" fill="#fff"/>
            <path id="Trazado_885922" data-name="Trazado 885922" d="M188.118,158.884a5.94,5.94,0,0,0,1.137,2.936q-.106.016-.219.025c-1.246.107-13.361.517-14.562-.176a.19.19,0,0,1-.09-.088c-.314-.813,12.215-2.573,13.51-2.685.074-.006.149-.01.223-.012" transform="translate(-40.62 -37.011)" fill="#fff"/>
            <path id="Trazado_885923" data-name="Trazado 885923" d="M188.527,158.456c.074-.006.149-.011.223-.012l-.58.337c-.074,0-.149.006-.224.013-1.189.1-11.841,1.593-13.341,2.466l.581-.337c1.5-.874,12.152-2.365,13.341-2.467" transform="translate(-40.673 -36.908)" fill="#d2d2d2"/>
            <path id="Trazado_885924" data-name="Trazado 885924" d="M198.394,164.562a1.307,1.307,0,0,0,.37-.145l-.58.337a1.324,1.324,0,0,1-.371.146,4.946,4.946,0,0,1,.581-.338" transform="translate(-46.079 -38.3)" fill="#fff"/>
            <path id="Trazado_885925" data-name="Trazado 885925" d="M193.3,156.109l.581-.338a1.421,1.421,0,0,1,.781-.181,2.531,2.531,0,0,1,1.144.37l-.581.337a2.519,2.519,0,0,0-1.144-.37,1.416,1.416,0,0,0-.781.181" transform="translate(-45.029 -36.243)" fill="#fff"/>
            <path id="Trazado_885926" data-name="Trazado 885926" d="M198.3,162.473l-.581.337a1.772,1.772,0,0,0,.779-1.472c.007-.085.011-.173.011-.264a5.933,5.933,0,0,0-1.55-3.713,4.75,4.75,0,0,0-1.142-.951l.58-.338a4.772,4.772,0,0,1,1.143.951,5.939,5.939,0,0,1,1.55,3.714c0,.091,0,.178-.011.263a1.774,1.774,0,0,1-.779,1.472" transform="translate(-45.614 -36.356)" fill="#fff"/>
            <path id="Trazado_885927" data-name="Trazado 885927" d="M197.305,157.7h0l.29-.169-.29.169" transform="translate(-45.961 -36.696)" fill="#fff"/>
            <path id="Trazado_885928" data-name="Trazado 885928" d="M194.991,156.4a4.754,4.754,0,0,1,1.143.951,5.937,5.937,0,0,1,1.55,3.713c0,.091,0,.179-.011.264a1.616,1.616,0,0,1-1.149,1.617,2.176,2.176,0,0,1-1.551-.333,5.17,5.17,0,0,1-1.549-1.457,5.943,5.943,0,0,1-1.137-2.936c-.006-.093-.01-.185-.009-.275,0-1.246.646-1.951,1.569-1.913a2.528,2.528,0,0,1,1.144.37" transform="translate(-44.79 -36.346)" fill="#fff"/>
            <path id="Trazado_885929" data-name="Trazado 885929" d="M213.565,181.019l-.007.006-.58.338.006-.006c.32-.448-12.159-16.647-13.45-18.251-.074-.093-.149-.183-.222-.271l.58-.337c.074.087.149.178.222.27,1.291,1.6,13.771,17.8,13.451,18.251" transform="translate(-46.428 -37.853)" fill="#d2d2d2"/>
            <path id="Trazado_885930" data-name="Trazado 885930" d="M198.962,162.938c.074.087.148.178.222.27,1.291,1.6,13.771,17.8,13.451,18.251-.012.017-.043.012-.091-.016-1.2-.694-13.274-15.068-14.515-16.611q-.112-.138-.217-.276a1.615,1.615,0,0,0,1.149-1.617" transform="translate(-46.079 -37.955)" fill="#fff"/>
            <path id="Trazado_885931" data-name="Trazado 885931" d="M196.409,131.759a.038.038,0,0,1,.042,0l-.58.337a.041.041,0,0,0-.043,0l.581-.337" transform="translate(-45.617 -30.691)" fill="#fff"/>
            <path id="Trazado_885932" data-name="Trazado 885932" d="M195.519,132.2c.634.366,1.1,17.6,1.1,19.312,0,.1,0,.194-.005.288a4.736,4.736,0,0,0-1.143-.951,2.519,2.519,0,0,0-1.144-.37c0-.1,0-.2,0-.294,0-1.715.565-18.353,1.2-17.986" transform="translate(-45.265 -30.793)" fill="#fff"/>
            <path id="Trazado_885933" data-name="Trazado 885933" d="M197.56,151.073c0,.1,0,.194-.006.288l-.58.338c0-.094.005-.19.005-.288.005-1.716-.462-18.947-1.1-19.312l.581-.337c.633.366,1.1,17.6,1.1,19.312" transform="translate(-45.63 -30.693)" fill="#d2d2d2"/>
            <path id="Trazado_885934" data-name="Trazado 885934" d="M192.781,156.151l1.161-.674a1.908,1.908,0,0,1,1.925.189l-1.161.674a1.908,1.908,0,0,0-1.925-.189" transform="translate(-44.907 -36.174)" fill="#d2d2d2"/>
            <path id="Trazado_885935" data-name="Trazado 885935" d="M198.355,162.178l-1.161.674a1.9,1.9,0,0,0,.789-1.736,5.935,5.935,0,0,0-2.693-4.664l1.161-.674a5.935,5.935,0,0,1,2.693,4.664,1.9,1.9,0,0,1-.789,1.736" transform="translate(-45.491 -36.287)" fill="#d2d2d2"/>
            <path id="Trazado_885936" data-name="Trazado 885936" d="M194.467,156.544a5.935,5.935,0,0,1,2.693,4.664c0,1.716-1.218,2.41-2.711,1.548a5.944,5.944,0,0,1-2.7-4.669c0-1.715,1.22-2.406,2.713-1.543" transform="translate(-44.668 -36.379)" fill="#fff"/>
            <path id="Trazado_885937" data-name="Trazado 885937" d="M193.377,158.981l.557-.324a.918.918,0,0,1,.924.09l-.557.324a.916.916,0,0,0-.924-.09" transform="translate(-45.046 -36.938)" fill="#d2d2d2"/>
            <path id="Trazado_885938" data-name="Trazado 885938" d="M196.052,161.873l-.558.324a.91.91,0,0,0,.379-.833,2.843,2.843,0,0,0-1.293-2.238l.557-.324a2.845,2.845,0,0,1,1.292,2.238.91.91,0,0,1-.378.833" transform="translate(-45.326 -36.992)" fill="#d2d2d2"/>
            <path id="Trazado_885939" data-name="Trazado 885939" d="M194.185,159.17a2.847,2.847,0,0,1,1.293,2.238c0,.824-.585,1.157-1.3.743a2.854,2.854,0,0,1-1.294-2.241c0-.823.586-1.154,1.3-.74" transform="translate(-44.931 -37.036)" fill="#fff"/>
            <path id="Trazado_885940" data-name="Trazado 885940" d="M308.5,208.14a1.717,1.717,0,0,1-1.046,1.47,5.393,5.393,0,0,1-4.891-.049,1.678,1.678,0,0,1-.976-1.441c.1-2.741.239-5.956.292-7.085.21-4.6.351-7.163.391-7.842.264-4.709.325-5.615.535-8.694.14-2.1.379-4.964.428-5.533.239-2.56.3-3.252.486-4.787s.338-2.581.515-3.508a8.166,8.166,0,0,1,.515-1.955c.132-.3.268-.469.4-.477a.152.152,0,0,1,.115.028c.272.189.482.963.49,1a24.637,24.637,0,0,1,.552,2.894c.124.914.325,2.445.49,4.285.2,2.236.362,4,.621,8.06.21,3.211.523,8.69.831,16.549.1,2.5.206,5.463.255,7.089" transform="translate(-70.253 -39.189)" fill="#fff"/>
            <g id="Grupo_1108947" data-name="Grupo 1108947" transform="translate(234.894 129.046)" opacity="0.15">
              <g id="Grupo_1108946" data-name="Grupo 1108946">
                <g id="Grupo_1108945" data-name="Grupo 1108945" clip-path="url(#clip-path-8)">
                  <path id="Trazado_885941" data-name="Trazado 885941" d="M309.582,208.14a1.717,1.717,0,0,1-1.046,1.47c-.045-2.009-.832-39.935-2.28-41.351a.133.133,0,0,0-.029-.02.152.152,0,0,1,.115.028c.272.189.482.963.49,1a24.644,24.644,0,0,1,.552,2.894c.124.914.325,2.445.49,4.285.2,2.236.362,4,.621,8.06.21,3.211.523,8.69.832,16.549.1,2.5.206,5.463.255,7.089" transform="translate(-306.227 -168.235)" fill="#040506"/>
                </g>
              </g>
            </g>
            <path id="Trazado_885942" data-name="Trazado 885942" d="M302.422,170.106a5.941,5.941,0,0,0,1.137,2.936l-.58.337a5.951,5.951,0,0,1-1.138-2.936l.581-.338" transform="translate(-70.311 -39.625)" fill="#fff"/>
            <path id="Trazado_885943" data-name="Trazado 885943" d="M297.669,170.546a5.94,5.94,0,0,0,1.137,2.936c-.071.011-.143.019-.218.025-1.246.107-13.361.517-14.563-.176a.191.191,0,0,1-.09-.088c-.314-.813,12.215-2.573,13.51-2.685.074-.006.149-.01.223-.012" transform="translate(-66.139 -39.727)" fill="#fff"/>
            <path id="Trazado_885944" data-name="Trazado 885944" d="M298.078,170.119c.074-.006.149-.011.224-.012l-.581.337c-.074,0-.149.006-.223.013-1.19.1-11.842,1.593-13.341,2.466l.581-.337c1.5-.874,12.152-2.365,13.341-2.467" transform="translate(-66.192 -39.625)" fill="#d2d2d2"/>
            <path id="Trazado_885945" data-name="Trazado 885945" d="M307.945,176.225a1.308,1.308,0,0,0,.37-.145l-.58.337a1.315,1.315,0,0,1-.371.146,5.011,5.011,0,0,1,.581-.338" transform="translate(-71.598 -41.016)" fill="#fff"/>
            <path id="Trazado_885946" data-name="Trazado 885946" d="M302.856,167.772l.581-.338a1.421,1.421,0,0,1,.781-.181,2.531,2.531,0,0,1,1.144.37l-.581.338a2.519,2.519,0,0,0-1.144-.37,1.416,1.416,0,0,0-.781.181" transform="translate(-70.548 -38.96)" fill="#fff"/>
            <path id="Trazado_885947" data-name="Trazado 885947" d="M307.851,174.135l-.581.338a1.772,1.772,0,0,0,.779-1.472c.007-.085.011-.173.011-.264a5.933,5.933,0,0,0-1.55-3.713,4.751,4.751,0,0,0-1.142-.951l.58-.338a4.772,4.772,0,0,1,1.143.951,5.939,5.939,0,0,1,1.55,3.714c0,.091,0,.178-.011.263a1.774,1.774,0,0,1-.779,1.472" transform="translate(-71.133 -39.073)" fill="#fff"/>
            <path id="Trazado_885948" data-name="Trazado 885948" d="M306.856,169.364h0l.29-.169-.29.169" transform="translate(-71.48 -39.413)" fill="#fff"/>
            <path id="Trazado_885949" data-name="Trazado 885949" d="M304.542,168.062a4.755,4.755,0,0,1,1.143.951,5.938,5.938,0,0,1,1.55,3.713c0,.091,0,.179-.011.264a1.616,1.616,0,0,1-1.149,1.617,2.176,2.176,0,0,1-1.551-.333,5.169,5.169,0,0,1-1.549-1.457,5.95,5.95,0,0,1-1.137-2.936c-.006-.093-.01-.185-.009-.275,0-1.246.646-1.951,1.569-1.913a2.528,2.528,0,0,1,1.144.37" transform="translate(-70.309 -39.062)" fill="#fff"/>
            <path id="Trazado_885950" data-name="Trazado 885950" d="M323.116,192.681l-.007.006-.58.337.006-.006c.32-.448-12.159-16.647-13.45-18.251-.074-.093-.149-.183-.222-.271l.58-.337c.074.087.149.178.222.27,1.291,1.6,13.771,17.8,13.451,18.251" transform="translate(-71.947 -40.569)" fill="#d2d2d2"/>
            <path id="Trazado_885951" data-name="Trazado 885951" d="M308.514,174.6c.074.087.149.178.222.27,1.291,1.6,13.771,17.8,13.451,18.251-.012.017-.043.012-.09-.016-1.2-.694-13.274-15.068-14.515-16.611-.074-.092-.147-.184-.217-.276a1.614,1.614,0,0,0,1.149-1.617" transform="translate(-71.598 -40.672)" fill="#fff"/>
            <path id="Trazado_885952" data-name="Trazado 885952" d="M305.96,143.422a.037.037,0,0,1,.041,0l-.58.337a.041.041,0,0,0-.043,0l.581-.338" transform="translate(-71.136 -33.408)" fill="#fff"/>
            <path id="Trazado_885953" data-name="Trazado 885953" d="M305.07,143.861c.634.366,1.1,17.6,1.1,19.312,0,.1,0,.194-.005.288a4.737,4.737,0,0,0-1.143-.951,2.519,2.519,0,0,0-1.144-.37c0-.1,0-.2,0-.294,0-1.715.565-18.353,1.2-17.986" transform="translate(-70.784 -33.51)" fill="#fff"/>
            <path id="Trazado_885954" data-name="Trazado 885954" d="M307.111,162.735c0,.1,0,.194-.006.288l-.58.337c0-.094.005-.19.005-.288.005-1.716-.462-18.947-1.1-19.313l.581-.337c.633.366,1.1,17.6,1.1,19.312" transform="translate(-71.149 -33.409)" fill="#d2d2d2"/>
            <path id="Trazado_885955" data-name="Trazado 885955" d="M302.332,167.814l1.161-.674a1.908,1.908,0,0,1,1.925.189l-1.161.674a1.908,1.908,0,0,0-1.925-.189" transform="translate(-70.426 -38.891)" fill="#d2d2d2"/>
            <path id="Trazado_885956" data-name="Trazado 885956" d="M307.906,173.841l-1.161.674a1.9,1.9,0,0,0,.789-1.736,5.935,5.935,0,0,0-2.693-4.664l1.161-.674a5.935,5.935,0,0,1,2.693,4.664,1.9,1.9,0,0,1-.789,1.736" transform="translate(-71.01 -39.004)" fill="#d2d2d2"/>
            <path id="Trazado_885957" data-name="Trazado 885957" d="M304.018,168.207a5.935,5.935,0,0,1,2.693,4.664c0,1.716-1.218,2.41-2.711,1.548a5.944,5.944,0,0,1-2.7-4.669c0-1.715,1.22-2.405,2.713-1.543" transform="translate(-70.187 -39.096)" fill="#fff"/>
            <path id="Trazado_885958" data-name="Trazado 885958" d="M302.928,170.643l.557-.324a.918.918,0,0,1,.924.091l-.557.324a.918.918,0,0,0-.924-.091" transform="translate(-70.565 -39.654)" fill="#d2d2d2"/>
            <path id="Trazado_885959" data-name="Trazado 885959" d="M305.6,173.536l-.557.324a.91.91,0,0,0,.379-.833,2.847,2.847,0,0,0-1.293-2.238l.557-.324a2.847,2.847,0,0,1,1.292,2.238.91.91,0,0,1-.379.833" transform="translate(-70.845 -39.708)" fill="#d2d2d2"/>
            <path id="Trazado_885960" data-name="Trazado 885960" d="M303.737,170.832a2.847,2.847,0,0,1,1.292,2.238c0,.824-.585,1.157-1.3.743a2.854,2.854,0,0,1-1.294-2.241c0-.823.586-1.154,1.3-.74" transform="translate(-70.45 -39.752)" fill="#fff"/>
            <path id="Trazado_885961" data-name="Trazado 885961" d="M270.141,235.775a1.715,1.715,0,0,1-1.045,1.47,5.393,5.393,0,0,1-4.891-.049,1.681,1.681,0,0,1-.976-1.441c.1-2.741.239-5.956.292-7.085.21-4.6.351-7.163.391-7.842.264-4.71.325-5.616.535-8.695.14-2.1.379-4.964.428-5.533.239-2.56.3-3.252.486-4.787s.337-2.581.515-3.508a8.209,8.209,0,0,1,.515-1.955c.132-.3.268-.469.4-.477a.155.155,0,0,1,.116.028c.272.189.481.963.489,1a24.642,24.642,0,0,1,.552,2.894c.124.914.325,2.445.49,4.285.2,2.236.362,4,.621,8.06.21,3.211.523,8.691.832,16.548.1,2.5.206,5.463.255,7.089" transform="translate(-61.317 -45.626)" fill="#fff"/>
            <g id="Grupo_1108950" data-name="Grupo 1108950" transform="translate(205.469 150.244)" opacity="0.15">
              <g id="Grupo_1108949" data-name="Grupo 1108949">
                <g id="Grupo_1108948" data-name="Grupo 1108948" clip-path="url(#clip-path-8)">
                  <path id="Trazado_885962" data-name="Trazado 885962" d="M271.221,235.775a1.715,1.715,0,0,1-1.045,1.47c-.045-2.009-.832-39.935-2.28-41.351a.132.132,0,0,0-.029-.02.155.155,0,0,1,.116.028c.272.189.481.963.489,1a24.642,24.642,0,0,1,.552,2.894c.124.914.325,2.445.49,4.285.2,2.236.362,4,.621,8.06.21,3.211.523,8.691.832,16.548.1,2.5.206,5.463.255,7.089" transform="translate(-267.866 -195.871)" fill="#040506"/>
                </g>
              </g>
            </g>
            <path id="Trazado_885963" data-name="Trazado 885963" d="M264.061,197.742a5.941,5.941,0,0,0,1.137,2.936l-.58.337a5.943,5.943,0,0,1-1.137-2.936l.58-.338" transform="translate(-61.376 -46.062)" fill="#fff"/>
            <path id="Trazado_885964" data-name="Trazado 885964" d="M259.308,198.182a5.94,5.94,0,0,0,1.137,2.936c-.071.011-.143.019-.219.025-1.246.107-13.361.517-14.562-.176a.19.19,0,0,1-.09-.088c-.314-.813,12.214-2.573,13.509-2.685.075-.006.15-.01.224-.012" transform="translate(-57.203 -46.165)" fill="#fff"/>
            <path id="Trazado_885965" data-name="Trazado 885965" d="M259.717,197.754c.074-.006.149-.011.223-.012l-.58.337c-.074,0-.149.006-.224.013-1.189.1-11.841,1.593-13.341,2.466l.581-.337c1.5-.874,12.152-2.365,13.341-2.467" transform="translate(-57.256 -46.062)" fill="#d2d2d2"/>
            <path id="Trazado_885966" data-name="Trazado 885966" d="M269.584,203.86a1.331,1.331,0,0,0,.37-.145l-.58.337a1.324,1.324,0,0,1-.371.146,4.954,4.954,0,0,1,.581-.337" transform="translate(-62.662 -47.454)" fill="#fff"/>
            <path id="Trazado_885967" data-name="Trazado 885967" d="M264.495,195.407l.581-.337a1.421,1.421,0,0,1,.781-.181,2.531,2.531,0,0,1,1.144.37l-.581.338a2.519,2.519,0,0,0-1.144-.37,1.416,1.416,0,0,0-.781.181" transform="translate(-61.612 -45.397)" fill="#fff"/>
            <path id="Trazado_885968" data-name="Trazado 885968" d="M269.489,201.771l-.581.338a1.772,1.772,0,0,0,.779-1.472c.007-.085.011-.173.012-.264a5.938,5.938,0,0,0-1.551-3.713,4.751,4.751,0,0,0-1.142-.951l.58-.338a4.772,4.772,0,0,1,1.143.951,5.939,5.939,0,0,1,1.55,3.713c0,.091,0,.179-.011.264a1.774,1.774,0,0,1-.779,1.472" transform="translate(-62.197 -45.51)" fill="#fff"/>
            <path id="Trazado_885969" data-name="Trazado 885969" d="M268.495,197h0l.29-.169-.29.169" transform="translate(-62.544 -45.85)" fill="#fff"/>
            <path id="Trazado_885970" data-name="Trazado 885970" d="M266.181,195.7a4.754,4.754,0,0,1,1.143.951,5.937,5.937,0,0,1,1.55,3.713c0,.091,0,.179-.011.264a1.616,1.616,0,0,1-1.149,1.617,2.176,2.176,0,0,1-1.551-.333,5.17,5.17,0,0,1-1.549-1.457,5.943,5.943,0,0,1-1.137-2.936c-.006-.093-.01-.185-.009-.275,0-1.246.646-1.951,1.569-1.913a2.528,2.528,0,0,1,1.144.37" transform="translate(-61.373 -45.5)" fill="#fff"/>
            <path id="Trazado_885971" data-name="Trazado 885971" d="M284.755,220.317l-.007.006-.58.337.006-.005c.32-.448-12.159-16.647-13.45-18.251-.074-.093-.149-.183-.222-.271l.58-.337c.074.087.149.178.222.27,1.291,1.6,13.771,17.8,13.451,18.251" transform="translate(-63.011 -47.007)" fill="#d2d2d2"/>
            <path id="Trazado_885972" data-name="Trazado 885972" d="M270.153,202.235c.074.087.149.178.222.27,1.291,1.6,13.771,17.8,13.451,18.251-.012.017-.043.012-.091-.016-1.2-.694-13.274-15.068-14.515-16.611-.074-.092-.146-.184-.217-.276a1.615,1.615,0,0,0,1.149-1.617" transform="translate(-62.662 -47.109)" fill="#fff"/>
            <path id="Trazado_885973" data-name="Trazado 885973" d="M267.6,171.057a.04.04,0,0,1,.042,0l-.58.338a.04.04,0,0,0-.043,0l.581-.337" transform="translate(-62.2 -39.845)" fill="#fff"/>
            <path id="Trazado_885974" data-name="Trazado 885974" d="M266.709,171.5c.634.366,1.1,17.6,1.1,19.312,0,.1,0,.194-.005.288a4.736,4.736,0,0,0-1.143-.951,2.519,2.519,0,0,0-1.144-.37c0-.1,0-.2,0-.294,0-1.715.565-18.353,1.2-17.986" transform="translate(-61.848 -39.947)" fill="#fff"/>
            <path id="Trazado_885975" data-name="Trazado 885975" d="M268.75,190.371c0,.1,0,.194-.006.288l-.58.337c0-.094.005-.19.005-.288.005-1.716-.462-18.947-1.1-19.312l.581-.337c.633.366,1.1,17.6,1.1,19.312" transform="translate(-62.213 -39.847)" fill="#d2d2d2"/>
            <path id="Trazado_885976" data-name="Trazado 885976" d="M263.971,195.449l1.161-.674a1.908,1.908,0,0,1,1.925.189l-1.161.674a1.908,1.908,0,0,0-1.925-.189" transform="translate(-61.49 -45.329)" fill="#d2d2d2"/>
            <path id="Trazado_885977" data-name="Trazado 885977" d="M269.545,201.476l-1.161.674a1.9,1.9,0,0,0,.789-1.736,5.935,5.935,0,0,0-2.693-4.664l1.161-.674a5.935,5.935,0,0,1,2.693,4.664,1.9,1.9,0,0,1-.789,1.736" transform="translate(-62.075 -45.441)" fill="#d2d2d2"/>
            <path id="Trazado_885978" data-name="Trazado 885978" d="M265.657,195.842a5.935,5.935,0,0,1,2.693,4.664c0,1.715-1.218,2.41-2.711,1.548a5.944,5.944,0,0,1-2.7-4.669c0-1.716,1.22-2.405,2.713-1.543" transform="translate(-61.251 -45.533)" fill="#fff"/>
            <path id="Trazado_885979" data-name="Trazado 885979" d="M264.567,198.279l.557-.324a.918.918,0,0,1,.924.091l-.557.324a.918.918,0,0,0-.924-.091" transform="translate(-61.629 -46.092)" fill="#d2d2d2"/>
            <path id="Trazado_885980" data-name="Trazado 885980" d="M267.242,201.171l-.557.324a.91.91,0,0,0,.379-.833,2.847,2.847,0,0,0-1.293-2.238l.557-.324a2.847,2.847,0,0,1,1.293,2.238.909.909,0,0,1-.379.833" transform="translate(-61.909 -46.146)" fill="#d2d2d2"/>
            <path id="Trazado_885981" data-name="Trazado 885981" d="M265.376,198.468a2.847,2.847,0,0,1,1.292,2.238c0,.824-.585,1.157-1.3.743a2.856,2.856,0,0,1-1.294-2.241c0-.823.586-1.154,1.3-.74" transform="translate(-61.514 -46.19)" fill="#fff"/>
            <path id="Trazado_885982" data-name="Trazado 885982" d="M189.323,250.259c7.521,4.342,7.561,11.383.09,15.725s-19.628,4.342-27.148,0-7.56-11.382-.087-15.725,19.626-4.342,27.146,0" transform="translate(-36.478 -57.537)" fill="#005224"/>
            <g id="Grupo_1108953" data-name="Grupo 1108953" transform="translate(126.315 193.054)" opacity="0.2">
              <g id="Grupo_1108952" data-name="Grupo 1108952">
                <g id="Grupo_1108951" data-name="Grupo 1108951" clip-path="url(#clip-path-10)">
                  <path id="Trazado_885983" data-name="Trazado 885983" d="M186.838,253.886c5.094,2.941,5.121,7.71.061,10.651s-13.293,2.941-18.387,0-5.12-7.71-.059-10.651,13.292-2.941,18.386,0" transform="translate(-164.674 -251.681)" fill="#040506"/>
                </g>
              </g>
            </g>
            <path id="Trazado_885984" data-name="Trazado 885984" d="M182.884,242.834V149.262H180.7V242.87Z" transform="translate(-42.093 -34.769)" fill="#ffe430"/>
            <path id="Trazado_885985" data-name="Trazado 885985" d="M166.294,133.147c6.14,3.446,15.957,3.347,21.926-.222,2.935-1.754,4.393-4.021,4.387-6.282l.012,4.2c-.032.966-.131,2.251-.248,3.21-.059.484-.226,1.115-.338,1.589a14.633,14.633,0,0,1-3.249,6.12,14.415,14.415,0,0,1-3.351,2.749,16.156,16.156,0,0,1-8.152,2.244,16.872,16.872,0,0,1-3.853-.4,15.987,15.987,0,0,1-2.476-.769,15.009,15.009,0,0,1-4.713-3,14.5,14.5,0,0,1-3.955-6.625,32.9,32.9,0,0,1-.594-3.244c-.071-.529-.057-1.246-.081-1.78l-.012-4.2c.007,2.336,1.578,4.666,4.7,6.417" transform="translate(-37.642 -29.5)" fill="#005224"/>
            <path id="Trazado_885986" data-name="Trazado 885986" d="M166.263,122.162c6.14,3.446,15.957,3.347,21.926-.222,2.935-1.754,4.393-4.022,4.387-6.282l.024,8.426c.006,2.261-1.452,4.528-4.387,6.282-5.968,3.568-15.785,3.667-21.926.222-3.12-1.751-4.691-4.081-4.7-6.417l-.024-8.426c.007,2.336,1.578,4.666,4.7,6.417" transform="translate(-37.635 -26.942)" fill="#59a221"/>
            <path id="Trazado_885987" data-name="Trazado 885987" d="M199.3,140.2a7.286,7.286,0,0,0,.532-.6c-.16.2-.339.4-.532.6" transform="translate(-46.426 -32.521)" fill="#ec6500"/>
            <g id="Grupo_1108956" data-name="Grupo 1108956" transform="translate(152.879 107.088)" opacity="0.2">
              <g id="Grupo_1108955" data-name="Grupo 1108955">
                <g id="Grupo_1108954" data-name="Grupo 1108954" clip-path="url(#clip-path-11)">
                  <path id="Trazado_885988" data-name="Trazado 885988" d="M199.3,140.2a7.286,7.286,0,0,0,.532-.6c-.16.2-.339.4-.532.6" transform="translate(-199.305 -139.609)" fill="#fff"/>
                </g>
              </g>
            </g>
            <path id="Trazado_885989" data-name="Trazado 885989" d="M138.407,54.9a60.332,60.332,0,0,0,2.255,11.974c.436,1.441,1.051,3.357,1.538,4.78.268.781.66,1.8.961,2.562a81.168,81.168,0,0,0,3.37,7.47,61.148,61.148,0,0,0,8.661,12.966c.628.711,1.519,1.615,2.191,2.28.365.359.864.788,1.275,1.153.071.058.134.116.2.173a12.879,12.879,0,0,0,2.024,1.4c6.124,3.433,15.907,3.337,21.852-.218a11.763,11.763,0,0,0,1.749-1.256c.038-.032.077-.071.122-.109s.1-.084.141-.122l.058-.058a37.537,37.537,0,0,0,3.683-3.748,55.707,55.707,0,0,0,4.44-5.984,72.344,72.344,0,0,0,3.9-6.841c1.512-3,2.332-5.049,3.28-7.425.462-1.154,1.569-4.21,2.492-7.534a69.35,69.35,0,0,0,1.589-7.233,39.333,39.333,0,0,0,.314-11.013A37.5,37.5,0,0,0,203.432,43a31.582,31.582,0,0,0-1.915-5.017c-.346-.666-.769-1.576-1.166-2.217-.7-1.147-1.691-2.652-2.5-3.735-.436-.576-1.051-1.313-1.538-1.845-.743-.795-1.774-1.813-2.562-2.563a34.208,34.208,0,0,0-4.113-3.139c-.641-.4-1.493-.942-2.159-1.288-1.044-.545-2.466-1.217-3.549-1.678a33.271,33.271,0,0,0-9.763-2.294,33.827,33.827,0,0,0-5.959.064,33.064,33.064,0,0,0-6.285,1.25,33.565,33.565,0,0,0-9.9,4.914,43.089,43.089,0,0,0-3.44,2.863c-.5.442-1.089,1.1-1.55,1.576a32.961,32.961,0,0,0-7.47,13.389,31.124,31.124,0,0,0-1.147,6.471,34.382,34.382,0,0,0-.007,5.144M185.1,97.6c.193-.2.372-.4.532-.6a7.286,7.286,0,0,1-.532.6" transform="translate(-32.219 -4.455)" fill="#ffe430"/>
            <path id="Trazado_885990" data-name="Trazado 885990" d="M199.3,140.2a7.286,7.286,0,0,0,.532-.6c-.16.2-.339.4-.532.6" transform="translate(-46.426 -32.521)" fill="#ec6500"/>
            <g id="Grupo_1108959" data-name="Grupo 1108959" transform="translate(128.363 15.343)" opacity="0.1">
              <g id="Grupo_1108958" data-name="Grupo 1108958">
                <g id="Grupo_1108957" data-name="Grupo 1108957" clip-path="url(#clip-path-12)">
                  <path id="Trazado_885991" data-name="Trazado 885991" d="M167.345,99.681c.1.06.2.12.3.179,6.127,3.429,15.909,3.333,21.856-.228a12.264,12.264,0,0,0,1.774-1.283c.012,0,.012,0,.024-.012s.024-.035.048-.048.048-.036.071-.06.025-.024.036-.024a40.376,40.376,0,0,0,3.788-3.861,55.516,55.516,0,0,0,4.448-5.982,74.176,74.176,0,0,0,3.9-6.846c1.51-3,2.326-5.047,3.272-7.421.468-1.151,1.571-4.208,2.494-7.541a68.006,68.006,0,0,0,1.595-7.23,39.311,39.311,0,0,0,.312-11.017,37.051,37.051,0,0,0-1.067-5.1,32.939,32.939,0,0,0-1.907-5.023c-.36-.659-.779-1.582-1.174-2.218-.708-1.151-1.691-2.649-2.494-3.729-.432-.575-1.055-1.319-1.547-1.846-.731-.8-1.774-1.81-2.554-2.566a33.1,33.1,0,0,0-4.124-3.141c-.636-.4-1.487-.935-2.146-1.283-1.055-.552-2.47-1.223-3.548-1.678A33.185,33.185,0,0,0,185,20c.719.335,1.439.683,2.039.995.671.347,1.522.887,2.158,1.295a32.882,32.882,0,0,1,4.112,3.141c.791.756,1.823,1.763,2.566,2.566.491.528,1.1,1.259,1.534,1.834.815,1.079,1.8,2.59,2.506,3.741.4.635.815,1.546,1.163,2.218A32.263,32.263,0,0,1,203,40.8a37.566,37.566,0,0,1,1.055,5.108,39.348,39.348,0,0,1-.311,11.017,67.5,67.5,0,0,1-1.582,7.23c-.924,3.333-2.038,6.39-2.494,7.541-.947,2.374-1.775,4.424-3.273,7.421a76.973,76.973,0,0,1-3.9,6.846,57.091,57.091,0,0,1-4.448,5.982,38.377,38.377,0,0,1-3.8,3.848c0,.012-.012.024-.024.036s-.048.036-.072.06a.331.331,0,0,1-.072.06,12.405,12.405,0,0,1-1.786,1.283c-4,2.4-9.759,3.225-14.95,2.446" transform="translate(-167.345 -20.003)" fill="#040506"/>
                </g>
              </g>
            </g>
            <path id="Trazado_885992" data-name="Trazado 885992" d="M114.27,182.235l-.038,6.65-.006,1.307a1.383,1.383,0,0,1-.84,1.141,4.361,4.361,0,0,1-3.914-.051,1.394,1.394,0,0,1-.781-1.128l.006-1.294v-.006l.013-1.282.038-5.343a2.134,2.134,0,0,1,.249-.673,1.093,1.093,0,0,1,.314-.3,3.742,3.742,0,0,1,2.043-.615c.711-.064,2.313.218,2.787,1.128a.919.919,0,0,1,.122.4.255.255,0,0,1,.006.064" transform="translate(-25.318 -42.076)" fill="#005224"/>
            <g id="Grupo_1108962" data-name="Grupo 1108962" transform="translate(83.39 138.554)" opacity="0.1">
              <g id="Grupo_1108961" data-name="Grupo 1108961">
                <g id="Grupo_1108960" data-name="Grupo 1108960" clip-path="url(#clip-path-13)">
                  <path id="Trazado_885993" data-name="Trazado 885993" d="M114.269,182.171l-.032,5.432a18.97,18.97,0,0,1-2.755.186h-.141a19.762,19.762,0,0,1-2.626-.218l.038-5.343a2.123,2.123,0,0,1,.25-.673,1.078,1.078,0,0,1,.314-.3,3.729,3.729,0,0,1,2.043-.615c.711-.064,2.313.218,2.787,1.128a.894.894,0,0,1,.122.4" transform="translate(-108.714 -180.631)" fill="#040506"/>
                </g>
              </g>
            </g>
            <path id="Trazado_885994" data-name="Trazado 885994" d="M120.057,172.276c-.051,3-2.454,4.8-3.874,5.606a15.626,15.626,0,0,1-14.5-.173,7.043,7.043,0,0,1-3.443-4.074c-.409-1.447-.239-2.865.694-5.823,1.35-4.334,5.527-13.712,9.059-15.765a2.246,2.246,0,0,1,.965-.328,2.789,2.789,0,0,1,2.1.861,20.752,20.752,0,0,1,4.126,5.771c2.382,4.456,4.921,11.13,4.87,13.925" transform="translate(-22.835 -35.34)" fill="#59a221"/>
            <g id="Grupo_1108965" data-name="Grupo 1108965" transform="translate(86.121 116.37)" opacity="0.1">
              <g id="Grupo_1108964" data-name="Grupo 1108964">
                <g id="Grupo_1108963" data-name="Grupo 1108963" clip-path="url(#clip-path-14)">
                  <path id="Trazado_885995" data-name="Trazado 885995" d="M123.375,172.276c-.051,3-2.454,4.8-3.874,5.606a1.1,1.1,0,0,0,.526-1.059c.025-3.25-4.58-22.146-7.477-24.883a1.267,1.267,0,0,0-.275-.221,2.789,2.789,0,0,1,2.1.861,20.752,20.752,0,0,1,4.126,5.771c2.382,4.456,4.921,11.13,4.87,13.925" transform="translate(-112.275 -151.71)" fill="#040506"/>
                </g>
              </g>
            </g>
            <path id="Trazado_885996" data-name="Trazado 885996" d="M88.292,215.34l-.038,6.65-.006,1.307a1.383,1.383,0,0,1-.84,1.141,4.361,4.361,0,0,1-3.914-.051,1.4,1.4,0,0,1-.782-1.128l.007-1.294v-.006l.013-1.282.038-5.343a2.133,2.133,0,0,1,.249-.673,1.093,1.093,0,0,1,.314-.3,3.742,3.742,0,0,1,2.043-.615c.711-.064,2.313.218,2.787,1.128a.91.91,0,0,1,.122.4.246.246,0,0,1,.006.064" transform="translate(-19.267 -49.788)" fill="#005224"/>
            <g id="Grupo_1108968" data-name="Grupo 1108968" transform="translate(63.464 163.948)" opacity="0.1">
              <g id="Grupo_1108967" data-name="Grupo 1108967">
                <g id="Grupo_1108966" data-name="Grupo 1108966" clip-path="url(#clip-path-15)">
                  <path id="Trazado_885997" data-name="Trazado 885997" d="M88.292,215.276l-.032,5.432a18.975,18.975,0,0,1-2.755.186h-.141a19.759,19.759,0,0,1-2.626-.218l.038-5.343a2.123,2.123,0,0,1,.25-.673,1.077,1.077,0,0,1,.314-.3,3.729,3.729,0,0,1,2.043-.615c.711-.064,2.313.218,2.787,1.128a.894.894,0,0,1,.122.4" transform="translate(-82.738 -213.736)" fill="#040506"/>
                </g>
              </g>
            </g>
            <path id="Trazado_885998" data-name="Trazado 885998" d="M94.08,205.382c-.051,3-2.454,4.8-3.874,5.606a15.626,15.626,0,0,1-14.5-.173,7.043,7.043,0,0,1-3.443-4.074c-.409-1.447-.239-2.865.694-5.823,1.35-4.334,5.527-13.712,9.059-15.765a2.246,2.246,0,0,1,.965-.328,2.79,2.79,0,0,1,2.1.861,20.752,20.752,0,0,1,4.126,5.771c2.382,4.456,4.921,11.13,4.87,13.925" transform="translate(-16.784 -43.051)" fill="#59a221"/>
            <g id="Grupo_1108971" data-name="Grupo 1108971" transform="translate(66.196 141.765)" opacity="0.1">
              <g id="Grupo_1108970" data-name="Grupo 1108970">
                <g id="Grupo_1108969" data-name="Grupo 1108969" clip-path="url(#clip-path-14)">
                  <path id="Trazado_885999" data-name="Trazado 885999" d="M97.4,205.382c-.051,3-2.454,4.8-3.874,5.606a1.1,1.1,0,0,0,.526-1.059c.025-3.25-4.58-22.146-7.477-24.883a1.266,1.266,0,0,0-.275-.221,2.79,2.79,0,0,1,2.1.861,20.752,20.752,0,0,1,4.126,5.771c2.382,4.456,4.921,11.13,4.87,13.925" transform="translate(-86.298 -184.816)" fill="#040506"/>
                </g>
              </g>
            </g>
            <path id="Trazado_886000" data-name="Trazado 886000" d="M132.2,216.775l-.038,6.65-.007,1.307a1.382,1.382,0,0,1-.839,1.141,4.361,4.361,0,0,1-3.914-.051,1.4,1.4,0,0,1-.782-1.128l.007-1.294v-.006l.013-1.282.038-5.343a2.134,2.134,0,0,1,.249-.673,1.093,1.093,0,0,1,.314-.3,3.742,3.742,0,0,1,2.043-.615c.711-.064,2.313.218,2.787,1.128a.92.92,0,0,1,.122.4.247.247,0,0,1,.006.064" transform="translate(-29.496 -50.122)" fill="#005224"/>
            <g id="Grupo_1108974" data-name="Grupo 1108974" transform="translate(97.147 165.049)" opacity="0.1">
              <g id="Grupo_1108973" data-name="Grupo 1108973">
                <g id="Grupo_1108972" data-name="Grupo 1108972" clip-path="url(#clip-path-17)">
                  <path id="Trazado_886001" data-name="Trazado 886001" d="M132.2,216.71l-.032,5.432a18.971,18.971,0,0,1-2.755.186h-.141a19.889,19.889,0,0,1-2.626-.218l.038-5.343a2.123,2.123,0,0,1,.25-.673,1.068,1.068,0,0,1,.314-.3,3.729,3.729,0,0,1,2.043-.615c.711-.064,2.313.218,2.787,1.128a.894.894,0,0,1,.122.4" transform="translate(-126.649 -215.171)" fill="#040506"/>
                </g>
              </g>
            </g>
            <path id="Trazado_886002" data-name="Trazado 886002" d="M137.991,206.816c-.051,3-2.454,4.8-3.874,5.606a15.626,15.626,0,0,1-14.5-.173,7.043,7.043,0,0,1-3.443-4.074c-.409-1.447-.239-2.865.694-5.823,1.35-4.334,5.527-13.712,9.059-15.765a2.246,2.246,0,0,1,.965-.328,2.789,2.789,0,0,1,2.1.861,20.752,20.752,0,0,1,4.126,5.771c2.382,4.456,4.921,11.13,4.87,13.925" transform="translate(-27.013 -43.385)" fill="#59a221"/>
            <g id="Grupo_1108977" data-name="Grupo 1108977" transform="translate(99.879 142.865)" opacity="0.1">
              <g id="Grupo_1108976" data-name="Grupo 1108976">
                <g id="Grupo_1108975" data-name="Grupo 1108975" clip-path="url(#clip-path-18)">
                  <path id="Trazado_886003" data-name="Trazado 886003" d="M141.309,206.816c-.051,3-2.454,4.8-3.874,5.606a1.1,1.1,0,0,0,.526-1.059c.025-3.25-4.58-22.146-7.477-24.883a1.267,1.267,0,0,0-.275-.221,2.789,2.789,0,0,1,2.1.861,20.752,20.752,0,0,1,4.126,5.771c2.382,4.456,4.921,11.13,4.87,13.925" transform="translate(-130.21 -186.25)" fill="#040506"/>
                </g>
              </g>
            </g>
            <path id="Trazado_886004" data-name="Trazado 886004" d="M50.175,227.607l-.038,6.65-.006,1.307a1.383,1.383,0,0,1-.84,1.141,4.361,4.361,0,0,1-3.914-.051,1.4,1.4,0,0,1-.782-1.128l.007-1.294v-.006l.013-1.282.038-5.343a2.134,2.134,0,0,1,.249-.673,1.093,1.093,0,0,1,.314-.3,3.741,3.741,0,0,1,2.043-.615c.711-.064,2.313.218,2.787,1.128a.91.91,0,0,1,.122.4.247.247,0,0,1,.006.064" transform="translate(-10.388 -52.646)" fill="#005224"/>
            <g id="Grupo_1108980" data-name="Grupo 1108980" transform="translate(34.227 173.357)" opacity="0.1">
              <g id="Grupo_1108979" data-name="Grupo 1108979">
                <g id="Grupo_1108978" data-name="Grupo 1108978" clip-path="url(#clip-path-17)">
                  <path id="Trazado_886005" data-name="Trazado 886005" d="M50.175,227.543l-.032,5.432a18.975,18.975,0,0,1-2.755.186h-.141a19.759,19.759,0,0,1-2.626-.218l.038-5.343a2.124,2.124,0,0,1,.25-.673,1.077,1.077,0,0,1,.314-.3,3.729,3.729,0,0,1,2.043-.615c.711-.064,2.313.218,2.787,1.128a.894.894,0,0,1,.122.4" transform="translate(-44.621 -226.003)" fill="#040506"/>
                </g>
              </g>
            </g>
            <path id="Trazado_886006" data-name="Trazado 886006" d="M55.964,217.648c-.051,3-2.454,4.8-3.874,5.606a14.7,14.7,0,0,1-7.3,1.7,14.845,14.845,0,0,1-7.2-1.869,7.051,7.051,0,0,1-3.443-4.074c-.408-1.447-.238-2.865.695-5.823,1.35-4.334,5.527-13.712,9.059-15.765a2.246,2.246,0,0,1,.965-.328,2.79,2.79,0,0,1,2.1.861,20.74,20.74,0,0,1,4.126,5.771c2.382,4.456,4.921,11.13,4.87,13.925" transform="translate(-7.905 -45.909)" fill="#59a221"/>
            <g id="Grupo_1108983" data-name="Grupo 1108983" transform="translate(36.958 151.173)" opacity="0.1">
              <g id="Grupo_1108982" data-name="Grupo 1108982">
                <g id="Grupo_1108981" data-name="Grupo 1108981" clip-path="url(#clip-path-20)">
                  <path id="Trazado_886007" data-name="Trazado 886007" d="M59.282,217.648c-.051,3-2.454,4.8-3.874,5.606a1.1,1.1,0,0,0,.526-1.059c.025-3.25-4.58-22.146-7.477-24.883a1.266,1.266,0,0,0-.275-.221,2.79,2.79,0,0,1,2.1.861,20.74,20.74,0,0,1,4.126,5.771c2.382,4.456,4.921,11.13,4.87,13.925" transform="translate(-48.182 -197.082)" fill="#040506"/>
                </g>
              </g>
            </g>
            <path id="Trazado_886008" data-name="Trazado 886008" d="M53.752,273.267l-.038,6.65-.006,1.307a1.383,1.383,0,0,1-.84,1.141,4.361,4.361,0,0,1-3.914-.051,1.394,1.394,0,0,1-.781-1.128l.006-1.294v-.006l.013-1.282.038-5.343a2.134,2.134,0,0,1,.249-.673,1.092,1.092,0,0,1,.314-.3,3.741,3.741,0,0,1,2.043-.615c.711-.064,2.313.218,2.787,1.128a.919.919,0,0,1,.122.4.247.247,0,0,1,.006.064" transform="translate(-11.221 -63.282)" fill="#005224"/>
            <g id="Grupo_1108986" data-name="Grupo 1108986" transform="translate(36.97 208.381)" opacity="0.1">
              <g id="Grupo_1108985" data-name="Grupo 1108985">
                <g id="Grupo_1108984" data-name="Grupo 1108984" clip-path="url(#clip-path-15)">
                  <path id="Trazado_886009" data-name="Trazado 886009" d="M53.751,273.2l-.032,5.432a18.97,18.97,0,0,1-2.755.186h-.141A19.883,19.883,0,0,1,48.2,278.6l.038-5.343a2.123,2.123,0,0,1,.25-.673,1.068,1.068,0,0,1,.314-.3,3.729,3.729,0,0,1,2.043-.615c.711-.064,2.313.218,2.787,1.128a.894.894,0,0,1,.122.4" transform="translate(-48.197 -271.662)" fill="#040506"/>
                </g>
              </g>
            </g>
            <path id="Trazado_886010" data-name="Trazado 886010" d="M59.539,263.308c-.051,3-2.454,4.8-3.874,5.606a15.626,15.626,0,0,1-14.5-.173,7.049,7.049,0,0,1-3.443-4.074c-.408-1.447-.238-2.865.695-5.823,1.35-4.334,5.527-13.712,9.059-15.765a2.246,2.246,0,0,1,.965-.328,2.79,2.79,0,0,1,2.1.861,20.752,20.752,0,0,1,4.126,5.771c2.382,4.456,4.921,11.13,4.87,13.925" transform="translate(-8.738 -56.545)" fill="#59a221"/>
            <g id="Grupo_1108989" data-name="Grupo 1108989" transform="translate(39.701 186.197)" opacity="0.1">
              <g id="Grupo_1108988" data-name="Grupo 1108988">
                <g id="Grupo_1108987" data-name="Grupo 1108987" clip-path="url(#clip-path-14)">
                  <path id="Trazado_886011" data-name="Trazado 886011" d="M62.857,263.308c-.051,3-2.454,4.8-3.874,5.606a1.1,1.1,0,0,0,.526-1.059c.025-3.25-4.58-22.146-7.477-24.883a1.266,1.266,0,0,0-.275-.221,2.79,2.79,0,0,1,2.1.861,20.752,20.752,0,0,1,4.126,5.771c2.382,4.456,4.921,11.13,4.87,13.925" transform="translate(-51.757 -242.742)" fill="#040506"/>
                </g>
              </g>
            </g>
            <path id="Trazado_886012" data-name="Trazado 886012" d="M97.478,268.468l-.038,6.65-.006,1.307a1.383,1.383,0,0,1-.84,1.141,4.361,4.361,0,0,1-3.914-.051,1.394,1.394,0,0,1-.781-1.128l.006-1.294v-.006l.013-1.282.038-5.343a2.134,2.134,0,0,1,.249-.673,1.093,1.093,0,0,1,.314-.3,3.742,3.742,0,0,1,2.043-.615c.711-.064,2.313.218,2.787,1.128a.91.91,0,0,1,.122.4.246.246,0,0,1,.006.064" transform="translate(-21.407 -62.164)" fill="#005224"/>
            <g id="Grupo_1108992" data-name="Grupo 1108992" transform="translate(70.51 204.7)" opacity="0.1">
              <g id="Grupo_1108991" data-name="Grupo 1108991">
                <g id="Grupo_1108990" data-name="Grupo 1108990" clip-path="url(#clip-path-17)">
                  <path id="Trazado_886013" data-name="Trazado 886013" d="M97.477,268.4l-.032,5.432a18.97,18.97,0,0,1-2.755.186h-.141a19.76,19.76,0,0,1-2.626-.218l.038-5.343a2.124,2.124,0,0,1,.25-.673,1.078,1.078,0,0,1,.314-.3,3.729,3.729,0,0,1,2.043-.615c.711-.064,2.313.218,2.787,1.128a.894.894,0,0,1,.122.4" transform="translate(-91.923 -266.864)" fill="#040506"/>
                </g>
              </g>
            </g>
            <path id="Trazado_886014" data-name="Trazado 886014" d="M103.265,258.509c-.051,3-2.454,4.8-3.874,5.606a14.7,14.7,0,0,1-7.3,1.7,14.845,14.845,0,0,1-7.2-1.869,7.045,7.045,0,0,1-3.443-4.074c-.409-1.447-.239-2.865.694-5.823,1.35-4.334,5.527-13.712,9.059-15.765a2.246,2.246,0,0,1,.965-.328,2.789,2.789,0,0,1,2.1.861,20.74,20.74,0,0,1,4.126,5.771c2.382,4.456,4.921,11.13,4.87,13.925" transform="translate(-18.924 -55.427)" fill="#59a221"/>
            <g id="Grupo_1108995" data-name="Grupo 1108995" transform="translate(73.242 182.516)" opacity="0.1">
              <g id="Grupo_1108994" data-name="Grupo 1108994">
                <g id="Grupo_1108993" data-name="Grupo 1108993" clip-path="url(#clip-path-14)">
                  <path id="Trazado_886015" data-name="Trazado 886015" d="M106.583,258.509c-.051,3-2.454,4.8-3.874,5.606a1.1,1.1,0,0,0,.526-1.059c.025-3.25-4.58-22.146-7.477-24.883a1.266,1.266,0,0,0-.275-.221,2.789,2.789,0,0,1,2.1.861,20.74,20.74,0,0,1,4.126,5.771c2.382,4.456,4.921,11.13,4.87,13.925" transform="translate(-95.484 -237.943)" fill="#040506"/>
                </g>
              </g>
            </g>
            <path id="Trazado_886016" data-name="Trazado 886016" d="M276.253,93.939l2.859-1.661c.593-.344,1.474.165,1.543.2L277.8,94.143c-.068-.039-.95-.548-1.543-.2" transform="translate(-64.351 -21.468)" fill="#d2d2d2"/>
            <path id="Trazado_886017" data-name="Trazado 886017" d="M278.264,94.241l2.859-1.661L286.3,95.57l-2.859,1.661Z" transform="translate(-64.819 -21.566)" fill="#d2d2d2"/>
            <path id="Trazado_886018" data-name="Trazado 886018" d="M285.572,92.3l2.859-1.661a3.264,3.264,0,0,1,1.663-.365,4.456,4.456,0,0,1,2.239.625c2.652,1.532,3.9,5.153,3.969,5.344l-2.858,1.661c-.066-.191-1.317-3.813-3.97-5.344a4.454,4.454,0,0,0-2.239-.625,3.256,3.256,0,0,0-1.663.365" transform="translate(-66.522 -21.03)" fill="#d2d2d2"/>
            <path id="Trazado_886019" data-name="Trazado 886019" d="M298.286,96.388l2.859-1.661a3.171,3.171,0,0,1,3.354.239l-2.859,1.661a3.172,3.172,0,0,0-3.354-.238" transform="translate(-69.483 -21.979)" fill="#d2d2d2"/>
            <path id="Trazado_886020" data-name="Trazado 886020" d="M309.33,112.177l2.859-1.661,4.144,2.392-2.859,1.661Z" transform="translate(-72.056 -25.744)" fill="#d2d2d2"/>
            <path id="Trazado_886021" data-name="Trazado 886021" d="M319.12,118.6l-2.859,1.661c.305-.177.533-.58.535-1.388a4.255,4.255,0,0,0-2.065-3.577l2.859-1.661a4.255,4.255,0,0,1,2.065,3.577c0,.808-.231,1.211-.535,1.388" transform="translate(-73.314 -26.47)" fill="#d2d2d2"/>
            <path id="Trazado_886022" data-name="Trazado 886022" d="M302.66,96.811l2.859-1.661a9.479,9.479,0,0,1,2.033,1.66c5.172,5.371,3.189,9.889,3.084,10.127l-2.858,1.661c.1-.238,2.088-4.756-3.084-10.127a9.457,9.457,0,0,0-2.033-1.66" transform="translate(-70.502 -22.164)" fill="#d2d2d2"/>
            <path id="Trazado_886023" data-name="Trazado 886023" d="M296.346,96.181a9.457,9.457,0,0,1,2.033,1.66c5.172,5.371,3.189,9.889,3.084,10.127l4.143,2.392a4.256,4.256,0,0,1,2.065,3.577c-.006,2.381-1.974,1.244-2.078,1.184L277.62,98.971a4.256,4.256,0,0,1-2.065-3.577c.007-2.381,1.975-1.244,2.079-1.184l5.179,2.99c-.1-.239-2.062-4.766,2.089-4.755a4.454,4.454,0,0,1,2.239.625c2.653,1.531,3.9,5.153,3.97,5.343.077-.218,1.537-4.368,5.236-2.232" transform="translate(-64.188 -21.534)" fill="#fff"/>
            <path id="Trazado_886024" data-name="Trazado 886024" d="M263.3,47.292l2.135-1.24c.442-.257,1.1.123,1.151.153l-2.134,1.24c-.051-.03-.71-.41-1.152-.153" transform="translate(-61.333 -10.707)" fill="#d2d2d2"/>
            <path id="Trazado_886025" data-name="Trazado 886025" d="M264.8,47.518l2.135-1.24L270.8,48.51l-2.135,1.24Z" transform="translate(-61.683 -10.78)" fill="#d2d2d2"/>
            <path id="Trazado_886026" data-name="Trazado 886026" d="M270.255,46.073l2.134-1.24a2.428,2.428,0,0,1,1.242-.272,3.328,3.328,0,0,1,1.671.466,8.1,8.1,0,0,1,2.964,3.989l-2.135,1.24a8.1,8.1,0,0,0-2.963-3.989A3.329,3.329,0,0,0,271.5,45.8a2.425,2.425,0,0,0-1.241.272" transform="translate(-62.954 -10.38)" fill="#d2d2d2"/>
            <path id="Trazado_886027" data-name="Trazado 886027" d="M279.747,49.12l2.135-1.24a2.368,2.368,0,0,1,2.5.178l-2.135,1.24a2.368,2.368,0,0,0-2.5-.178" transform="translate(-65.165 -11.089)" fill="#d2d2d2"/>
            <path id="Trazado_886028" data-name="Trazado 886028" d="M287.992,60.909l2.135-1.24,3.093,1.786-2.134,1.24Z" transform="translate(-67.086 -13.899)" fill="#d2d2d2"/>
            <path id="Trazado_886029" data-name="Trazado 886029" d="M295.3,65.7l-2.135,1.24c.228-.132.4-.433.4-1.036a3.176,3.176,0,0,0-1.542-2.671L294.159,62a3.176,3.176,0,0,1,1.543,2.671c0,.6-.172.9-.4,1.036" transform="translate(-68.025 -14.441)" fill="#d2d2d2"/>
            <path id="Trazado_886030" data-name="Trazado 886030" d="M283.012,49.436l2.135-1.24a7.071,7.071,0,0,1,1.517,1.24c3.862,4.01,2.38,7.383,2.3,7.56l-2.135,1.24c.078-.177,1.559-3.55-2.3-7.56a7.072,7.072,0,0,0-1.518-1.24" transform="translate(-65.925 -11.227)" fill="#d2d2d2"/>
            <path id="Trazado_886031" data-name="Trazado 886031" d="M278.3,48.966a7.072,7.072,0,0,1,1.518,1.24c3.861,4.01,2.38,7.383,2.3,7.56l3.094,1.786a3.179,3.179,0,0,1,1.542,2.671c0,1.777-1.474.929-1.552.884L264.317,51.048a3.177,3.177,0,0,1-1.541-2.67c0-1.777,1.474-.929,1.551-.884l3.868,2.233c-.077-.178-1.539-3.559,1.559-3.551a3.321,3.321,0,0,1,1.671.467,8.1,8.1,0,0,1,2.964,3.989c.057-.163,1.148-3.262,3.909-1.667" transform="translate(-61.212 -10.756)" fill="#fff"/>
            <path id="Trazado_886032" data-name="Trazado 886032" d="M9.937,148.05l2.859-1.661c.593-.344,1.474.165,1.543.2l-2.859,1.661c-.068-.04-.95-.548-1.543-.2" transform="translate(-2.315 -34.072)" fill="#d2d2d2"/>
            <path id="Trazado_886033" data-name="Trazado 886033" d="M11.948,148.352l2.859-1.661,5.179,2.991-2.859,1.661Z" transform="translate(-2.783 -34.17)" fill="#d2d2d2"/>
            <path id="Trazado_886034" data-name="Trazado 886034" d="M19.255,146.417l2.859-1.661a3.264,3.264,0,0,1,1.663-.365,4.456,4.456,0,0,1,2.239.625c2.652,1.532,3.9,5.153,3.969,5.344l-2.858,1.661c-.066-.191-1.317-3.813-3.97-5.344a4.454,4.454,0,0,0-2.239-.625,3.256,3.256,0,0,0-1.663.365" transform="translate(-4.485 -33.634)" fill="#d2d2d2"/>
            <path id="Trazado_886035" data-name="Trazado 886035" d="M31.97,150.5l2.859-1.661a3.171,3.171,0,0,1,3.354.239l-2.859,1.661a3.172,3.172,0,0,0-3.354-.238" transform="translate(-7.447 -34.584)" fill="#d2d2d2"/>
            <path id="Trazado_886036" data-name="Trazado 886036" d="M43.014,166.288l2.859-1.661,4.144,2.392-2.859,1.661Z" transform="translate(-10.02 -38.348)" fill="#d2d2d2"/>
            <path id="Trazado_886037" data-name="Trazado 886037" d="M52.8,172.711l-2.859,1.661c.305-.177.533-.58.535-1.388a4.255,4.255,0,0,0-2.065-3.577l2.859-1.661a4.255,4.255,0,0,1,2.065,3.577c0,.808-.231,1.211-.535,1.388" transform="translate(-11.278 -39.075)" fill="#d2d2d2"/>
            <path id="Trazado_886038" data-name="Trazado 886038" d="M36.343,150.922l2.859-1.661a9.464,9.464,0,0,1,2.033,1.661c5.172,5.371,3.189,9.888,3.084,10.126l-2.858,1.661c.1-.238,2.089-4.756-3.084-10.127a9.458,9.458,0,0,0-2.033-1.66" transform="translate(-8.466 -34.769)" fill="#d2d2d2"/>
            <path id="Trazado_886039" data-name="Trazado 886039" d="M30.029,150.292a9.457,9.457,0,0,1,2.033,1.66c5.173,5.371,3.189,9.889,3.084,10.127l4.143,2.392a4.256,4.256,0,0,1,2.065,3.577c-.006,2.381-1.974,1.245-2.078,1.184L11.3,153.082a4.255,4.255,0,0,1-2.065-3.577c.007-2.381,1.975-1.244,2.079-1.184l5.179,2.99c-.1-.238-2.062-4.766,2.089-4.755a4.454,4.454,0,0,1,2.239.625c2.652,1.531,3.9,5.153,3.97,5.343.077-.218,1.537-4.368,5.236-2.232" transform="translate(-2.152 -34.139)" fill="#fff"/>
            <path id="Trazado_886040" data-name="Trazado 886040" d="M53.936,98.1l2.859-1.661c.593-.344,1.474.165,1.543.2l-2.859,1.661c-.068-.04-.95-.548-1.543-.2" transform="translate(-12.564 -22.437)" fill="#d2d2d2"/>
            <path id="Trazado_886041" data-name="Trazado 886041" d="M55.948,98.4l2.859-1.661,5.179,2.991-2.859,1.661Z" transform="translate(-13.033 -22.535)" fill="#d2d2d2"/>
            <path id="Trazado_886042" data-name="Trazado 886042" d="M63.255,96.468l2.859-1.661a3.264,3.264,0,0,1,1.663-.365,4.456,4.456,0,0,1,2.239.625c2.652,1.532,3.9,5.153,3.969,5.344l-2.858,1.661c-.066-.191-1.317-3.813-3.97-5.344a4.454,4.454,0,0,0-2.239-.625,3.256,3.256,0,0,0-1.663.365" transform="translate(-14.735 -21.999)" fill="#d2d2d2"/>
            <path id="Trazado_886043" data-name="Trazado 886043" d="M75.969,100.55l2.859-1.661a3.171,3.171,0,0,1,3.354.239l-2.859,1.661a3.172,3.172,0,0,0-3.354-.238" transform="translate(-17.696 -22.949)" fill="#d2d2d2"/>
            <path id="Trazado_886044" data-name="Trazado 886044" d="M87.013,116.339l2.859-1.661,4.144,2.392-2.859,1.661Z" transform="translate(-20.269 -26.713)" fill="#d2d2d2"/>
            <path id="Trazado_886045" data-name="Trazado 886045" d="M96.8,122.761l-2.859,1.661c.305-.177.534-.58.535-1.388a4.255,4.255,0,0,0-2.065-3.577l2.859-1.661a4.255,4.255,0,0,1,2.065,3.577c0,.808-.231,1.211-.535,1.388" transform="translate(-21.527 -27.44)" fill="#d2d2d2"/>
            <path id="Trazado_886046" data-name="Trazado 886046" d="M80.343,100.973,83.2,99.312a9.464,9.464,0,0,1,2.033,1.661c5.172,5.371,3.189,9.888,3.084,10.126L85.46,112.76c.1-.238,2.089-4.756-3.084-10.127a9.457,9.457,0,0,0-2.033-1.66" transform="translate(-18.715 -23.134)" fill="#d2d2d2"/>
            <path id="Trazado_886047" data-name="Trazado 886047" d="M74.029,100.343A9.457,9.457,0,0,1,76.062,102c5.173,5.371,3.189,9.889,3.084,10.127l4.143,2.392a4.256,4.256,0,0,1,2.065,3.577c-.006,2.381-1.974,1.245-2.078,1.184L55.3,103.133a4.255,4.255,0,0,1-2.065-3.577c.007-2.38,1.975-1.244,2.079-1.184l5.179,2.99c-.1-.238-2.062-4.766,2.089-4.755a4.454,4.454,0,0,1,2.239.625c2.652,1.531,3.9,5.153,3.97,5.343.077-.218,1.537-4.368,5.236-2.232" transform="translate(-12.401 -22.504)" fill="#fff"/>
            <path id="Trazado_886048" data-name="Trazado 886048" d="M172.48,75.887l3.757-2.184c.779-.453,1.938.216,2.028.268l-3.757,2.183c-.09-.051-1.249-.72-2.028-.268" transform="translate(-40.178 -17.132)" fill="#d2d2d2"/>
            <path id="Trazado_886049" data-name="Trazado 886049" d="M175.124,76.285l3.757-2.184,6.808,3.93-3.757,2.184Z" transform="translate(-40.794 -17.261)" fill="#d2d2d2"/>
            <path id="Trazado_886050" data-name="Trazado 886050" d="M184.729,73.74l3.757-2.184a4.278,4.278,0,0,1,2.185-.479,5.859,5.859,0,0,1,2.944.822c3.486,2.013,5.13,6.773,5.217,7.024l-3.758,2.183c-.087-.25-1.73-5.01-5.217-7.023a5.856,5.856,0,0,0-2.943-.822,4.286,4.286,0,0,0-2.185.48" transform="translate(-43.031 -16.557)" fill="#d2d2d2"/>
            <path id="Trazado_886051" data-name="Trazado 886051" d="M201.44,79.107l3.757-2.184c1.068-.62,2.515-.78,4.41.313l-3.758,2.184c-1.894-1.094-3.342-.934-4.409-.313" transform="translate(-46.924 -17.805)" fill="#d2d2d2"/>
            <path id="Trazado_886052" data-name="Trazado 886052" d="M215.956,99.859l3.757-2.184,5.446,3.145L221.4,103Z" transform="translate(-50.305 -22.753)" fill="#d2d2d2"/>
            <path id="Trazado_886053" data-name="Trazado 886053" d="M228.823,108.3l-3.757,2.184c.4-.233.7-.762.7-1.826a5.592,5.592,0,0,0-2.714-4.7l3.757-2.184a5.6,5.6,0,0,1,2.715,4.7c0,1.062-.3,1.592-.7,1.825" transform="translate(-51.959 -23.707)" fill="#d2d2d2"/>
            <path id="Trazado_886054" data-name="Trazado 886054" d="M207.188,79.663l3.757-2.184a12.449,12.449,0,0,1,2.672,2.182c6.8,7.059,4.191,13,4.054,13.309l-3.758,2.184c.137-.312,2.745-6.25-4.053-13.309a12.425,12.425,0,0,0-2.672-2.182" transform="translate(-48.263 -18.048)" fill="#d2d2d2"/>
            <path id="Trazado_886055" data-name="Trazado 886055" d="M198.889,78.835a12.425,12.425,0,0,1,2.672,2.182c6.8,7.059,4.19,13,4.053,13.309l5.446,3.144a5.6,5.6,0,0,1,2.715,4.7c-.009,3.129-2.6,1.635-2.732,1.556L174.277,82.5a5.592,5.592,0,0,1-2.715-4.7c.009-3.13,2.6-1.635,2.732-1.557l6.808,3.93c-.136-.314-2.71-6.265,2.745-6.25a5.856,5.856,0,0,1,2.943.822c3.486,2.013,5.13,6.773,5.217,7.023.1-.287,2.02-5.741,6.882-2.934" transform="translate(-39.964 -17.22)" fill="#fff"/>
            <path id="Trazado_886056" data-name="Trazado 886056" d="M66.55,21.757l3.757-2.184c.779-.453,1.938.216,2.028.268l-3.757,2.183c-.091-.051-1.249-.72-2.028-.268" transform="translate(-15.502 -4.523)" fill="#d2d2d2"/>
            <path id="Trazado_886057" data-name="Trazado 886057" d="M69.193,22.154l3.757-2.184,6.808,3.93L76,26.085Z" transform="translate(-16.118 -4.652)" fill="#d2d2d2"/>
            <path id="Trazado_886058" data-name="Trazado 886058" d="M78.8,19.61l3.757-2.184a4.279,4.279,0,0,1,2.185-.479,5.859,5.859,0,0,1,2.944.822c3.486,2.013,5.13,6.773,5.217,7.024l-3.758,2.183c-.087-.25-1.73-5.01-5.217-7.023a5.856,5.856,0,0,0-2.943-.822,4.286,4.286,0,0,0-2.185.48" transform="translate(-18.355 -3.948)" fill="#d2d2d2"/>
            <path id="Trazado_886059" data-name="Trazado 886059" d="M95.509,24.977l3.757-2.184c1.068-.62,2.515-.781,4.41.313L99.918,25.29c-1.894-1.094-3.341-.934-4.409-.313" transform="translate(-22.248 -5.196)" fill="#d2d2d2"/>
            <path id="Trazado_886060" data-name="Trazado 886060" d="M110.025,45.729l3.757-2.184,5.446,3.144-3.757,2.184Z" transform="translate(-25.629 -10.143)" fill="#d2d2d2"/>
            <path id="Trazado_886061" data-name="Trazado 886061" d="M122.893,54.17l-3.757,2.184c.4-.233.7-.762.7-1.826a5.592,5.592,0,0,0-2.714-4.7l3.757-2.184a5.6,5.6,0,0,1,2.715,4.7c0,1.062-.3,1.592-.7,1.825" transform="translate(-27.283 -11.098)" fill="#d2d2d2"/>
            <path id="Trazado_886062" data-name="Trazado 886062" d="M101.258,25.533l3.757-2.184a12.425,12.425,0,0,1,2.672,2.182c6.8,7.059,4.191,13,4.054,13.309l-3.758,2.184c.137-.312,2.745-6.25-4.053-13.309a12.462,12.462,0,0,0-2.672-2.182" transform="translate(-23.587 -5.439)" fill="#d2d2d2"/>
            <path id="Trazado_886063" data-name="Trazado 886063" d="M92.959,24.7a12.462,12.462,0,0,1,2.672,2.182c6.8,7.059,4.19,13,4.053,13.309l5.446,3.144a5.594,5.594,0,0,1,2.715,4.7c-.009,3.129-2.6,1.635-2.732,1.556L68.347,28.371a5.592,5.592,0,0,1-2.715-4.7c.009-3.129,2.6-1.635,2.732-1.556l6.808,3.93c-.136-.314-2.71-6.265,2.745-6.25a5.858,5.858,0,0,1,2.943.822c3.486,2.013,5.13,6.773,5.217,7.023.1-.287,2.02-5.741,6.882-2.934" transform="translate(-15.288 -4.611)" fill="#fff"/>
            <path id="Trazado_886064" data-name="Trazado 886064" d="M287.712,243.062l3.757-2.184c.779-.453,1.938.216,2.028.268l-3.757,2.183c-.091-.051-1.249-.72-2.028-.268" transform="translate(-67.02 -56.074)" fill="#d2d2d2"/>
            <path id="Trazado_886065" data-name="Trazado 886065" d="M290.356,243.459l3.757-2.184,6.808,3.93-3.757,2.184Z" transform="translate(-67.636 -56.203)" fill="#d2d2d2"/>
            <path id="Trazado_886066" data-name="Trazado 886066" d="M299.961,240.914l3.757-2.184a4.278,4.278,0,0,1,2.185-.479,5.858,5.858,0,0,1,2.944.822c3.486,2.013,5.13,6.773,5.217,7.023l-3.758,2.184c-.087-.25-1.73-5.011-5.217-7.023a5.857,5.857,0,0,0-2.943-.822,4.286,4.286,0,0,0-2.185.48" transform="translate(-69.873 -55.499)" fill="#d2d2d2"/>
            <path id="Trazado_886067" data-name="Trazado 886067" d="M316.672,246.281l3.757-2.184c1.068-.62,2.515-.781,4.41.313l-3.758,2.184c-1.894-1.094-3.341-.934-4.409-.313" transform="translate(-73.766 -56.747)" fill="#d2d2d2"/>
            <path id="Trazado_886068" data-name="Trazado 886068" d="M331.188,267.033l3.757-2.184,5.446,3.144-3.757,2.184Z" transform="translate(-77.147 -61.694)" fill="#d2d2d2"/>
            <path id="Trazado_886069" data-name="Trazado 886069" d="M344.055,275.474l-3.757,2.184c.4-.233.7-.762.7-1.826a5.59,5.59,0,0,0-2.714-4.7l3.757-2.184a5.6,5.6,0,0,1,2.715,4.7c0,1.062-.3,1.592-.7,1.825" transform="translate(-78.801 -62.649)" fill="#d2d2d2"/>
            <path id="Trazado_886070" data-name="Trazado 886070" d="M322.42,246.837l3.757-2.184a12.425,12.425,0,0,1,2.672,2.182c6.8,7.059,4.191,13,4.054,13.309l-3.758,2.184c.137-.312,2.745-6.25-4.053-13.309a12.443,12.443,0,0,0-2.672-2.182" transform="translate(-75.105 -56.99)" fill="#d2d2d2"/>
            <path id="Trazado_886071" data-name="Trazado 886071" d="M314.121,246.008a12.444,12.444,0,0,1,2.672,2.182c6.8,7.059,4.19,13,4.053,13.309l5.446,3.144a5.594,5.594,0,0,1,2.715,4.7c-.009,3.129-2.6,1.635-2.732,1.556l-36.766-21.227a5.592,5.592,0,0,1-2.715-4.7c.009-3.129,2.6-1.635,2.732-1.556l6.808,3.93c-.136-.314-2.71-6.265,2.745-6.251a5.859,5.859,0,0,1,2.943.822c3.486,2.013,5.13,6.773,5.217,7.023.1-.287,2.02-5.741,6.882-2.934" transform="translate(-66.806 -56.162)" fill="#fff"/>
            <path id="Trazado_886072" data-name="Trazado 886072" d="M324.515,160.584l3.757-2.184c.779-.453,1.938.216,2.028.268l-3.757,2.184c-.09-.052-1.249-.721-2.028-.268" transform="translate(-75.593 -36.862)" fill="#d2d2d2"/>
            <path id="Trazado_886073" data-name="Trazado 886073" d="M327.159,160.981l3.757-2.184,6.808,3.93-3.757,2.184Z" transform="translate(-76.209 -36.991)" fill="#d2d2d2"/>
            <path id="Trazado_886074" data-name="Trazado 886074" d="M336.763,158.437l3.757-2.184a4.279,4.279,0,0,1,2.185-.479,5.858,5.858,0,0,1,2.944.822c3.486,2.013,5.13,6.773,5.217,7.023l-3.758,2.184c-.087-.251-1.731-5.011-5.217-7.023a5.856,5.856,0,0,0-2.943-.822,4.286,4.286,0,0,0-2.185.48" transform="translate(-78.446 -36.286)" fill="#d2d2d2"/>
            <path id="Trazado_886075" data-name="Trazado 886075" d="M353.474,163.8l3.757-2.184c1.068-.62,2.515-.781,4.41.313l-3.758,2.184c-1.894-1.094-3.341-.934-4.409-.313" transform="translate(-82.339 -37.535)" fill="#d2d2d2"/>
            <path id="Trazado_886076" data-name="Trazado 886076" d="M367.99,184.555l3.757-2.184,5.446,3.145-3.757,2.183Z" transform="translate(-85.72 -42.482)" fill="#d2d2d2"/>
            <path id="Trazado_886077" data-name="Trazado 886077" d="M380.858,193l-3.757,2.184c.4-.233.7-.762.7-1.825a5.592,5.592,0,0,0-2.714-4.7l3.757-2.184a5.6,5.6,0,0,1,2.715,4.7c0,1.062-.3,1.592-.7,1.825" transform="translate(-87.374 -43.437)" fill="#d2d2d2"/>
            <path id="Trazado_886078" data-name="Trazado 886078" d="M359.223,164.36l3.757-2.184a12.469,12.469,0,0,1,2.672,2.182c6.8,7.059,4.19,13,4.053,13.309l-3.757,2.184c.137-.312,2.745-6.25-4.054-13.309a12.425,12.425,0,0,0-2.672-2.182" transform="translate(-83.678 -37.778)" fill="#d2d2d2"/>
            <path id="Trazado_886079" data-name="Trazado 886079" d="M350.924,163.532a12.424,12.424,0,0,1,2.672,2.182c6.8,7.059,4.19,13,4.054,13.309l5.445,3.144a5.6,5.6,0,0,1,2.715,4.7c-.009,3.129-2.6,1.635-2.732,1.556L326.312,167.2a5.59,5.59,0,0,1-2.714-4.7c.008-3.13,2.6-1.635,2.732-1.557l6.808,3.93c-.136-.314-2.71-6.265,2.745-6.25a5.856,5.856,0,0,1,2.943.822c3.485,2.013,5.13,6.773,5.217,7.023.1-.287,2.02-5.741,6.882-2.934" transform="translate(-75.38 -36.949)" fill="#fff"/>
          </g>
        </g>
      </g>
    </g>
  </g>
</svg>
