<svg xmlns="http://www.w3.org/2000/svg" xmlns:xlink="http://www.w3.org/1999/xlink" width="98" height="98" viewBox="0 0 98 98">
  <defs>
    <clipPath id="clip-path">
      <rect id="Rect치ngulo_406633" data-name="Rect치ngulo 406633" width="56.673" height="64.77" fill="none"/>
    </clipPath>
  </defs>
  <g id="Grupo_1110708" data-name="Grupo 1110708" transform="translate(-908.711 -16881)">
    <g id="Grupo_1102512" data-name="Grupo 1102512" transform="translate(256.939 9888)">
      <g id="Rect치ngulo_403454" data-name="Rect치ngulo 403454" transform="translate(651.771 6993)" fill="#fff" stroke="#fbf35d" stroke-width="2" stroke-dasharray="6">
        <rect width="98" height="98" rx="18" stroke="none"/>
        <rect x="1" y="1" width="96" height="96" rx="17" fill="none"/>
      </g>
    </g>
    <g id="Grupo_1109023" data-name="Grupo 1109023" transform="translate(931.037 16897.615)">
      <g id="Grupo_1109022" data-name="Grupo 1109022" transform="translate(0 0)" clip-path="url(#clip-path)">
        <path id="Trazado_886115" data-name="Trazado 886115" d="M55.731,43.586V57.35a6.476,6.476,0,0,1-6.477,6.477H7.693A6.478,6.478,0,0,1,1.216,57.35V4.455A3.24,3.24,0,0,1,4.455,1.216H39.538a3.24,3.24,0,0,1,3.239,3.239V9.366c-.057.016-.114.1-.173.241.059.015.116.029.173.046V40.348h9.715a3.24,3.24,0,0,1,3.239,3.239" transform="translate(-0.137 -0.137)" fill="#ceeaf5"/>
        <path id="Trazado_886116" data-name="Trazado 886116" d="M42.777,4.455a3.686,3.686,0,0,1-3.343,3.667A34.818,34.818,0,0,0,7.963,42.777V57.408c0,4.4-6.747,4.624-6.747-.058V4.455A3.239,3.239,0,0,1,4.455,1.216H39.538a3.239,3.239,0,0,1,3.239,3.239" transform="translate(-0.137 -0.137)" fill="#e3f3f9"/>
        <path id="Trazado_886117" data-name="Trazado 886117" d="M61,48.544V62.307a6.477,6.477,0,1,1-12.954,0v-17h9.715A3.24,3.24,0,0,1,61,48.544" transform="translate(-5.402 -5.094)" fill="#b4e0f1"/>
        <path id="Trazado_886118" data-name="Trazado 886118" d="M55.518,23.275A13.091,13.091,0,1,1,42.429,10.186,13.089,13.089,0,0,1,55.518,23.275" transform="translate(-3.297 -1.145)" fill="#ffe64b"/>
        <path id="Trazado_886119" data-name="Trazado 886119" d="M48.385,11.6a2.112,2.112,0,0,1-.888,3.99A13.082,13.082,0,0,0,34.744,28.294a2.112,2.112,0,0,1-3.983.916A13.1,13.1,0,0,1,48.385,11.6" transform="translate(-3.299 -1.146)" fill="#ffe779"/>
        <path id="Trazado_886120" data-name="Trazado 886120" d="M24.964,22.13A14.168,14.168,0,1,0,39.132,7.961,14.184,14.184,0,0,0,24.964,22.13m26.178,0a12.01,12.01,0,1,1-12.01-12.01,12.023,12.023,0,0,1,12.01,12.01m-12.01-7.287a1.08,1.08,0,0,1,1.079,1.08v.455a3.243,3.243,0,0,1,2.159,3.052,1.08,1.08,0,1,1-2.159,0,1.079,1.079,0,1,0-2.159,0v.437a1.075,1.075,0,0,0,.757,1.03l1.288.4a3.224,3.224,0,0,1,2.273,3.09v.438A3.243,3.243,0,0,1,39.806,28v.341a1.079,1.079,0,1,1-2.159,0v-.631a3.241,3.241,0,0,1-1.755-2.877,1.08,1.08,0,1,1,2.159,0,1.079,1.079,0,0,0,2.159,0v-.438a1.074,1.074,0,0,0-.757-1.03l-1.288-.4a3.225,3.225,0,0,1-2.273-3.091v-.437a3.243,3.243,0,0,1,2.159-3.052v-.455a1.08,1.08,0,0,1,1.079-1.08M56.673,43.45V57.213a7.565,7.565,0,0,1-7.557,7.557H7.557A7.565,7.565,0,0,1,0,57.213V4.318A4.322,4.322,0,0,1,4.318,0H39.4A4.322,4.322,0,0,1,43.72,4.318a1.079,1.079,0,1,1-2.159,0A2.163,2.163,0,0,0,39.4,2.159H4.318A2.162,2.162,0,0,0,2.159,4.318v52.9a5.4,5.4,0,0,0,5.4,5.4H43.836a7.531,7.531,0,0,1-2.275-5.4V40.346a1.079,1.079,0,1,1,2.159,0V57.213a5.4,5.4,0,0,0,10.8,0V43.45a2.163,2.163,0,0,0-2.159-2.159H47.768a1.079,1.079,0,0,1,0-2.159h4.588a4.322,4.322,0,0,1,4.318,4.318M9.445,29.012a1.08,1.08,0,0,1,1.08-1.08H19.7a1.08,1.08,0,0,1,0,2.159H10.526a1.08,1.08,0,0,1-1.08-1.079m0-12.145a1.08,1.08,0,0,1,1.08-1.079H19.7a1.079,1.079,0,1,1,0,2.159H10.526a1.08,1.08,0,0,1-1.08-1.079M34.274,41.155a1.08,1.08,0,0,1-1.079,1.08H10.526a1.08,1.08,0,1,1,0-2.159H33.195a1.08,1.08,0,0,1,1.079,1.079m0,11.335a1.079,1.079,0,0,1-1.079,1.079H10.526a1.079,1.079,0,1,1,0-2.159H33.195a1.079,1.079,0,0,1,1.079,1.079" transform="translate(0 0)" fill="#0c1d2f"/>
      </g>
    </g>
  </g>
</svg>
