<svg xmlns="http://www.w3.org/2000/svg" xmlns:xlink="http://www.w3.org/1999/xlink" width="98" height="98" viewBox="0 0 98 98">
  <defs>
    <clipPath id="clip-path">
      <rect id="Rectángulo_406636" data-name="Rectángulo 406636" width="68.901" height="68.892" fill="none"/>
    </clipPath>
  </defs>
  <g id="Grupo_1110709" data-name="Grupo 1110709" transform="translate(-1221.711 -16881)">
    <g id="Grupo_1102513" data-name="Grupo 1102513" transform="translate(569.939 9888)">
      <g id="Rectángulo_403454" data-name="Rectángulo 403454" transform="translate(651.771 6993)" fill="#fff" stroke="#fbf35d" stroke-width="2" stroke-dasharray="6">
        <rect width="98" height="98" rx="18" stroke="none"/>
        <rect x="1" y="1" width="96" height="96" rx="17" fill="none"/>
      </g>
    </g>
    <g id="Grupo_1109025" data-name="Grupo 1109025" transform="translate(1235.711 16895.973)">
      <g id="Grupo_1109024" data-name="Grupo 1109024" clip-path="url(#clip-path)">
        <path id="Trazado_886121" data-name="Trazado 886121" d="M52.555,22.439H56.66A1.544,1.544,0,0,1,58.2,23.978v9.237H51.016V23.978A1.544,1.544,0,0,1,52.555,22.439Z" transform="translate(-20.149 -8.863)" fill="#a6bd14" fill-rule="evenodd"/>
        <path id="Trazado_886122" data-name="Trazado 886122" d="M38.684,31.627H59.692a1.394,1.394,0,0,1,1.39,1.39V66.451a1.394,1.394,0,0,1-1.39,1.39H38.684a1.394,1.394,0,0,1-1.39-1.39V33.017a1.394,1.394,0,0,1,1.39-1.39" transform="translate(-14.73 -12.491)" fill="#b4dde7" fill-rule="evenodd"/>
        <rect id="Rectángulo_406634" data-name="Rectángulo 406634" width="14.107" height="19.035" rx="1.594" transform="translate(27.405 30.639)" fill="#2b4290"/>
        <path id="Trazado_886123" data-name="Trazado 886123" d="M46.258,50.64H58.437a.967.967,0,0,1,.964.964v4.947H45.294V51.6A.967.967,0,0,1,46.258,50.64Z" transform="translate(-17.889 -20.001)" fill="#ffe64b" fill-rule="evenodd"/>
        <rect id="Rectángulo_406635" data-name="Rectángulo 406635" width="14.107" height="6.778" transform="translate(27.405 36.551)" fill="#14a8be"/>
        <path id="Trazado_886124" data-name="Trazado 886124" d="M68.537,51.512a1.128,1.128,0,0,1-.754,1.41L62.04,54.684a1.128,1.128,0,0,1-1.417-.759L58.87,48.186a1.134,1.134,0,1,1,2.17-.66l1.043,3.415a32.169,32.169,0,0,0-1.3-34.988,1.134,1.134,0,1,1,1.856-1.3A34.424,34.424,0,0,1,64.318,51.61l2.8-.856A1.137,1.137,0,0,1,68.537,51.512ZM53.817,8.3,47.925,9.464a1.134,1.134,0,0,1-.44-2.225l3.127-.62A32.182,32.182,0,0,0,2.4,37.3a1.134,1.134,0,0,1-2.26.2A34.449,34.449,0,0,1,51.965,4.785L51.32,1.516a1.135,1.135,0,1,1,2.227-.44l1.165,5.9A1.124,1.124,0,0,1,53.817,8.3Zm.707,52.76a1.137,1.137,0,0,1-.275,1.581,34.466,34.466,0,0,1-49.827-11.3L3.293,54.52a1.134,1.134,0,1,1-2.138-.758L3.16,48.1h0a1.142,1.142,0,0,1,1.447-.693l5.66,2.006a1.133,1.133,0,1,1-.756,2.136L6.562,50.509A32.31,32.31,0,0,0,34.447,66.626a31.978,31.978,0,0,0,18.5-5.845A1.135,1.135,0,0,1,54.524,61.058ZM40.366,31.76H28.527v4.076H40.366ZM28.528,42.178H40.367V38.1H28.528Zm0,6.343H40.367V44.444H28.528Zm-.169,2.274H40.536a2.1,2.1,0,0,0,2.1-2.1v-17.1a2.1,2.1,0,0,0-2.1-2.1H28.359a2.1,2.1,0,0,0-2.1,2.1v17.1a2.1,2.1,0,0,0,2.1,2.1M45.207,20.51a.257.257,0,0,0-.256-.253H23.943a.257.257,0,0,0-.256.253V53.941a.264.264,0,0,0,.256.261H44.951a.264.264,0,0,0,.256-.261V20.51ZM31.99,15.1v2.886h4.917V15.1a.406.406,0,0,0-.405-.4H32.394A.406.406,0,0,0,31.99,15.1ZM36.5,12.423H32.4A2.676,2.676,0,0,0,29.722,15.1v2.886H23.944A2.527,2.527,0,0,0,21.42,20.51V53.941a2.528,2.528,0,0,0,2.524,2.527H44.951a2.528,2.528,0,0,0,2.524-2.527V20.51a2.528,2.528,0,0,0-2.524-2.527H39.174V15.1A2.677,2.677,0,0,0,36.5,12.423" transform="translate(0)" fill="#0c1d30" fill-rule="evenodd"/>
      </g>
    </g>
  </g>
</svg>
