<svg xmlns="http://www.w3.org/2000/svg" xmlns:xlink="http://www.w3.org/1999/xlink" width="107" height="107" viewBox="0 0 107 107">
  <defs>
    <clipPath id="clip-path">
      <rect id="Rectángulo_406572" data-name="Rectángulo 406572" width="62.931" height="72.01" fill="#fff"/>
    </clipPath>
  </defs>
  <g id="Grupo_1110698" data-name="Grupo 1110698" transform="translate(-1166.5 -1012)">
    <g id="Grupo_156312" data-name="Grupo 156312" transform="translate(877.832 -3436.437)">
      <path id="Elipse_5845" data-name="Elipse 5845" d="M53.5,0A53.5,53.5,0,1,1,0,53.5,53.5,53.5,0,0,1,53.5,0Z" transform="translate(288.668 4448.437)" fill="#505ea3"/>
    </g>
    <g id="Grupo_1108891" data-name="Grupo 1108891" transform="translate(1187.503 1028.99)">
      <g id="Grupo_1108890" data-name="Grupo 1108890" transform="translate(0 0)" clip-path="url(#clip-path)">
        <path id="Trazado_885759" data-name="Trazado 885759" d="M36.322,6.98H33.264l-3.931,7.058,4.106.489a1.041,1.041,0,0,1,.769,1.573l-1.45,2.743,5.416-5.364-3.983-.926a1.045,1.045,0,0,1-.577-1.677Zm-3.669-2.1,5.626.017a1.043,1.043,0,0,1,.891,1.642l-2.988,4.315,4.333,1.013a1.056,1.056,0,0,1,.506,1.765L29.473,25.081a1.051,1.051,0,0,1-1.695-1.206l3.932-7.46-4.141-.489a1.037,1.037,0,0,1-.786-1.537l4.979-8.963A.959.959,0,0,1,32.653,4.884ZM54.6,48.65h5a3.348,3.348,0,0,1,3.337,3.337V68.672a3.348,3.348,0,0,1-3.337,3.337h-5a3.333,3.333,0,0,1-3.232-2.551c-3.861.1-7.145.279-9.977.454-16.511.909-17.891,1-39.748-18.52C-1.644,48.458.4,44.964,4.278,44.666V36.629a3.549,3.549,0,0,1,3.547-3.546H12a20.8,20.8,0,0,0-3.966-14.8A5.881,5.881,0,0,1,2.2,13.742a5.747,5.747,0,0,1,.035-2.779,1.039,1.039,0,0,1,.908-.838,5.872,5.872,0,0,1,6.5,6.8,22.906,22.906,0,0,1,4.473,16.144h4.8a3.549,3.549,0,0,1,3.547,3.547V45.8a3.55,3.55,0,0,1-3.547,3.547H15.373l5.678,3.057a3.548,3.548,0,0,0,1.9.647l2.866.087a4.91,4.91,0,0,1,4.158-7.181L33,45.732a14.313,14.313,0,0,1-1.94-15.76,14.983,14.983,0,0,1-6.6-3.11,7.82,7.82,0,0,1-8.089,4.979,1.018,1.018,0,0,1-.943-.769,7.857,7.857,0,0,1,4.892-9.5,15.131,15.131,0,1,1,26.941.874,14.362,14.362,0,0,1,1.887,27.326l1.887,1.922h.3A3.243,3.243,0,0,1,54.6,48.65Zm-3.337,18.7V53.786c-.664,0-1.1.088-1.52-.367-.315-.314-.577-.594-.839-.874l-2.5-2.5a8.31,8.31,0,0,0-3.512-2.2c-2.428-.682-6.919-.227-12.771.21a2.824,2.824,0,0,0-2.534,3.983,2.307,2.307,0,0,0,1.66,1.223l8.6.3a1.052,1.052,0,0,1,1.013,1.084,1.042,1.042,0,0,1-1.083,1.013c-2.674-.07-5.329-.157-8-.228a5.523,5.523,0,0,1-.786-.069l-5.923-.21a5.1,5.1,0,0,1-3.022-.891c.052.035.1.052-.245-.123L7.318,47.392a4.99,4.99,0,0,0-4.071-.4c-1.468.594-1.52,1.659-.227,2.812,21.21,18.94,22.538,18.869,38.245,18,2.8-.157,6.045-.332,9.994-.454m8.334-16.6h-5a1.245,1.245,0,0,0-1.24,1.24V68.672a1.245,1.245,0,0,0,1.24,1.24h5a1.245,1.245,0,0,0,1.24-1.24V51.987a1.245,1.245,0,0,0-1.24-1.24M6.357,44.806a8.124,8.124,0,0,1,1.957.734l3.144,1.712h7.426a1.447,1.447,0,0,0,1.45-1.45v-9.19a1.458,1.458,0,0,0-1.45-1.45H7.791a1.458,1.458,0,0,0-1.45,1.45v8.194Zm29.335.751c3.669-.244,5.905-.244,7.74.28A9.529,9.529,0,0,1,47.4,48.143a12.245,12.245,0,1,0-11.706-2.586ZM7.615,16.17a3.782,3.782,0,0,0-3.477-3.983A3.771,3.771,0,0,0,7.615,16.17m3.512,12.091a6.426,6.426,0,0,1-10.4-2.289,1.037,1.037,0,0,1,.245-1.135,6.426,6.426,0,0,1,10.4,2.288A1.053,1.053,0,0,1,11.127,28.261ZM7.86,27.771a4.647,4.647,0,0,0,1.24-.559,4.344,4.344,0,0,0-6.08-1.345,4.3,4.3,0,0,0,4.839,1.9M17.242,29.8A5.748,5.748,0,0,0,22.8,23.211,5.756,5.756,0,0,0,17.242,29.8m5.136-8.648a8.414,8.414,0,0,1,1.328.017,1.019,1.019,0,0,1,.943.769,7.8,7.8,0,0,1,.279,2.621,12.916,12.916,0,0,0,7.251,3.512,14.338,14.338,0,0,1,12.807-5.958,13.035,13.035,0,1,0-22.609-.961Zm-7.967-1.363a3.767,3.767,0,0,0,1.153-5.154,3.77,3.77,0,0,0-1.153,5.154m2.393.647A5.785,5.785,0,0,1,14.5,22.075a1,1,0,0,1-1.135-.262,5.878,5.878,0,0,1,2.114-9.487,1.037,1.037,0,0,1,1.153.262A5.879,5.879,0,0,1,16.805,20.434Zm26,9.12V28.488a1.048,1.048,0,1,1,2.1,0v1.066a4.027,4.027,0,0,1,2.971,3.878,1.049,1.049,0,1,1-2.1,0,1.925,1.925,0,0,0-3.284-1.362,1.9,1.9,0,0,0-.56,1.362c0,1.433,1.084,1.695,2.167,1.94,1.887.455,3.774.908,3.774,3.983A4.027,4.027,0,0,1,44.9,43.234V44.3a1.048,1.048,0,0,1-2.1,0V43.234a4.026,4.026,0,0,1-2.97-3.879,1.048,1.048,0,1,1,2.1,0,1.927,1.927,0,0,0,3.285,1.363,1.9,1.9,0,0,0,.559-1.363c0-1.432-1.083-1.694-2.167-1.957-1.886-.455-3.773-.908-3.773-3.983A4.021,4.021,0,0,1,42.8,29.553Z" transform="translate(0 0)" fill="#fff"/>
      </g>
    </g>
  </g>
</svg>
