<svg xmlns="http://www.w3.org/2000/svg" xmlns:xlink="http://www.w3.org/1999/xlink" width="58.764" height="79.369" viewBox="0 0 58.764 79.369">
  <defs>
    <clipPath id="clip-path">
      <rect id="Rectángulo_404282" data-name="Rectángulo 404282" width="79.369" height="58.764" fill="#505ea3"/>
    </clipPath>
  </defs>
  <g id="Grupo_1110698" data-name="Grupo 1110698" transform="translate(-717.934 -2912)">
    <g id="Grupo_1107149" data-name="Grupo 1107149" transform="translate(717.934 2991.369) rotate(-90)">
      <g id="Grupo_1104113" data-name="Grupo 1104113" transform="translate(0 0)" clip-path="url(#clip-path)">
        <path id="Trazado_881800" data-name="Trazado 881800" d="M34.524,45.738c2.792.156,1.784,5.349-1.708,6.249s-5.5-6.657,1.708-6.249" transform="translate(10.631 6.703)" fill="#505ea3"/>
        <path id="Trazado_881801" data-name="Trazado 881801" d="M55.812,40.378c2.813,1.543.553,7.983-4.16,6.58s-3.141-10.575,4.16-6.58" transform="translate(-31.511 5.773)" fill="#505ea3"/>
        <path id="Trazado_881802" data-name="Trazado 881802" d="M12.511,25.109c2.189,3.479.158,6.071-3.573,8.424S2.779,28.5,5.056,25.6s6.229-2.43,7.455-.487" transform="translate(61.368 3.45)" fill="#505ea3"/>
        <path id="Trazado_881803" data-name="Trazado 881803" d="M9.765,8.837C7.086,10.3.287,11.522.006,6.045S10.19-1.73,12.572,1.439s-.593,6.193-2.806,7.4" transform="translate(65.919 0)" fill="#505ea3"/>
        <path id="Trazado_881804" data-name="Trazado 881804" d="M72.122,2.135c2.542,4.037.184,7.047-4.145,9.777S60.828,6.068,63.469,2.7,70.7-.12,72.122,2.135" transform="translate(-62.446 0.045)" fill="#505ea3"/>
        <path id="Trazado_881805" data-name="Trazado 881805" d="M32.8.748c3.4-.69,7.641,3.737,7.446,7.832s-12.1,7.907-14.519,3.161S26.628,2,32.8.748" transform="translate(11.712 0.099)" fill="#505ea3"/>
        <path id="Trazado_881806" data-name="Trazado 881806" d="M58.53,23.589c3.407.19,2.18,6.532-2.083,7.631s-6.713-8.127,2.083-7.631" transform="translate(-38.939 3.455)" fill="#505ea3"/>
        <path id="Trazado_881807" data-name="Trazado 881807" d="M35.263,23.234c2.816,1.542.555,7.981-4.155,6.578s-3.141-10.576,4.155-6.578" transform="translate(11.622 3.259)" fill="#505ea3"/>
      </g>
    </g>
  </g>
</svg>
