<svg xmlns="http://www.w3.org/2000/svg" xmlns:xlink="http://www.w3.org/1999/xlink" width="119.586" height="189" viewBox="0 0 119.586 189">
  <defs>
    <clipPath id="clip-path">
      <rect id="Rectángulo_404931" data-name="Rectángulo 404931" width="99.199" height="91.827" fill="#36c59d"/>
    </clipPath>
    <clipPath id="clip-path-2">
      <rect id="Rectángulo_405402" data-name="Rectángulo 405402" width="98.427" height="167.644" fill="none"/>
    </clipPath>
    <clipPath id="clip-path-4">
      <rect id="Rectángulo_405399" data-name="Rectángulo 405399" width="98.427" height="58.562" transform="translate(0 109.082)" fill="none"/>
    </clipPath>
  </defs>
  <g id="Grupo_1110698" data-name="Grupo 1110698" transform="translate(13317.293 11989)">
    <g id="Grupo_1106629" data-name="Grupo 1106629">
      <g id="Grupo_1106626" data-name="Grupo 1106626" transform="matrix(-0.966, 0.259, -0.259, -0.966, -13197.707, -11825.675)">
        <g id="Grupo_1105513" data-name="Grupo 1105513" transform="translate(0 0)" clip-path="url(#clip-path)">
          <path id="Trazado_883823" data-name="Trazado 883823" d="M32.582,86.8c-5.947-4.136-10.82-10.277-14.788-16.307C9.291,57.56-1.752,40.439.234,24.256,1.492,14.018,10.628,7.964,20.116,6.222,40.3,2.515,89.558-10.677,97.816,18.3,102.922,36.2,93.08,59.111,81.643,72.68c-7.949,9.433-19.605,18.23-32.328,19.091A25.732,25.732,0,0,1,32.582,86.8" transform="translate(0 0)" fill="#36c59d"/>
        </g>
      </g>
      <g id="Grupo_1106627" data-name="Grupo 1106627" transform="translate(-13315.293 -11989)">
        <g id="Grupo_1106624" data-name="Grupo 1106624" clip-path="url(#clip-path-2)">
          <g id="Grupo_1106623" data-name="Grupo 1106623">
            <g id="Grupo_1106622" data-name="Grupo 1106622" clip-path="url(#clip-path-2)">
              <g id="Grupo_1106621" data-name="Grupo 1106621" opacity="0.3" style="mix-blend-mode: multiply;isolation: isolate">
                <g id="Grupo_1106620" data-name="Grupo 1106620">
                  <g id="Grupo_1106619" data-name="Grupo 1106619" clip-path="url(#clip-path-4)">
                    <path id="Trazado_884583" data-name="Trazado 884583" d="M43.378,166.265,2.715,142.093a4.555,4.555,0,0,1,.118-8.384l41.4-23.357a11.7,11.7,0,0,1,10.813.109l40.662,24.171a4.553,4.553,0,0,1-.117,8.384l-41.4,23.359a11.709,11.709,0,0,1-10.813-.11m23.865-29.759c-3.234-3.647-8.258-6.4-14.973-8.186l-21.088,11.9c3.241,3.648,8.263,6.4,14.971,8.186Z" fill="#60690e"/>
                  </g>
                </g>
              </g>
              <path id="Trazado_884584" data-name="Trazado 884584" d="M96.617,137.667l.058-8.234a3.172,3.172,0,0,1-1.9,2.6l-.058,8.234a3.176,3.176,0,0,0,1.9-2.6" fill="#b3b3b3"/>
              <path id="Trazado_884585" data-name="Trazado 884585" d="M52.106,116.969l-.058,8.234q12.781,3.223,18.01,10.706l.058-8.234q-5.226-7.48-18.01-10.706" fill="#5b646e"/>
              <path id="Trazado_884586" data-name="Trazado 884586" d="M28.494,130.291l-.058,8.234L52.048,125.2l.058-8.233Z" fill="#5b646e"/>
              <path id="Trazado_884587" data-name="Trazado 884587" d="M28.45,134.817q5.24,7.48,18.01,10.706L70.072,132.2q-5.226-7.479-18.01-10.706Z" fill="#b3b3b3"/>
              <path id="Trazado_884588" data-name="Trazado 884588" d="M46.5,141l-.058,8.234,23.612-13.323.058-8.234Z" fill="#b3b3b3"/>
              <path id="Trazado_884589" data-name="Trazado 884589" d="M1.937,128.532l-.058,8.234a3.146,3.146,0,0,0,1.814,2.6l.058-8.234a3.144,3.144,0,0,1-1.814-2.6" fill="#b3b3b3"/>
              <path id="Trazado_884590" data-name="Trazado 884590" d="M28.494,130.291l-.058,8.234q5.24,7.48,18.01,10.706L46.5,141q-12.77-3.225-18.01-10.706" fill="#b3b3b3"/>
              <path id="Trazado_884591" data-name="Trazado 884591" d="M3.752,131.128l-.058,8.234,40.662,24.171.058-8.234Z" fill="#b3b3b3"/>
              <path id="Trazado_884592" data-name="Trazado 884592" d="M53.378,155.389l-.058,8.234,41.4-23.359.058-8.234Z" fill="#b3b3b3"/>
              <path id="Trazado_884593" data-name="Trazado 884593" d="M45.232,102.577a9.88,9.88,0,0,1,8.964.089l40.662,24.171c2.455,1.459,2.419,3.782-.081,5.192l-41.4,23.359a9.882,9.882,0,0,1-8.965-.088L3.752,131.128c-2.45-1.456-2.414-3.784.08-5.192ZM46.5,141l23.612-13.323q-5.226-7.479-18.01-10.706L28.494,130.291q5.24,7.48,18.01,10.706" fill="#fff"/>
              <path id="Trazado_884594" data-name="Trazado 884594" d="M44.413,155.3l-.058,8.234a9.88,9.88,0,0,0,8.964.088l.059-8.233a9.885,9.885,0,0,1-8.965-.089" fill="#b3b3b3"/>
              <path id="Trazado_884595" data-name="Trazado 884595" d="M58.609,130.982l1.961-1.114.207-16.262-1.961,1.114Z" fill="#6a533a"/>
              <path id="Trazado_884596" data-name="Trazado 884596" d="M58.815,114.72l1.961-1.114-4.987-2.945-1.961,1.114Z" fill="#aa865e"/>
              <path id="Trazado_884597" data-name="Trazado 884597" d="M53.828,111.774l-.207,16.262,4.987,2.946.207-16.263Z" fill="#997954"/>
              <path id="Trazado_884598" data-name="Trazado 884598" d="M48.606,136.626l1.961-1.114.207-16.262-1.961,1.114Z" fill="#6a533a"/>
              <path id="Trazado_884599" data-name="Trazado 884599" d="M48.813,120.363l1.961-1.114L45.787,116.3l-1.961,1.113Z" fill="#aa865e"/>
              <path id="Trazado_884600" data-name="Trazado 884600" d="M43.826,117.418l-.207,16.262,4.987,2.946.207-16.262Z" fill="#997954"/>
              <path id="Trazado_884601" data-name="Trazado 884601" d="M30.456,123.022l-.031,4.391a29.485,29.485,0,0,0,11.831,7.033l.031-4.391a29.485,29.485,0,0,1-11.831-7.033" fill="#343b42"/>
              <path id="Trazado_884602" data-name="Trazado 884602" d="M42.287,130.055l-.031,4.391,25.761-14.535.031-4.391Z" fill="#343b42"/>
              <path id="Trazado_884603" data-name="Trazado 884603" d="M30.456,123.022a29.485,29.485,0,0,0,11.831,7.033L68.048,115.52a29.485,29.485,0,0,0-11.831-7.033Z" fill="#a5b5c7"/>
              <path id="Trazado_884604" data-name="Trazado 884604" d="M49.089,94.221l7.078,4.207a1.234,1.234,0,0,0-1.244.108l-7.079-4.207a1.236,1.236,0,0,1,1.245-.108" fill="#a5b5c7"/>
              <path id="Trazado_884605" data-name="Trazado 884605" d="M51.265,100.6l-7.078-4.207,3.658-2.064,7.078,4.207Z" fill="#a5b5c7"/>
              <path id="Trazado_884606" data-name="Trazado 884606" d="M42.128,127.765l-7.078-4.207c.065-9.229,6.083-14.272,7.377-24.44a3.917,3.917,0,0,1,1.76-2.725l7.077,4.208a3.917,3.917,0,0,0-1.759,2.724c-1.294,10.168-7.312,15.212-7.377,24.44" fill="#a5b5c7"/>
              <path id="Trazado_884607" data-name="Trazado 884607" d="M54.923,98.537c.877-.5,1.612-.171,1.733.753,1.157,8.785,7.156,7.049,7.09,16.278l-21.618,12.2c.066-9.228,6.082-14.272,7.378-24.44a3.912,3.912,0,0,1,1.758-2.724Z" fill="#343b42"/>
              <path id="Trazado_884608" data-name="Trazado 884608" d="M54.723,95.849l-.011,1.09a2.56,2.56,0,0,1-1.529,2.088,8.05,8.05,0,0,1-7.286-.072,2.562,2.562,0,0,1-1.488-2.118l.011-1.09Z" fill="#a5b5c7"/>
              <path id="Trazado_884609" data-name="Trazado 884609" d="M45.95,93.659c-2.023,1.142-2.042,3.025-.042,4.206a8.05,8.05,0,0,0,7.286.072c2.023-1.141,2.042-3.025.041-4.206a8.051,8.051,0,0,0-7.285-.072" fill="#fff"/>
              <path id="Trazado_884610" data-name="Trazado 884610" d="M45.98,95.685s1.594-21.648,1.594-21.648L52,74.093l1.169,21.664A1.752,1.752,0,0,1,52.1,97.292a5.627,5.627,0,0,1-5.089-.049,1.743,1.743,0,0,1-1.033-1.558" fill="#ccc"/>
              <path id="Trazado_884611" data-name="Trazado 884611" d="M47.574,74.037l1.621,1.3-.938,22.385a4.412,4.412,0,0,1-1.244-.48,1.741,1.741,0,0,1-1.033-1.557s1.594-21.649,1.594-21.649" fill="#999"/>
              <path id="Trazado_884612" data-name="Trazado 884612" d="M51.362,73.231c-1.655-.978-4.435.022-3.655,1.3A1.453,1.453,0,0,0,48.22,75a3.456,3.456,0,0,0,3.124.031.953.953,0,0,0,.018-1.805" fill="#e6e6e6"/>
              <path id="Trazado_884613" data-name="Trazado 884613" d="M52.252,48.757,52,74.141a1.1,1.1,0,0,1-.657.9,3.47,3.47,0,0,1-3.126-.031,1.422,1.422,0,0,1-.511-.477.8.8,0,0,1-.126-.433l.252-25.384a1.1,1.1,0,0,1,.656-.9,3.453,3.453,0,0,1,3.124.031,1.1,1.1,0,0,1,.639.91" fill="#ccc"/>
              <path id="Trazado_884614" data-name="Trazado 884614" d="M51.613,47.847a1.1,1.1,0,0,1,.639.91L52,74.141a1.1,1.1,0,0,1-.657.9,3.42,3.42,0,0,1-2.15.3L49.47,47.5a3.41,3.41,0,0,1,2.143.344" fill="#e6e6e6"/>
              <path id="Trazado_884615" data-name="Trazado 884615" d="M48.489,47.816a2.869,2.869,0,0,1,.981-.313l-.276,27.834a2.908,2.908,0,0,1-.976-.33,1.407,1.407,0,0,1-.511-.478.786.786,0,0,1-.126-.432l.251-25.384a1.1,1.1,0,0,1,.657-.9" fill="#999"/>
              <path id="Trazado_884616" data-name="Trazado 884616" d="M51.613,47.847c-1.655-.978-4.435.022-3.655,1.3a1.453,1.453,0,0,0,.513.476,3.453,3.453,0,0,0,3.124.031.953.953,0,0,0,.018-1.805" fill="#e6e6e6"/>
              <path id="Trazado_884617" data-name="Trazado 884617" d="M51.073,51.5l3.477-1.975a4.546,4.546,0,0,0,.048-3.776l-3.477,1.975a4.546,4.546,0,0,1-.048,3.776" fill="#b3b3b3"/>
              <path id="Trazado_884618" data-name="Trazado 884618" d="M51.121,47.724,54.6,45.749,43.679,39.3,40.2,41.275Z" fill="#e6e6e6"/>
              <path id="Trazado_884619" data-name="Trazado 884619" d="M39.865,42.971a6.07,6.07,0,0,0,.3,1.458l3.448,3.125,5.536,3.27,1.928.677a4.544,4.544,0,0,0,.048-3.777L40.2,41.275a2.564,2.564,0,0,0-.27.707,3.378,3.378,0,0,0-.067.989" fill="#ccc"/>
              <path id="Trazado_884620" data-name="Trazado 884620" d="M39.865,42.971l7.5,4.427.01-1.021-7.44-4.4a3.378,3.378,0,0,0-.067.989" fill="#ff1f30"/>
              <path id="Trazado_884621" data-name="Trazado 884621" d="M57.246,51.7,72.212,79.621l-.009.92L54.269,53.113Z" fill="#e6e6e6"/>
              <path id="Trazado_884622" data-name="Trazado 884622" d="M55.995,47.674c.019-1.862-1.281-2.63-2.9-1.715a6.456,6.456,0,0,0-2.97,5.029c-.018,1.861,1.282,2.629,2.9,1.714a6.452,6.452,0,0,0,2.97-5.028" fill="#e6e6e6"/>
              <rect id="Rectángulo_405400" data-name="Rectángulo 405400" width="8.259" height="2.879" transform="translate(50.959 52.887) rotate(-59.435)" fill="#e6e6e6"/>
              <path id="Trazado_884623" data-name="Trazado 884623" d="M58.475,49.138c.018-1.862-1.281-2.63-2.9-1.714a6.454,6.454,0,0,0-2.97,5.028c-.018,1.861,1.282,2.629,2.9,1.714a6.449,6.449,0,0,0,2.97-5.028" fill="#ccc"/>
              <path id="Trazado_884624" data-name="Trazado 884624" d="M58.475,49.138c.018-1.862-1.281-2.63-2.9-1.714a6.454,6.454,0,0,0-2.97,5.028c-.018,1.861,1.282,2.629,2.9,1.714a6.449,6.449,0,0,0,2.97-5.028" fill="#ccc"/>
              <path id="Trazado_884625" data-name="Trazado 884625" d="M58.438,49.954c.014-1.4-.965-1.979-2.186-1.29a4.86,4.86,0,0,0-2.236,3.786c-.014,1.4.965,1.98,2.186,1.291a4.863,4.863,0,0,0,2.236-3.787" fill="#e6e6e6"/>
              <path id="Trazado_884626" data-name="Trazado 884626" d="M57.729,46,57.3,47.042a3.613,3.613,0,0,1-1.989-.4c-.981-.535-.777-1.055-.777-1.055l.368-.788c.323-.61,3.127.49,2.824,1.21" fill="gray"/>
              <path id="Trazado_884627" data-name="Trazado 884627" d="M51.257,49.973A2.1,2.1,0,0,1,52.5,52.241c-.082.738-.5,1.258-1.282,1.127-1.056-.178-1.43-1.5-1.43-1.5s-.241-2.409,1.473-1.891" fill="gray"/>
              <path id="Trazado_884628" data-name="Trazado 884628" d="M57.321,45.6c-.086.571-2.231-.326-1.89-.823l.373-.813-.659-4.226L74.281.988A1.772,1.772,0,0,1,76.455.1l.324.114Z" fill="#e6e6e6"/>
              <path id="Trazado_884629" data-name="Trazado 884629" d="M50.186,50.862c.882-.445,1.913,1.58.917,2.048L14.793,70.425Z" fill="#e6e6e6"/>
            </g>
          </g>
        </g>
      </g>
    </g>
  </g>
</svg>
