<svg xmlns="http://www.w3.org/2000/svg" xmlns:xlink="http://www.w3.org/1999/xlink" width="119.586" height="126.373" viewBox="0 0 119.586 126.373">
  <defs>
    <clipPath id="clip-path">
      <rect id="Rect치ngulo_404931" data-name="Rect치ngulo 404931" width="99.199" height="91.827" fill="#16998e"/>
    </clipPath>
    <clipPath id="clip-path-2">
      <rect id="Rect치ngulo_404926" data-name="Rect치ngulo 404926" width="79.684" height="104.815" fill="none"/>
    </clipPath>
  </defs>
  <g id="Grupo_1110696" data-name="Grupo 1110696" transform="translate(13611.451 11923)">
    <g id="Grupo_1105517" data-name="Grupo 1105517">
      <g id="Grupo_1105516" data-name="Grupo 1105516" transform="matrix(-0.966, 0.259, -0.259, -0.966, -13491.865, -11822.302)">
        <g id="Grupo_1105513" data-name="Grupo 1105513" transform="translate(0 0)" clip-path="url(#clip-path)">
          <path id="Trazado_883823" data-name="Trazado 883823" d="M32.582,86.8c-5.947-4.136-10.82-10.277-14.788-16.307C9.291,57.56-1.752,40.439.234,24.256,1.492,14.018,10.628,7.964,20.116,6.222,40.3,2.515,89.558-10.677,97.816,18.3,102.922,36.2,93.08,59.111,81.643,72.68c-7.949,9.433-19.605,18.23-32.328,19.091A25.732,25.732,0,0,1,32.582,86.8" transform="translate(0 0)" fill="#16998e"/>
        </g>
      </g>
      <g id="Grupo_1105507" data-name="Grupo 1105507" transform="translate(-13591.5 -11923)">
        <g id="Grupo_1105506" data-name="Grupo 1105506" clip-path="url(#clip-path-2)">
          <path id="Trazado_883791" data-name="Trazado 883791" d="M47.761,102.659c-4.513,2.606-11.341,2.889-15.25.633s-3.418-6.2,1.095-8.805,11.341-2.889,15.25-.632,3.419,6.2-1.095,8.8" fill="#53433f"/>
          <path id="Trazado_883792" data-name="Trazado 883792" d="M59.256,88.807c.028-.342,0-26.081,0-26.081l-37.15,2.58V90.93c-.188,2.625,1.292,5.156,4.519,7.02,6.725,3.882,18.47,3.4,26.234-1.088,4-2.311,6.163-5.234,6.4-8.055" fill="#dfd7d5"/>
          <path id="Trazado_883793" data-name="Trazado 883793" d="M59.256,81.167c-.234,2.821-2.393,5.744-6.4,8.056-7.764,4.483-19.51,4.97-26.234,1.087-2.891-1.668-4.375-3.874-4.519-6.2v1.856c-.188,2.625,1.291,5.157,4.519,7.02,6.724,3.882,18.47,3.395,26.234-1.088,4-2.311,6.163-5.234,6.4-8.055.01-.128.009-2.774,0-2.673" fill="#d2c5c2"/>
          <path id="Trazado_883794" data-name="Trazado 883794" d="M59.256,72.467c-.234,2.822-2.393,5.745-6.4,8.056-7.764,4.483-19.51,4.97-26.234,1.087-2.891-1.668-4.375-3.874-4.519-6.2v1.856c-.188,2.625,1.291,5.157,4.519,7.02,6.724,3.882,18.47,3.4,26.234-1.088,4-2.311,6.163-5.234,6.4-8.055.01-.127.009-2.774,0-2.673" fill="#d2c5c2"/>
          <path id="Trazado_883795" data-name="Trazado 883795" d="M79.684,39.842A39.842,39.842,0,1,1,39.843,0,39.841,39.841,0,0,1,79.684,39.842" fill="#fbf35d"/>
          <path id="Trazado_883796" data-name="Trazado 883796" d="M56.65,20.318,46.415,14.475c-7.168,4.477-14.008,13.7-17.62,24.836-3.215,9.908-3.136,19.07-.41,25.147l1.56.89.034.02-.064-.036-.4,1.244,10.235,5.843c7.168-4.477,14.009-13.7,17.621-24.836s3.074-21.337-.717-27.265" fill="#375c0b"/>
          <path id="Trazado_883797" data-name="Trazado 883797" d="M56.65,20.318c-7.167,4.477-14.008,13.7-17.621,24.836-3.215,9.908-3.135,19.071-.408,25.148l15.6-42.486-14.471,44.6c7.167-4.477,14.008-13.7,17.621-24.837s3.074-21.336-.717-27.264" fill="#7d0"/>
          <path id="Trazado_883798" data-name="Trazado 883798" d="M39.029,45.154C42.641,34.021,49.482,24.8,56.65,20.319h0L46.415,14.475c-7.168,4.477-14.008,13.7-17.62,24.836-3.215,9.908-3.137,19.07-.41,25.147l1.56.89.759.434L38.62,70.3c-2.727-6.076-2.806-15.239.409-25.147" fill="#04b558"/>
          <path id="Trazado_883799" data-name="Trazado 883799" d="M51.18,72.882A39.841,39.841,0,0,1,25.323,2.73,39.846,39.846,0,1,0,65.7,70.153,39.743,39.743,0,0,1,51.18,72.882" fill="#f9db5d"/>
          <path id="Trazado_883800" data-name="Trazado 883800" d="M37.7,29.155a12.546,12.546,0,0,0-1.233-5.028,54.57,54.57,0,0,0-7.675,15.185q-.422,1.3-.766,2.579A12.684,12.684,0,0,0,37.7,29.155" fill="#d1d10e"/>
        </g>
      </g>
    </g>
  </g>
</svg>
